{
  "title" : "",
  "description" : "",
  "author" : "",
  "targetLoudness" : -18.0,
  "shouldApplyLoudnessNormalization" : false,
  "videoPlaybackRate" : 30,
  "audioPlaybackRate" : 44100,
  "width" : 1280.0,
  "height" : 720.0,
  "version" : "3.0",
  "editRate" : 30,
  "authoringClientName" :  {
    "name" : "Camtasia",
    "platform" : "Windows",
    "version" : "19.0"
  },
  "sourceBin" : [
    {
      "id" : 1,
      "src" : "D:\\Data Files\\Udemy\\Instructor\\Codestars\\Course-Prep-Splash\\Camtasia9TemplateWindows\\codestars_logo.png",
      "rect" : [0, 0, 1061, 168],
      "lastMod" : "20200128T043621",
      "sourceTracks" : [
        {
          "range" : [0, 1],
          "type" : 1,
          "editRate" : 10000000,
          "trackRect" : [0, 0, 1061, 168],
          "sampleRate" : 0,
          "bitDepth" : 32,
          "numChannels" : 0,
          "integratedLUFS" : 100.0,
          "peakLevel" : -1.0,
          "metaData" : ""
        }
      ]
    },
    {
      "id" : 2,
      "src" : "D:\\Data Files\\Udemy\\Instructor\\Codestars\\Course-Prep-Splash\\Camtasia9TemplateWindows\\star.png",
      "rect" : [0, 0, 199, 206],
      "lastMod" : "20200128T043621",
      "sourceTracks" : [
        {
          "range" : [0, 1],
          "type" : 1,
          "editRate" : 10000000,
          "trackRect" : [0, 0, 199, 206],
          "sampleRate" : 0,
          "bitDepth" : 32,
          "numChannels" : 0,
          "integratedLUFS" : 100.0,
          "peakLevel" : -1.0,
          "metaData" : ""
        }
      ]
    },
    {
      "id" : 3,
      "src" : "D:\\Data Files\\Udemy\\Instructor\\Codestars\\Course-Prep-Splash\\Camtasia-JPB-CPP\\Splash_Android.png",
      "rect" : [0, 0, 1920, 1080],
      "lastMod" : "20200201T225340",
      "sourceTracks" : [
        {
          "range" : [0, 1],
          "type" : 1,
          "editRate" : 10000000,
          "trackRect" : [0, 0, 1920, 1080],
          "sampleRate" : 0,
          "bitDepth" : 32,
          "numChannels" : 0,
          "integratedLUFS" : 100.0,
          "peakLevel" : -1.0,
          "metaData" : ""
        }
      ]
    },
    {
      "id" : 4,
      "src" : "C:\\Users\\profj\\Desktop\\Udemy\\Codestars\\CPP\\videos\\Course-Prep-Splash\\JPB-Images\\PNG\\Head.png",
      "rect" : [0, 0, 721, 1024],
      "lastMod" : "20200203T062252",
      "sourceTracks" : [
        {
          "range" : [0, 1],
          "type" : 1,
          "editRate" : 10000000,
          "trackRect" : [0, 0, 721, 1024],
          "sampleRate" : 0,
          "bitDepth" : 32,
          "numChannels" : 0,
          "integratedLUFS" : 100.0,
          "peakLevel" : -1.0,
          "metaData" : ""
        }
      ]
    },
    {
      "id" : 5,
      "src" : "C:\\Users\\profj\\Documents\\Camtasia\\Rec 03-02-20_003.trec",
      "rect" : [0, 0, 1920, 1080],
      "lastMod" : "20200303T030017",
      "sourceTracks" : [
        {
          "range" : [0, 16777],
          "type" : 0,
          "editRate" : 30,
          "trackRect" : [0, 0, 1920, 1080],
          "sampleRate" : 29,
          "bitDepth" : 0,
          "numChannels" : 0,
          "integratedLUFS" : 100.0,
          "peakLevel" : -1.0,
          "metaData" : "Rec 03-02-20_003.trec;"
        },
        {
          "range" : [0, 24653824],
          "type" : 2,
          "editRate" : 44100,
          "trackRect" : [0, 0, 0, 0],
          "sampleRate" : 44100,
          "bitDepth" : 16,
          "numChannels" : 2,
          "integratedLUFS" : -26.6926371189511,
          "peakLevel" : 1.0,
          "metaData" : ""
        },
        {
          "range" : [0, 24662016],
          "type" : 2,
          "editRate" : 44100,
          "trackRect" : [0, 0, 0, 0],
          "sampleRate" : 44100,
          "bitDepth" : 16,
          "numChannels" : 2,
          "integratedLUFS" : -1.79769313486232e+308,
          "peakLevel" : 0.0,
          "metaData" : ""
        }
      ]
    },
    {
      "id" : 6,
      "src" : "C:\\Users\\profj\\Desktop\\Udemy\\Codestars\\CPP\\videos\\section3\\_intro-bulletpoints\\s3-lec2-intro-control-structures\\Slide1.PNG",
      "rect" : [0, 0, 1280, 720],
      "lastMod" : "20200303T023149",
      "sourceTracks" : [
        {
          "range" : [0, 1],
          "type" : 1,
          "editRate" : 10000000,
          "trackRect" : [0, 0, 1280, 720],
          "sampleRate" : 0,
          "bitDepth" : 24,
          "numChannels" : 0,
          "integratedLUFS" : 100.0,
          "peakLevel" : -1.0,
          "metaData" : ""
        }
      ]
    },
    {
      "id" : 7,
      "src" : "C:\\Users\\profj\\Desktop\\Udemy\\Codestars\\CPP\\videos\\section3\\_intro-bulletpoints\\s3-lec2-intro-control-structures\\Slide2.PNG",
      "rect" : [0, 0, 1280, 720],
      "lastMod" : "20200303T023149",
      "sourceTracks" : [
        {
          "range" : [0, 1],
          "type" : 1,
          "editRate" : 10000000,
          "trackRect" : [0, 0, 1280, 720],
          "sampleRate" : 0,
          "bitDepth" : 24,
          "numChannels" : 0,
          "integratedLUFS" : 100.0,
          "peakLevel" : -1.0,
          "metaData" : ""
        }
      ]
    }
  ],
  "timeline" : {
    "id" : 8,
    "sceneTrack" : {
      "scenes" : [
        {
          "duration" : 456.7,
          "title" : "",
          "type" : "",
          "csml" : {
            "tracks" : [
              {
                "trackIndex" : 0,
                "medias" : [
                  {
                    "id" : 9,
                    "_type" : "IMFile",
                    "src" : 3,
                    "trackNumber" : 0,
                    "trimStartSum" : 0,
                    "attributes" : {
                      "ident" : "Splash_Android"
                    },
                    "parameters" : {
                      "translation0" : {
                        "type" : "double",
                        "defaultValue" : 0.00456702366917246,
                        "interp" : "eioe"
                      },
                      "translation1" : {
                        "type" : "double",
                        "defaultValue" : -0.00256895081391425,
                        "interp" : "eioe"
                      },
                      "scale0" : {
                        "type" : "double",
                        "defaultValue" : 0.666671423982989,
                        "interp" : "eioe"
                      },
                      "scale1" : {
                        "type" : "double",
                        "defaultValue" : 0.666671423982989,
                        "interp" : "eioe"
                      }
                    },
                    "effects" : [

                    ],
                    "start" : 13551,
                    "duration" : 150,
                    "mediaStart" : 0,
                    "mediaDuration" : 1,
                    "scalar" : 1,
                    "metadata" : {
                      "WinSubProjectDisplayName" : "",
                      "clipSpeedAttribute" : false,
                      "default-scale" : "0.666667",
                      "effectApplied" : "none"
                    },
                    "animationTracks" : {

                    }
                  }
                ],
                "transitions" : [
                  {
                    "name" : "Fade",
                    "duration" : 30,
                    "trivial" : true,
                    "useAudioPreRoll" : false,
                    "useVisualPreRoll" : true,
                    "rightMedia" : 9
                  },
                  {
                    "name" : "Fade",
                    "duration" : 30,
                    "trivial" : true,
                    "useAudioPreRoll" : false,
                    "useVisualPreRoll" : true,
                    "leftMedia" : 9
                  }
                ]
              },
              {
                "trackIndex" : 1,
                "medias" : [
                  {
                    "id" : 10,
                    "_type" : "IMFile",
                    "src" : 2,
                    "trackNumber" : 0,
                    "trimStartSum" : 0,
                    "attributes" : {
                      "ident" : "star"
                    },
                    "parameters" : {
                      "translation0" : {
                        "type" : "double",
                        "defaultValue" : -522.733906099372,
                        "interp" : "linr"
                      },
                      "translation1" : {
                        "type" : "double",
                        "defaultValue" : -277.438113851611,
                        "interp" : "linr"
                      },
                      "translation2" : {
                        "type" : "double",
                        "defaultValue" : 0.0,
                        "interp" : "linr"
                      },
                      "rotation0" : {
                        "type" : "double",
                        "defaultValue" : 0.0,
                        "interp" : "linr"
                      },
                      "rotation1" : {
                        "type" : "double",
                        "defaultValue" : 0.0,
                        "interp" : "linr"
                      },
                      "rotation2" : {
                        "type" : "double",
                        "defaultValue" : 0.0,
                        "interp" : "linr"
                      },
                      "shear0" : {
                        "type" : "double",
                        "defaultValue" : 0.0,
                        "interp" : "linr"
                      },
                      "shear1" : {
                        "type" : "double",
                        "defaultValue" : 0.0,
                        "interp" : "linr"
                      },
                      "shear2" : {
                        "type" : "double",
                        "defaultValue" : 0.0,
                        "interp" : "linr"
                      },
                      "scale0" : {
                        "type" : "double",
                        "defaultValue" : 0.344059357782636,
                        "interp" : "linr"
                      },
                      "scale1" : {
                        "type" : "double",
                        "defaultValue" : 0.344059357782636,
                        "interp" : "linr"
                      },
                      "scale2" : {
                        "type" : "double",
                        "defaultValue" : 1.0,
                        "interp" : "linr"
                      },
                      "anchor0" : {
                        "type" : "double",
                        "defaultValue" : 0.0,
                        "interp" : "linr"
                      },
                      "anchor1" : {
                        "type" : "double",
                        "defaultValue" : 0.0,
                        "interp" : "linr"
                      },
                      "anchor2" : {
                        "type" : "double",
                        "defaultValue" : 0.0,
                        "interp" : "linr"
                      },
                      "opacity" : {
                        "type" : "double",
                        "defaultValue" : 1.0,
                        "interp" : "linr",
                        "keyframes" : [
                          {
                            "endTime" : 150,
                            "time" : 120,
                            "value" : 0.0,
                            "duration" : 30
                          }
                        ]
                      }
                    },
                    "effects" : [

                    ],
                    "start" : 13551,
                    "duration" : 150,
                    "mediaStart" : 0,
                    "mediaDuration" : 1,
                    "scalar" : 1,
                    "metadata" : {
                      "WinSubProjectDisplayName" : "",
                      "clipSpeedAttribute" : false,
                      "default-opacity" : 0.0,
                      "default-scale" : "1",
                      "effectApplied" : "none"
                    },
                    "animationTracks" : {
                      "visual" : [
                        {
                          "endTime" : 150,
                          "duration" : 30,
                          "range" : [ 120, 30]
                        }
                      ]
                    }
                  }
                ],
                "transitions" : [
                  {
                    "name" : "Fade",
                    "duration" : 30,
                    "trivial" : true,
                    "useAudioPreRoll" : true,
                    "useVisualPreRoll" : true,
                    "rightMedia" : 10
                  },
                  {
                    "name" : "Fade",
                    "duration" : 30,
                    "trivial" : true,
                    "useAudioPreRoll" : true,
                    "useVisualPreRoll" : true,
                    "leftMedia" : 10
                  }
                ]
              },
              {
                "trackIndex" : 2,
                "medias" : [
                  {
                    "id" : 11,
                    "_type" : "IMFile",
                    "src" : 1,
                    "trackNumber" : 0,
                    "trimStartSum" : 0,
                    "attributes" : {
                      "ident" : "codestars_logo"
                    },
                    "parameters" : {
                      "translation0" : {
                        "type" : "double",
                        "defaultValue" : -263.136792317664,
                        "interp" : "linr"
                      },
                      "translation1" : {
                        "type" : "double",
                        "defaultValue" : -271.784183685799,
                        "interp" : "linr"
                      },
                      "translation2" : {
                        "type" : "double",
                        "defaultValue" : 0.0,
                        "interp" : "linr"
                      },
                      "rotation0" : {
                        "type" : "double",
                        "defaultValue" : 0.0,
                        "interp" : "linr"
                      },
                      "rotation1" : {
                        "type" : "double",
                        "defaultValue" : 0.0,
                        "interp" : "linr"
                      },
                      "rotation2" : {
                        "type" : "double",
                        "defaultValue" : 0.0,
                        "interp" : "linr"
                      },
                      "shear0" : {
                        "type" : "double",
                        "defaultValue" : 0.0,
                        "interp" : "linr"
                      },
                      "shear1" : {
                        "type" : "double",
                        "defaultValue" : 0.0,
                        "interp" : "linr"
                      },
                      "shear2" : {
                        "type" : "double",
                        "defaultValue" : 0.0,
                        "interp" : "linr"
                      },
                      "scale0" : {
                        "type" : "double",
                        "defaultValue" : 0.402192662926175,
                        "interp" : "linr"
                      },
                      "scale1" : {
                        "type" : "double",
                        "defaultValue" : 0.402192662926175,
                        "interp" : "linr"
                      },
                      "scale2" : {
                        "type" : "double",
                        "defaultValue" : 1.0,
                        "interp" : "linr"
                      },
                      "anchor0" : {
                        "type" : "double",
                        "defaultValue" : 0.0,
                        "interp" : "linr"
                      },
                      "anchor1" : {
                        "type" : "double",
                        "defaultValue" : 0.0,
                        "interp" : "linr"
                      },
                      "anchor2" : {
                        "type" : "double",
                        "defaultValue" : 0.0,
                        "interp" : "linr"
                      },
                      "opacity" : {
                        "type" : "double",
                        "defaultValue" : 0.0,
                        "interp" : "linr"
                      }
                    },
                    "effects" : [

                    ],
                    "start" : 13551,
                    "duration" : 150,
                    "mediaStart" : 0,
                    "mediaDuration" : 1,
                    "scalar" : 1,
                    "metadata" : {
                      "WinSubProjectDisplayName" : "",
                      "clipSpeedAttribute" : false,
                      "default-scale" : "1",
                      "effectApplied" : "none"
                    },
                    "animationTracks" : {

                    }
                  }
                ],
                "transitions" : [
                  {
                    "name" : "Fade",
                    "duration" : 30,
                    "trivial" : true,
                    "useAudioPreRoll" : true,
                    "useVisualPreRoll" : true,
                    "rightMedia" : 11
                  },
                  {
                    "name" : "Fade",
                    "duration" : 30,
                    "trivial" : true,
                    "useAudioPreRoll" : true,
                    "useVisualPreRoll" : true,
                    "leftMedia" : 11
                  }
                ]
              },
              {
                "trackIndex" : 3,
                "medias" : [
                  {
                    "id" : 12,
                    "_type" : "IMFile",
                    "src" : 3,
                    "trackNumber" : 0,
                    "trimStartSum" : 0,
                    "attributes" : {
                      "ident" : "Splash_Android"
                    },
                    "parameters" : {
                      "translation0" : -0.00456702364154329,
                      "translation1" : -6.87439439981899,
                      "scale0" : 0.666671423982989,
                      "scale1" : 0.666671423982989
                    },
                    "effects" : [

                    ],
                    "start" : 0,
                    "duration" : 150,
                    "mediaStart" : 0,
                    "mediaDuration" : 1,
                    "scalar" : 1,
                    "metadata" : {
                      "WinSubProjectDisplayName" : "",
                      "clipSpeedAttribute" : false,
                      "default-scale" : "0.666667",
                      "default-translation0" : 0.00456702366917246,
                      "default-translation1" : -0.00256895081391425,
                      "effectApplied" : "none"
                    },
                    "animationTracks" : {

                    }
                  },
                  {
                    "id" : 13,
                    "_type" : "IMFile",
                    "src" : 1,
                    "trackNumber" : 0,
                    "trimStartSum" : 0,
                    "attributes" : {
                      "ident" : "codestars_logo"
                    },
                    "parameters" : {
                      "translation0" : {
                        "type" : "double",
                        "defaultValue" : -263.136792317664,
                        "interp" : "linr"
                      },
                      "translation1" : {
                        "type" : "double",
                        "defaultValue" : -271.784183685799,
                        "interp" : "linr"
                      },
                      "translation2" : {
                        "type" : "double",
                        "defaultValue" : 0.0,
                        "interp" : "linr"
                      },
                      "rotation0" : {
                        "type" : "double",
                        "defaultValue" : 0.0,
                        "interp" : "linr"
                      },
                      "rotation1" : {
                        "type" : "double",
                        "defaultValue" : 0.0,
                        "interp" : "linr"
                      },
                      "rotation2" : {
                        "type" : "double",
                        "defaultValue" : 0.0,
                        "interp" : "linr"
                      },
                      "shear0" : {
                        "type" : "double",
                        "defaultValue" : 0.0,
                        "interp" : "linr"
                      },
                      "shear1" : {
                        "type" : "double",
                        "defaultValue" : 0.0,
                        "interp" : "linr"
                      },
                      "shear2" : {
                        "type" : "double",
                        "defaultValue" : 0.0,
                        "interp" : "linr"
                      },
                      "scale0" : {
                        "type" : "double",
                        "defaultValue" : 0.402192662926175,
                        "interp" : "linr"
                      },
                      "scale1" : {
                        "type" : "double",
                        "defaultValue" : 0.402192662926175,
                        "interp" : "linr"
                      },
                      "scale2" : {
                        "type" : "double",
                        "defaultValue" : 1.0,
                        "interp" : "linr"
                      },
                      "anchor0" : {
                        "type" : "double",
                        "defaultValue" : 0.0,
                        "interp" : "linr"
                      },
                      "anchor1" : {
                        "type" : "double",
                        "defaultValue" : 0.0,
                        "interp" : "linr"
                      },
                      "anchor2" : {
                        "type" : "double",
                        "defaultValue" : 0.0,
                        "interp" : "linr"
                      }
                    },
                    "effects" : [

                    ],
                    "start" : 13551,
                    "duration" : 150,
                    "mediaStart" : 0,
                    "mediaDuration" : 1,
                    "scalar" : 1,
                    "metadata" : {
                      "WinSubProjectDisplayName" : "",
                      "clipSpeedAttribute" : false,
                      "default-scale" : "1",
                      "effectApplied" : "none"
                    },
                    "animationTracks" : {

                    }
                  }
                ],
                "transitions" : [
                  {
                    "name" : "Fade",
                    "duration" : 30,
                    "trivial" : true,
                    "useAudioPreRoll" : false,
                    "useVisualPreRoll" : true,
                    "leftMedia" : 12
                  },
                  {
                    "name" : "Fade",
                    "duration" : 30,
                    "trivial" : true,
                    "useAudioPreRoll" : true,
                    "useVisualPreRoll" : true,
                    "rightMedia" : 13
                  },
                  {
                    "name" : "Fade",
                    "duration" : 30,
                    "trivial" : true,
                    "useAudioPreRoll" : true,
                    "useVisualPreRoll" : true,
                    "leftMedia" : 13
                  }
                ]
              },
              {
                "trackIndex" : 4,
                "medias" : [
                  {
                    "id" : 14,
                    "_type" : "IMFile",
                    "src" : 2,
                    "trackNumber" : 0,
                    "trimStartSum" : 0,
                    "attributes" : {
                      "ident" : "star"
                    },
                    "parameters" : {
                      "translation0" : {
                        "type" : "double",
                        "defaultValue" : -640.0,
                        "interp" : "linr",
                        "keyframes" : [
                          {
                            "endTime" : 30,
                            "time" : 0,
                            "value" : -522.733906099372,
                            "duration" : 30
                          }
                        ]
                      },
                      "translation1" : {
                        "type" : "double",
                        "defaultValue" : -0.0,
                        "interp" : "linr",
                        "keyframes" : [
                          {
                            "endTime" : 30,
                            "time" : 0,
                            "value" : -277.438113851611,
                            "duration" : 30
                          }
                        ]
                      },
                      "translation2" : {
                        "type" : "double",
                        "defaultValue" : 0.0,
                        "interp" : "linr"
                      },
                      "rotation0" : {
                        "type" : "double",
                        "defaultValue" : 0.0,
                        "interp" : "linr"
                      },
                      "rotation1" : {
                        "type" : "double",
                        "defaultValue" : 0.0,
                        "interp" : "linr"
                      },
                      "rotation2" : {
                        "type" : "double",
                        "defaultValue" : 6.28318530717959,
                        "interp" : "linr",
                        "keyframes" : [
                          {
                            "endTime" : 30,
                            "time" : 0,
                            "value" : 0.0,
                            "duration" : 30
                          }
                        ]
                      },
                      "shear0" : {
                        "type" : "double",
                        "defaultValue" : 0.0,
                        "interp" : "linr"
                      },
                      "shear1" : {
                        "type" : "double",
                        "defaultValue" : 0.0,
                        "interp" : "linr"
                      },
                      "shear2" : {
                        "type" : "double",
                        "defaultValue" : 0.0,
                        "interp" : "linr"
                      },
                      "scale0" : {
                        "type" : "double",
                        "defaultValue" : 0.0,
                        "interp" : "linr",
                        "keyframes" : [
                          {
                            "endTime" : 30,
                            "time" : 0,
                            "value" : 0.344059357782636,
                            "duration" : 30
                          }
                        ]
                      },
                      "scale1" : {
                        "type" : "double",
                        "defaultValue" : 0.0,
                        "interp" : "linr",
                        "keyframes" : [
                          {
                            "endTime" : 30,
                            "time" : 0,
                            "value" : 0.344059357782636,
                            "duration" : 30
                          }
                        ]
                      },
                      "scale2" : {
                        "type" : "double",
                        "defaultValue" : 1.0,
                        "interp" : "linr"
                      },
                      "anchor0" : {
                        "type" : "double",
                        "defaultValue" : 0.0,
                        "interp" : "linr"
                      },
                      "anchor1" : {
                        "type" : "double",
                        "defaultValue" : 0.0,
                        "interp" : "linr"
                      },
                      "anchor2" : {
                        "type" : "double",
                        "defaultValue" : 0.0,
                        "interp" : "linr"
                      },
                      "opacity" : {
                        "type" : "double",
                        "defaultValue" : 1.0,
                        "keyframes" : [
                          {
                            "endTime" : 150,
                            "time" : 120,
                            "value" : 0.0,
                            "duration" : 30
                          }
                        ]
                      }
                    },
                    "effects" : [

                    ],
                    "start" : 0,
                    "duration" : 150,
                    "mediaStart" : 0,
                    "mediaDuration" : 1,
                    "scalar" : 1,
                    "metadata" : {
                      "WinSubProjectDisplayName" : "",
                      "clipSpeedAttribute" : false,
                      "default-scale" : "1",
                      "effectApplied" : "none"
                    },
                    "animationTracks" : {
                      "visual" : [
                        {
                          "endTime" : 30,
                          "duration" : 30,
                          "range" : [ 0, 30]
                        },
                        {
                          "endTime" : 150,
                          "duration" : 30,
                          "range" : [ 120, 30]
                        }
                      ]
                    }
                  },
                  {
                    "id" : 15,
                    "_type" : "Callout",
                    "def" : {
                      "kind" : "TypeWinText",
                      "shape" : "",
                      "style" : "",
                      "Style" : {
                        "type" : "double",
                        "defaultValue" : 5.0,
                        "interp" : "linr"
                      },
                      "dimensionTime" : {
                        "type" : "double",
                        "defaultValue" : 0.0,
                        "interp" : "linr"
                      },
                      "height" : {
                        "type" : "double",
                        "defaultValue" : 180.0,
                        "interp" : "linr"
                      },
                      "line-spacing" : {
                        "type" : "double",
                        "defaultValue" : 0.0,
                        "interp" : "linr"
                      },
                      "textIgnoresOpacity" : {
                        "type" : "double",
                        "defaultValue" : 0.0,
                        "interp" : "linr"
                      },
                      "textRectHeight" : {
                        "type" : "double",
                        "defaultValue" : 1.0,
                        "interp" : "linr"
                      },
                      "textRectWidth" : {
                        "type" : "double",
                        "defaultValue" : 1.0,
                        "interp" : "linr"
                      },
                      "textRectX" : {
                        "type" : "double",
                        "defaultValue" : 0.0,
                        "interp" : "linr"
                      },
                      "textRectY" : {
                        "type" : "double",
                        "defaultValue" : 0.0,
                        "interp" : "linr"
                      },
                      "textVerticalAlign" : {
                        "type" : "double",
                        "defaultValue" : -1.0,
                        "interp" : "linr"
                      },
                      "width" : {
                        "type" : "double",
                        "defaultValue" : 320.0,
                        "interp" : "linr"
                      },
                      "filename" : "C:\\Program Files\\TechSmith\\Camtasia 9\\Media\\Studio\\Callouts\\trans_100x100.xml",
                      "horizontal-alignment" : "center",
                      "name" : "Text",
                      "text" : "{\\rtf1\\ansi\\ansicpg1252\\deff0\\nouicompat\\deflang1033{\\fonttbl{\\f0\\fnil\\fcharset0 Quicksand;}}\r\n{\\colortbl ;\\red255\\green255\\blue255;}\r\n{\\*\\generator Riched20 10.0.18362}\\viewkind4\\uc1 \r\n\\pard\\cf1\\f0\\fs80 The Complete\\par\r\n\\b\\fs90 C++ Developer Course\\par\r\n}\r\n",
                      "vertical-alignment" : "center",
                      "xmlContent" : "﻿<?xml version=\"1.0\"?>\n\n<Overlay version=\"1.0.1\">\n\n<Overlay_Filename>trans_100x100.png</Overlay_Filename>\n<Overlay_Name>Text</Overlay_Name>\n<Text_Top>0</Text_Top>\n<Text_Left>0</Text_Left>\n<Text_Bottom>0</Text_Bottom>\n<Text_Right>0</Text_Right>\n<Fill_Color>0</Fill_Color>\n<Border_Color>0</Border_Color>\n<Style>5</Style>\n</Overlay>",
                      "textAttributes" : {
                        "type" : "textAttributeList",
                        "keyframes" : [
                          {
                            "endTime" : 0,
                            "time" : 0,
                            "value" : null,
                            "duration" : 0
                          }
                        ]
                      }
                    },
                    "attributes" : {
                      "autoRotateText" : true
                    },
                    "parameters" : {
                      "translation0" : {
                        "type" : "double",
                        "defaultValue" : -70.9521418731169,
                        "interp" : "eioe"
                      },
                      "translation1" : {
                        "type" : "double",
                        "defaultValue" : 239.738828503294,
                        "interp" : "eioe"
                      },
                      "scale0" : {
                        "type" : "double",
                        "defaultValue" : 3.12385809835021,
                        "interp" : "eioe"
                      },
                      "scale1" : {
                        "type" : "double",
                        "defaultValue" : 1.00002854389906,
                        "interp" : "eioe"
                      }
                    },
                    "effects" : [

                    ],
                    "start" : 13551,
                    "duration" : 150,
                    "mediaStart" : 0,
                    "mediaDuration" : 150,
                    "scalar" : 1,
                    "metadata" : {
                      "WinSubProjectDisplayName" : "",
                      "clipSpeedAttribute" : false,
                      "default-legacy-fill-style" : 5.0,
                      "default-legacy-text-callout-vertical-align" : "middle",
                      "default-scale0" : 1.0,
                      "default-scale1" : 1.0,
                      "default-text" : "{\\rtf1\\ansi\\ansicpg1252\\deff0\\deflang1033{\\fonttbl{\\f0\\fswiss\\fprq2\\fcharset0 Arial;}}{\\colortbl ;\\red255\\green255\\blue255;}\\viewkind4\\uc1\\pard\\qc\\cf1\\fs72 abc}",
                      "default-translation0" : 0.0,
                      "default-translation1" : 0.0
                    },
                    "animationTracks" : {

                    }
                  }
                ],
                "transitions" : [
                  {
                    "name" : "Fade",
                    "duration" : 30,
                    "trivial" : true,
                    "useAudioPreRoll" : true,
                    "useVisualPreRoll" : true,
                    "rightMedia" : 15
                  },
                  {
                    "name" : "Fade",
                    "duration" : 30,
                    "trivial" : true,
                    "useAudioPreRoll" : true,
                    "useVisualPreRoll" : true,
                    "leftMedia" : 15
                  }
                ]
              },
              {
                "trackIndex" : 5,
                "medias" : [
                  {
                    "id" : 16,
                    "_type" : "Callout",
                    "def" : {
                      "kind" : "remix",
                      "shape" : "text",
                      "style" : "bold",
                      "height" : 250.0,
                      "line-spacing" : 0.0,
                      "width" : 1035.85760517811,
                      "word-wrap" : 1.0,
                      "horizontal-alignment" : "left",
                      "text" : "Control Statements\rControl Statements Introduction",
                      "vertical-alignment" : "center",
                      "font" : {
                        "color-blue" : 1.0,
                        "color-green" : 1.0,
                        "color-red" : 1.0,
                        "size" : 96.0,
                        "tracking" : 0.0,
                        "name" : "Source Sans Pro",
                        "weight" : "Semi Bold"
                      },
                      "textAttributes" : {
                        "type" : "textAttributeList",
                        "keyframes" : [
                          {
                            "endTime" : 0,
                            "time" : 0,
                            "value" : [{"name":"fontSize","rangeEnd":50,"rangeStart":19,"value":52,"valueType":"double"},{"name":"underline","rangeEnd":50,"rangeStart":0,"value":0,"valueType":"int"},{"name":"fgColor","rangeEnd":50,"rangeStart":0,"value":"(255,255,255,255)","valueType":"color"},{"name":"kerning","rangeEnd":50,"rangeStart":0,"value":0,"valueType":"double"},{"name":"fontItalic","rangeEnd":50,"rangeStart":0,"value":0,"valueType":"int"},{"name":"fontSize","rangeEnd":19,"rangeStart":0,"value":55,"valueType":"double"},{"name":"fontWeight","rangeEnd":50,"rangeStart":19,"value":400,"valueType":"int"},{"name":"strikethrough","rangeEnd":50,"rangeStart":0,"value":0,"valueType":"int"},{"name":"fontWeight","rangeEnd":19,"rangeStart":0,"value":700,"valueType":"int"},{"name":"fontName","rangeEnd":50,"rangeStart":0,"value":"Quicksand","valueType":"string"}],
                            "duration" : 0
                          }
                        ]
                      }
                    },
                    "attributes" : {
                      "autoRotateText" : true
                    },
                    "parameters" : {
                      "translation0" : {
                        "type" : "double",
                        "defaultValue" : -913.412651778095,
                        "keyframes" : [
                          {
                            "endTime" : 38,
                            "time" : 8,
                            "value" : 98.5873482219166,
                            "duration" : 30
                          }
                        ]
                      },
                      "translation1" : {
                        "type" : "double",
                        "defaultValue" : -34.812002943898,
                        "keyframes" : [
                          {
                            "endTime" : 38,
                            "time" : 8,
                            "value" : -34.8120029438544,
                            "duration" : 30
                          }
                        ]
                      }
                    },
                    "effects" : [
                        {
                          "effectName" : "DropShadow",
                          "category" : "categoryVisualEffects",
                          "parameters" : {
                            "angle" : {
                              "type" : "double",
                              "defaultValue" : 5.49778714378214,
                              "uiHints" : {
                                "userInterfaceType" : 0,
                                "unitType" : 0
                              },
                              "keyframes" : [
                                {
                                  "endTime" : 38,
                                  "time" : 8,
                                  "value" : 5.49778714378214,
                                  "duration" : 30
                                }
                              ]
                            },
                            "blur" : 10.0,
                            "color-alpha" : 1.0,
                            "color-blue" : 0.1216,
                            "color-green" : 0.1216,
                            "color-red" : 0.1216,
                            "enabled" : 1,
                            "offset" : 10.0,
                            "opacity" : 0.4
                          }
                        }
                    ],
                    "start" : 35,
                    "duration" : 115,
                    "mediaStart" : 8,
                    "mediaDuration" : 115,
                    "scalar" : 1,
                    "metadata" : {
                      "WinSubProjectDisplayName" : "",
                      "clipSpeedAttribute" : false,
                      "default-HAlign" : "center",
                      "default-LineSpace" : 0.0,
                      "default-VAlign" : "center",
                      "default-text-attributes" : "[{\"name\":\"fontWeight\",\"rangeEnd\":37,\"rangeStart\":26,\"value\":100,\"valueType\":\"int\"},{\"name\":\"underline\",\"rangeEnd\":37,\"rangeStart\":0,\"value\":0,\"valueType\":\"int\"},{\"name\":\"fontWeight\",\"rangeEnd\":26,\"rangeStart\":0,\"value\":700,\"valueType\":\"int\"},{\"name\":\"fgColor\",\"rangeEnd\":37,\"rangeStart\":0,\"value\":\"(255,255,255,255)\",\"valueType\":\"color\"},{\"name\":\"fontSize\",\"rangeEnd\":26,\"rangeStart\":0,\"value\":55,\"valueType\":\"double\"},{\"name\":\"fontItalic\",\"rangeEnd\":37,\"rangeStart\":0,\"value\":0,\"valueType\":\"int\"},{\"name\":\"strikethrough\",\"rangeEnd\":37,\"rangeStart\":0,\"value\":0,\"valueType\":\"int\"},{\"name\":\"fontName\",\"rangeEnd\":37,\"rangeStart\":0,\"value\":\"Quicksand\",\"valueType\":\"string\"},{\"name\":\"fontSize\",\"rangeEnd\":37,\"rangeStart\":26,\"value\":52,\"valueType\":\"double\"}]",
                      "default-translation0" : 204.5,
                      "default-translation1" : 0.0
                    },
                    "animationTracks" : {
                      "visual" : [
                        {
                          "endTime" : 38,
                          "duration" : 30,
                          "range" : [ 8, 30]
                        }
                      ]
                    }
                  },
                  {
                    "id" : 17,
                    "_type" : "IMFile",
                    "src" : 4,
                    "trackNumber" : 0,
                    "trimStartSum" : 0,
                    "attributes" : {
                      "ident" : "Head"
                    },
                    "parameters" : {
                      "translation0" : {
                        "type" : "double",
                        "defaultValue" : 537.015153862789,
                        "interp" : "eioe"
                      },
                      "translation1" : {
                        "type" : "double",
                        "defaultValue" : -206.400000000049,
                        "interp" : "eioe"
                      },
                      "scale0" : {
                        "type" : "double",
                        "defaultValue" : 0.35,
                        "interp" : "eioe"
                      },
                      "scale1" : {
                        "type" : "double",
                        "defaultValue" : 0.35,
                        "interp" : "eioe"
                      }
                    },
                    "effects" : [

                    ],
                    "start" : 13551,
                    "duration" : 150,
                    "mediaStart" : 0,
                    "mediaDuration" : 1,
                    "scalar" : 1,
                    "metadata" : {
                      "WinSubProjectDisplayName" : "",
                      "clipSpeedAttribute" : false,
                      "default-scale0" : 0.703125,
                      "default-scale1" : 0.703125,
                      "default-translation0" : 0.0,
                      "default-translation1" : 0.0
                    },
                    "animationTracks" : {

                    }
                  }
                ],
                "transitions" : [
                  {
                    "name" : "Fade",
                    "duration" : 30,
                    "trivial" : true,
                    "useAudioPreRoll" : true,
                    "useVisualPreRoll" : true,
                    "leftMedia" : 16
                  },
                  {
                    "name" : "Fade",
                    "duration" : 30,
                    "trivial" : false,
                    "useAudioPreRoll" : true,
                    "useVisualPreRoll" : true,
                    "rightMedia" : 17
                  },
                  {
                    "name" : "Fade",
                    "duration" : 30,
                    "trivial" : false,
                    "useAudioPreRoll" : true,
                    "useVisualPreRoll" : true,
                    "leftMedia" : 17
                  }
                ]
              },
              {
                "trackIndex" : 6,
                "medias" : [
                  {
                    "id" : 18,
                    "_type" : "Callout",
                    "def" : {
                      "kind" : "TypeWinText",
                      "shape" : "",
                      "style" : "",
                      "Style" : 5.0,
                      "dimensionTime" : 0.0,
                      "height" : 180.0,
                      "line-spacing" : 0.0,
                      "textIgnoresOpacity" : 0.0,
                      "textRectHeight" : 1.0,
                      "textRectWidth" : 1.0,
                      "textRectX" : 0.0,
                      "textRectY" : 0.0,
                      "textVerticalAlign" : 0.0,
                      "width" : 320.0,
                      "filename" : "C:\\Program Files\\TechSmith\\Camtasia 9\\Media\\Studio\\Callouts\\trans_100x100.xml",
                      "horizontal-alignment" : "center",
                      "name" : "Text",
                      "text" : "{\\rtf1\\ansi\\ansicpg1252\\deff0\\nouicompat\\deflang1033{\\fonttbl{\\f0\\fnil\\fcharset0 Quicksand;}}\r\n{\\colortbl ;\\red255\\green255\\blue255;}\r\n{\\*\\generator Riched20 10.0.18362}\\viewkind4\\uc1 \r\n\\pard\\qc\\cf1\\b\\f0\\fs124 #\\fs256 3\\fs72\\par\r\n}\r\n",
                      "vertical-alignment" : "center",
                      "xmlContent" : "﻿<?xml version=\"1.0\"?>\n\n<Overlay version=\"1.0.1\">\n\n<Overlay_Filename>trans_100x100.png</Overlay_Filename>\n<Overlay_Name>Text</Overlay_Name>\n<Text_Top>0</Text_Top>\n<Text_Left>0</Text_Left>\n<Text_Bottom>0</Text_Bottom>\n<Text_Right>0</Text_Right>\n<Fill_Color>0</Fill_Color>\n<Border_Color>0</Border_Color>\n<Style>5</Style>\n</Overlay>",
                      "textAttributes" : {
                        "type" : "textAttributeList",
                        "keyframes" : [
                          {
                            "endTime" : 0,
                            "time" : 0,
                            "value" : null,
                            "duration" : 0
                          }
                        ]
                      }
                    },
                    "attributes" : {
                      "autoRotateText" : true
                    },
                    "parameters" : {
                      "translation0" : {
                        "type" : "double",
                        "defaultValue" : -820.538865370044,
                        "keyframes" : [
                          {
                            "endTime" : 65,
                            "time" : 35,
                            "value" : -488.499999999933,
                            "duration" : 30
                          }
                        ]
                      },
                      "translation1" : {
                        "type" : "double",
                        "defaultValue" : -34.8120029438978,
                        "keyframes" : [
                          {
                            "endTime" : 65,
                            "time" : 35,
                            "value" : -34.8120029438634,
                            "duration" : 30
                          }
                        ]
                      },
                      "scale0" : {
                        "type" : "double",
                        "defaultValue" : 0.580906148866913,
                        "keyframes" : [
                          {
                            "endTime" : 65,
                            "time" : 35,
                            "value" : 0.580906148866913,
                            "duration" : 30
                          }
                        ]
                      },
                      "scale1" : {
                        "type" : "double",
                        "defaultValue" : 1.43801063442563,
                        "keyframes" : [
                          {
                            "endTime" : 65,
                            "time" : 35,
                            "value" : 1.43801063442563,
                            "duration" : 30
                          }
                        ]
                      }
                    },
                    "effects" : [

                    ],
                    "start" : 35,
                    "duration" : 115,
                    "mediaStart" : 35,
                    "mediaDuration" : 115,
                    "scalar" : 1,
                    "metadata" : {
                      "WinSubProjectDisplayName" : "",
                      "clipSpeedAttribute" : false,
                      "default-legacy-fill-style" : 5.0,
                      "default-legacy-text-callout-vertical-align" : "middle",
                      "default-rotation2" : 0.0,
                      "default-scale0" : 1.0,
                      "default-scale1" : 1.0,
                      "default-text" : "{\\rtf1\\ansi\\ansicpg1252\\deff0\\deflang1033{\\fonttbl{\\f0\\fswiss\\fprq2\\fcharset0 Arial;}}{\\colortbl ;\\red255\\green255\\blue255;}\\viewkind4\\uc1\\pard\\qc\\cf1\\fs72 abc}",
                      "default-translation0" : 0.0,
                      "default-translation1" : 0.0
                    },
                    "animationTracks" : {
                      "visual" : [
                        {
                          "endTime" : 65,
                          "duration" : 30,
                          "range" : [ 35, 30]
                        }
                      ]
                    }
                  }
                ],
                "transitions" : [
                  {
                    "name" : "Fade",
                    "duration" : 30,
                    "trivial" : true,
                    "useAudioPreRoll" : true,
                    "useVisualPreRoll" : true,
                    "leftMedia" : 18
                  }
                ]
              },
              {
                "trackIndex" : 7,
                "medias" : [
                  {
                    "id" : 19,
                    "_type" : "IMFile",
                    "src" : 1,
                    "trackNumber" : 0,
                    "trimStartSum" : 0,
                    "attributes" : {
                      "ident" : "codestars_logo"
                    },
                    "parameters" : {
                      "translation0" : {
                        "type" : "double",
                        "defaultValue" : -263.136792317664,
                        "interp" : "linr"
                      },
                      "translation1" : {
                        "type" : "double",
                        "defaultValue" : -271.784183685799,
                        "interp" : "linr"
                      },
                      "translation2" : {
                        "type" : "double",
                        "defaultValue" : 0.0,
                        "interp" : "linr"
                      },
                      "rotation0" : {
                        "type" : "double",
                        "defaultValue" : 0.0,
                        "interp" : "linr"
                      },
                      "rotation1" : {
                        "type" : "double",
                        "defaultValue" : 0.0,
                        "interp" : "linr"
                      },
                      "rotation2" : {
                        "type" : "double",
                        "defaultValue" : 0.0,
                        "interp" : "linr"
                      },
                      "shear0" : {
                        "type" : "double",
                        "defaultValue" : 0.0,
                        "interp" : "linr"
                      },
                      "shear1" : {
                        "type" : "double",
                        "defaultValue" : 0.0,
                        "interp" : "linr"
                      },
                      "shear2" : {
                        "type" : "double",
                        "defaultValue" : 0.0,
                        "interp" : "linr"
                      },
                      "scale0" : {
                        "type" : "double",
                        "defaultValue" : 0.402192662926175,
                        "interp" : "linr"
                      },
                      "scale1" : {
                        "type" : "double",
                        "defaultValue" : 0.402192662926175,
                        "interp" : "linr"
                      },
                      "scale2" : {
                        "type" : "double",
                        "defaultValue" : 1.0,
                        "interp" : "linr"
                      },
                      "anchor0" : {
                        "type" : "double",
                        "defaultValue" : 0.0,
                        "interp" : "linr"
                      },
                      "anchor1" : {
                        "type" : "double",
                        "defaultValue" : 0.0,
                        "interp" : "linr"
                      },
                      "anchor2" : {
                        "type" : "double",
                        "defaultValue" : 0.0,
                        "interp" : "linr"
                      }
                    },
                    "effects" : [

                    ],
                    "start" : 0,
                    "duration" : 150,
                    "mediaStart" : 0,
                    "mediaDuration" : 1,
                    "scalar" : 1,
                    "metadata" : {
                      "WinSubProjectDisplayName" : "",
                      "clipSpeedAttribute" : false,
                      "default-scale" : "1",
                      "effectApplied" : "none"
                    },
                    "animationTracks" : {

                    }
                  }
                ],
                "transitions" : [
                  {
                    "name" : "Fade",
                    "duration" : 30,
                    "trivial" : true,
                    "useAudioPreRoll" : true,
                    "useVisualPreRoll" : true,
                    "leftMedia" : 19
                  }
                ]
              },
              {
                "trackIndex" : 8,
                "medias" : [
                ]
              },
              {
                "trackIndex" : 9,
                "medias" : [
                  {
                    "id" : 20,
                    "_type" : "Callout",
                    "def" : {
                      "kind" : "TypeWinText",
                      "shape" : "",
                      "style" : "",
                      "Style" : 5.0,
                      "dimensionTime" : 0.0,
                      "height" : 180.0,
                      "line-spacing" : 0.0,
                      "textIgnoresOpacity" : 0.0,
                      "textRectHeight" : 1.0,
                      "textRectWidth" : 1.0,
                      "textRectX" : 0.0,
                      "textRectY" : 0.0,
                      "textVerticalAlign" : -1.0,
                      "width" : 320.0,
                      "filename" : "C:\\Program Files\\TechSmith\\Camtasia 9\\Media\\Studio\\Callouts\\trans_100x100.xml",
                      "horizontal-alignment" : "center",
                      "name" : "Text",
                      "text" : "{\\rtf1\\ansi\\ansicpg1252\\deff0\\nouicompat\\deflang1033{\\fonttbl{\\f0\\fnil\\fcharset0 Quicksand;}}\r\n{\\colortbl ;\\red255\\green255\\blue255;}\r\n{\\*\\generator Riched20 10.0.18362}\\viewkind4\\uc1 \r\n\\pard\\cf1\\f0\\fs80 The Complete\\par\r\n\\b\\fs90 C++ Developer Course\\par\r\n}\r\n",
                      "vertical-alignment" : "center",
                      "xmlContent" : "﻿<?xml version=\"1.0\"?>\n\n<Overlay version=\"1.0.1\">\n\n<Overlay_Filename>trans_100x100.png</Overlay_Filename>\n<Overlay_Name>Text</Overlay_Name>\n<Text_Top>0</Text_Top>\n<Text_Left>0</Text_Left>\n<Text_Bottom>0</Text_Bottom>\n<Text_Right>0</Text_Right>\n<Fill_Color>0</Fill_Color>\n<Border_Color>0</Border_Color>\n<Style>5</Style>\n</Overlay>",
                      "textAttributes" : {
                        "type" : "textAttributeList",
                        "keyframes" : [
                          {
                            "endTime" : 0,
                            "time" : 0,
                            "value" : null,
                            "duration" : 0
                          }
                        ]
                      }
                    },
                    "attributes" : {
                      "autoRotateText" : true
                    },
                    "parameters" : {
                      "translation0" : -70.9521418731169,
                      "translation1" : 239.738828503294,
                      "scale0" : 3.12385809835021,
                      "scale1" : 1.00002854389906
                    },
                    "effects" : [

                    ],
                    "start" : 0,
                    "duration" : 150,
                    "mediaStart" : 0,
                    "mediaDuration" : 150,
                    "scalar" : 1,
                    "metadata" : {
                      "WinSubProjectDisplayName" : "",
                      "clipSpeedAttribute" : false,
                      "default-legacy-fill-style" : 5.0,
                      "default-legacy-text-callout-vertical-align" : "middle",
                      "default-scale0" : 1.0,
                      "default-scale1" : 1.0,
                      "default-text" : "{\\rtf1\\ansi\\ansicpg1252\\deff0\\deflang1033{\\fonttbl{\\f0\\fswiss\\fprq2\\fcharset0 Arial;}}{\\colortbl ;\\red255\\green255\\blue255;}\\viewkind4\\uc1\\pard\\qc\\cf1\\fs72 abc}",
                      "default-translation0" : 0.0,
                      "default-translation1" : 0.0
                    },
                    "animationTracks" : {

                    }
                  }
                ],
                "transitions" : [
                  {
                    "name" : "Fade",
                    "duration" : 30,
                    "trivial" : true,
                    "useAudioPreRoll" : true,
                    "useVisualPreRoll" : true,
                    "leftMedia" : 20
                  }
                ]
              },
              {
                "trackIndex" : 10,
                "medias" : [
                  {
                    "id" : 21,
                    "_type" : "IMFile",
                    "src" : 4,
                    "trackNumber" : 0,
                    "trimStartSum" : 0,
                    "attributes" : {
                      "ident" : "Head"
                    },
                    "parameters" : {
                      "translation0" : 513.825000000109,
                      "translation1" : -179.200000000031,
                      "scale0" : 0.35,
                      "scale1" : 0.35
                    },
                    "effects" : [

                    ],
                    "start" : 0,
                    "duration" : 150,
                    "mediaStart" : 0,
                    "mediaDuration" : 1,
                    "scalar" : 1,
                    "metadata" : {
                      "WinSubProjectDisplayName" : "",
                      "clipSpeedAttribute" : false,
                      "default-scale0" : 0.703125,
                      "default-scale1" : 0.703125,
                      "default-translation0" : 0.0,
                      "default-translation1" : 0.0
                    },
                    "animationTracks" : {

                    }
                  }
                ],
                "transitions" : [
                  {
                    "name" : "Fade",
                    "duration" : 30,
                    "trivial" : false,
                    "useAudioPreRoll" : true,
                    "useVisualPreRoll" : true,
                    "leftMedia" : 21
                  }
                ]
              },
              {
                "trackIndex" : 11,
                "medias" : [
                  {
                    "id" : 22,
                    "_type" : "StitchedMedia",
                    "minMediaStart" : 0,
                    "attributes" : {
                      "ident" : "Rec 03-02-20_003",
                      "gain" : 1.0,
                      "mixToMono" : false
                    },
                    "parameters" : {
                      "translation0" : {
                        "type" : "double",
                        "defaultValue" : 0.0,
                        "keyframes" : [
                          {
                            "endTime" : 1514,
                            "time" : 1484,
                            "value" : 44.3938257400296,
                            "duration" : 30
                          },
                          {
                            "endTime" : 1979,
                            "time" : 1949,
                            "value" : -588.865872104475,
                            "duration" : 30
                          },
                          {
                            "endTime" : 2152,
                            "time" : 2122,
                            "value" : 5.7210126588492,
                            "duration" : 30
                          },
                          {
                            "endTime" : 2184,
                            "time" : 2154,
                            "value" : 17.9970292003767,
                            "duration" : 30
                          },
                          {
                            "endTime" : 2289,
                            "time" : 2259,
                            "value" : 381.531730312975,
                            "duration" : 30
                          },
                          {
                            "endTime" : 13225,
                            "time" : 13195,
                            "value" : -0.000116130671271364,
                            "duration" : 30
                          }
                        ]
                      },
                      "translation1" : {
                        "type" : "double",
                        "defaultValue" : 0.0,
                        "keyframes" : [
                          {
                            "endTime" : 1514,
                            "time" : 1484,
                            "value" : -39.1709875528593,
                            "duration" : 30
                          },
                          {
                            "endTime" : 1979,
                            "time" : 1949,
                            "value" : -331.237184016944,
                            "duration" : 30
                          },
                          {
                            "endTime" : 2152,
                            "time" : 2122,
                            "value" : -60.0681096286414,
                            "duration" : 30
                          },
                          {
                            "endTime" : 2184,
                            "time" : 2154,
                            "value" : -36.4434952120173,
                            "duration" : 30
                          },
                          {
                            "endTime" : 2289,
                            "time" : 2259,
                            "value" : -214.611724919857,
                            "duration" : 30
                          },
                          {
                            "endTime" : 10663,
                            "time" : 10633,
                            "value" : -93.1334082820267,
                            "duration" : 30
                          },
                          {
                            "endTime" : 13225,
                            "time" : 13195,
                            "value" : -4.60835935633952e-07,
                            "duration" : 30
                          }
                        ]
                      },
                      "scale0" : {
                        "type" : "double",
                        "defaultValue" : 0.666666666666667,
                        "keyframes" : [
                          {
                            "endTime" : 1514,
                            "time" : 1484,
                            "value" : 1.0293608761995,
                            "duration" : 30
                          },
                          {
                            "endTime" : 1979,
                            "time" : 1949,
                            "value" : 1.28006863838716,
                            "duration" : 30
                          },
                          {
                            "endTime" : 2152,
                            "time" : 2122,
                            "value" : 1.12750663262596,
                            "duration" : 30
                          },
                          {
                            "endTime" : 2184,
                            "time" : 2154,
                            "value" : 1.06409561089652,
                            "duration" : 30
                          },
                          {
                            "endTime" : 2289,
                            "time" : 2259,
                            "value" : 1.06409557665311,
                            "duration" : 30
                          },
                          {
                            "endTime" : 10663,
                            "time" : 10633,
                            "value" : 1.06409554104756,
                            "duration" : 30
                          },
                          {
                            "endTime" : 13225,
                            "time" : 13195,
                            "value" : 0.666666551425789,
                            "duration" : 30
                          }
                        ]
                      },
                      "scale1" : {
                        "type" : "double",
                        "defaultValue" : 0.666666666666667,
                        "keyframes" : [
                          {
                            "endTime" : 1514,
                            "time" : 1484,
                            "value" : 1.0293610485672,
                            "duration" : 30
                          },
                          {
                            "endTime" : 1979,
                            "time" : 1949,
                            "value" : 1.28006885273617,
                            "duration" : 30
                          },
                          {
                            "endTime" : 2152,
                            "time" : 2122,
                            "value" : 1.12750671890496,
                            "duration" : 30
                          },
                          {
                            "endTime" : 2184,
                            "time" : 2154,
                            "value" : 1.06409578416433,
                            "duration" : 30
                          },
                          {
                            "endTime" : 13225,
                            "time" : 13195,
                            "value" : 0.666666699949262,
                            "duration" : 30
                          }
                        ]
                      },
                      "volume" : {
                        "type" : "double",
                        "keyframes" : [
                          {
                            "endTime" : 0,
                            "time" : 0,
                            "value" : 1.0,
                            "duration" : 0
                          },
                          {
                            "endTime" : 12803,
                            "time" : 12803,
                            "value" : 1.0,
                            "duration" : 0
                          },
                          {
                            "endTime" : 12804,
                            "time" : 12804,
                            "value" : 0.0,
                            "duration" : 0
                          },
                          {
                            "endTime" : 12964,
                            "time" : 12964,
                            "value" : 0.0,
                            "duration" : 0
                          },
                          {
                            "endTime" : 12965,
                            "time" : 12965,
                            "value" : 1.0,
                            "duration" : 0
                          },
                          {
                            "endTime" : 13519,
                            "time" : 13519,
                            "value" : 1.0,
                            "duration" : 0
                          },
                          {
                            "endTime" : 13520,
                            "time" : 13520,
                            "value" : 0.0,
                            "duration" : 0
                          },
                          {
                            "endTime" : 13545,
                            "time" : 13545,
                            "value" : 0.0,
                            "duration" : 0
                          },
                          {
                            "endTime" : 13546,
                            "time" : 13546,
                            "value" : 1.0,
                            "duration" : 0
                          }
                        ]
                      },
                      "cursorOpacity" : 1.0,
                      "cursorScale" : 1.0
                    },
                    "medias" : [
                        {
                          "id" : 23,
                          "_type" : "UnifiedMedia",
                          "video" : 
                              {
                                "id" : 24,
                                "_type" : "ScreenVMFile",
                                "src" : 5,
                                "trackNumber" : 0,
                                "attributes" : {
                                  "ident" : "Rec 03-02-20_003"
                                },
                                "parameters" : {
                                  "cursorScale" : {
                                    "type" : "double",
                                    "defaultValue" : 0.0,
                                    "interp" : "linr"
                                  },
                                  "cursorOpacity" : {
                                    "type" : "double",
                                    "defaultValue" : 0.0,
                                    "interp" : "linr"
                                  }
                                },
                                "effects" : [

                                ],
                                "start" : 0,
                                "duration" : 2651,
                                "mediaStart" : 0,
                                "mediaDuration" : 2651,
                                "scalar" : 1,
                                "animationTracks" : {

                                }
                              },
                          "audio" : 
                              {
                                "id" : 25,
                                "_type" : "AMFile",
                                "src" : 5,
                                "trackNumber" : 2,
                                "attributes" : {
                                  "ident" : "",
                                  "sampleRate" : 44100,
                                  "bitDepth" : 16,
                                  "gain" : 1.0,
                                  "mixToMono" : false
                                },
                                  "channelNumber" : "0,1",
                                "effects" : [

                                ],
                                "start" : 0,
                                "duration" : 2651,
                                "mediaStart" : 0,
                                "mediaDuration" : 2651,
                                "scalar" : 1,
                                "animationTracks" : {

                                }
                              }
,
                          "start" : 0,
                          "duration" : 2651,
                          "mediaStart" : 0,
                          "mediaDuration" : 16777,
                          "scalar" : 1,
                          "metadata" : {
                            "AutoAppliedSmartFocus" : "False",
                            "WinSubProjectDisplayName" : "",
                            "clipSpeedAttribute" : false,
                            "default-scale0" : 0.666666666666667,
                            "default-scale1" : 0.666666666666667,
                            "default-translation0" : 0.0,
                            "default-translation1" : 0.0
                          }
                        },
                        {
                          "id" : 26,
                          "_type" : "UnifiedMedia",
                          "video" : 
                              {
                                "id" : 27,
                                "_type" : "ScreenVMFile",
                                "src" : 5,
                                "trackNumber" : 0,
                                "attributes" : {
                                  "ident" : "Rec 03-02-20_003"
                                },
                                "parameters" : {
                                  "cursorScale" : {
                                    "type" : "double",
                                    "defaultValue" : 0.0,
                                    "interp" : "linr"
                                  },
                                  "cursorOpacity" : {
                                    "type" : "double",
                                    "defaultValue" : 0.0,
                                    "interp" : "linr"
                                  }
                                },
                                "effects" : [

                                ],
                                "start" : 2651,
                                "duration" : 187,
                                "mediaStart" : 2958,
                                "mediaDuration" : 187,
                                "scalar" : 1,
                                "animationTracks" : {

                                }
                              },
                          "audio" : 
                              {
                                "id" : 28,
                                "_type" : "AMFile",
                                "src" : 5,
                                "trackNumber" : 2,
                                "attributes" : {
                                  "ident" : "",
                                  "sampleRate" : 44100,
                                  "bitDepth" : 16,
                                  "gain" : 1.0,
                                  "mixToMono" : false
                                },
                                  "channelNumber" : "0,1",
                                "effects" : [

                                ],
                                "start" : 2651,
                                "duration" : 187,
                                "mediaStart" : 2958,
                                "mediaDuration" : 187,
                                "scalar" : 1,
                                "animationTracks" : {

                                }
                              }
,
                          "start" : 2651,
                          "duration" : 187,
                          "mediaStart" : 0,
                          "mediaDuration" : 16777,
                          "scalar" : 1,
                          "metadata" : {
                            "AutoAppliedSmartFocus" : "False",
                            "WinSubProjectDisplayName" : "",
                            "clipSpeedAttribute" : false,
                            "default-scale0" : 0.666666666666667,
                            "default-scale1" : 0.666666666666667,
                            "default-translation0" : 0.0,
                            "default-translation1" : 0.0
                          }
                        },
                        {
                          "id" : 29,
                          "_type" : "UnifiedMedia",
                          "video" : 
                              {
                                "id" : 30,
                                "_type" : "ScreenVMFile",
                                "src" : 5,
                                "trackNumber" : 0,
                                "attributes" : {
                                  "ident" : "Rec 03-02-20_003"
                                },
                                "parameters" : {
                                  "cursorScale" : {
                                    "type" : "double",
                                    "defaultValue" : 0.0,
                                    "interp" : "linr"
                                  },
                                  "cursorOpacity" : {
                                    "type" : "double",
                                    "defaultValue" : 0.0,
                                    "interp" : "linr"
                                  }
                                },
                                "effects" : [

                                ],
                                "start" : 2838,
                                "duration" : 701,
                                "mediaStart" : 3371,
                                "mediaDuration" : 701,
                                "scalar" : 1,
                                "animationTracks" : {

                                }
                              },
                          "audio" : 
                              {
                                "id" : 31,
                                "_type" : "AMFile",
                                "src" : 5,
                                "trackNumber" : 2,
                                "attributes" : {
                                  "ident" : "",
                                  "sampleRate" : 44100,
                                  "bitDepth" : 16,
                                  "gain" : 1.0,
                                  "mixToMono" : false
                                },
                                  "channelNumber" : "0,1",
                                "effects" : [

                                ],
                                "start" : 2838,
                                "duration" : 701,
                                "mediaStart" : 3371,
                                "mediaDuration" : 701,
                                "scalar" : 1,
                                "animationTracks" : {

                                }
                              }
,
                          "start" : 2838,
                          "duration" : 701,
                          "mediaStart" : 0,
                          "mediaDuration" : 16777,
                          "scalar" : 1,
                          "metadata" : {
                            "AutoAppliedSmartFocus" : "False",
                            "WinSubProjectDisplayName" : "",
                            "clipSpeedAttribute" : false,
                            "default-scale0" : 0.666666666666667,
                            "default-scale1" : 0.666666666666667,
                            "default-translation0" : 0.0,
                            "default-translation1" : 0.0
                          }
                        },
                        {
                          "id" : 32,
                          "_type" : "UnifiedMedia",
                          "video" : 
                              {
                                "id" : 33,
                                "_type" : "ScreenVMFile",
                                "src" : 5,
                                "trackNumber" : 0,
                                "attributes" : {
                                  "ident" : "Rec 03-02-20_003"
                                },
                                "parameters" : {
                                  "cursorScale" : {
                                    "type" : "double",
                                    "defaultValue" : 0.0,
                                    "interp" : "linr"
                                  },
                                  "cursorOpacity" : {
                                    "type" : "double",
                                    "defaultValue" : 0.0,
                                    "interp" : "linr"
                                  }
                                },
                                "effects" : [

                                ],
                                "start" : 3539,
                                "duration" : 1068,
                                "mediaStart" : 4375,
                                "mediaDuration" : 1068,
                                "scalar" : 1,
                                "animationTracks" : {

                                }
                              },
                          "audio" : 
                              {
                                "id" : 34,
                                "_type" : "AMFile",
                                "src" : 5,
                                "trackNumber" : 2,
                                "attributes" : {
                                  "ident" : "",
                                  "sampleRate" : 44100,
                                  "bitDepth" : 16,
                                  "gain" : 1.0,
                                  "mixToMono" : false
                                },
                                  "channelNumber" : "0,1",
                                "effects" : [

                                ],
                                "start" : 3539,
                                "duration" : 1068,
                                "mediaStart" : 4375,
                                "mediaDuration" : 1068,
                                "scalar" : 1,
                                "animationTracks" : {

                                }
                              }
,
                          "start" : 3539,
                          "duration" : 1068,
                          "mediaStart" : 0,
                          "mediaDuration" : 16777,
                          "scalar" : 1,
                          "metadata" : {
                            "AutoAppliedSmartFocus" : "False",
                            "WinSubProjectDisplayName" : "",
                            "clipSpeedAttribute" : false,
                            "default-scale0" : 0.666666666666667,
                            "default-scale1" : 0.666666666666667,
                            "default-translation0" : 0.0,
                            "default-translation1" : 0.0
                          }
                        },
                        {
                          "id" : 35,
                          "_type" : "UnifiedMedia",
                          "video" : 
                              {
                                "id" : 36,
                                "_type" : "ScreenVMFile",
                                "src" : 5,
                                "trackNumber" : 0,
                                "attributes" : {
                                  "ident" : "Rec 03-02-20_003"
                                },
                                "parameters" : {
                                  "cursorScale" : {
                                    "type" : "double",
                                    "defaultValue" : 0.0,
                                    "interp" : "linr"
                                  },
                                  "cursorOpacity" : {
                                    "type" : "double",
                                    "defaultValue" : 0.0,
                                    "interp" : "linr"
                                  }
                                },
                                "effects" : [

                                ],
                                "start" : 4607,
                                "duration" : 3325,
                                "mediaStart" : 5573,
                                "mediaDuration" : 3325,
                                "scalar" : 1,
                                "animationTracks" : {

                                }
                              },
                          "audio" : 
                              {
                                "id" : 37,
                                "_type" : "AMFile",
                                "src" : 5,
                                "trackNumber" : 2,
                                "attributes" : {
                                  "ident" : "",
                                  "sampleRate" : 44100,
                                  "bitDepth" : 16,
                                  "gain" : 1.0,
                                  "mixToMono" : false
                                },
                                  "channelNumber" : "0,1",
                                "effects" : [

                                ],
                                "start" : 4607,
                                "duration" : 3325,
                                "mediaStart" : 5573,
                                "mediaDuration" : 3325,
                                "scalar" : 1,
                                "animationTracks" : {

                                }
                              }
,
                          "start" : 4607,
                          "duration" : 3325,
                          "mediaStart" : 0,
                          "mediaDuration" : 16777,
                          "scalar" : 1,
                          "metadata" : {
                            "AutoAppliedSmartFocus" : "False",
                            "WinSubProjectDisplayName" : "",
                            "clipSpeedAttribute" : false,
                            "default-scale0" : 0.666666666666667,
                            "default-scale1" : 0.666666666666667,
                            "default-translation0" : 0.0,
                            "default-translation1" : 0.0
                          }
                        },
                        {
                          "id" : 38,
                          "_type" : "UnifiedMedia",
                          "video" : 
                              {
                                "id" : 39,
                                "_type" : "ScreenVMFile",
                                "src" : 5,
                                "trackNumber" : 0,
                                "attributes" : {
                                  "ident" : "Rec 03-02-20_003"
                                },
                                "parameters" : {
                                  "cursorScale" : {
                                    "type" : "double",
                                    "defaultValue" : 0.0,
                                    "interp" : "linr"
                                  },
                                  "cursorOpacity" : {
                                    "type" : "double",
                                    "defaultValue" : 0.0,
                                    "interp" : "linr"
                                  }
                                },
                                "effects" : [

                                ],
                                "start" : 7932,
                                "duration" : 1285,
                                "mediaStart" : 9345,
                                "mediaDuration" : 1285,
                                "scalar" : 1,
                                "animationTracks" : {

                                }
                              },
                          "audio" : 
                              {
                                "id" : 40,
                                "_type" : "AMFile",
                                "src" : 5,
                                "trackNumber" : 2,
                                "attributes" : {
                                  "ident" : "",
                                  "sampleRate" : 44100,
                                  "bitDepth" : 16,
                                  "gain" : 1.0,
                                  "mixToMono" : false
                                },
                                  "channelNumber" : "0,1",
                                "effects" : [

                                ],
                                "start" : 7932,
                                "duration" : 1285,
                                "mediaStart" : 9345,
                                "mediaDuration" : 1285,
                                "scalar" : 1,
                                "animationTracks" : {

                                }
                              }
,
                          "start" : 7932,
                          "duration" : 1285,
                          "mediaStart" : 0,
                          "mediaDuration" : 16777,
                          "scalar" : 1,
                          "metadata" : {
                            "AutoAppliedSmartFocus" : "False",
                            "WinSubProjectDisplayName" : "",
                            "clipSpeedAttribute" : false,
                            "default-scale0" : 0.666666666666667,
                            "default-scale1" : 0.666666666666667,
                            "default-translation0" : 0.0,
                            "default-translation1" : 0.0
                          }
                        },
                        {
                          "id" : 41,
                          "_type" : "UnifiedMedia",
                          "video" : 
                              {
                                "id" : 42,
                                "_type" : "ScreenVMFile",
                                "src" : 5,
                                "trackNumber" : 0,
                                "attributes" : {
                                  "ident" : "Rec 03-02-20_003"
                                },
                                "parameters" : {
                                  "cursorScale" : {
                                    "type" : "double",
                                    "defaultValue" : 0.0,
                                    "interp" : "linr"
                                  },
                                  "cursorOpacity" : {
                                    "type" : "double",
                                    "defaultValue" : 0.0,
                                    "interp" : "linr"
                                  }
                                },
                                "effects" : [

                                ],
                                "start" : 9217,
                                "duration" : 1622,
                                "mediaStart" : 11065,
                                "mediaDuration" : 1622,
                                "scalar" : 1,
                                "animationTracks" : {

                                }
                              },
                          "audio" : 
                              {
                                "id" : 43,
                                "_type" : "AMFile",
                                "src" : 5,
                                "trackNumber" : 2,
                                "attributes" : {
                                  "ident" : "",
                                  "sampleRate" : 44100,
                                  "bitDepth" : 16,
                                  "gain" : 1.0,
                                  "mixToMono" : false
                                },
                                  "channelNumber" : "0,1",
                                "effects" : [

                                ],
                                "start" : 9217,
                                "duration" : 1622,
                                "mediaStart" : 11065,
                                "mediaDuration" : 1622,
                                "scalar" : 1,
                                "animationTracks" : {

                                }
                              }
,
                          "start" : 9217,
                          "duration" : 1622,
                          "mediaStart" : 0,
                          "mediaDuration" : 16777,
                          "scalar" : 1,
                          "metadata" : {
                            "AutoAppliedSmartFocus" : "False",
                            "WinSubProjectDisplayName" : "",
                            "clipSpeedAttribute" : false,
                            "default-scale0" : 0.666666666666667,
                            "default-scale1" : 0.666666666666667,
                            "default-translation0" : 0.0,
                            "default-translation1" : 0.0
                          }
                        },
                        {
                          "id" : 44,
                          "_type" : "UnifiedMedia",
                          "video" : 
                              {
                                "id" : 45,
                                "_type" : "ScreenVMFile",
                                "src" : 5,
                                "trackNumber" : 0,
                                "attributes" : {
                                  "ident" : "Rec 03-02-20_003"
                                },
                                "parameters" : {
                                  "cursorScale" : {
                                    "type" : "double",
                                    "defaultValue" : 0.0,
                                    "interp" : "linr"
                                  },
                                  "cursorOpacity" : {
                                    "type" : "double",
                                    "defaultValue" : 0.0,
                                    "interp" : "linr"
                                  }
                                },
                                "effects" : [

                                ],
                                "start" : 10839,
                                "duration" : 139,
                                "mediaStart" : 12892,
                                "mediaDuration" : 139,
                                "scalar" : 1,
                                "animationTracks" : {

                                }
                              },
                          "audio" : 
                              {
                                "id" : 46,
                                "_type" : "AMFile",
                                "src" : 5,
                                "trackNumber" : 2,
                                "attributes" : {
                                  "ident" : "",
                                  "sampleRate" : 44100,
                                  "bitDepth" : 16,
                                  "gain" : 1.0,
                                  "mixToMono" : false
                                },
                                  "channelNumber" : "0,1",
                                "effects" : [

                                ],
                                "start" : 10839,
                                "duration" : 139,
                                "mediaStart" : 12892,
                                "mediaDuration" : 139,
                                "scalar" : 1,
                                "animationTracks" : {

                                }
                              }
,
                          "start" : 10839,
                          "duration" : 139,
                          "mediaStart" : 0,
                          "mediaDuration" : 16777,
                          "scalar" : 1,
                          "metadata" : {
                            "AutoAppliedSmartFocus" : "False",
                            "WinSubProjectDisplayName" : "",
                            "clipSpeedAttribute" : false,
                            "default-scale0" : 0.666666666666667,
                            "default-scale1" : 0.666666666666667,
                            "default-translation0" : 0.0,
                            "default-translation1" : 0.0
                          }
                        },
                        {
                          "id" : 47,
                          "_type" : "UnifiedMedia",
                          "video" : 
                              {
                                "id" : 48,
                                "_type" : "ScreenVMFile",
                                "src" : 5,
                                "trackNumber" : 0,
                                "attributes" : {
                                  "ident" : "Rec 03-02-20_003"
                                },
                                "parameters" : {
                                  "cursorScale" : {
                                    "type" : "double",
                                    "defaultValue" : 0.0,
                                    "interp" : "linr"
                                  },
                                  "cursorOpacity" : {
                                    "type" : "double",
                                    "defaultValue" : 0.0,
                                    "interp" : "linr"
                                  }
                                },
                                "effects" : [

                                ],
                                "start" : 10978,
                                "duration" : 1102,
                                "mediaStart" : 13101,
                                "mediaDuration" : 1102,
                                "scalar" : 1,
                                "animationTracks" : {

                                }
                              },
                          "audio" : 
                              {
                                "id" : 49,
                                "_type" : "AMFile",
                                "src" : 5,
                                "trackNumber" : 2,
                                "attributes" : {
                                  "ident" : "",
                                  "sampleRate" : 44100,
                                  "bitDepth" : 16,
                                  "gain" : 1.0,
                                  "mixToMono" : false
                                },
                                  "channelNumber" : "0,1",
                                "effects" : [

                                ],
                                "start" : 10978,
                                "duration" : 1102,
                                "mediaStart" : 13101,
                                "mediaDuration" : 1102,
                                "scalar" : 1,
                                "animationTracks" : {

                                }
                              }
,
                          "start" : 10978,
                          "duration" : 1102,
                          "mediaStart" : 0,
                          "mediaDuration" : 16777,
                          "scalar" : 1,
                          "metadata" : {
                            "AutoAppliedSmartFocus" : "False",
                            "WinSubProjectDisplayName" : "",
                            "clipSpeedAttribute" : false,
                            "default-scale0" : 0.666666666666667,
                            "default-scale1" : 0.666666666666667,
                            "default-translation0" : 0.0,
                            "default-translation1" : 0.0
                          }
                        },
                        {
                          "id" : 50,
                          "_type" : "UnifiedMedia",
                          "video" : 
                              {
                                "id" : 51,
                                "_type" : "ScreenVMFile",
                                "src" : 5,
                                "trackNumber" : 0,
                                "attributes" : {
                                  "ident" : "Rec 03-02-20_003"
                                },
                                "parameters" : {
                                  "cursorScale" : {
                                    "type" : "double",
                                    "defaultValue" : 0.0,
                                    "interp" : "linr"
                                  },
                                  "cursorOpacity" : {
                                    "type" : "double",
                                    "defaultValue" : 0.0,
                                    "interp" : "linr"
                                  }
                                },
                                "effects" : [

                                ],
                                "start" : 12080,
                                "duration" : 1471,
                                "mediaStart" : 15306,
                                "mediaDuration" : 1471,
                                "scalar" : 1,
                                "animationTracks" : {

                                }
                              },
                          "audio" : 
                              {
                                "id" : 52,
                                "_type" : "AMFile",
                                "src" : 5,
                                "trackNumber" : 2,
                                "attributes" : {
                                  "ident" : "",
                                  "sampleRate" : 44100,
                                  "bitDepth" : 16,
                                  "gain" : 1.0,
                                  "mixToMono" : false
                                },
                                  "channelNumber" : "0,1",
                                "effects" : [

                                ],
                                "start" : 12080,
                                "duration" : 1471,
                                "mediaStart" : 15306,
                                "mediaDuration" : 1471,
                                "scalar" : 1,
                                "animationTracks" : {

                                }
                              }
,
                          "start" : 12080,
                          "duration" : 1471,
                          "mediaStart" : 0,
                          "mediaDuration" : 16777,
                          "scalar" : 1,
                          "metadata" : {
                            "AutoAppliedSmartFocus" : "False",
                            "WinSubProjectDisplayName" : "",
                            "clipSpeedAttribute" : false,
                            "default-scale0" : 0.666666666666667,
                            "default-scale1" : 0.666666666666667,
                            "default-translation0" : 0.0,
                            "default-translation1" : 0.0
                          }
                        }
                    ],
                    "effects" : [

                    ],
                    "start" : 1361,
                    "duration" : 12190,
                    "mediaStart" : 1361,
                    "mediaDuration" : 12190,
                    "scalar" : 1,
                    "metadata" : {
                      "AutoAppliedSmartFocus" : "False",
                      "WinSubProjectDisplayName" : "",
                      "clipSpeedAttribute" : false,
                      "default-scale0" : 1.06409554104756,
                      "default-scale1" : 1.06409578416433,
                      "default-translation0" : 381.531730312975,
                      "default-translation1" : -93.1334082820267
                    },
                    "animationTracks" : {
                      "visual" : [
                        {
                          "endTime" : 1514,
                          "duration" : 30,
                          "range" : [ 1484, 30]
                        },
                        {
                          "endTime" : 1979,
                          "duration" : 30,
                          "range" : [ 1949, 30]
                        },
                        {
                          "endTime" : 2152,
                          "duration" : 30,
                          "range" : [ 2122, 30]
                        },
                        {
                          "endTime" : 2184,
                          "duration" : 30,
                          "range" : [ 2154, 30]
                        },
                        {
                          "endTime" : 2289,
                          "duration" : 30,
                          "range" : [ 2259, 30]
                        },
                        {
                          "endTime" : 10663,
                          "duration" : 30,
                          "range" : [ 10633, 30]
                        },
                        {
                          "endTime" : 13225,
                          "duration" : 30,
                          "range" : [ 13195, 30]
                        }
                      ]
                    }
                  }
                ],
                "transitions" : [
                  {
                    "name" : "Fade",
                    "duration" : 30,
                    "trivial" : false,
                    "useAudioPreRoll" : true,
                    "useVisualPreRoll" : true,
                    "rightMedia" : 22
                  },
                  {
                    "name" : "Fade",
                    "duration" : 30,
                    "trivial" : false,
                    "useAudioPreRoll" : true,
                    "useVisualPreRoll" : true,
                    "leftMedia" : 22
                  }
                ]
              },
              {
                "trackIndex" : 12,
                "medias" : [
                  {
                    "id" : 53,
                    "_type" : "StitchedMedia",
                    "minMediaStart" : 0,
                    "attributes" : {
                      "ident" : "Rec 03-02-20_003",
                      "gain" : 1.0,
                      "mixToMono" : false
                    },
                    "parameters" : {
                      "volume" : {
                        "type" : "double",
                        "keyframes" : [
                          {
                            "endTime" : 0,
                            "time" : 0,
                            "value" : 1.0,
                            "duration" : 0
                          },
                          {
                            "endTime" : 12803,
                            "time" : 12803,
                            "value" : 1.0,
                            "duration" : 0
                          },
                          {
                            "endTime" : 12804,
                            "time" : 12804,
                            "value" : 0.0,
                            "duration" : 0
                          },
                          {
                            "endTime" : 12964,
                            "time" : 12964,
                            "value" : 0.0,
                            "duration" : 0
                          },
                          {
                            "endTime" : 12965,
                            "time" : 12965,
                            "value" : 1.0,
                            "duration" : 0
                          },
                          {
                            "endTime" : 13519,
                            "time" : 13519,
                            "value" : 1.0,
                            "duration" : 0
                          },
                          {
                            "endTime" : 13520,
                            "time" : 13520,
                            "value" : 0.0,
                            "duration" : 0
                          },
                          {
                            "endTime" : 13545,
                            "time" : 13545,
                            "value" : 0.0,
                            "duration" : 0
                          },
                          {
                            "endTime" : 13546,
                            "time" : 13546,
                            "value" : 1.0,
                            "duration" : 0
                          }
                        ]
                      },
                      "cursorOpacity" : 1.0,
                      "cursorScale" : 1.0
                    },
                    "medias" : [
                        {
                          "id" : 54,
                          "_type" : "AMFile",
                          "src" : 5,
                          "trackNumber" : 1,
                          "attributes" : {
                            "ident" : "Rec 03-02-20_003",
                            "sampleRate" : 44100,
                            "bitDepth" : 16,
                            "gain" : 1.0,
                            "mixToMono" : false
                          },
                            "channelNumber" : "0,1",
                          "effects" : [

                          ],
                          "start" : 0,
                          "duration" : 2651,
                          "mediaStart" : 0,
                          "mediaDuration" : 2651,
                          "scalar" : 1,
                          "metadata" : {
                            "WinSubProjectDisplayName" : "",
                            "clipSpeedAttribute" : false
                          },
                          "animationTracks" : {

                          }
                        },
                        {
                          "id" : 55,
                          "_type" : "AMFile",
                          "src" : 5,
                          "trackNumber" : 1,
                          "attributes" : {
                            "ident" : "Rec 03-02-20_003",
                            "sampleRate" : 44100,
                            "bitDepth" : 16,
                            "gain" : 1.0,
                            "mixToMono" : false
                          },
                            "channelNumber" : "0,1",
                          "effects" : [

                          ],
                          "start" : 2651,
                          "duration" : 187,
                          "mediaStart" : 2958,
                          "mediaDuration" : 187,
                          "scalar" : 1,
                          "metadata" : {
                            "WinSubProjectDisplayName" : "",
                            "clipSpeedAttribute" : false
                          },
                          "animationTracks" : {

                          }
                        },
                        {
                          "id" : 56,
                          "_type" : "AMFile",
                          "src" : 5,
                          "trackNumber" : 1,
                          "attributes" : {
                            "ident" : "Rec 03-02-20_003",
                            "sampleRate" : 44100,
                            "bitDepth" : 16,
                            "gain" : 1.0,
                            "mixToMono" : false
                          },
                            "channelNumber" : "0,1",
                          "effects" : [

                          ],
                          "start" : 2838,
                          "duration" : 701,
                          "mediaStart" : 3371,
                          "mediaDuration" : 701,
                          "scalar" : 1,
                          "metadata" : {
                            "WinSubProjectDisplayName" : "",
                            "clipSpeedAttribute" : false
                          },
                          "animationTracks" : {

                          }
                        },
                        {
                          "id" : 57,
                          "_type" : "AMFile",
                          "src" : 5,
                          "trackNumber" : 1,
                          "attributes" : {
                            "ident" : "Rec 03-02-20_003",
                            "sampleRate" : 44100,
                            "bitDepth" : 16,
                            "gain" : 1.0,
                            "mixToMono" : false
                          },
                            "channelNumber" : "0,1",
                          "effects" : [

                          ],
                          "start" : 3539,
                          "duration" : 1068,
                          "mediaStart" : 4375,
                          "mediaDuration" : 1068,
                          "scalar" : 1,
                          "metadata" : {
                            "WinSubProjectDisplayName" : "",
                            "clipSpeedAttribute" : false
                          },
                          "animationTracks" : {

                          }
                        },
                        {
                          "id" : 58,
                          "_type" : "AMFile",
                          "src" : 5,
                          "trackNumber" : 1,
                          "attributes" : {
                            "ident" : "Rec 03-02-20_003",
                            "sampleRate" : 44100,
                            "bitDepth" : 16,
                            "gain" : 1.0,
                            "mixToMono" : false
                          },
                            "channelNumber" : "0,1",
                          "effects" : [

                          ],
                          "start" : 4607,
                          "duration" : 3325,
                          "mediaStart" : 5573,
                          "mediaDuration" : 3325,
                          "scalar" : 1,
                          "metadata" : {
                            "WinSubProjectDisplayName" : "",
                            "clipSpeedAttribute" : false
                          },
                          "animationTracks" : {

                          }
                        },
                        {
                          "id" : 59,
                          "_type" : "AMFile",
                          "src" : 5,
                          "trackNumber" : 1,
                          "attributes" : {
                            "ident" : "Rec 03-02-20_003",
                            "sampleRate" : 44100,
                            "bitDepth" : 16,
                            "gain" : 1.0,
                            "mixToMono" : false
                          },
                            "channelNumber" : "0,1",
                          "effects" : [

                          ],
                          "start" : 7932,
                          "duration" : 1285,
                          "mediaStart" : 9345,
                          "mediaDuration" : 1285,
                          "scalar" : 1,
                          "metadata" : {
                            "WinSubProjectDisplayName" : "",
                            "clipSpeedAttribute" : false
                          },
                          "animationTracks" : {

                          }
                        },
                        {
                          "id" : 60,
                          "_type" : "AMFile",
                          "src" : 5,
                          "trackNumber" : 1,
                          "attributes" : {
                            "ident" : "Rec 03-02-20_003",
                            "sampleRate" : 44100,
                            "bitDepth" : 16,
                            "gain" : 1.0,
                            "mixToMono" : false
                          },
                            "channelNumber" : "0,1",
                          "effects" : [

                          ],
                          "start" : 9217,
                          "duration" : 1622,
                          "mediaStart" : 11065,
                          "mediaDuration" : 1622,
                          "scalar" : 1,
                          "metadata" : {
                            "WinSubProjectDisplayName" : "",
                            "clipSpeedAttribute" : false
                          },
                          "animationTracks" : {

                          }
                        },
                        {
                          "id" : 61,
                          "_type" : "AMFile",
                          "src" : 5,
                          "trackNumber" : 1,
                          "attributes" : {
                            "ident" : "Rec 03-02-20_003",
                            "sampleRate" : 44100,
                            "bitDepth" : 16,
                            "gain" : 1.0,
                            "mixToMono" : false
                          },
                            "channelNumber" : "0,1",
                          "effects" : [

                          ],
                          "start" : 10839,
                          "duration" : 139,
                          "mediaStart" : 12892,
                          "mediaDuration" : 139,
                          "scalar" : 1,
                          "metadata" : {
                            "WinSubProjectDisplayName" : "",
                            "clipSpeedAttribute" : false
                          },
                          "animationTracks" : {

                          }
                        },
                        {
                          "id" : 62,
                          "_type" : "AMFile",
                          "src" : 5,
                          "trackNumber" : 1,
                          "attributes" : {
                            "ident" : "Rec 03-02-20_003",
                            "sampleRate" : 44100,
                            "bitDepth" : 16,
                            "gain" : 1.0,
                            "mixToMono" : false
                          },
                            "channelNumber" : "0,1",
                          "effects" : [

                          ],
                          "start" : 10978,
                          "duration" : 1102,
                          "mediaStart" : 13101,
                          "mediaDuration" : 1102,
                          "scalar" : 1,
                          "metadata" : {
                            "WinSubProjectDisplayName" : "",
                            "clipSpeedAttribute" : false
                          },
                          "animationTracks" : {

                          }
                        },
                        {
                          "id" : 63,
                          "_type" : "AMFile",
                          "src" : 5,
                          "trackNumber" : 1,
                          "attributes" : {
                            "ident" : "Rec 03-02-20_003",
                            "sampleRate" : 44100,
                            "bitDepth" : 16,
                            "gain" : 1.0,
                            "mixToMono" : false
                          },
                            "channelNumber" : "0,1",
                          "effects" : [

                          ],
                          "start" : 12080,
                          "duration" : 1465,
                          "mediaStart" : 15306,
                          "mediaDuration" : 1465,
                          "scalar" : 1,
                          "metadata" : {
                            "WinSubProjectDisplayName" : "",
                            "clipSpeedAttribute" : false
                          },
                          "animationTracks" : {

                          }
                        }
                    ],
                    "effects" : [
                        {
                          "effectName" : "NoiseReduction",
                          "category" : "categoryAudioEffects",
                          "parameters" : {
                            "denoiserAmount" : 8.0,
                            "denoiserThreshold" : 0.0,
                            "noiseProfile" : "8MqfPlBpG0BCmJg/0wi2P5Dg0D7o1yw/WnpkP1QUGT6+S3g+0rm/PmFp0z7Cyf09kcAzPokMjT1L\r\n8KY9BuFsPgI9jD0XN/49yC0oPpEZEz5ylQw+dgh3PT5bej2L4ek9nCRaPfPaeT3Zgww/SJaFPXcN\r\nszx4HwU8Q/S4PH6LwDxwqGU96ZoaPTW9kz7Glog+yLHiPfUFhT5oPj4+968GPhDsUz58NHg99kWa\r\nPTzSCz02Res8xDx8PSxSAz4KCsQ9FV8JPWq+YjwNZjM9ubLlPXiDOTyYLVg8iiqgPJSTyT3KHEo9\r\nv8LrPZ5uDz42rms96VlGPY47GD68dzk96fdNPWsOnz1Smpg+YMZmPkCNCz7kNjo/zCovPx4OPD+C\r\nRCM/iY1XPn+Fmz7gCIs+BnNPPu/vHz/S7x5A29ysP1OUMD5AvR8/Aou8P+yW2D78cQY/kuirPv7b\r\ndT5206c+4whFPnEf1j5ZMbo9+KvAPbtzoj2sT0Q+NpJ7Ps514D3kLJ49XcAGP1ErgD3LheY81CJo\r\nPfzkbD331E4+Z7UhPlc2uz1gbjo+4OjrPsLtTz9+oFM/JvkRPkuHCj7tNqM9b/qYPVvtST7RgZ89\r\nk2uZPUjgnT2eax09OKVxPgtGBz1KN1o9MQykPTBoqj3VrBs+WM6LPdJbiz52O7E9wcLVPdBGLD6o\r\nGEo+zEUaPrUYhD4rw2k+JkdoPjQ/dD75kGs+6UjrPlFazD5UIaw+iZ6WPt67hz4+UG8+yRYWPxQ2\r\nOj8Hvrg+MvePPqtSlT6CP4Q+gHJHPvDr/j2EVM09THLlPXT47D3lg8o9e/aUPXooBT4ujxI+PIYM\r\nPjItsz2WoQI+HWvLPWzzVD2P5ZQ95h+qPYzUVD1WZuw9VlCxPcWbpz1ET7Q9I/OQPfIC4jzhOJc9\r\nxH0pPTSSRz3d3bQ8DtqhOysNIzxEB+87HYxTPA6jPTzWKww9PY2gPNqBhzylr408UUrQPJZHiTww\r\nd7A8ol4VPDQZGj3ByhU9QKZCPedqqT3abbk9++bAPWTXxD0FANQ9joEePuQtrz0RH509hhYtPmzO\r\nUj1g4EE9Un8NPSz0IT1ryQo9zjrlPGHrDT165us8HhQKPaJzDj2+Wsg8+Lj0PLBBlTx0tCo9/oLH\r\nPAriKjyWbFE8o9ipPDLxiDzVuE08aB7bOy9CAjwuInA8rz0DPNlJlzzmV4Q7aMrNO6Y6Szv8IHU7\r\n7fXOOz72oDtmEnI7DvZUO5zY7Ts2xhA75ItgPISgCj0S7wc8Qh2LO+3d6DszqEE7lTCRO10S7Tto\r\nbN07Oj80POaRNzteVEs6yi/dOvHYaDvurmQ7mKO9O7/bsjsXJpo7+LylPNuH0jyxLgg8cFvCO66n\r\nATwhEZ87HJCIPEZycTwZJZ08mJdSPOOmsjxG3Ro9lwLPPDBNjTwZTJQ8KrYePfbTGD2teaU80PIp\r\nPdX8Yz3NBOQ85pnYPFBP/Tv4gZw84nCZPDXoNjwo7is8ZJrPPOgRHj2WP9A8mWXXO4dtETuicqU7\r\n7zvoOxY+HTw8lUQ87lJzPZg4mDxtdgU8ELAHPOSM+zwIwU48pOKeOzPuujzWoeI8vm0oPDJAmTub\r\nSTE8d+ArPAJD9zvYKGk8tqICPOltDTw6zjQ8BrVrPLI8mjxm2PM8+BnvPCXrEzxvXA89tFPmPEob\r\nDzzmUqg8awe6PMZVYz2sXok9mo1uOyZvsTwqDOE8SXg+PLhNEjzvCQA9TLyMPDcYbT1Mqo08Jo96\r\nPFalWDwPWC487a21O0hibjwFWVo8tE8KPCblrzxwisw8NTiuPLdxOjzM7ls8S7tgPFY9YTzhMLA8\r\nSpOrPB0xUzzHywE9EyIgPch1Jj3eODQ9cfJLPbER8zwkaBY9/g8TPQIIGj3Uszg94pxvPZdUiT0X\r\nSZo9/owyPXS1QD2SN0A9mkxJPeuwIT2kEvI88iC5PGDBPDxKz4U8srn5PE5cnjzFWCg84nWsPKsZ\r\nnzxz4Mc8XvmqPKolLD2wjmM8fDs+PJBwYTwGgeA81Ow+PNrfTzz/2bU8bln4PE1UojwyvtQ8vf96\r\nPBJWMD2IfrU8DwLyPJoyeDtDx8o7Gu4/O00oxTyZI3o8Km+LPFO1az1ZrAI9CgYzPQMihTzFqN87\r\nLrFUOw4/yjsPxss7zrXCO03vjDtTXh88+Ib4Oxnz6TuwrsQ7I0IzOogdXzvE9Hw7l8IaO6tLGjt/\r\n2hA7iIllPO7oRjw1Qxk7/CdhPAB+cTx2GDM8qweLPFmQWjzFjWA7jsODO7DsvTu6Nv87GzBTO7Jq\r\nYTuHxkE8qSMBPCDLADxr1cs7jK2FO60wjDsFiEc7NtKTOhb4QDtUh7Q7fFVTO/fYqTryxzA7ZLby\r\nOjJlBzo802w7bPeZO1sK7TtDhcM7uJSmOzpdGzscWjc6+esFOwDGtTtFwJg7AAd7O/LLajvnG9c7\r\nDRjFOxGrkTvE1pE7lBSTOmoTEzrUGjQ7WwxFOyxFAjy38Sw86lNjO6b2Sjug9Qs7rX24OgzT6zko\r\nb5w6mFgnO6rukjuIxBg7dJOrOzY/kjsZmCI7xeNkO+6tQDvNqgs78/OEOlZuADrgy806nlO8O25M\r\nLzx6vJw71IiPOku0uzoB+D06l8SuOpE+WDpZ5iY6ofLuOcQBhjodpRM6zrxaOkTocDtyyrg7TDEC\r\nO5d26Dp0djw6IqpKO09phjvK4Ss66JrDO5abAjoFvm46W+VpOmIXFzrE+E06LFsQPLcgZTwgJ8I7\r\nkjowPFwFFjqC78Y7jBPWO7sJizt88HQ6nBeoOsiOtTuwyt07+Qq3Oq1UDzz+Qmg8SIrOO3Ar8zqk\r\naNk64gQGO+d6ITxFVL88jX2JPGvWpzs+cyU7Yqi8O5Nf1zsQbAY8kor0OgVQ7DusqjE83jz2O5TU\r\n9js0E0o8wtBcPPxA/DsuyQ88yLUZPM13HT0diog8ZEEGOzPChzxIwI483vpoO27C8DtSnIc8qnd2\r\nPEAtjzsl5sk7htwYPPVI1ToE8rQ79CmiPGqatzw8EdY81q3oPDCyAT0JigE9VlDwPLv84zzXX848\r\nji22PCwTujxKgr08dgHRPCLJ0jyu9us8XEfwPMBU9DyQfOs8tCLVPGC8HTwpZI48sDuGPH4+NjtI\r\nB6o8buakPAZnjzwm4T08FlcbPAYMZTwH73Y82oIePO6XxjsiJrE8KIrAPPbnaDyk1M88ZhvUPN8Q\r\nxzxnSbE8WEStPFgGmTxvd6U8guJePGtdBjzptTk87yNRPIXigDz+OrM7bPfDPOIf3zyoQwQ8IJEp\r\nPItgjTyBz9o7stHgO1AJgTwo01o8Z7ZDPCqmtTsGmiw8HIAoPMbtKDxkHfI7IrWxOyWKXTxAEH08\r\n4gqPPDxOiDzD+L88VGmSPKkvgjzgYVc8lUY9PEaygjzh9/I6KV+IOnwHkzvYbHI7pJD/OR23mDtd\r\n/gI8rZf1O2t/vjpNc0U7sK7BO+2NODyagMU7+HYoPG1u1zvO96k7LCqIO57MIDxltVk8D5WMOyXE\r\nsDsCJuA7B3kGPLFcGTzdMik8wlSwOysxLjx4myQ8k6KtO/YwdDvI1mw7HFBPOo6pHTkoFwo7DrGf\r\nOqOnfDuHi387ViSIO4CpkTuoC5Q7xzObO/dglDtCd407u797O4jesjp4/Co7OCYCO/6YvTroNzM6\r\nR819OypxvDvqOhA6SurHOjSo7Dpknj46rLOVOHhmBzvFlC47ms4+O0Lx5zpkqkE7gN4tOjC0GjsQ\r\nqwM7RE/KOo4qnjpYz306FoBjOncA6jpf9RY731Y5Ow+2ujqGQdU6SdFqOzgkEzsaz7M4kMiCOq1O\r\njTpIN7460EOYOm5WcTrVnnE6s+FcOE9lxTkNfGM6K4EcOkkqVzpBu3E6mvAUO65tzzrmLuk6b6v0\r\nOt4J+zp81Vw70EsxOvmqDzpDvB061k84OZ+a8zm+bsI5UXgJOphsOTomRws7YUQAOlC9UTrZBHQ6\r\nNrXOONGhojqzE6g6LMuSOkx0jjpXL6s6nHRhOkiIvjlCEvc41OuUOe9MIDkBi7Y5/ODAOXsU7zkh\r\nKpc6Y/A6OpY+WzpEanU6ikNyOj29hjrYig83puHsOdpLcTmZjqA5Na1EOVID5DiK+XM4oycWOBe3\r\nRDhssrk4jR3wNxm0gjjQz5g3SNI5OOL9DDffsS044oH3NrqGDDh87tM2swr3NwjRGTd11do3JmLz\r\nNkOktjcKYx03ggyXN99tMDcO52k3GZ5gN/BHTDfy3jo3BT07N1/TMjeUVVM3p78uN0h7Pjfa4283\r\nQGpZNyvzRDfFKGc3R9pENylrNTcKsHg3aj9sNy+OdDdnuTs3VQAfNyTKWDfWfV433lgRN0S7QzfL\r\nuVM36MIpN0w1ZDe8GEw3549YN24DOTeEXDQ3AC8tNxwCLje7bm43rdUtN5ambjdNhT43ilpqN9As\r\nJzcToD43Is4kN8TDRzd5lm83oEdaNwcEUjeV3CI3YcshN4oLRTetSFs3/u1CN6IXITcU62U3nM9G\r\nNxizWzdaKkQ32qh0N8zFXDcNAjE3wvokN+E+Yjcq4Bw32zJLNzB+ODfob0o3WTMLN6RQKDdW1Ck3\r\n3KpBNzpGbDe6Bi83Wfc2Ny7WQjdfV043Jik5Nyy7Qjd4nzs3kokXN5F9FTd5aEw3njoxN9GGVzeE\r\n4Dk3k3YgN9FNKTc62k03dOdPN1XiTTcfVx03oNRLN4/5GDfVMCs3hA8vN1ABJjf3SiI31VNhN14R\r\nEjdFqgs38fwdN8EmKjcQpW038RkMN5naHzcu3FQ3BBc6NzyaUTfK2C03cV5dN63hRzfaXSE3k0BP\r\nN0jCOze5xQw3izkpN1XySTef+zU3D3wgNwF5TTcBU0g3T5dBNwUfETcZbzs3y+dKNy+dZjeyfg03\r\nn+QBN12zUDcxTz03riBTNzM8GDcwHDU31nUON301RjexRko3RGQ/N081QTcrcyE3ylX7Nq22Hzfa\r\n7BE36Ps/N7NSXje2aFk31IVoNw03FTfGwxc3lycHN6xhKDeyoAo3WzMEN/VmPzecmD03jFhYN9yV\r\nBzdmi0Q3sfIpN5sfRjc4GkI39twYN8yzEzf0dkE3kERGN1S4SDcrCkI39Y8eN/n9MzfyjhU3N2Bt\r\nN7uUGTeYZS83P7IzNyG6QTcjdCg3T4svN9gxODcWcVA3qgUrN8HUPDebOTM3uO5RN+tcKDcpFSM3\r\n+d1fN9vpWjfvBUs3kLhMNwnwQzc4+CI3IGY5N8MITjcvXTY32B4dN5YZZzeS/jo3jwVnN27lHTca\r\njjw3VvZMNwP4XDddYSw3xTY4N/1GHDdHwSo3Wg0hN2XmITfLHl83LTM8N9rJMTffXXQ3hH4AN+MP\r\nEjdPN2Y3QE0YN43xMjcDfQM3WFhXN79OWTdMHDA3y6lZN9p9KDfynDk3My05N+pHJDelKjU3QHAy\r\nN517XDehuDs3AYohN2hJZTeoDjM3BWs2N802gDf0Lhw3hj48N5MgJzc3gnQ358g/NwCEQDez7p8+\r\nWGUbQJgdnj8U1bU/hBHRPnbCLD9wf2Q/t3wZPkLQdz74578+lnTTPmfm/T3qXjM+8MqMPerwpj3S\r\n1Gw+HCGMPXG5/T3Vpic+Vj4TPvWiDD6OR3c9dOd6PTY06j3Zr1o9Mp56PSteDD8XcIU9q8GyPDyg\r\nBTwy7rg80J3CPDorZT10EBo9FNuTPi8+iD7o4eE9XBuFPkktPT5t2QY+QUxTPsI3eD2C3Zk94yUM\r\nPS+W6zxsnH09vIkDPqQZxD2GvQg9hJdjPLclND2OceU9YDo5PH44WDxa1qE8dtzJPVhKSj1ix+s9\r\nXuMPPu4Daz1wAkY9My4YPkzvOT0kU049hFifPZaVmD7UpWY+stMLPtHeOT9qKi8/Ego8Px4vIz/b\r\nu1c+pZ+bPgb6ij7Mu08+DQkgPzf8HkA1uKw/TXowPsqgHz+Di7w/653YPj2FBj/h66s+vaN1PlzU\r\npz5SGUU+2jHWPmwwuj2L9MA9+YGhPd1yRD55V3s+fjzhPWJCnj1ozgY/n3h/PX7N5DzSD2g9fF1s\r\nPfPMTj4blSE+ipa7PYmHOj7g0+s+dP1PP891Uz9XPhI+EpsKPs9goz3nCpk9BKNJPlT5nj2dc5k9\r\nSYefPWGnGz2zp3E+4sUHPdSOWj2rBKM95yaqPWqPGz6YeIw94T6LPqdIsT09ANY9IasrPgQSSj5V\r\n9hk+DeaEPryzaT7MGWc+afJ0PnBpaz5MKOs+oEbMPspzrD4dqJY+nB6HPtgabz5fMhY/Wyw6PzVR\r\nuD5Cwo8+2VKWPpl3hT6fAkc+tq3+PcqSzD16f+U9VTfrPb+wyj0vW5U9D4AFPhReEj5+iww+AaOz\r\nPcdXAz50Eso93OtUPX6VlD2xoqk9kj9VPYiQ7D0zErE9Sm6nPR7Zsz2AuZA9b4XiPMNJlz1yNyk9\r\na+xHPbbjtTzSNqI7qOAhPPaE7zsPwlI8KDk7PIj/Cz390qA8UQ2HPHDcjjxsmtA8DVKJPCahsDwt\r\nwRQ8sFcaPUReFD2kZUM9KOKoPff8tz3OZL89WcnGPdJ/0z10jB4+3USvPd5WnT0xuyw+nU5VPW5U\r\nQT3tkA09XqcgPXDpCT39UeQ8OFMLPaLV6zw6xwk9ZaQOPRGvyjxcSfc8whKUPPXHKD2FXMc8ySUs\r\nPKzAUTxg26k86YiIPLQ4SzwcWd87DBwCPOwJcDwNUAI8gauXPLkohTtoac47CcdJOxfOeTsAAtA7\r\n/fOgOw6yczutpFM7dNXrO8RvEDtQ2F88UbAKPSk/Bjzoo4o7EB7pOzolQTsQeIs7xbnsOwtV3Dtk\r\nbjM8cRQ9Oyj7Rzou8N86NVNqOzCMZDvovb07i3mzO1VvmzuO06Q8adPSPHb/BDybwr879CMBPJb2\r\nnzsMuok8MEZyPIiFnTwy71I8PeKyPHUAGz0Oi888wT+OPDBLljw6qB49TugYPYNPpjwIhyk9d3lk\r\nPSyk4zy00dY8PHf9O8bdnTz43Zg8Jk0yPLRdJjxW8s48wjYePWmz0Dzu2Ng71ikmO1vbmjsfguk7\r\ni0ciPIBLRDw1QXM9RF6WPFvfBzy0WAg8OyT7PDRcTzyY05872OW6PKLu4Ty02i08R6eeO4wpLzwU\r\ncyk8k8nwOx0DaDw6hwE87ggOPMVuLzy2MnE8AgyaPDx59DwsJew8ag4TPIxMDz1/Fuc8CFwMPD64\r\npzxstLo8XLpiPXRmiT3tX3E7rqaxPMw84jxunj48D2kSPI/a/DyIHY080FhuPe79iTyQFoA8UYdU\r\nPGO7LzxPjrQ7VE9sPCzUVjzztwo8t/CvPAfPzDwxoLE8bH81PHuIWTwel2Q808BhPHbArDwEXa48\r\nyf1UPAxfAj2Qzh89rQAnPVpXNT2owkw980nyPK5RFj1Q4hM9ctoYPeyPOT0yS3A9FO+JPdIKmD0w\r\nDjI9x6lCPVEmPz25iUs9zfshPXnt7jxLoLo8yNQ6PNUMhDx5UQA9Kw6ePGKbJDxa56s8naKhPCM7\r\nxzyZn6o8jJMsPYAfXzx8Uj08DiBhPEig4DwHtz48K3JRPAqCtTyQF/c8fVCiPLDc1DxK5ns8JB0x\r\nPcoCtTxIZfI8B514O2qg0jsyszw7L5vGPLCHeDyKhI08q91rPZCqAj083DQ9yCOBPOeG5jsf8FM7\r\nZB7KOx15yTswLcI7tzGIO/Q5IDxuHPg7jvnnO1JBxTsrPEs652JkO7rbfTvkex47xH0UO73TFTv3\r\ncmY8OuNFPL/9GDuA1mM8s2dvPNG1Mjx09oo8fjdTPNW2Uzs8RYY7e4C/OwU7/Ts1AlU71pVkO1Tj\r\nQTwK4QE8djMFPPv5yztCWoI7xxaJO7u4QDsUvrA6sLQ9Oyldszt8W1U7pXeuOuo6MDukdvM6JSUQ\r\nOgfkbTvyr5g7OzzuO588wDt856k7qhsZO12ZQTpxpQQ724q1O3TkmTtUS3w7DXZuO9Fa1zu2SsQ7\r\noHKTOxqckjuh6JI6CS0POgq5ODsZrEU7ug4CPLZKLDx2PVI7HtVHO/w3BztReq86KYT6OUq0nDr6\r\n5ig75waRO1tVFzvfBqY7vTKRO+ziITtmjl47c8xAO4vrCjv5Y4M6NB4AOiBZ0DqW+7s7iNsuPDc9\r\nnjtSKI86r127OoZKRTrkIa06cDNcOrT9JDpKevY5u3uDOucODjrCd2A6b3VxO2YDuDt9rgI7wwHj\r\nOppfPjrKIkk70I6GO2t4LzrttME7c4kHOggebTrojWg6JuoSOlKxTjqW2RA8updkPBDowTtqiS88\r\ndq4VOpDCxjtJktY79y6MO+UUcDqhNac6t4G0O9G23TttG7o6MXkPPCSpaDxV1847l7HqOmjU1joK\r\nAQM7SpkiPMGYvjwilYk8/qioO/qgIjvCM707srfYO6OEBjwmV/M6R6nrOzbkMDwCV/U7sXX2O4Au\r\nSzw8Cl086uf7OwqRDjzrBxs8gB4dPRVjiDz4HwQ7vEeIPOhhjzxkKWc7Mc3vO5V+iDy4tHY8GSuP\r\nO+wDyzsksRg8dJjTOsuKszt/n6M84MG4PHz+1Tz+Lug8HigBPck8AT3qQfA8hQ/kPNZjzzzmirU8\r\nLG25PFH8vDyRYNE8XIXTPKW87Tyrfu88ljv1PFQh6zwhv9Q8ggAfPCf6jjwvgIY8lSQ0O3trqTyv\r\nOaQ8IvePPIJiPjyV4Bs8jaFkPFKVdDz3KB08KurHO6YqsTwyR8E8FpVpPKQUzzy8fNM8gKzHPJtW\r\nsTxL3aw83/eYPJ6npTxtQF08jBYHPMZlOTzwU1A8NMiAPNqEsztoWcQ816TcPGm2BDzd8Ck8olGM\r\nPI8D3TsaPOM7hNt/PM03XDwCiUA8HoS3O/rRKzx9cSk82S8qPM7X8jv3f7M7r9pcPKAqfjytnY08\r\nIq2HPHS5vzz/LJM82IiDPDLrVjzS+jw816KCPAnU8TqiP4c64eCTOzRlcDukHfc59CGZO8JUAzzZ\r\npPU7o2+8Og6iRTvobcI7ywI5PNoKxjtuHSg8A+/VO2sCqjvD+oc7h4sgPB3ZWjz6O407m4mwO4OM\r\n3DvGlQY8SlAaPMvdKTwnsK47omMuPIl0Izx2Ma47uJt1Owzzazsra1E6D9ImOWobCTuyK586luF8\r\nOzecgDu9LoY73fqPOwBRljuMSZk73M2VO1ZmjTtYkHs7RmO2OmcjKzv+7vs6FTTBOt9HNDpErX07\r\n5Ii8O+hhEjopVcc61N3qOutAPzoqRJY4bLIHO3bBLjuVJj47um3nOr6EQTsu4iw6w2YbO9YH/jpn\r\nssg6JHieOiI7gDpWPV46MfrmOtpoGDsqajo7uPy3Opqr2zqPxGs7kjsTO46ltzjNx4E6q62MOg60\r\nuzoUWZc6jLVtOrLkcjp2rF44isDAOVKXZjrACRo6JvFXOk4icjqTCxU72fPPOsW55jpLVPM6nMD4\r\nOh0iXjvrKTE647gOOty7IDqOzDY5lL/6ObCwvDlcvgs67U81OqFpCzuUXv85oHtNOqu4cTpin8w4\r\nEH2jOmj2qTq9npE6ox2POnTYqDpSJmA6H0i+OaBR/jh0jJk5ZHYhOSgNsjlz/MQ52wniOcrjljrL\r\n1js6MZRZOqCtbjqcwmo6Y/yIOlgQBzdOxvw5fbhiOTrVqTkvDVA5huDzODW7ejhmHBg4K70+OF24\r\ntTjo4c83uBaPOEQ5ijfMjzY4bpXwNrR2FTgr8uE2RC8OOBQLBTfeZ/g3mwwJN6F82zdTUAI3KMfI\r\nNwRADzeWNZM3azQtN7zrXDe25kA3EdcwN5FzNjda50o329dKN1oIYDeE1jw3ZIs5N0/bgjet9ko3\r\nOlEqNwaCUjcaIT03w6UnN9kVUzeD3VI3ivF2N/03LTftkQU3pVZjN6nkdzfhHhI3BvhFN9hoTzde\r\nrxc3/3pEN9jyZjfo2283L9MtN/qHJzeBzQ03N+wfN6iGTTcnZCY31zNlNxoSNTeh2lg3qBMlNwNT\r\nVTfV8SE327csN0yAZzcgs1A3ZPc1N3QpKTfepTQ3iHAaNyRuJTdj7kQ3jNQfN5e+RDd1zUI3l2xs\r\nN/8kMzcbHFI3ctNMN9IdHjfVzws3DcheN8MBIDfDpkI3GtMbN7+iPTexFRg3iaIuN9t9JDfidjY3\r\nb6dVN17kMjdF2lU3UaJXN91RWTeXo0s3uZcvN1xyMzf5fB83GSdmNxPJhDdxgUg3k2xpN5pFRDfu\r\nrSk3cfcpN+Z7OjfSWj032+VRN+7xKDf20yA3PnvpNrc+DTf0zh03erkrN37CMzcYGFs3UPkfNyX9\r\nFzdq7x83Lx0tN1LafDfXvho3RAsqN/h9TTeOCzI3RAheN1uULDeUPT83pFdIN2eFOTc0ekQ3VO8j\r\nN05uDTconhs3u3QvN0oYQDcwW0c3NpJdNyQPQDc9zEQ3fw8iN8vjQTdjjiY3fNtAN0eDCTcuti03\r\nvpE9N1LbCje1HVM3yK5GN9Z1XDdKYjA3FNhLNye4PjecTEc3hUM+NzO8EjfJwwU3evlFN4DTDDcT\r\nxBg3WbdNN1vMRje9JUI3K74bNxHrPTeDZAg3pjMbN7lyHzfqVCY3PCVBN8SqMDcb3Fc3IWgPNwqc\r\nZTdO6E43vMlBN0zJFzcFER43+2siN6AdYDciLWE3CXpMN/2sNDexrzE3JxhsNyWtLzd00lU3L10F\r\nN4GQPjf7o1Y3KSxhN/UYOTeqcCs3514tN/GNVDd6/Cw3E204N7kdSTfPsHw3ypFFN98HOzew3F43\r\ntsAsN6Q7JzeubUI3d+k+N7dWFTci/UQ3VDNjN40MITd9bO82bhJLN5ADPDcljW83rjEkN2Y5PzdA\r\nXTs3J4UyNyYhGDe1cWc30u5YN6mDLTeKsQY3ln4XNwt7ijd52Ws3WCcaN3q6Nze2cQg3gVxGNzkN\r\nfzdz0Rs3hl5cNxzdGDckpyA3xYQvN3PpNjeInFI3WzgPN4QoNTcVOT03vbUbN4HbMTeExjs3MGpx\r\nNwUGWjcTNy43CX5ON8sUFTfNyyM3PN9sN/tJEjdJrEU3HaU0N7WWdDcQDTE3AJAvNw==",
                            "noiseTrainingType" : "default"
                          }
                        }
                    ],
                    "start" : 0,
                    "duration" : 13545,
                    "mediaStart" : 0,
                    "mediaDuration" : 13545,
                    "scalar" : 1,
                    "metadata" : {
                      "WinSubProjectDisplayName" : "",
                      "clipSpeedAttribute" : false
                    },
                    "animationTracks" : {

                    }
                  }
                ]
              },
              {
                "trackIndex" : 13,
                "medias" : [
                  {
                    "id" : 64,
                    "_type" : "IMFile",
                    "src" : 6,
                    "trackNumber" : 0,
                    "trimStartSum" : 0,
                    "attributes" : {
                      "ident" : "Slide1"
                    },
                    "effects" : [

                    ],
                    "start" : 150,
                    "duration" : 1211,
                    "mediaStart" : 0,
                    "mediaDuration" : 1,
                    "scalar" : 1,
                    "metadata" : {
                      "WinSubProjectDisplayName" : "",
                      "clipSpeedAttribute" : false
                    },
                    "animationTracks" : {

                    }
                  },
                  {
                    "id" : 65,
                    "_type" : "IMFile",
                    "src" : 7,
                    "trackNumber" : 0,
                    "trimStartSum" : 0,
                    "attributes" : {
                      "ident" : "Slide2"
                    },
                    "effects" : [

                    ],
                    "start" : 2968,
                    "duration" : 1637,
                    "mediaStart" : 0,
                    "mediaDuration" : 1,
                    "scalar" : 1,
                    "metadata" : {
                      "WinSubProjectDisplayName" : "",
                      "clipSpeedAttribute" : false
                    },
                    "animationTracks" : {

                    }
                  },
                  {
                    "id" : 66,
                    "_type" : "IMFile",
                    "src" : 7,
                    "trackNumber" : 0,
                    "trimStartSum" : 0,
                    "attributes" : {
                      "ident" : "Slide2"
                    },
                    "effects" : [

                    ],
                    "start" : 13010,
                    "duration" : 196,
                    "mediaStart" : 0,
                    "mediaDuration" : 1,
                    "scalar" : 1,
                    "metadata" : {
                      "WinSubProjectDisplayName" : "",
                      "clipSpeedAttribute" : false
                    },
                    "animationTracks" : {

                    }
                  }
                ],
                "transitions" : [
                  {
                    "name" : "Fade",
                    "duration" : 30,
                    "trivial" : false,
                    "useAudioPreRoll" : true,
                    "useVisualPreRoll" : true,
                    "rightMedia" : 64
                  },
                  {
                    "name" : "Fade",
                    "duration" : 30,
                    "trivial" : false,
                    "useAudioPreRoll" : true,
                    "useVisualPreRoll" : true,
                    "leftMedia" : 64
                  },
                  {
                    "name" : "Fade",
                    "duration" : 30,
                    "trivial" : false,
                    "useAudioPreRoll" : true,
                    "useVisualPreRoll" : true,
                    "rightMedia" : 65
                  },
                  {
                    "name" : "Fade",
                    "duration" : 30,
                    "trivial" : false,
                    "useAudioPreRoll" : true,
                    "useVisualPreRoll" : true,
                    "leftMedia" : 65
                  },
                  {
                    "name" : "Fade",
                    "duration" : 30,
                    "trivial" : false,
                    "useAudioPreRoll" : true,
                    "useVisualPreRoll" : true,
                    "rightMedia" : 66
                  },
                  {
                    "name" : "Fade",
                    "duration" : 30,
                    "trivial" : false,
                    "useAudioPreRoll" : true,
                    "useVisualPreRoll" : true,
                    "leftMedia" : 66
                  }
                ]
              },
              {
                "trackIndex" : 14,
                "medias" : [
                ]
              }
            ]
          }
        }
      ]
    },
    "trackAttributes" : [
      {
        "ident" : "",
        "audioMuted" : false,
        "videoHidden" : false,
        "magnetic" : false,
        "metadata" : {
          "IsLocked" : "False",
          "WinTrackHeight" : "108.923076923077",
          "trackHeight" : "86"
        }
      },
      {
        "ident" : "",
        "audioMuted" : false,
        "videoHidden" : false,
        "magnetic" : false,
        "metadata" : {
          "IsLocked" : "False",
          "WinTrackHeight" : "108.923076923077",
          "trackHeight" : "40"
        }
      },
      {
        "ident" : "",
        "audioMuted" : false,
        "videoHidden" : false,
        "magnetic" : false,
        "metadata" : {
          "IsLocked" : "False",
          "WinTrackHeight" : "108.923076923077",
          "trackHeight" : "40"
        }
      },
      {
        "ident" : "",
        "audioMuted" : false,
        "videoHidden" : false,
        "magnetic" : false,
        "metadata" : {
          "IsLocked" : "False",
          "WinTrackHeight" : "108.923076923077",
          "trackHeight" : "102"
        }
      },
      {
        "ident" : "",
        "audioMuted" : false,
        "videoHidden" : false,
        "magnetic" : false,
        "metadata" : {
          "IsLocked" : "False",
          "WinTrackHeight" : "108.923076923077",
          "trackHeight" : "150"
        }
      },
      {
        "ident" : "",
        "audioMuted" : false,
        "videoHidden" : false,
        "magnetic" : false,
        "metadata" : {
          "IsLocked" : "False",
          "WinTrackHeight" : "108.923076923077",
          "trackHeight" : "150"
        }
      },
      {
        "ident" : "",
        "audioMuted" : false,
        "videoHidden" : false,
        "magnetic" : false,
        "metadata" : {
          "IsLocked" : "False",
          "WinTrackHeight" : "108.923076923077",
          "trackHeight" : "102"
        }
      },
      {
        "ident" : "",
        "audioMuted" : false,
        "videoHidden" : false,
        "magnetic" : false,
        "metadata" : {
          "IsLocked" : "False",
          "WinTrackHeight" : "108.923076923077",
          "trackHeight" : "54"
        }
      },
      {
        "ident" : "",
        "audioMuted" : false,
        "videoHidden" : false,
        "magnetic" : false,
        "metadata" : {
          "IsLocked" : "False",
          "WinTrackHeight" : "108.923076923077",
          "trackHeight" : "86"
        }
      },
      {
        "ident" : "",
        "audioMuted" : false,
        "videoHidden" : false,
        "magnetic" : false,
        "metadata" : {
          "IsLocked" : "False",
          "WinTrackHeight" : "108.923076923077",
          "trackHeight" : "86"
        }
      },
      {
        "ident" : "",
        "audioMuted" : false,
        "videoHidden" : false,
        "magnetic" : false,
        "metadata" : {
          "IsLocked" : "False",
          "WinTrackHeight" : "108.923076923077"
        }
      },
      {
        "ident" : "",
        "audioMuted" : false,
        "videoHidden" : false,
        "magnetic" : false,
        "metadata" : {
          "IsLocked" : "False",
          "WinTrackHeight" : "108.923076923077"
        }
      },
      {
        "ident" : "",
        "audioMuted" : false,
        "videoHidden" : false,
        "magnetic" : false,
        "metadata" : {
          "IsLocked" : "False",
          "WinTrackHeight" : "108.923076923077"
        }
      },
      {
        "ident" : "",
        "audioMuted" : false,
        "videoHidden" : false,
        "magnetic" : false,
        "metadata" : {
          "IsLocked" : "False",
          "WinTrackHeight" : "108.923076923077"
        }
      },
      {
        "ident" : "",
        "audioMuted" : false,
        "videoHidden" : false,
        "magnetic" : false,
        "metadata" : {
          "IsLocked" : "False",
          "WinTrackHeight" : "108.923076923077"
        }
      }
    ],
    "captionAttributes" : {
      "enabled" : true,
      "fontName" : "Arial",
      "fontSize" : 32,
      "backgroundColor" : [ 0, 0, 0, 127],
      "foregroundColor" : [ 255, 255, 255, 255],
      "lang" : "en",
      "alignment" : 0,
      "defaultFontSize" : true,
      "opacity" : 0.5,
      "backgroundEnabled" : true,
      "backgroundOnlyAroundText" : true
    },
    "backgroundColor" : [ 0, 0, 0, 255]
  },
  "metadata" : {
    "AutoSaveFile" : "",
    "CanvasZoom" : 75,
    "Date" : "2020-01-27 11:33:13 PM",
    "Fit" : 0,
    "IsAutoSave" : "0",
    "Language" : "ENU",
    "ProfileName" : "MP4 only (up to 720p)",
    "Title" : "CamtasiaTemplateWindows",
    "audioNarrationNotes" : "",
    "calloutStyle" : "All",
    "canvasDetached" : "False",
    "canvasPositionHeight" : "0",
    "canvasPositionLeft" : "0",
    "canvasPositionTop" : "0",
    "canvasPositionWidth" : "0",
    "firstMedia" : true
  },
  "audioPlaybackRate" : 44100
,
  "themeFile" : null

}
