{
  "title" : "",
  "description" : "",
  "author" : "",
  "targetLoudness" : -18.0,
  "shouldApplyLoudnessNormalization" : false,
  "videoPlaybackRate" : 30,
  "audioPlaybackRate" : 44100,
  "width" : 1280.0,
  "height" : 720.0,
  "version" : "3.0",
  "editRate" : 30,
  "authoringClientName" :  {
    "name" : "Camtasia",
    "platform" : "Windows",
    "version" : "19.0"
  },
  "sourceBin" : [
    {
      "id" : 1,
      "src" : "D:\\Data Files\\Udemy\\Instructor\\Codestars\\Course-Prep-Splash\\Camtasia9TemplateWindows\\codestars_logo.png",
      "rect" : [0, 0, 1061, 168],
      "lastMod" : "20200128T043621",
      "sourceTracks" : [
        {
          "range" : [0, 1],
          "type" : 1,
          "editRate" : 10000000,
          "trackRect" : [0, 0, 1061, 168],
          "sampleRate" : 0,
          "bitDepth" : 32,
          "numChannels" : 0,
          "integratedLUFS" : 100.0,
          "peakLevel" : -1.0,
          "metaData" : ""
        }
      ]
    },
    {
      "id" : 2,
      "src" : "D:\\Data Files\\Udemy\\Instructor\\Codestars\\Course-Prep-Splash\\Camtasia9TemplateWindows\\star.png",
      "rect" : [0, 0, 199, 206],
      "lastMod" : "20200128T043621",
      "sourceTracks" : [
        {
          "range" : [0, 1],
          "type" : 1,
          "editRate" : 10000000,
          "trackRect" : [0, 0, 199, 206],
          "sampleRate" : 0,
          "bitDepth" : 32,
          "numChannels" : 0,
          "integratedLUFS" : 100.0,
          "peakLevel" : -1.0,
          "metaData" : ""
        }
      ]
    },
    {
      "id" : 3,
      "src" : "D:\\Data Files\\Udemy\\Instructor\\Codestars\\Course-Prep-Splash\\Camtasia-JPB-CPP\\Splash_Android.png",
      "rect" : [0, 0, 1920, 1080],
      "lastMod" : "20200201T225340",
      "sourceTracks" : [
        {
          "range" : [0, 1],
          "type" : 1,
          "editRate" : 10000000,
          "trackRect" : [0, 0, 1920, 1080],
          "sampleRate" : 0,
          "bitDepth" : 32,
          "numChannels" : 0,
          "integratedLUFS" : 100.0,
          "peakLevel" : -1.0,
          "metaData" : ""
        }
      ]
    },
    {
      "id" : 4,
      "src" : "C:\\Users\\profj\\Desktop\\Udemy\\Codestars\\CPP\\videos\\Course-Prep-Splash\\JPB-Images\\PNG\\Head.png",
      "rect" : [0, 0, 721, 1024],
      "lastMod" : "20200203T062252",
      "sourceTracks" : [
        {
          "range" : [0, 1],
          "type" : 1,
          "editRate" : 10000000,
          "trackRect" : [0, 0, 721, 1024],
          "sampleRate" : 0,
          "bitDepth" : 32,
          "numChannels" : 0,
          "integratedLUFS" : 100.0,
          "peakLevel" : -1.0,
          "metaData" : ""
        }
      ]
    },
    {
      "id" : 5,
      "src" : "C:\\Users\\profj\\Documents\\Camtasia\\Rec 03-04-20_006.trec",
      "rect" : [0, 0, 1920, 1080],
      "lastMod" : "20200305T032707",
      "sourceTracks" : [
        {
          "range" : [0, 18299],
          "type" : 0,
          "editRate" : 30,
          "trackRect" : [0, 0, 1920, 1080],
          "sampleRate" : 29,
          "bitDepth" : 0,
          "numChannels" : 0,
          "integratedLUFS" : 100.0,
          "peakLevel" : -1.0,
          "metaData" : "Rec 03-04-20_006.trec;"
        },
        {
          "range" : [0, 26902528],
          "type" : 2,
          "editRate" : 44100,
          "trackRect" : [0, 0, 0, 0],
          "sampleRate" : 44100,
          "bitDepth" : 16,
          "numChannels" : 2,
          "integratedLUFS" : -27.1278816562496,
          "peakLevel" : 1.0,
          "metaData" : ""
        },
        {
          "range" : [0, 26898432],
          "type" : 2,
          "editRate" : 44100,
          "trackRect" : [0, 0, 0, 0],
          "sampleRate" : 44100,
          "bitDepth" : 16,
          "numChannels" : 2,
          "integratedLUFS" : -1.79769313486232e+308,
          "peakLevel" : 0.0,
          "metaData" : ""
        }
      ]
    },
    {
      "id" : 6,
      "src" : "C:\\Users\\profj\\Desktop\\Udemy\\Codestars\\CPP\\videos\\section3\\_intro-bulletpoints\\s3-lec5-break-continue\\Slide1.PNG",
      "rect" : [0, 0, 1280, 720],
      "lastMod" : "20200305T030622",
      "sourceTracks" : [
        {
          "range" : [0, 1],
          "type" : 1,
          "editRate" : 10000000,
          "trackRect" : [0, 0, 1280, 720],
          "sampleRate" : 0,
          "bitDepth" : 24,
          "numChannels" : 0,
          "integratedLUFS" : 100.0,
          "peakLevel" : -1.0,
          "metaData" : ""
        }
      ]
    }
  ],
  "timeline" : {
    "id" : 7,
    "sceneTrack" : {
      "scenes" : [
        {
          "duration" : 578.766666666667,
          "title" : "",
          "type" : "",
          "csml" : {
            "tracks" : [
              {
                "trackIndex" : 0,
                "medias" : [
                  {
                    "id" : 8,
                    "_type" : "IMFile",
                    "src" : 3,
                    "trackNumber" : 0,
                    "trimStartSum" : 0,
                    "attributes" : {
                      "ident" : "Splash_Android"
                    },
                    "parameters" : {
                      "translation0" : {
                        "type" : "double",
                        "defaultValue" : 0.00456702366917246,
                        "interp" : "eioe"
                      },
                      "translation1" : {
                        "type" : "double",
                        "defaultValue" : -0.00256895081391425,
                        "interp" : "eioe"
                      },
                      "scale0" : {
                        "type" : "double",
                        "defaultValue" : 0.666671423982989,
                        "interp" : "eioe"
                      },
                      "scale1" : {
                        "type" : "double",
                        "defaultValue" : 0.666671423982989,
                        "interp" : "eioe"
                      }
                    },
                    "effects" : [

                    ],
                    "start" : 17213,
                    "duration" : 150,
                    "mediaStart" : 0,
                    "mediaDuration" : 1,
                    "scalar" : 1,
                    "metadata" : {
                      "WinSubProjectDisplayName" : "",
                      "clipSpeedAttribute" : false,
                      "default-scale" : "0.666667",
                      "effectApplied" : "none"
                    },
                    "animationTracks" : {

                    }
                  }
                ],
                "transitions" : [
                  {
                    "name" : "Fade",
                    "duration" : 30,
                    "trivial" : true,
                    "useAudioPreRoll" : false,
                    "useVisualPreRoll" : true,
                    "rightMedia" : 8
                  },
                  {
                    "name" : "Fade",
                    "duration" : 30,
                    "trivial" : true,
                    "useAudioPreRoll" : false,
                    "useVisualPreRoll" : true,
                    "leftMedia" : 8
                  }
                ]
              },
              {
                "trackIndex" : 1,
                "medias" : [
                  {
                    "id" : 9,
                    "_type" : "IMFile",
                    "src" : 2,
                    "trackNumber" : 0,
                    "trimStartSum" : 0,
                    "attributes" : {
                      "ident" : "star"
                    },
                    "parameters" : {
                      "translation0" : {
                        "type" : "double",
                        "defaultValue" : -522.733906099372,
                        "interp" : "linr"
                      },
                      "translation1" : {
                        "type" : "double",
                        "defaultValue" : -277.438113851611,
                        "interp" : "linr"
                      },
                      "translation2" : {
                        "type" : "double",
                        "defaultValue" : 0.0,
                        "interp" : "linr"
                      },
                      "rotation0" : {
                        "type" : "double",
                        "defaultValue" : 0.0,
                        "interp" : "linr"
                      },
                      "rotation1" : {
                        "type" : "double",
                        "defaultValue" : 0.0,
                        "interp" : "linr"
                      },
                      "rotation2" : {
                        "type" : "double",
                        "defaultValue" : 0.0,
                        "interp" : "linr"
                      },
                      "shear0" : {
                        "type" : "double",
                        "defaultValue" : 0.0,
                        "interp" : "linr"
                      },
                      "shear1" : {
                        "type" : "double",
                        "defaultValue" : 0.0,
                        "interp" : "linr"
                      },
                      "shear2" : {
                        "type" : "double",
                        "defaultValue" : 0.0,
                        "interp" : "linr"
                      },
                      "scale0" : {
                        "type" : "double",
                        "defaultValue" : 0.344059357782636,
                        "interp" : "linr"
                      },
                      "scale1" : {
                        "type" : "double",
                        "defaultValue" : 0.344059357782636,
                        "interp" : "linr"
                      },
                      "scale2" : {
                        "type" : "double",
                        "defaultValue" : 1.0,
                        "interp" : "linr"
                      },
                      "anchor0" : {
                        "type" : "double",
                        "defaultValue" : 0.0,
                        "interp" : "linr"
                      },
                      "anchor1" : {
                        "type" : "double",
                        "defaultValue" : 0.0,
                        "interp" : "linr"
                      },
                      "anchor2" : {
                        "type" : "double",
                        "defaultValue" : 0.0,
                        "interp" : "linr"
                      },
                      "opacity" : {
                        "type" : "double",
                        "defaultValue" : 1.0,
                        "interp" : "linr",
                        "keyframes" : [
                          {
                            "endTime" : 150,
                            "time" : 120,
                            "value" : 0.0,
                            "duration" : 30
                          }
                        ]
                      }
                    },
                    "effects" : [

                    ],
                    "start" : 17213,
                    "duration" : 150,
                    "mediaStart" : 0,
                    "mediaDuration" : 1,
                    "scalar" : 1,
                    "metadata" : {
                      "WinSubProjectDisplayName" : "",
                      "clipSpeedAttribute" : false,
                      "default-opacity" : 0.0,
                      "default-scale" : "1",
                      "effectApplied" : "none"
                    },
                    "animationTracks" : {
                      "visual" : [
                        {
                          "endTime" : 150,
                          "duration" : 30,
                          "range" : [ 120, 30]
                        }
                      ]
                    }
                  }
                ],
                "transitions" : [
                  {
                    "name" : "Fade",
                    "duration" : 30,
                    "trivial" : true,
                    "useAudioPreRoll" : true,
                    "useVisualPreRoll" : true,
                    "rightMedia" : 9
                  },
                  {
                    "name" : "Fade",
                    "duration" : 30,
                    "trivial" : true,
                    "useAudioPreRoll" : true,
                    "useVisualPreRoll" : true,
                    "leftMedia" : 9
                  }
                ]
              },
              {
                "trackIndex" : 2,
                "medias" : [
                  {
                    "id" : 10,
                    "_type" : "IMFile",
                    "src" : 1,
                    "trackNumber" : 0,
                    "trimStartSum" : 0,
                    "attributes" : {
                      "ident" : "codestars_logo"
                    },
                    "parameters" : {
                      "translation0" : {
                        "type" : "double",
                        "defaultValue" : -263.136792317664,
                        "interp" : "linr"
                      },
                      "translation1" : {
                        "type" : "double",
                        "defaultValue" : -271.784183685799,
                        "interp" : "linr"
                      },
                      "translation2" : {
                        "type" : "double",
                        "defaultValue" : 0.0,
                        "interp" : "linr"
                      },
                      "rotation0" : {
                        "type" : "double",
                        "defaultValue" : 0.0,
                        "interp" : "linr"
                      },
                      "rotation1" : {
                        "type" : "double",
                        "defaultValue" : 0.0,
                        "interp" : "linr"
                      },
                      "rotation2" : {
                        "type" : "double",
                        "defaultValue" : 0.0,
                        "interp" : "linr"
                      },
                      "shear0" : {
                        "type" : "double",
                        "defaultValue" : 0.0,
                        "interp" : "linr"
                      },
                      "shear1" : {
                        "type" : "double",
                        "defaultValue" : 0.0,
                        "interp" : "linr"
                      },
                      "shear2" : {
                        "type" : "double",
                        "defaultValue" : 0.0,
                        "interp" : "linr"
                      },
                      "scale0" : {
                        "type" : "double",
                        "defaultValue" : 0.402192662926175,
                        "interp" : "linr"
                      },
                      "scale1" : {
                        "type" : "double",
                        "defaultValue" : 0.402192662926175,
                        "interp" : "linr"
                      },
                      "scale2" : {
                        "type" : "double",
                        "defaultValue" : 1.0,
                        "interp" : "linr"
                      },
                      "anchor0" : {
                        "type" : "double",
                        "defaultValue" : 0.0,
                        "interp" : "linr"
                      },
                      "anchor1" : {
                        "type" : "double",
                        "defaultValue" : 0.0,
                        "interp" : "linr"
                      },
                      "anchor2" : {
                        "type" : "double",
                        "defaultValue" : 0.0,
                        "interp" : "linr"
                      },
                      "opacity" : {
                        "type" : "double",
                        "defaultValue" : 0.0,
                        "interp" : "linr"
                      }
                    },
                    "effects" : [

                    ],
                    "start" : 17213,
                    "duration" : 150,
                    "mediaStart" : 0,
                    "mediaDuration" : 1,
                    "scalar" : 1,
                    "metadata" : {
                      "WinSubProjectDisplayName" : "",
                      "clipSpeedAttribute" : false,
                      "default-scale" : "1",
                      "effectApplied" : "none"
                    },
                    "animationTracks" : {

                    }
                  }
                ],
                "transitions" : [
                  {
                    "name" : "Fade",
                    "duration" : 30,
                    "trivial" : true,
                    "useAudioPreRoll" : true,
                    "useVisualPreRoll" : true,
                    "rightMedia" : 10
                  },
                  {
                    "name" : "Fade",
                    "duration" : 30,
                    "trivial" : true,
                    "useAudioPreRoll" : true,
                    "useVisualPreRoll" : true,
                    "leftMedia" : 10
                  }
                ]
              },
              {
                "trackIndex" : 3,
                "medias" : [
                  {
                    "id" : 11,
                    "_type" : "IMFile",
                    "src" : 3,
                    "trackNumber" : 0,
                    "trimStartSum" : 0,
                    "attributes" : {
                      "ident" : "Splash_Android"
                    },
                    "parameters" : {
                      "translation0" : -0.00456702364154329,
                      "translation1" : -6.87439439981899,
                      "scale0" : 0.666671423982989,
                      "scale1" : 0.666671423982989
                    },
                    "effects" : [

                    ],
                    "start" : 0,
                    "duration" : 150,
                    "mediaStart" : 0,
                    "mediaDuration" : 1,
                    "scalar" : 1,
                    "metadata" : {
                      "WinSubProjectDisplayName" : "",
                      "clipSpeedAttribute" : false,
                      "default-scale" : "0.666667",
                      "default-translation0" : 0.00456702366917246,
                      "default-translation1" : -0.00256895081391425,
                      "effectApplied" : "none"
                    },
                    "animationTracks" : {

                    }
                  },
                  {
                    "id" : 12,
                    "_type" : "IMFile",
                    "src" : 1,
                    "trackNumber" : 0,
                    "trimStartSum" : 0,
                    "attributes" : {
                      "ident" : "codestars_logo"
                    },
                    "parameters" : {
                      "translation0" : {
                        "type" : "double",
                        "defaultValue" : -263.136792317664,
                        "interp" : "linr"
                      },
                      "translation1" : {
                        "type" : "double",
                        "defaultValue" : -271.784183685799,
                        "interp" : "linr"
                      },
                      "translation2" : {
                        "type" : "double",
                        "defaultValue" : 0.0,
                        "interp" : "linr"
                      },
                      "rotation0" : {
                        "type" : "double",
                        "defaultValue" : 0.0,
                        "interp" : "linr"
                      },
                      "rotation1" : {
                        "type" : "double",
                        "defaultValue" : 0.0,
                        "interp" : "linr"
                      },
                      "rotation2" : {
                        "type" : "double",
                        "defaultValue" : 0.0,
                        "interp" : "linr"
                      },
                      "shear0" : {
                        "type" : "double",
                        "defaultValue" : 0.0,
                        "interp" : "linr"
                      },
                      "shear1" : {
                        "type" : "double",
                        "defaultValue" : 0.0,
                        "interp" : "linr"
                      },
                      "shear2" : {
                        "type" : "double",
                        "defaultValue" : 0.0,
                        "interp" : "linr"
                      },
                      "scale0" : {
                        "type" : "double",
                        "defaultValue" : 0.402192662926175,
                        "interp" : "linr"
                      },
                      "scale1" : {
                        "type" : "double",
                        "defaultValue" : 0.402192662926175,
                        "interp" : "linr"
                      },
                      "scale2" : {
                        "type" : "double",
                        "defaultValue" : 1.0,
                        "interp" : "linr"
                      },
                      "anchor0" : {
                        "type" : "double",
                        "defaultValue" : 0.0,
                        "interp" : "linr"
                      },
                      "anchor1" : {
                        "type" : "double",
                        "defaultValue" : 0.0,
                        "interp" : "linr"
                      },
                      "anchor2" : {
                        "type" : "double",
                        "defaultValue" : 0.0,
                        "interp" : "linr"
                      }
                    },
                    "effects" : [

                    ],
                    "start" : 17213,
                    "duration" : 150,
                    "mediaStart" : 0,
                    "mediaDuration" : 1,
                    "scalar" : 1,
                    "metadata" : {
                      "WinSubProjectDisplayName" : "",
                      "clipSpeedAttribute" : false,
                      "default-scale" : "1",
                      "effectApplied" : "none"
                    },
                    "animationTracks" : {

                    }
                  }
                ],
                "transitions" : [
                  {
                    "name" : "Fade",
                    "duration" : 30,
                    "trivial" : true,
                    "useAudioPreRoll" : false,
                    "useVisualPreRoll" : true,
                    "leftMedia" : 11
                  },
                  {
                    "name" : "Fade",
                    "duration" : 30,
                    "trivial" : true,
                    "useAudioPreRoll" : true,
                    "useVisualPreRoll" : true,
                    "rightMedia" : 12
                  },
                  {
                    "name" : "Fade",
                    "duration" : 30,
                    "trivial" : true,
                    "useAudioPreRoll" : true,
                    "useVisualPreRoll" : true,
                    "leftMedia" : 12
                  }
                ]
              },
              {
                "trackIndex" : 4,
                "medias" : [
                  {
                    "id" : 13,
                    "_type" : "IMFile",
                    "src" : 2,
                    "trackNumber" : 0,
                    "trimStartSum" : 0,
                    "attributes" : {
                      "ident" : "star"
                    },
                    "parameters" : {
                      "translation0" : {
                        "type" : "double",
                        "defaultValue" : -640.0,
                        "interp" : "linr",
                        "keyframes" : [
                          {
                            "endTime" : 30,
                            "time" : 0,
                            "value" : -522.733906099372,
                            "duration" : 30
                          }
                        ]
                      },
                      "translation1" : {
                        "type" : "double",
                        "defaultValue" : -0.0,
                        "interp" : "linr",
                        "keyframes" : [
                          {
                            "endTime" : 30,
                            "time" : 0,
                            "value" : -277.438113851611,
                            "duration" : 30
                          }
                        ]
                      },
                      "translation2" : {
                        "type" : "double",
                        "defaultValue" : 0.0,
                        "interp" : "linr"
                      },
                      "rotation0" : {
                        "type" : "double",
                        "defaultValue" : 0.0,
                        "interp" : "linr"
                      },
                      "rotation1" : {
                        "type" : "double",
                        "defaultValue" : 0.0,
                        "interp" : "linr"
                      },
                      "rotation2" : {
                        "type" : "double",
                        "defaultValue" : 6.28318530717959,
                        "interp" : "linr",
                        "keyframes" : [
                          {
                            "endTime" : 30,
                            "time" : 0,
                            "value" : 0.0,
                            "duration" : 30
                          }
                        ]
                      },
                      "shear0" : {
                        "type" : "double",
                        "defaultValue" : 0.0,
                        "interp" : "linr"
                      },
                      "shear1" : {
                        "type" : "double",
                        "defaultValue" : 0.0,
                        "interp" : "linr"
                      },
                      "shear2" : {
                        "type" : "double",
                        "defaultValue" : 0.0,
                        "interp" : "linr"
                      },
                      "scale0" : {
                        "type" : "double",
                        "defaultValue" : 0.0,
                        "interp" : "linr",
                        "keyframes" : [
                          {
                            "endTime" : 30,
                            "time" : 0,
                            "value" : 0.344059357782636,
                            "duration" : 30
                          }
                        ]
                      },
                      "scale1" : {
                        "type" : "double",
                        "defaultValue" : 0.0,
                        "interp" : "linr",
                        "keyframes" : [
                          {
                            "endTime" : 30,
                            "time" : 0,
                            "value" : 0.344059357782636,
                            "duration" : 30
                          }
                        ]
                      },
                      "scale2" : {
                        "type" : "double",
                        "defaultValue" : 1.0,
                        "interp" : "linr"
                      },
                      "anchor0" : {
                        "type" : "double",
                        "defaultValue" : 0.0,
                        "interp" : "linr"
                      },
                      "anchor1" : {
                        "type" : "double",
                        "defaultValue" : 0.0,
                        "interp" : "linr"
                      },
                      "anchor2" : {
                        "type" : "double",
                        "defaultValue" : 0.0,
                        "interp" : "linr"
                      },
                      "opacity" : {
                        "type" : "double",
                        "defaultValue" : 1.0,
                        "keyframes" : [
                          {
                            "endTime" : 150,
                            "time" : 120,
                            "value" : 0.0,
                            "duration" : 30
                          }
                        ]
                      }
                    },
                    "effects" : [

                    ],
                    "start" : 0,
                    "duration" : 150,
                    "mediaStart" : 0,
                    "mediaDuration" : 1,
                    "scalar" : 1,
                    "metadata" : {
                      "WinSubProjectDisplayName" : "",
                      "clipSpeedAttribute" : false,
                      "default-scale" : "1",
                      "effectApplied" : "none"
                    },
                    "animationTracks" : {
                      "visual" : [
                        {
                          "endTime" : 30,
                          "duration" : 30,
                          "range" : [ 0, 30]
                        },
                        {
                          "endTime" : 150,
                          "duration" : 30,
                          "range" : [ 120, 30]
                        }
                      ]
                    }
                  },
                  {
                    "id" : 14,
                    "_type" : "Callout",
                    "def" : {
                      "kind" : "TypeWinText",
                      "shape" : "",
                      "style" : "",
                      "Style" : {
                        "type" : "double",
                        "defaultValue" : 5.0,
                        "interp" : "linr"
                      },
                      "dimensionTime" : {
                        "type" : "double",
                        "defaultValue" : 0.0,
                        "interp" : "linr"
                      },
                      "height" : {
                        "type" : "double",
                        "defaultValue" : 180.0,
                        "interp" : "linr"
                      },
                      "line-spacing" : {
                        "type" : "double",
                        "defaultValue" : 0.0,
                        "interp" : "linr"
                      },
                      "textIgnoresOpacity" : {
                        "type" : "double",
                        "defaultValue" : 0.0,
                        "interp" : "linr"
                      },
                      "textRectHeight" : {
                        "type" : "double",
                        "defaultValue" : 1.0,
                        "interp" : "linr"
                      },
                      "textRectWidth" : {
                        "type" : "double",
                        "defaultValue" : 1.0,
                        "interp" : "linr"
                      },
                      "textRectX" : {
                        "type" : "double",
                        "defaultValue" : 0.0,
                        "interp" : "linr"
                      },
                      "textRectY" : {
                        "type" : "double",
                        "defaultValue" : 0.0,
                        "interp" : "linr"
                      },
                      "textVerticalAlign" : {
                        "type" : "double",
                        "defaultValue" : -1.0,
                        "interp" : "linr"
                      },
                      "width" : {
                        "type" : "double",
                        "defaultValue" : 320.0,
                        "interp" : "linr"
                      },
                      "filename" : "C:\\Program Files\\TechSmith\\Camtasia 9\\Media\\Studio\\Callouts\\trans_100x100.xml",
                      "horizontal-alignment" : "center",
                      "name" : "Text",
                      "text" : "{\\rtf1\\ansi\\ansicpg1252\\deff0\\nouicompat\\deflang1033{\\fonttbl{\\f0\\fnil\\fcharset0 Quicksand;}}\r\n{\\colortbl ;\\red255\\green255\\blue255;}\r\n{\\*\\generator Riched20 10.0.18362}\\viewkind4\\uc1 \r\n\\pard\\cf1\\f0\\fs80 The Complete\\par\r\n\\b\\fs90 C++ Developer Course\\par\r\n}\r\n",
                      "vertical-alignment" : "center",
                      "xmlContent" : "﻿<?xml version=\"1.0\"?>\n\n<Overlay version=\"1.0.1\">\n\n<Overlay_Filename>trans_100x100.png</Overlay_Filename>\n<Overlay_Name>Text</Overlay_Name>\n<Text_Top>0</Text_Top>\n<Text_Left>0</Text_Left>\n<Text_Bottom>0</Text_Bottom>\n<Text_Right>0</Text_Right>\n<Fill_Color>0</Fill_Color>\n<Border_Color>0</Border_Color>\n<Style>5</Style>\n</Overlay>",
                      "textAttributes" : {
                        "type" : "textAttributeList",
                        "keyframes" : [
                          {
                            "endTime" : 0,
                            "time" : 0,
                            "value" : null,
                            "duration" : 0
                          }
                        ]
                      }
                    },
                    "attributes" : {
                      "autoRotateText" : true
                    },
                    "parameters" : {
                      "translation0" : {
                        "type" : "double",
                        "defaultValue" : -70.9521418731169,
                        "interp" : "eioe"
                      },
                      "translation1" : {
                        "type" : "double",
                        "defaultValue" : 239.738828503294,
                        "interp" : "eioe"
                      },
                      "scale0" : {
                        "type" : "double",
                        "defaultValue" : 3.12385809835021,
                        "interp" : "eioe"
                      },
                      "scale1" : {
                        "type" : "double",
                        "defaultValue" : 1.00002854389906,
                        "interp" : "eioe"
                      }
                    },
                    "effects" : [

                    ],
                    "start" : 17213,
                    "duration" : 150,
                    "mediaStart" : 0,
                    "mediaDuration" : 150,
                    "scalar" : 1,
                    "metadata" : {
                      "WinSubProjectDisplayName" : "",
                      "clipSpeedAttribute" : false,
                      "default-legacy-fill-style" : 5.0,
                      "default-legacy-text-callout-vertical-align" : "middle",
                      "default-scale0" : 1.0,
                      "default-scale1" : 1.0,
                      "default-text" : "{\\rtf1\\ansi\\ansicpg1252\\deff0\\deflang1033{\\fonttbl{\\f0\\fswiss\\fprq2\\fcharset0 Arial;}}{\\colortbl ;\\red255\\green255\\blue255;}\\viewkind4\\uc1\\pard\\qc\\cf1\\fs72 abc}",
                      "default-translation0" : 0.0,
                      "default-translation1" : 0.0
                    },
                    "animationTracks" : {

                    }
                  }
                ],
                "transitions" : [
                  {
                    "name" : "Fade",
                    "duration" : 30,
                    "trivial" : true,
                    "useAudioPreRoll" : true,
                    "useVisualPreRoll" : true,
                    "rightMedia" : 14
                  },
                  {
                    "name" : "Fade",
                    "duration" : 30,
                    "trivial" : true,
                    "useAudioPreRoll" : true,
                    "useVisualPreRoll" : true,
                    "leftMedia" : 14
                  }
                ]
              },
              {
                "trackIndex" : 5,
                "medias" : [
                  {
                    "id" : 15,
                    "_type" : "Callout",
                    "def" : {
                      "kind" : "remix",
                      "shape" : "text",
                      "style" : "bold",
                      "height" : 250.0,
                      "line-spacing" : 0.0,
                      "width" : 1035.85760517811,
                      "word-wrap" : 1.0,
                      "horizontal-alignment" : "left",
                      "text" : "Control Statements\rBreak and Continue",
                      "vertical-alignment" : "center",
                      "font" : {
                        "color-blue" : 1.0,
                        "color-green" : 1.0,
                        "color-red" : 1.0,
                        "size" : 96.0,
                        "tracking" : 0.0,
                        "name" : "Source Sans Pro",
                        "weight" : "Semi Bold"
                      },
                      "textAttributes" : {
                        "type" : "textAttributeList",
                        "keyframes" : [
                          {
                            "endTime" : 0,
                            "time" : 0,
                            "value" : [{"name":"fontWeight","rangeEnd":37,"rangeStart":19,"value":400,"valueType":"int"},{"name":"fontSize","rangeEnd":19,"rangeStart":0,"value":55,"valueType":"double"},{"name":"strikethrough","rangeEnd":37,"rangeStart":0,"value":0,"valueType":"int"},{"name":"fontName","rangeEnd":37,"rangeStart":0,"value":"Quicksand","valueType":"string"},{"name":"underline","rangeEnd":37,"rangeStart":0,"value":0,"valueType":"int"},{"name":"fontSize","rangeEnd":37,"rangeStart":19,"value":52,"valueType":"double"},{"name":"fontWeight","rangeEnd":19,"rangeStart":0,"value":700,"valueType":"int"},{"name":"fontItalic","rangeEnd":37,"rangeStart":0,"value":0,"valueType":"int"},{"name":"fgColor","rangeEnd":37,"rangeStart":0,"value":"(255,255,255,255)","valueType":"color"},{"name":"kerning","rangeEnd":37,"rangeStart":0,"value":0,"valueType":"double"}],
                            "duration" : 0
                          }
                        ]
                      }
                    },
                    "attributes" : {
                      "autoRotateText" : true
                    },
                    "parameters" : {
                      "translation0" : {
                        "type" : "double",
                        "defaultValue" : -913.412651778095,
                        "keyframes" : [
                          {
                            "endTime" : 38,
                            "time" : 8,
                            "value" : 98.5873482219166,
                            "duration" : 30
                          }
                        ]
                      },
                      "translation1" : {
                        "type" : "double",
                        "defaultValue" : -34.812002943898,
                        "keyframes" : [
                          {
                            "endTime" : 38,
                            "time" : 8,
                            "value" : -34.8120029438544,
                            "duration" : 30
                          }
                        ]
                      }
                    },
                    "effects" : [
                        {
                          "effectName" : "DropShadow",
                          "category" : "categoryVisualEffects",
                          "parameters" : {
                            "angle" : {
                              "type" : "double",
                              "defaultValue" : 5.49778714378214,
                              "uiHints" : {
                                "userInterfaceType" : 0,
                                "unitType" : 0
                              },
                              "keyframes" : [
                                {
                                  "endTime" : 38,
                                  "time" : 8,
                                  "value" : 5.49778714378214,
                                  "duration" : 30
                                }
                              ]
                            },
                            "blur" : 10.0,
                            "color-alpha" : 1.0,
                            "color-blue" : 0.1216,
                            "color-green" : 0.1216,
                            "color-red" : 0.1216,
                            "enabled" : 1,
                            "offset" : 10.0,
                            "opacity" : 0.4
                          }
                        }
                    ],
                    "start" : 35,
                    "duration" : 115,
                    "mediaStart" : 8,
                    "mediaDuration" : 115,
                    "scalar" : 1,
                    "metadata" : {
                      "WinSubProjectDisplayName" : "",
                      "clipSpeedAttribute" : false,
                      "default-HAlign" : "center",
                      "default-LineSpace" : 0.0,
                      "default-VAlign" : "center",
                      "default-text-attributes" : "[{\"name\":\"fontWeight\",\"rangeEnd\":37,\"rangeStart\":26,\"value\":100,\"valueType\":\"int\"},{\"name\":\"underline\",\"rangeEnd\":37,\"rangeStart\":0,\"value\":0,\"valueType\":\"int\"},{\"name\":\"fontWeight\",\"rangeEnd\":26,\"rangeStart\":0,\"value\":700,\"valueType\":\"int\"},{\"name\":\"fgColor\",\"rangeEnd\":37,\"rangeStart\":0,\"value\":\"(255,255,255,255)\",\"valueType\":\"color\"},{\"name\":\"fontSize\",\"rangeEnd\":26,\"rangeStart\":0,\"value\":55,\"valueType\":\"double\"},{\"name\":\"fontItalic\",\"rangeEnd\":37,\"rangeStart\":0,\"value\":0,\"valueType\":\"int\"},{\"name\":\"strikethrough\",\"rangeEnd\":37,\"rangeStart\":0,\"value\":0,\"valueType\":\"int\"},{\"name\":\"fontName\",\"rangeEnd\":37,\"rangeStart\":0,\"value\":\"Quicksand\",\"valueType\":\"string\"},{\"name\":\"fontSize\",\"rangeEnd\":37,\"rangeStart\":26,\"value\":52,\"valueType\":\"double\"}]",
                      "default-translation0" : 204.5,
                      "default-translation1" : 0.0
                    },
                    "animationTracks" : {
                      "visual" : [
                        {
                          "endTime" : 38,
                          "duration" : 30,
                          "range" : [ 8, 30]
                        }
                      ]
                    }
                  },
                  {
                    "id" : 16,
                    "_type" : "IMFile",
                    "src" : 4,
                    "trackNumber" : 0,
                    "trimStartSum" : 0,
                    "attributes" : {
                      "ident" : "Head"
                    },
                    "parameters" : {
                      "translation0" : {
                        "type" : "double",
                        "defaultValue" : 537.015153862789,
                        "interp" : "eioe"
                      },
                      "translation1" : {
                        "type" : "double",
                        "defaultValue" : -206.400000000049,
                        "interp" : "eioe"
                      },
                      "scale0" : {
                        "type" : "double",
                        "defaultValue" : 0.35,
                        "interp" : "eioe"
                      },
                      "scale1" : {
                        "type" : "double",
                        "defaultValue" : 0.35,
                        "interp" : "eioe"
                      }
                    },
                    "effects" : [

                    ],
                    "start" : 17213,
                    "duration" : 150,
                    "mediaStart" : 0,
                    "mediaDuration" : 1,
                    "scalar" : 1,
                    "metadata" : {
                      "WinSubProjectDisplayName" : "",
                      "clipSpeedAttribute" : false,
                      "default-scale0" : 0.703125,
                      "default-scale1" : 0.703125,
                      "default-translation0" : 0.0,
                      "default-translation1" : 0.0
                    },
                    "animationTracks" : {

                    }
                  }
                ],
                "transitions" : [
                  {
                    "name" : "Fade",
                    "duration" : 30,
                    "trivial" : true,
                    "useAudioPreRoll" : true,
                    "useVisualPreRoll" : true,
                    "leftMedia" : 15
                  },
                  {
                    "name" : "Fade",
                    "duration" : 30,
                    "trivial" : false,
                    "useAudioPreRoll" : true,
                    "useVisualPreRoll" : true,
                    "rightMedia" : 16
                  },
                  {
                    "name" : "Fade",
                    "duration" : 30,
                    "trivial" : false,
                    "useAudioPreRoll" : true,
                    "useVisualPreRoll" : true,
                    "leftMedia" : 16
                  }
                ]
              },
              {
                "trackIndex" : 6,
                "medias" : [
                  {
                    "id" : 17,
                    "_type" : "Callout",
                    "def" : {
                      "kind" : "TypeWinText",
                      "shape" : "",
                      "style" : "",
                      "Style" : 5.0,
                      "dimensionTime" : 0.0,
                      "height" : 180.0,
                      "line-spacing" : 0.0,
                      "textIgnoresOpacity" : 0.0,
                      "textRectHeight" : 1.0,
                      "textRectWidth" : 1.0,
                      "textRectX" : 0.0,
                      "textRectY" : 0.0,
                      "textVerticalAlign" : 0.0,
                      "width" : 320.0,
                      "filename" : "C:\\Program Files\\TechSmith\\Camtasia 9\\Media\\Studio\\Callouts\\trans_100x100.xml",
                      "horizontal-alignment" : "center",
                      "name" : "Text",
                      "text" : "{\\rtf1\\ansi\\ansicpg1252\\deff0\\nouicompat\\deflang1033{\\fonttbl{\\f0\\fnil\\fcharset0 Quicksand;}}\r\n{\\colortbl ;\\red255\\green255\\blue255;}\r\n{\\*\\generator Riched20 10.0.18362}\\viewkind4\\uc1 \r\n\\pard\\qc\\cf1\\b\\f0\\fs124 #\\fs256 3\\fs72\\par\r\n}\r\n",
                      "vertical-alignment" : "center",
                      "xmlContent" : "﻿<?xml version=\"1.0\"?>\n\n<Overlay version=\"1.0.1\">\n\n<Overlay_Filename>trans_100x100.png</Overlay_Filename>\n<Overlay_Name>Text</Overlay_Name>\n<Text_Top>0</Text_Top>\n<Text_Left>0</Text_Left>\n<Text_Bottom>0</Text_Bottom>\n<Text_Right>0</Text_Right>\n<Fill_Color>0</Fill_Color>\n<Border_Color>0</Border_Color>\n<Style>5</Style>\n</Overlay>",
                      "textAttributes" : {
                        "type" : "textAttributeList",
                        "keyframes" : [
                          {
                            "endTime" : 0,
                            "time" : 0,
                            "value" : null,
                            "duration" : 0
                          }
                        ]
                      }
                    },
                    "attributes" : {
                      "autoRotateText" : true
                    },
                    "parameters" : {
                      "translation0" : {
                        "type" : "double",
                        "defaultValue" : -820.538865370044,
                        "keyframes" : [
                          {
                            "endTime" : 65,
                            "time" : 35,
                            "value" : -488.499999999933,
                            "duration" : 30
                          }
                        ]
                      },
                      "translation1" : {
                        "type" : "double",
                        "defaultValue" : -34.8120029438978,
                        "keyframes" : [
                          {
                            "endTime" : 65,
                            "time" : 35,
                            "value" : -34.8120029438634,
                            "duration" : 30
                          }
                        ]
                      },
                      "scale0" : {
                        "type" : "double",
                        "defaultValue" : 0.580906148866913,
                        "keyframes" : [
                          {
                            "endTime" : 65,
                            "time" : 35,
                            "value" : 0.580906148866913,
                            "duration" : 30
                          }
                        ]
                      },
                      "scale1" : {
                        "type" : "double",
                        "defaultValue" : 1.43801063442563,
                        "keyframes" : [
                          {
                            "endTime" : 65,
                            "time" : 35,
                            "value" : 1.43801063442563,
                            "duration" : 30
                          }
                        ]
                      }
                    },
                    "effects" : [

                    ],
                    "start" : 35,
                    "duration" : 115,
                    "mediaStart" : 35,
                    "mediaDuration" : 115,
                    "scalar" : 1,
                    "metadata" : {
                      "WinSubProjectDisplayName" : "",
                      "clipSpeedAttribute" : false,
                      "default-legacy-fill-style" : 5.0,
                      "default-legacy-text-callout-vertical-align" : "middle",
                      "default-rotation2" : 0.0,
                      "default-scale0" : 1.0,
                      "default-scale1" : 1.0,
                      "default-text" : "{\\rtf1\\ansi\\ansicpg1252\\deff0\\deflang1033{\\fonttbl{\\f0\\fswiss\\fprq2\\fcharset0 Arial;}}{\\colortbl ;\\red255\\green255\\blue255;}\\viewkind4\\uc1\\pard\\qc\\cf1\\fs72 abc}",
                      "default-translation0" : 0.0,
                      "default-translation1" : 0.0
                    },
                    "animationTracks" : {
                      "visual" : [
                        {
                          "endTime" : 65,
                          "duration" : 30,
                          "range" : [ 35, 30]
                        }
                      ]
                    }
                  }
                ],
                "transitions" : [
                  {
                    "name" : "Fade",
                    "duration" : 30,
                    "trivial" : true,
                    "useAudioPreRoll" : true,
                    "useVisualPreRoll" : true,
                    "leftMedia" : 17
                  }
                ]
              },
              {
                "trackIndex" : 7,
                "medias" : [
                  {
                    "id" : 18,
                    "_type" : "IMFile",
                    "src" : 1,
                    "trackNumber" : 0,
                    "trimStartSum" : 0,
                    "attributes" : {
                      "ident" : "codestars_logo"
                    },
                    "parameters" : {
                      "translation0" : {
                        "type" : "double",
                        "defaultValue" : -263.136792317664,
                        "interp" : "linr"
                      },
                      "translation1" : {
                        "type" : "double",
                        "defaultValue" : -271.784183685799,
                        "interp" : "linr"
                      },
                      "translation2" : {
                        "type" : "double",
                        "defaultValue" : 0.0,
                        "interp" : "linr"
                      },
                      "rotation0" : {
                        "type" : "double",
                        "defaultValue" : 0.0,
                        "interp" : "linr"
                      },
                      "rotation1" : {
                        "type" : "double",
                        "defaultValue" : 0.0,
                        "interp" : "linr"
                      },
                      "rotation2" : {
                        "type" : "double",
                        "defaultValue" : 0.0,
                        "interp" : "linr"
                      },
                      "shear0" : {
                        "type" : "double",
                        "defaultValue" : 0.0,
                        "interp" : "linr"
                      },
                      "shear1" : {
                        "type" : "double",
                        "defaultValue" : 0.0,
                        "interp" : "linr"
                      },
                      "shear2" : {
                        "type" : "double",
                        "defaultValue" : 0.0,
                        "interp" : "linr"
                      },
                      "scale0" : {
                        "type" : "double",
                        "defaultValue" : 0.402192662926175,
                        "interp" : "linr"
                      },
                      "scale1" : {
                        "type" : "double",
                        "defaultValue" : 0.402192662926175,
                        "interp" : "linr"
                      },
                      "scale2" : {
                        "type" : "double",
                        "defaultValue" : 1.0,
                        "interp" : "linr"
                      },
                      "anchor0" : {
                        "type" : "double",
                        "defaultValue" : 0.0,
                        "interp" : "linr"
                      },
                      "anchor1" : {
                        "type" : "double",
                        "defaultValue" : 0.0,
                        "interp" : "linr"
                      },
                      "anchor2" : {
                        "type" : "double",
                        "defaultValue" : 0.0,
                        "interp" : "linr"
                      }
                    },
                    "effects" : [

                    ],
                    "start" : 0,
                    "duration" : 150,
                    "mediaStart" : 0,
                    "mediaDuration" : 1,
                    "scalar" : 1,
                    "metadata" : {
                      "WinSubProjectDisplayName" : "",
                      "clipSpeedAttribute" : false,
                      "default-scale" : "1",
                      "effectApplied" : "none"
                    },
                    "animationTracks" : {

                    }
                  }
                ],
                "transitions" : [
                  {
                    "name" : "Fade",
                    "duration" : 30,
                    "trivial" : true,
                    "useAudioPreRoll" : true,
                    "useVisualPreRoll" : true,
                    "leftMedia" : 18
                  }
                ]
              },
              {
                "trackIndex" : 8,
                "medias" : [
                ]
              },
              {
                "trackIndex" : 9,
                "medias" : [
                  {
                    "id" : 19,
                    "_type" : "Callout",
                    "def" : {
                      "kind" : "TypeWinText",
                      "shape" : "",
                      "style" : "",
                      "Style" : 5.0,
                      "dimensionTime" : 0.0,
                      "height" : 180.0,
                      "line-spacing" : 0.0,
                      "textIgnoresOpacity" : 0.0,
                      "textRectHeight" : 1.0,
                      "textRectWidth" : 1.0,
                      "textRectX" : 0.0,
                      "textRectY" : 0.0,
                      "textVerticalAlign" : -1.0,
                      "width" : 320.0,
                      "filename" : "C:\\Program Files\\TechSmith\\Camtasia 9\\Media\\Studio\\Callouts\\trans_100x100.xml",
                      "horizontal-alignment" : "center",
                      "name" : "Text",
                      "text" : "{\\rtf1\\ansi\\ansicpg1252\\deff0\\nouicompat\\deflang1033{\\fonttbl{\\f0\\fnil\\fcharset0 Quicksand;}}\r\n{\\colortbl ;\\red255\\green255\\blue255;}\r\n{\\*\\generator Riched20 10.0.18362}\\viewkind4\\uc1 \r\n\\pard\\cf1\\f0\\fs80 The Complete\\par\r\n\\b\\fs90 C++ Developer Course\\par\r\n}\r\n",
                      "vertical-alignment" : "center",
                      "xmlContent" : "﻿<?xml version=\"1.0\"?>\n\n<Overlay version=\"1.0.1\">\n\n<Overlay_Filename>trans_100x100.png</Overlay_Filename>\n<Overlay_Name>Text</Overlay_Name>\n<Text_Top>0</Text_Top>\n<Text_Left>0</Text_Left>\n<Text_Bottom>0</Text_Bottom>\n<Text_Right>0</Text_Right>\n<Fill_Color>0</Fill_Color>\n<Border_Color>0</Border_Color>\n<Style>5</Style>\n</Overlay>",
                      "textAttributes" : {
                        "type" : "textAttributeList",
                        "keyframes" : [
                          {
                            "endTime" : 0,
                            "time" : 0,
                            "value" : null,
                            "duration" : 0
                          }
                        ]
                      }
                    },
                    "attributes" : {
                      "autoRotateText" : true
                    },
                    "parameters" : {
                      "translation0" : -70.9521418731169,
                      "translation1" : 239.738828503294,
                      "scale0" : 3.12385809835021,
                      "scale1" : 1.00002854389906
                    },
                    "effects" : [

                    ],
                    "start" : 0,
                    "duration" : 150,
                    "mediaStart" : 0,
                    "mediaDuration" : 150,
                    "scalar" : 1,
                    "metadata" : {
                      "WinSubProjectDisplayName" : "",
                      "clipSpeedAttribute" : false,
                      "default-legacy-fill-style" : 5.0,
                      "default-legacy-text-callout-vertical-align" : "middle",
                      "default-scale0" : 1.0,
                      "default-scale1" : 1.0,
                      "default-text" : "{\\rtf1\\ansi\\ansicpg1252\\deff0\\deflang1033{\\fonttbl{\\f0\\fswiss\\fprq2\\fcharset0 Arial;}}{\\colortbl ;\\red255\\green255\\blue255;}\\viewkind4\\uc1\\pard\\qc\\cf1\\fs72 abc}",
                      "default-translation0" : 0.0,
                      "default-translation1" : 0.0
                    },
                    "animationTracks" : {

                    }
                  }
                ],
                "transitions" : [
                  {
                    "name" : "Fade",
                    "duration" : 30,
                    "trivial" : true,
                    "useAudioPreRoll" : true,
                    "useVisualPreRoll" : true,
                    "leftMedia" : 19
                  }
                ]
              },
              {
                "trackIndex" : 10,
                "medias" : [
                  {
                    "id" : 20,
                    "_type" : "IMFile",
                    "src" : 4,
                    "trackNumber" : 0,
                    "trimStartSum" : 0,
                    "attributes" : {
                      "ident" : "Head"
                    },
                    "parameters" : {
                      "translation0" : 513.825000000109,
                      "translation1" : -179.200000000031,
                      "scale0" : 0.35,
                      "scale1" : 0.35
                    },
                    "effects" : [

                    ],
                    "start" : 0,
                    "duration" : 150,
                    "mediaStart" : 0,
                    "mediaDuration" : 1,
                    "scalar" : 1,
                    "metadata" : {
                      "WinSubProjectDisplayName" : "",
                      "clipSpeedAttribute" : false,
                      "default-scale0" : 0.703125,
                      "default-scale1" : 0.703125,
                      "default-translation0" : 0.0,
                      "default-translation1" : 0.0
                    },
                    "animationTracks" : {

                    }
                  }
                ],
                "transitions" : [
                  {
                    "name" : "Fade",
                    "duration" : 30,
                    "trivial" : false,
                    "useAudioPreRoll" : true,
                    "useVisualPreRoll" : true,
                    "leftMedia" : 20
                  }
                ]
              },
              {
                "trackIndex" : 11,
                "medias" : [
                  {
                    "id" : 21,
                    "_type" : "StitchedMedia",
                    "minMediaStart" : 0,
                    "attributes" : {
                      "ident" : "Rec 03-04-20_006",
                      "gain" : 1.0,
                      "mixToMono" : false
                    },
                    "parameters" : {
                      "translation0" : {
                        "type" : "double",
                        "defaultValue" : 0.0,
                        "keyframes" : [
                          {
                            "endTime" : 627,
                            "time" : 597,
                            "value" : 11.8014333819956,
                            "duration" : 30
                          },
                          {
                            "endTime" : 1184,
                            "time" : 1154,
                            "value" : -316.949305552478,
                            "duration" : 30
                          },
                          {
                            "endTime" : 1273,
                            "time" : 1243,
                            "value" : -36.2468071841299,
                            "duration" : 30
                          },
                          {
                            "endTime" : 1380,
                            "time" : 1350,
                            "value" : 316.949276336174,
                            "duration" : 30
                          },
                          {
                            "endTime" : 10379,
                            "time" : 10349,
                            "value" : 104.525869980115,
                            "duration" : 30
                          },
                          {
                            "endTime" : 10789,
                            "time" : 10759,
                            "value" : -316.949449978593,
                            "duration" : 30
                          },
                          {
                            "endTime" : 10869,
                            "time" : 10839,
                            "value" : -43.8335430701835,
                            "duration" : 30
                          },
                          {
                            "endTime" : 10977,
                            "time" : 10947,
                            "value" : 316.949391546,
                            "duration" : 30
                          }
                        ]
                      },
                      "translation1" : {
                        "type" : "double",
                        "defaultValue" : 0.0,
                        "keyframes" : [
                          {
                            "endTime" : 627,
                            "time" : 597,
                            "value" : -18.9663837902863,
                            "duration" : 30
                          },
                          {
                            "endTime" : 1184,
                            "time" : 1154,
                            "value" : -178.284036569096,
                            "duration" : 30
                          },
                          {
                            "endTime" : 1273,
                            "time" : 1243,
                            "value" : 18.9663831012292,
                            "duration" : 30
                          },
                          {
                            "endTime" : 1380,
                            "time" : 1350,
                            "value" : -178.284036569096,
                            "duration" : 30
                          },
                          {
                            "endTime" : 10379,
                            "time" : 10349,
                            "value" : 3.79327606900006,
                            "duration" : 30
                          },
                          {
                            "endTime" : 10789,
                            "time" : 10759,
                            "value" : -178.284036569096,
                            "duration" : 30
                          },
                          {
                            "endTime" : 10869,
                            "time" : 10839,
                            "value" : -49.3125985438016,
                            "duration" : 30
                          },
                          {
                            "endTime" : 10977,
                            "time" : 10947,
                            "value" : -178.284036569096,
                            "duration" : 30
                          }
                        ]
                      },
                      "scale0" : {
                        "type" : "double",
                        "defaultValue" : 0.666666666666667,
                        "keyframes" : [
                          {
                            "endTime" : 627,
                            "time" : 597,
                            "value" : 0.996822249068362,
                            "duration" : 30
                          },
                          {
                            "endTime" : 1184,
                            "time" : 1154,
                            "value" : 0.996822098816096,
                            "duration" : 30
                          },
                          {
                            "endTime" : 1273,
                            "time" : 1243,
                            "value" : 0.996822217741892,
                            "duration" : 30
                          },
                          {
                            "endTime" : 1380,
                            "time" : 1350,
                            "value" : 0.996822157640982,
                            "duration" : 30
                          },
                          {
                            "endTime" : 10379,
                            "time" : 10349,
                            "value" : 0.996822276566784,
                            "duration" : 30
                          },
                          {
                            "endTime" : 10789,
                            "time" : 10759,
                            "value" : 0.996822216465871,
                            "duration" : 30
                          },
                          {
                            "endTime" : 10869,
                            "time" : 10839,
                            "value" : 0.996822155088929,
                            "duration" : 30
                          },
                          {
                            "endTime" : 10977,
                            "time" : 10947,
                            "value" : 0.996822275290763,
                            "duration" : 30
                          }
                        ]
                      },
                      "scale1" : {
                        "type" : "double",
                        "defaultValue" : 0.666666666666667,
                        "keyframes" : [
                          {
                            "endTime" : 627,
                            "time" : 597,
                            "value" : 0.996822287390706,
                            "duration" : 30
                          }
                        ]
                      },
                      "volume" : {
                        "type" : "double",
                        "keyframes" : [
                          {
                            "endTime" : 0,
                            "time" : 0,
                            "value" : 1.0,
                            "duration" : 0
                          },
                          {
                            "endTime" : 9082,
                            "time" : 9082,
                            "value" : 1.0,
                            "duration" : 0
                          },
                          {
                            "endTime" : 9083,
                            "time" : 9083,
                            "value" : 0.0,
                            "duration" : 0
                          },
                          {
                            "endTime" : 9090,
                            "time" : 9090,
                            "value" : 0.0,
                            "duration" : 0
                          },
                          {
                            "endTime" : 9091,
                            "time" : 9091,
                            "value" : 1.0,
                            "duration" : 0
                          },
                          {
                            "endTime" : 9285,
                            "time" : 9285,
                            "value" : 1.0,
                            "duration" : 0
                          },
                          {
                            "endTime" : 9286,
                            "time" : 9286,
                            "value" : 0.0,
                            "duration" : 0
                          },
                          {
                            "endTime" : 9537,
                            "time" : 9537,
                            "value" : 0.0,
                            "duration" : 0
                          },
                          {
                            "endTime" : 9538,
                            "time" : 9538,
                            "value" : 1.0,
                            "duration" : 0
                          },
                          {
                            "endTime" : 9588,
                            "time" : 9588,
                            "value" : 1.0,
                            "duration" : 0
                          },
                          {
                            "endTime" : 9589,
                            "time" : 9589,
                            "value" : 0.0,
                            "duration" : 0
                          },
                          {
                            "endTime" : 9611,
                            "time" : 9611,
                            "value" : 0.0,
                            "duration" : 0
                          },
                          {
                            "endTime" : 9612,
                            "time" : 9612,
                            "value" : 1.0,
                            "duration" : 0
                          },
                          {
                            "endTime" : 17182,
                            "time" : 17182,
                            "value" : 1.0,
                            "duration" : 0
                          },
                          {
                            "endTime" : 17183,
                            "time" : 17183,
                            "value" : 0.0,
                            "duration" : 0
                          },
                          {
                            "endTime" : 17214,
                            "time" : 17214,
                            "value" : 0.0,
                            "duration" : 0
                          },
                          {
                            "endTime" : 17215,
                            "time" : 17215,
                            "value" : 1.0,
                            "duration" : 0
                          }
                        ]
                      },
                      "cursorOpacity" : 1.0,
                      "cursorScale" : 1.0
                    },
                    "medias" : [
                        {
                          "id" : 22,
                          "_type" : "UnifiedMedia",
                          "video" : 
                              {
                                "id" : 23,
                                "_type" : "ScreenVMFile",
                                "src" : 5,
                                "trackNumber" : 0,
                                "attributes" : {
                                  "ident" : "Rec 03-04-20_006"
                                },
                                "parameters" : {
                                  "cursorScale" : {
                                    "type" : "double",
                                    "defaultValue" : 0.0,
                                    "interp" : "linr"
                                  },
                                  "cursorOpacity" : {
                                    "type" : "double",
                                    "defaultValue" : 0.0,
                                    "interp" : "linr"
                                  }
                                },
                                "effects" : [

                                ],
                                "start" : 0,
                                "duration" : 2122,
                                "mediaStart" : 0,
                                "mediaDuration" : 2122,
                                "scalar" : 1,
                                "animationTracks" : {

                                }
                              },
                          "audio" : 
                              {
                                "id" : 24,
                                "_type" : "AMFile",
                                "src" : 5,
                                "trackNumber" : 2,
                                "attributes" : {
                                  "ident" : "",
                                  "sampleRate" : 44100,
                                  "bitDepth" : 16,
                                  "gain" : 1.0,
                                  "mixToMono" : false
                                },
                                  "channelNumber" : "0,1",
                                "effects" : [

                                ],
                                "start" : 0,
                                "duration" : 2122,
                                "mediaStart" : 0,
                                "mediaDuration" : 2122,
                                "scalar" : 1,
                                "animationTracks" : {

                                }
                              }
,
                          "start" : 0,
                          "duration" : 2122,
                          "mediaStart" : 0,
                          "mediaDuration" : 18298,
                          "scalar" : 1,
                          "metadata" : {
                            "AutoAppliedSmartFocus" : "False",
                            "WinSubProjectDisplayName" : "",
                            "clipSpeedAttribute" : false,
                            "default-scale0" : 0.666666666666667,
                            "default-scale1" : 0.666666666666667,
                            "default-translation0" : 0.0,
                            "default-translation1" : 0.0
                          }
                        },
                        {
                          "id" : 25,
                          "_type" : "UnifiedMedia",
                          "video" : 
                              {
                                "id" : 26,
                                "_type" : "ScreenVMFile",
                                "src" : 5,
                                "trackNumber" : 0,
                                "attributes" : {
                                  "ident" : "Rec 03-04-20_006"
                                },
                                "parameters" : {
                                  "cursorScale" : {
                                    "type" : "double",
                                    "defaultValue" : 0.0,
                                    "interp" : "linr"
                                  },
                                  "cursorOpacity" : {
                                    "type" : "double",
                                    "defaultValue" : 0.0,
                                    "interp" : "linr"
                                  }
                                },
                                "effects" : [

                                ],
                                "start" : 2122,
                                "duration" : 5482,
                                "mediaStart" : 2251,
                                "mediaDuration" : 5482,
                                "scalar" : 1,
                                "animationTracks" : {

                                }
                              },
                          "audio" : 
                              {
                                "id" : 27,
                                "_type" : "AMFile",
                                "src" : 5,
                                "trackNumber" : 2,
                                "attributes" : {
                                  "ident" : "",
                                  "sampleRate" : 44100,
                                  "bitDepth" : 16,
                                  "gain" : 1.0,
                                  "mixToMono" : false
                                },
                                  "channelNumber" : "0,1",
                                "effects" : [

                                ],
                                "start" : 2122,
                                "duration" : 5482,
                                "mediaStart" : 2251,
                                "mediaDuration" : 5482,
                                "scalar" : 1,
                                "animationTracks" : {

                                }
                              }
,
                          "start" : 2122,
                          "duration" : 5482,
                          "mediaStart" : 0,
                          "mediaDuration" : 18298,
                          "scalar" : 1,
                          "metadata" : {
                            "AutoAppliedSmartFocus" : "False",
                            "WinSubProjectDisplayName" : "",
                            "clipSpeedAttribute" : false,
                            "default-scale0" : 0.666666666666667,
                            "default-scale1" : 0.666666666666667,
                            "default-translation0" : 0.0,
                            "default-translation1" : 0.0
                          }
                        },
                        {
                          "id" : 28,
                          "_type" : "UnifiedMedia",
                          "video" : 
                              {
                                "id" : 29,
                                "_type" : "ScreenVMFile",
                                "src" : 5,
                                "trackNumber" : 0,
                                "attributes" : {
                                  "ident" : "Rec 03-04-20_006"
                                },
                                "parameters" : {
                                  "cursorScale" : {
                                    "type" : "double",
                                    "defaultValue" : 0.0,
                                    "interp" : "linr"
                                  },
                                  "cursorOpacity" : {
                                    "type" : "double",
                                    "defaultValue" : 0.0,
                                    "interp" : "linr"
                                  }
                                },
                                "effects" : [

                                ],
                                "start" : 7604,
                                "duration" : 376,
                                "mediaStart" : 8002,
                                "mediaDuration" : 376,
                                "scalar" : 1,
                                "animationTracks" : {

                                }
                              },
                          "audio" : 
                              {
                                "id" : 30,
                                "_type" : "AMFile",
                                "src" : 5,
                                "trackNumber" : 2,
                                "attributes" : {
                                  "ident" : "",
                                  "sampleRate" : 44100,
                                  "bitDepth" : 16,
                                  "gain" : 1.0,
                                  "mixToMono" : false
                                },
                                  "channelNumber" : "0,1",
                                "effects" : [

                                ],
                                "start" : 7604,
                                "duration" : 376,
                                "mediaStart" : 8002,
                                "mediaDuration" : 376,
                                "scalar" : 1,
                                "animationTracks" : {

                                }
                              }
,
                          "start" : 7604,
                          "duration" : 376,
                          "mediaStart" : 0,
                          "mediaDuration" : 18298,
                          "scalar" : 1,
                          "metadata" : {
                            "AutoAppliedSmartFocus" : "False",
                            "WinSubProjectDisplayName" : "",
                            "clipSpeedAttribute" : false,
                            "default-scale0" : 0.666666666666667,
                            "default-scale1" : 0.666666666666667,
                            "default-translation0" : 0.0,
                            "default-translation1" : 0.0
                          }
                        },
                        {
                          "id" : 31,
                          "_type" : "UnifiedMedia",
                          "video" : 
                              {
                                "id" : 32,
                                "_type" : "ScreenVMFile",
                                "src" : 5,
                                "trackNumber" : 0,
                                "attributes" : {
                                  "ident" : "Rec 03-04-20_006"
                                },
                                "parameters" : {
                                  "cursorScale" : {
                                    "type" : "double",
                                    "defaultValue" : 0.0,
                                    "interp" : "linr"
                                  },
                                  "cursorOpacity" : {
                                    "type" : "double",
                                    "defaultValue" : 0.0,
                                    "interp" : "linr"
                                  }
                                },
                                "effects" : [

                                ],
                                "start" : 7980,
                                "duration" : 1,
                                "mediaStart" : 8538,
                                "mediaDuration" : 1,
                                "scalar" : 1,
                                "animationTracks" : {

                                }
                              },
                          "audio" : 
                              {
                                "id" : 33,
                                "_type" : "AMFile",
                                "src" : 5,
                                "trackNumber" : 2,
                                "attributes" : {
                                  "ident" : "",
                                  "sampleRate" : 44100,
                                  "bitDepth" : 16,
                                  "gain" : 1.0,
                                  "mixToMono" : false
                                },
                                  "channelNumber" : "0,1",
                                "effects" : [

                                ],
                                "start" : 7980,
                                "duration" : 1,
                                "mediaStart" : 8538,
                                "mediaDuration" : 1,
                                "scalar" : 1,
                                "animationTracks" : {

                                }
                              }
,
                          "start" : 7980,
                          "duration" : 1,
                          "mediaStart" : 0,
                          "mediaDuration" : 18298,
                          "scalar" : 1,
                          "metadata" : {
                            "AutoAppliedSmartFocus" : "False",
                            "WinSubProjectDisplayName" : "",
                            "clipSpeedAttribute" : false,
                            "default-scale0" : 0.666666666666667,
                            "default-scale1" : 0.666666666666667,
                            "default-translation0" : 0.0,
                            "default-translation1" : 0.0
                          }
                        },
                        {
                          "id" : 34,
                          "_type" : "UnifiedMedia",
                          "video" : 
                              {
                                "id" : 35,
                                "_type" : "ScreenVMFile",
                                "src" : 5,
                                "trackNumber" : 0,
                                "attributes" : {
                                  "ident" : "Rec 03-04-20_006"
                                },
                                "parameters" : {
                                  "cursorScale" : {
                                    "type" : "double",
                                    "defaultValue" : 0.0,
                                    "interp" : "linr"
                                  },
                                  "cursorOpacity" : {
                                    "type" : "double",
                                    "defaultValue" : 0.0,
                                    "interp" : "linr"
                                  }
                                },
                                "effects" : [

                                ],
                                "start" : 7981,
                                "duration" : 5245,
                                "mediaStart" : 8847,
                                "mediaDuration" : 5245,
                                "scalar" : 1,
                                "animationTracks" : {

                                }
                              },
                          "audio" : 
                              {
                                "id" : 36,
                                "_type" : "AMFile",
                                "src" : 5,
                                "trackNumber" : 2,
                                "attributes" : {
                                  "ident" : "",
                                  "sampleRate" : 44100,
                                  "bitDepth" : 16,
                                  "gain" : 1.0,
                                  "mixToMono" : false
                                },
                                  "channelNumber" : "0,1",
                                "effects" : [

                                ],
                                "start" : 7981,
                                "duration" : 5245,
                                "mediaStart" : 8847,
                                "mediaDuration" : 5245,
                                "scalar" : 1,
                                "animationTracks" : {

                                }
                              }
,
                          "start" : 7981,
                          "duration" : 5245,
                          "mediaStart" : 0,
                          "mediaDuration" : 18298,
                          "scalar" : 1,
                          "metadata" : {
                            "AutoAppliedSmartFocus" : "False",
                            "WinSubProjectDisplayName" : "",
                            "clipSpeedAttribute" : false,
                            "default-scale0" : 0.666666666666667,
                            "default-scale1" : 0.666666666666667,
                            "default-translation0" : 0.0,
                            "default-translation1" : 0.0
                          }
                        },
                        {
                          "id" : 37,
                          "_type" : "UnifiedMedia",
                          "video" : 
                              {
                                "id" : 38,
                                "_type" : "ScreenVMFile",
                                "src" : 5,
                                "trackNumber" : 0,
                                "attributes" : {
                                  "ident" : "Rec 03-04-20_006"
                                },
                                "parameters" : {
                                  "cursorScale" : {
                                    "type" : "double",
                                    "defaultValue" : 0.0,
                                    "interp" : "linr"
                                  },
                                  "cursorOpacity" : {
                                    "type" : "double",
                                    "defaultValue" : 0.0,
                                    "interp" : "linr"
                                  }
                                },
                                "effects" : [

                                ],
                                "start" : 13226,
                                "duration" : 1821,
                                "mediaStart" : 14211,
                                "mediaDuration" : 1821,
                                "scalar" : 1,
                                "animationTracks" : {

                                }
                              },
                          "audio" : 
                              {
                                "id" : 39,
                                "_type" : "AMFile",
                                "src" : 5,
                                "trackNumber" : 2,
                                "attributes" : {
                                  "ident" : "",
                                  "sampleRate" : 44100,
                                  "bitDepth" : 16,
                                  "gain" : 1.0,
                                  "mixToMono" : false
                                },
                                  "channelNumber" : "0,1",
                                "effects" : [

                                ],
                                "start" : 13226,
                                "duration" : 1821,
                                "mediaStart" : 14211,
                                "mediaDuration" : 1821,
                                "scalar" : 1,
                                "animationTracks" : {

                                }
                              }
,
                          "start" : 13226,
                          "duration" : 1821,
                          "mediaStart" : 0,
                          "mediaDuration" : 18298,
                          "scalar" : 1,
                          "metadata" : {
                            "AutoAppliedSmartFocus" : "False",
                            "WinSubProjectDisplayName" : "",
                            "clipSpeedAttribute" : false,
                            "default-scale0" : 0.666666666666667,
                            "default-scale1" : 0.666666666666667,
                            "default-translation0" : 0.0,
                            "default-translation1" : 0.0
                          }
                        },
                        {
                          "id" : 40,
                          "_type" : "UnifiedMedia",
                          "video" : 
                              {
                                "id" : 41,
                                "_type" : "ScreenVMFile",
                                "src" : 5,
                                "trackNumber" : 0,
                                "attributes" : {
                                  "ident" : "Rec 03-04-20_006"
                                },
                                "parameters" : {
                                  "cursorScale" : {
                                    "type" : "double",
                                    "defaultValue" : 0.0,
                                    "interp" : "linr"
                                  },
                                  "cursorOpacity" : {
                                    "type" : "double",
                                    "defaultValue" : 0.0,
                                    "interp" : "linr"
                                  }
                                },
                                "effects" : [

                                ],
                                "start" : 15047,
                                "duration" : 2167,
                                "mediaStart" : 16131,
                                "mediaDuration" : 2167,
                                "scalar" : 1,
                                "animationTracks" : {

                                }
                              },
                          "audio" : 
                              {
                                "id" : 42,
                                "_type" : "AMFile",
                                "src" : 5,
                                "trackNumber" : 2,
                                "attributes" : {
                                  "ident" : "",
                                  "sampleRate" : 44100,
                                  "bitDepth" : 16,
                                  "gain" : 1.0,
                                  "mixToMono" : false
                                },
                                  "channelNumber" : "0,1",
                                "effects" : [

                                ],
                                "start" : 15047,
                                "duration" : 2167,
                                "mediaStart" : 16131,
                                "mediaDuration" : 2167,
                                "scalar" : 1,
                                "animationTracks" : {

                                }
                              }
,
                          "start" : 15047,
                          "duration" : 2167,
                          "mediaStart" : 0,
                          "mediaDuration" : 18298,
                          "scalar" : 1,
                          "metadata" : {
                            "AutoAppliedSmartFocus" : "False",
                            "WinSubProjectDisplayName" : "",
                            "clipSpeedAttribute" : false,
                            "default-scale0" : 0.666666666666667,
                            "default-scale1" : 0.666666666666667,
                            "default-translation0" : 0.0,
                            "default-translation1" : 0.0
                          }
                        }
                    ],
                    "effects" : [

                    ],
                    "start" : 568,
                    "duration" : 16646,
                    "mediaStart" : 568,
                    "mediaDuration" : 16646,
                    "scalar" : 1,
                    "metadata" : {
                      "AutoAppliedSmartFocus" : "False",
                      "WinSubProjectDisplayName" : "",
                      "clipSpeedAttribute" : false
                    },
                    "animationTracks" : {
                      "visual" : [
                        {
                          "endTime" : 627,
                          "duration" : 30,
                          "range" : [ 597, 30]
                        },
                        {
                          "endTime" : 1184,
                          "duration" : 30,
                          "range" : [ 1154, 30]
                        },
                        {
                          "endTime" : 1273,
                          "duration" : 30,
                          "range" : [ 1243, 30]
                        },
                        {
                          "endTime" : 1380,
                          "duration" : 30,
                          "range" : [ 1350, 30]
                        },
                        {
                          "endTime" : 10379,
                          "duration" : 30,
                          "range" : [ 10349, 30]
                        },
                        {
                          "endTime" : 10789,
                          "duration" : 30,
                          "range" : [ 10759, 30]
                        },
                        {
                          "endTime" : 10869,
                          "duration" : 30,
                          "range" : [ 10839, 30]
                        },
                        {
                          "endTime" : 10977,
                          "duration" : 30,
                          "range" : [ 10947, 30]
                        }
                      ]
                    }
                  }
                ],
                "transitions" : [
                  {
                    "name" : "Fade",
                    "duration" : 30,
                    "trivial" : false,
                    "useAudioPreRoll" : true,
                    "useVisualPreRoll" : true,
                    "rightMedia" : 21
                  },
                  {
                    "name" : "Fade",
                    "duration" : 30,
                    "trivial" : false,
                    "useAudioPreRoll" : true,
                    "useVisualPreRoll" : true,
                    "leftMedia" : 21
                  }
                ]
              },
              {
                "trackIndex" : 12,
                "medias" : [
                  {
                    "id" : 43,
                    "_type" : "StitchedMedia",
                    "minMediaStart" : 0,
                    "attributes" : {
                      "ident" : "Rec 03-04-20_006",
                      "gain" : 1.0,
                      "mixToMono" : false
                    },
                    "parameters" : {
                      "volume" : {
                        "type" : "double",
                        "keyframes" : [
                          {
                            "endTime" : 0,
                            "time" : 0,
                            "value" : 1.0,
                            "duration" : 0
                          },
                          {
                            "endTime" : 9079,
                            "time" : 9079,
                            "value" : 1.0,
                            "duration" : 0
                          },
                          {
                            "endTime" : 9080,
                            "time" : 9080,
                            "value" : 0.0,
                            "duration" : 0
                          },
                          {
                            "endTime" : 9094,
                            "time" : 9094,
                            "value" : 0.0,
                            "duration" : 0
                          },
                          {
                            "endTime" : 9095,
                            "time" : 9095,
                            "value" : 1.0,
                            "duration" : 0
                          },
                          {
                            "endTime" : 9282,
                            "time" : 9282,
                            "value" : 1.0,
                            "duration" : 0
                          },
                          {
                            "endTime" : 9283,
                            "time" : 9283,
                            "value" : 0.0,
                            "duration" : 0
                          },
                          {
                            "endTime" : 9534,
                            "time" : 9534,
                            "value" : 0.0,
                            "duration" : 0
                          },
                          {
                            "endTime" : 9535,
                            "time" : 9535,
                            "value" : 1.0,
                            "duration" : 0
                          },
                          {
                            "endTime" : 9585,
                            "time" : 9585,
                            "value" : 1.0,
                            "duration" : 0
                          },
                          {
                            "endTime" : 9586,
                            "time" : 9586,
                            "value" : 0.0,
                            "duration" : 0
                          },
                          {
                            "endTime" : 9608,
                            "time" : 9608,
                            "value" : 0.0,
                            "duration" : 0
                          },
                          {
                            "endTime" : 9609,
                            "time" : 9609,
                            "value" : 1.0,
                            "duration" : 0
                          },
                          {
                            "endTime" : 17179,
                            "time" : 17179,
                            "value" : 1.0,
                            "duration" : 0
                          },
                          {
                            "endTime" : 17180,
                            "time" : 17180,
                            "value" : 0.0,
                            "duration" : 0
                          },
                          {
                            "endTime" : 17217,
                            "time" : 17217,
                            "value" : 0.0,
                            "duration" : 0
                          },
                          {
                            "endTime" : 17218,
                            "time" : 17218,
                            "value" : 1.0,
                            "duration" : 0
                          }
                        ]
                      },
                      "cursorOpacity" : 1.0,
                      "cursorScale" : 1.0
                    },
                    "medias" : [
                        {
                          "id" : 44,
                          "_type" : "AMFile",
                          "src" : 5,
                          "trackNumber" : 1,
                          "attributes" : {
                            "ident" : "Rec 03-04-20_006",
                            "sampleRate" : 44100,
                            "bitDepth" : 16,
                            "gain" : 1.0,
                            "mixToMono" : false
                          },
                            "channelNumber" : "0,1",
                          "effects" : [

                          ],
                          "start" : 0,
                          "duration" : 2122,
                          "mediaStart" : 0,
                          "mediaDuration" : 2122,
                          "scalar" : 1,
                          "metadata" : {
                            "WinSubProjectDisplayName" : "",
                            "clipSpeedAttribute" : false
                          },
                          "animationTracks" : {

                          }
                        },
                        {
                          "id" : 45,
                          "_type" : "AMFile",
                          "src" : 5,
                          "trackNumber" : 1,
                          "attributes" : {
                            "ident" : "Rec 03-04-20_006",
                            "sampleRate" : 44100,
                            "bitDepth" : 16,
                            "gain" : 1.0,
                            "mixToMono" : false
                          },
                            "channelNumber" : "0,1",
                          "effects" : [

                          ],
                          "start" : 2122,
                          "duration" : 5482,
                          "mediaStart" : 2251,
                          "mediaDuration" : 5482,
                          "scalar" : 1,
                          "metadata" : {
                            "WinSubProjectDisplayName" : "",
                            "clipSpeedAttribute" : false
                          },
                          "animationTracks" : {

                          }
                        },
                        {
                          "id" : 46,
                          "_type" : "AMFile",
                          "src" : 5,
                          "trackNumber" : 1,
                          "attributes" : {
                            "ident" : "Rec 03-04-20_006",
                            "sampleRate" : 44100,
                            "bitDepth" : 16,
                            "gain" : 1.0,
                            "mixToMono" : false
                          },
                            "channelNumber" : "0,1",
                          "effects" : [

                          ],
                          "start" : 7604,
                          "duration" : 376,
                          "mediaStart" : 8002,
                          "mediaDuration" : 376,
                          "scalar" : 1,
                          "metadata" : {
                            "WinSubProjectDisplayName" : "",
                            "clipSpeedAttribute" : false
                          },
                          "animationTracks" : {

                          }
                        },
                        {
                          "id" : 47,
                          "_type" : "AMFile",
                          "src" : 5,
                          "trackNumber" : 1,
                          "attributes" : {
                            "ident" : "Rec 03-04-20_006",
                            "sampleRate" : 44100,
                            "bitDepth" : 16,
                            "gain" : 1.0,
                            "mixToMono" : false
                          },
                            "channelNumber" : "0,1",
                          "effects" : [

                          ],
                          "start" : 7980,
                          "duration" : 1,
                          "mediaStart" : 8538,
                          "mediaDuration" : 1,
                          "scalar" : 1,
                          "metadata" : {
                            "WinSubProjectDisplayName" : "",
                            "clipSpeedAttribute" : false
                          },
                          "animationTracks" : {

                          }
                        },
                        {
                          "id" : 48,
                          "_type" : "AMFile",
                          "src" : 5,
                          "trackNumber" : 1,
                          "attributes" : {
                            "ident" : "Rec 03-04-20_006",
                            "sampleRate" : 44100,
                            "bitDepth" : 16,
                            "gain" : 1.0,
                            "mixToMono" : false
                          },
                            "channelNumber" : "0,1",
                          "effects" : [

                          ],
                          "start" : 7981,
                          "duration" : 5242,
                          "mediaStart" : 8847,
                          "mediaDuration" : 5242,
                          "scalar" : 1,
                          "metadata" : {
                            "WinSubProjectDisplayName" : "",
                            "clipSpeedAttribute" : false
                          },
                          "animationTracks" : {

                          }
                        },
                        {
                          "id" : 49,
                          "_type" : "AMFile",
                          "src" : 5,
                          "trackNumber" : 1,
                          "attributes" : {
                            "ident" : "Rec 03-04-20_006",
                            "sampleRate" : 44100,
                            "bitDepth" : 16,
                            "gain" : 1.0,
                            "mixToMono" : false
                          },
                            "channelNumber" : "0,1",
                          "effects" : [

                          ],
                          "start" : 13223,
                          "duration" : 1821,
                          "mediaStart" : 14208,
                          "mediaDuration" : 1821,
                          "scalar" : 1,
                          "metadata" : {
                            "WinSubProjectDisplayName" : "",
                            "clipSpeedAttribute" : false
                          },
                          "animationTracks" : {

                          }
                        },
                        {
                          "id" : 50,
                          "_type" : "AMFile",
                          "src" : 5,
                          "trackNumber" : 1,
                          "attributes" : {
                            "ident" : "Rec 03-04-20_006",
                            "sampleRate" : 44100,
                            "bitDepth" : 16,
                            "gain" : 1.0,
                            "mixToMono" : false
                          },
                            "channelNumber" : "0,1",
                          "effects" : [

                          ],
                          "start" : 15044,
                          "duration" : 2173,
                          "mediaStart" : 16128,
                          "mediaDuration" : 2173,
                          "scalar" : 1,
                          "metadata" : {
                            "WinSubProjectDisplayName" : "",
                            "clipSpeedAttribute" : false
                          },
                          "animationTracks" : {

                          }
                        }
                    ],
                    "effects" : [
                        {
                          "effectName" : "NoiseReduction",
                          "category" : "categoryAudioEffects",
                          "parameters" : {
                            "denoiserAmount" : 8.0,
                            "denoiserThreshold" : 0.0,
                            "noiseProfile" : "sMdXPtwW+D/m7IA/AR2zPyQx8D6C2Sw/uotsP1pnDD4/AfQ+7DCwPmKaGz9bWC0/664rPsD8sD4/\r\njoo+wIzFPYvfwT1ImAQ+skYnPp5nsD4nZRQ+o95zPglYTj6FDmQ/aN55QBpYEz+r9Bw/AvP2PBB9\r\nMD2ITpY8Y/jAPPOfFT34eJA9fkSrPlz1hD8ylos/di90P9vQ4T/xy8o+apQUPj6JGT4mOBY/1zUh\r\nP6RnNj/D7Js/pqG+P//0LD8MSKA//V2bPzxPlT7kLqI/HsvhPr2/qj/lChJANed9QI/76kA12rlA\r\niFLYQAlFokC5yWdAtrj0Py/njECsR7lAypwDQDXJTEBFS/FABcwFQGocnT+C6oFAGRSxP+A30T9y\r\nHIlAvu0NQL/j9j9jEERAb/F4PxCI8T+OK4g/7IymP2mrjT8XGGc/UghGPzn67z9i/BdAg4GoP/pl\r\nQz/wKQ4/SsXDPxxuFz/Epig/qajAPnDftz7AOnk+gTawPnwi+T0oNYY+pm4yP2PyHD9nT1Y+icuy\r\nPUyNmz74p70+1MKRPhu7IT9OHUw+xuwfPiV0Uj6QvIk+8NJbPk/+Jz1pI5U+9kWOPqLqwz7qjok9\r\nS7O1PqdNnT5WcyE+lUa2PQVamT0X36g91n0SPjTWPD5ukE4+tpeiPqq4Uj+HdZU/vVpnPue8Ej/T\r\nfqE+AnENPzcIiD5E8uI+SzVePoll1j4yeVM/sctxP3cCyT80HLg+lkXhPm463T5sVxc/kKSSP/Kc\r\ncD/gBCs/E8GrP1B9QD9JXYc+NsLwPgP2dD/Em/s+rtPlPkzKIj+Vwhk/3V/oPyL4OT+6qWI/M6IA\r\nP22Ozj+ZQc0/1tGIP/BAIT/AX9Y+WIr6PnT3NT6AK5M+xrhGPgM/pz5DsjA/dxVJPuMQmj4ujKw+\r\n65rlPWZHJT5xc6g9XWW1PUUk2D0+Xk88Du2QPQXJ2DzNGWA+kOaqPcwcrz27lH09R6VWPX7u2DzM\r\neOI8VeEMPiYSAT4R81o+FXPZPTSCBj0JZhc9LY6LPeBngz0Rs5g9rIOhPivohj4Qvsw+zKcMPsKl\r\nwz4+KGM+UEnjPUvYAj96dmY9vCLcPhyCgD6i91Y+ekh3Pi2Lrz0Lzf89bHAQPrBP4TwRYCc9MX23\r\nPZTd0D2ZJwA9dwVTPVAoez3D9cs8q6WePcsgBz0zC5c9vwlSPVc4cj1ljPE8MEMdPWOqiD3Zdks+\r\n/w9APb9+Wj2X4ho9tY2qPJlJgD1FCb0896btPBorqjw+cr88LZKCPICAPzyQfvg7nPsMPB31mTs6\r\nyVU84OkfPMADADzG7f47fMOBO2yWQztvvVc7rxiBOwJIXDy4zDU8uCaaPJy4IzzupY47NEK6O2I4\r\naDy2xBQ9pr3QPO4m3TwJqiE9mEYUPTQhDz2XdWI9sI7FPJ47lD1yErQ99VWUPZN/4zz4uY08twGd\r\nPG3ubj1z1bo8hYUMPYV5Ez3wNi095XTNPGFOJDwQ6Qo9oCbBO1XSWzynlBM8nKgWPRqd0junD2s8\r\nFakVPf9y9Tsyof08E63DPFF9njxF6bU7O9wMPIXoAjz8zYo8LcQ/PBRRZDy+vLw8jco8PNZwqjzq\r\na3M80o11PIzvmDvT3CA8sxh0OyCjijsV9308BHyBPD3yKj1Uff88/2GFPfSteTwoTmk9YVEGPZp2\r\nvzy8d2g81j2EPFifIz0Zq7U8vkENPR6rvjwOjbg8TjPKPNvxVjxsRaw8CBU7POGxvzz277o8i+YE\r\nPG/o6TyI1Nc8dVxCPXiXJz1QxBQ9QNafPPT3HjwtkXE8s6+cPPpRiDzQ39M8SdIgPNZ9OzxxzLI8\r\niuB9PEAmYDzKByk96I2UPNn+Jj1Y7js8EIRCPc6bMTyKVnE9TEbsO3eCPj2Ac8o7s2zbPLiWVzuZ\r\n41I8WZZqPLGTkjxyk7c8GzmzPPHg6TwNfXI8D2FGPPr3YTx2yEI86b+9PAjxfzzXgYU8lPekPA+p\r\ntjyQLjY9vjjUPOk58TyyfSA9kICAPf63ozxIiOE8bvj0PCSyLD1rdog8DIKRPDtfBz2at0o88Uzy\r\nPO5UVj2iHq08RN57PF5hSz2Uebs8BGKnPCJzgjtGo5c8qbb1O+7rDj1mtcU8NNnaPBLEcTzIXFI9\r\noXYpPfY4GT2meMw8OdPhPPHLST12Q+s8wb5BPFNgED1A/0U9wAIUPiiiAz0lXvs81TgPPYTyhz1T\r\npiw9yNKFPLH3GD1Sey89ZcKuPPGqRz1mJOY7BEeAPJ7clDyFHOQ8Ih0WPF1nbDzwyR888h8nPHBU\r\nTzwXhoY7Pw9nO3DaLzy2sEQ8wpkvPOptUDzOZek8rT+kPMJqjDxQbVQ8RKiSPNErAz1aLU48qg+3\r\nO4yLpztZjkE8xYUwPPG7jTy5KNg6o5OzPN7sYjyhl0k8Xq9XO+Y1SDtiHO46yP0HPAozpTwtUgQ7\r\n/fjXO2oy3TxaAaE8/HmSPPvIyDudENo8hXXDPPf6YDwjq947pfNZPIfSqjymU4A8pPqgPIqqKjsg\r\nJpM8osfOPIKjZTwdPOQ76HDaOhLAhjyQV3k8YKoVPI5tVDuI0RU8BHo8PPdEWzxz/2Y7oDU3O5p4\r\nQjx3g2Q8Nl/XO27GcTzXZYo7PtwSPGt6KTs3pYw71YmTOwpxmDv7Rho799GfO/DFIzvOrcA7L8ku\r\nOzgqUDtTJaM6o+RMPMAIpDr0JcI7VGfAOjzVMDsUDFs7yGSoOieENTtOZUg7YECIO7bQVzx6ZpQ8\r\nxzMKPLn4ajuNo2A8C2qNO30fCDzjfww80/hmPGIyhDyGjo07nZupO6zNzTs4JbE7zge7O78/+Dui\r\n/Po7VrBSOyDq7DtyOdg6K43FO8Yc9ztonps78kDKOxRAaTujnJY7k0J+PONdCTzvbCQ8QD7DO/wB\r\nwTv8Qtw66QGhOws0uzp2XUA7Zd8kOyhQJzwyFZo7lmYGPF+jMDt1OVY72X/uO0gijTt3dFA6xGmY\r\nO9A1Xjy/KKc7Iq3kOs46izvsBkU7dnYsO2NB2jqKIxI8eMf9OmwcODwuwsI6B/0oPMSqIDtMJ5g8\r\nrwSTO9Z16jqpOEY72iceO+B/WztR4jw6ByyBOwYj8Dp30yI7OYMQPP0c8zugAUY793OwO/hdnDsu\r\nlUU6oAgaO97KHDt60FA7LOUzOyPEDDxSkr87OxU+O63tIjw8ocE8MYsMOxPihTyesRM8w5H0Ov/h\r\nojtirDM8cZ/dO6xWOzsgcK46pDvTOz2cljr8PvI7XQnAOmScrTpuvlE7zXaiO2zSTDvx0cI6qoWz\r\nOjwBUTuKywY8Z/jRO7vRMzshog87KnOlO/AK+jveJWY6DGDnOqzp/To8L3Y7iw8+OwpvnTpxOo07\r\nRrP4O9uiczutrI469tJvOnYDnztLcGQ7RpVIOY6ddDqkDC07M0L3OS9oWTqSx4I6FWVyOrU9GTro\r\nfYk6OHDPOrIgnzquuhI62FG4Oob07jkBIXk7OfMGOgnZBzuwbeI6PDApO3zbgTokt8A6AomdOlY5\r\nbDqC26o6OViOOVKg2TnYaPw5UzK8OdYYVzpUx2M6Q/6AOulSiToirM46CPvSOvsozjpNmL86j7uH\r\nOyDGAzo6RCU7PKnTOpwJxzptiGY66jC8O45+KjuMw9s65bcmO3o8tTryJRA6ItCYOshYCDrRcTs7\r\nS+2xOj4cAzuAjMo62rPNOkU8xDohmEs7VxIIOvwTGjtTDag5ZvIXO6I2NjrljZo6g6eXOjQUnzoh\r\nx5w6zsYoOonAmjqHd406rqNPOt2dZjotTEQ6XmzsOgxTDDpqYpQ6ZWwrOipSmDq5SYU5NpJ2OsyO\r\ncTmXM+I5VXR7OW7LcjocE4I5G2WNOuV3nToEEVQ6ajsQOvEV6DjV+fY6rkfZOg6NXzrYaHM6w8L2\r\nOp8y+zqgg246UYKuOeJyCDoE6uk5NVoMOrJhZjpHLuY5yMXOObBIkjmM+Xc5EUHGOXUjxDkkSCw5\r\nNoaXOafinTnAQYo6Q2bSOCSv0zpQcPs5tOMuOuLUDjmgswY6jot8OapYljpEnhY601bdOvRPeTqe\r\nPZ86Z4cVOpCv5DlmmmU6S8+eOYiSZznSdAQ6uoIJOpLWoDkRKUA6kn14OaDPQDlQX9k4vj2MOYtc\r\nqDgxGkQ5rnLTOCy5Uzk1l4M561rQOPagTzmH56E5VrFxOafyMDlBvkw58mkzORinKzllKzU5Uio6\r\nOcLjUzn1xIE5Bat+OdALrjlmlzM5KrS4OVQTbDlE95k5MbqGOT11GDmuojg57SbhOAQRKDm4SjI5\r\nwNk+OXmuWTnIR5U4axZpOVYPqTjFn0I5mjAyOXSlyzgCGeM4JrNkOHxuxjiZ8Ng4QUkDOWkBJjls\r\n8JA4fDVYOT/vjThULUQ5ndoSOQ4aBTlLJOo4dPNuOJu3rjjKH3043A/jODVpADmQg944is8rOSN9\r\nNDgcVis5RrxpONTCCTnXMMY4N3NlODz+UjgMEns3Jyf0N1qKETi//TU4TtxROAjTxjZ1v3k4Pckt\r\nNwDUJDj+rfA3blmQNxe2ADfhZ/82M5zINtQYezdJEq83S5T0N3MZxzbABD44dJNWNybm8TdhGsA3\r\ntrImNzj+Hjer9O42gvnvNoqmhzdycwk4uegsOJh23TazPk04RepfN3CZKTiAwQo4TJOON5ZLTDe8\r\nId82/kJRNwxEiDdbSeM3UyZDOAZ1ojcZSIY4MaScNqTqhDgzwx84lqkmOO50Bjik7j43vWc+N2aJ\r\n8zZ4KrA3Hny4NzWh1jc3rRc4LOTANp7GwzcQEIg3s+grN74muDY8oKs2aTLoNk8W/zZeEAE35sJA\r\nN3CGLjfUiRQ3T6H6Nq3nCTer6as2IzjCNstdAzdGRao2DZsEN9RUyjbKCLo2ClrVNmQVCjdwSv42\r\n3vPdNjrw6Tawq8Y28dMAN55cojZJ/QI3/bwCNz1ZIDcJLvc2W6W0NteY7jZZlQY3+0e9Nnel1Dbi\r\nnao2hTAEN2s61zbHqvM2xhn9NoQbuTbw3JM2Wni6NvG/4za4UJ42WQvsNvhJ1zYDTAE3I1HbNkOQ\r\n6TY1UeQ2Z5yxNgpFwTbyDAc3ALK2NvUnHjfTOhk3evrPNtIutDbgJdg2GcL5NoiWsDZHgtU2S6oh\r\nNzp/Ajf8Z/02lnSnNsYBCjeVEto2G6fiNtAB+jbHf8k22gccN0X1xjbneeA2GKECNxgM4TZgsLI2\r\nstDaNpZ/GDcTO/w29lLhNnIlvzZgtgs3S5mwNi0qADfr5bo2ubi5NjV76Ta1DpQ2ANjMNpeUmTZt\r\nrsk29wnnNjvZsTYL3eo2yoIXN14kqTbs6AY3FzQSN6tvAzfye9E2VQa9Nvqr8TbNEeM286D/Nszf\r\nBDe4VBY3hWfENpR31jaopwU3MAG8NplTxzaOje42SyYEN1bj3DbQaqw2sNaFNsWu+DYRSO02lP3Y\r\nNmcT0DbYcok2GYpyNvl7+zZ6FrE23y7jNgiunjbxy8o2ZqfqNm8PCDeZ8Zo22CKsNgAAyDaPLVc+\r\nHQn4P0zsgD/MG7M/MYHwPjQKLT9aemw/BcsMPkbE8z5LGbA+2ZobPyG2LT/jKSw+U3exPhXAij7Y\r\no8U9CNnBPYBFBD6yRic+J5GwPghGFT5SSnQ+a9hOPvrzYz/cFXpAH1IUP6v0HD8C8/Y8fCowPRK0\r\nljxj+MA8mTAbPYt1ij3SPKo+wQCGP6LVjD/7D3k/0H7lP3mr0T50thQ+qfYePlJrGj8MUyU/0VM6\r\nP38snz9sYMI/XS0yP2Xqoz9gnp4/UiWcPnFTpj+u6es+z02uP6veFEDR/YBAgA/uQNi9vEDtg9tA\r\npdqkQGYWbEBkt/s/tLqPQBrHu0AnwgZAFaxRQJc59ECr8QdARFeiP4gKhEB1DrY/cxzXP8hHikCQ\r\nlg5AUIv5PwOTREBgZXY/Y87uPw8ghT9EgqM/ThOPP0LJaj9b3kY/OIbwPyKxF0AHm6g/PxpDPyPw\r\nCz8QzMM/Y5EXP5h1KD90CMQ+A9a3PsiMgD4EG7M+WQL5PSFOhj4LtTM/GdcbP4MVVD6a0K49Er2b\r\nPtulvT6itpE+74shP6ysSz5rLiA+EJBSPrHdiT4Pjls+aOQnPfCzlD422o0+XfnDPsd7iT08V7U+\r\njZ6dPuJqIT6cebY9BVqZPcT4qD1gbxI+N9s8PrOfTj62l6I+7uBSP3KDlT9kp2c+vr8SP9N+oT4u\r\naQ0/9h+IPvLr4j5Ma1o+hzTWPpFUUz+xy3E/dwLJPyUvuD6WReE+WBbdPjhYFz/SMZY/RIN1P+AE\r\nKz8ayK8/3LJFP0ldhz7JAvE+Aat7P1MCAz96ce4+BRsnP3fwHj9wHuw//xs/P6RDaD8xJgA/5QbS\r\nP6Rw0D835oo/6RklP2EJ3D7Auf0+Vic+PnMEmD6gZkY+ajmsPmOeND9g51A+zAqaPh8Tsj6ySfI9\r\n9JAsPh8iqD0it789W2LgPT5eTzyRxJc9V2HnPErzZD4OLLA946azPRjXgT36OVc9XvDXPKK65Tym\r\new8+3J8DPsoqXj4bUdo9m38GPQlmFz2bnos9hIKDPXwpmj2SCaU+DDSKPmmI0T5+gxE+YkzHPuhb\r\naT5ujuo9YIUFP08Scz3wfOA+TJqDPoYLXD4GoH0+JPKvPXQCBD5y/RI+lNjhPIVNJz1lRbc93krV\r\nPT8rAD3kSlM9PNKAPW4/yjzg4qE9yh0GPePLlj2/CVI9BMByPSm29zy3KSA9iD6KPWp4TD4xlkA9\r\nBOhcPfrcGz1ehKo82oGAPfi6vDzMie48WF2qPN7Gvzzq0II8n7k/PDD9+Tuc+ww8kSSWOzrJVTwU\r\ntB88fP/9O0qM/Ds0BII7bJZDO1TyVzvwIIA7fGJePMi3NjzFcJk8wl4jPANJjzsKsrk7YjhoPLbE\r\nFD0feNA87uDcPAmqIT2oHhQ9CvAOPd9zYj1iTsU8xEOUPRYLtD11WZQ9ocnjPC2tjTzHMJ08p9xu\r\nPXPVujwRTAw9tlYTPaJALT2yzc08BSwkPBDpCj2gJsE7VdJbPP9ZEzyspRY9Gp3SO2PLajyPkBU9\r\nWO7yO0x0/TxVxMM8D6idPCLVtDsPRQ08ixMCPHqmijwtxD882UZoPD44vjwPhDc8ymGoPF87djzS\r\njXU8tcyZO6MIIDzUkHc7vT+LOy8ZgDycUn88PfIqPaQL/TwSUYU99K15PChOaT1hUQY9mna/PI1f\r\naDzWPYQ8pncjPRmrtTx5gww9Hqu+PIfbujxOM8o82/FWPD4JrTwIFTs8Rp6/PPbvujwf7wQ8b+jp\r\nPGyf0jx1XEI9g+4oPVDEFD1A1p88RNAePC2RcTzXq508epiIPNDf0zx+dh88pK07PL+9sjy8Kn88\r\nQCZgPMoHKT3ojZQ82f4mPe/BPDwQhEI9hIYrPHQxdT0O1uU7d4I+PTYNxzuzbNs8rKpTO5njUjwQ\r\nNGo8sZOSPDxwtzxZALM88eDpPA19cjzqQFQ8+vdhPKfMUDxiv708LQaEPOzrijwi36k8VoG7PJAu\r\nNj2yT9Y8yDD4PNaAID2IlIA9uJqqPEG75jwODvk8JLIsPfmsizzripE8O18HPWq8SjzxTPI8zexV\r\nPVTKsjw2iIQ8ImBLPY5suzxB86w8LD2MO5AanTyptvU77usOPRjewzw02do80uOAPEQiVD31/So9\r\n1KIePfuz1DwqqOw8ELZJPU3u8TzznEE8hQIUPaHuRT2AORY+ua4DPbO0Aj3QJg89svyHPVOmLD0F\r\nnIs8NkocPbybLz1lwq488apHPZAL5jsER4A8jOCUPHWT5jw5RhY8otluPEHvHzyIICY8dCRPPFFD\r\nhjs/D2c7Rt8sPLawRDzCmS886m1QPM5l6TwjKqc8q5ePPBX9VjxC1ZI8XjcDPb7sTTx2L707Dban\r\nO2KDQTwHKjE8T4yNPLko2Douia48tZNgPKGXSTwKJF47KjlLO7Vy9DqOwAc8MgGlPC1SBDvsCNk7\r\nd/ncPB/aoDz8eZI897PJO5a02zyMOcM89/pgPPgd4TvUPFk8vPuqPE1FgDxGu6A8iqoqO3BDkzzg\r\nmc48gqNlPLqb4zt8SNY6QAKGPJU+eTxgqhU8jm1UO4jRFTxQVDw890RbPHP/ZjvQfjQ7FclCPNJf\r\nZTw2X9c7bsZxPPY9ijs+3BI8JQcpOz+SjTsQ3pI7CnGYO5+JGTv30Z878MUjO7aBwDtShC47GmlW\r\nOzBGoDqj5Ew82K+nOvQlwjvacMA6PNUwOxQMWzvIZKg6QkEyOzbzRjtI1os7ttBXPFRhlDxK3wk8\r\nufhqO42jYDzOGY07nFoIPON/DDy1OWc8RSqEPGRxjTt0B6g77y7OOwVksTtevr47Mnz4O5b2+jv8\r\n9lI73nDwO+KA2DrVP8k7xhz3O0yJmzvyQMo7FEBpO7tLlzsJSH487mkIPO9sJDwgG8U7YCzBO4ag\r\n2DrU6Z07CzS7OvXQQTt9IyU7cEcnPDIVmjtcbQY8MBExO/wuVjvZf+47SCKNO/LrTjrEaZg7gRde\r\nPIFkpjulY+U6J4qLO+wGRTtQPC07KqrYOoojEjx4x/06bBw4PMWUwzoH/Sg8vj8iO6yVmDzep5I7\r\n1vTqOqk4RjvaJx474H9bOwBXPzoHLIE7BiPwOnfTIjs5gxA8LFTvO6ABRjvenq47+QWfOy6VRTok\r\n0xo7TlgdO3rQUDss5TM7I8QMPFKSvzs7FT47gzghPI59wTwxiww7Q82FPOKVEzyAufE6eeuiO1Xj\r\nMzxxn907mEo6OyBwrjqkO9M7PZyWOgUm7ztWeL86BlmuOm6+UTvNdqI7bNJMO2/JwjqqhbM6PAFR\r\nOxywBjzE+tE7YRI0OyGiDzuhUKU7UgT6OxiYZjoMYOc6rOn9OsA0djvzOD47/E2eOqUjjTsXu/g7\r\n26JzO3v+jjqGnW868BufOzWDZDtGlUg5ZNF0Oj4vLTszQvc5L2hZOkVAgzps83s63zobOnNPjTpl\r\nx886J9WbOoYrFDqCY7c6duTsOQEheTvBsgY6SjwIO/WB5zo8MCk7CUKCOtzPvjqEYKU6/shtOoLb\r\nqjpkFpk5NGvVObCS6Tm6PcQ55u1hOlTHYzoA54A620GIOrIu0jo/t8w6nHvLOnYFwDqPu4c7naoD\r\nOjpEJTuD19M6D7XCOuxaYzrfi707jn4qO+sA3DoaiSY78gi0OjIzDToi0Jg6BLMIOtFxOztL7bE6\r\nPhwDO4CMyjras806RIHAOiGYSzsH7Ag6/BMaO8mMozlm8hc7ZBgwOknFnjo/0Zg66GCWOs9KmzpJ\r\nIi465iiXOq3GkTqdDUs6/+5qOiAaSDrYQO06VC0OOgjGkzpqXys6KlKYOgybgjk2knY6LdFuOZcz\r\n4jk8YIE5bstyOl5QhTkoOI065XedOgQRVDoJtgw6SEvlONX59jquR9k6OllcOuO9dDr++vU6diH7\r\nOtUcajqqMq45ZScHOtzM5TnVrAw6smFmOqlU5jnIxc45AOmPOUyCdDmmRM85LNnAOfdXHzmQ05U5\r\nW+2dOcBBijrVAdk4wL3SOmSq+zm04y46jwwJOWMlCzqe9IA5qliWOnO7GTrx9uA69E95OsLjnTpz\r\nJxQ6i8DnOWaaZTqaN545yAlwOdJ0BDq6ggk6ktagOVp8PzpW1H05oM9AOdQI1Di+PYw502ygODEa\r\nRDmuctM4jbhSOVragzmkBNI4chNQOfDYojmolVM5wW0pOXmqTDk9fzE5D6AfOQyBOTlGfy85yYxU\r\nORXsiDk2dnw5ykmwOdgkNDkDMbU5hBJqOfuflzkluoI5q1MROWYQNDmHLd84hpocOc2ZLTmaADs5\r\nOa9UOcwpmThuTGE5dsypOJ58RTltRCk5ZzPTOHgG4DizT2M4ahO9OOqF1jgzlxE5QZQgOaUjjzgB\r\n3Vg5TEiFOF62SDlXZBo5QQ38ODabADk2k244gFrCOLhliTj+ONE4s1/uONtL3jgYoB45/BgrOOTR\r\nKTnh0VQ4UdUCOd+TxTgE+VY4rxBXOCUTSDdZCPc3Zg71N5cVNTggfjo4CNPGNj+OXTjdYCg3K7Ah\r\nOCZJ4jdDTVc3DVvANuFn/zYznMg2cuNVN47nmjfh2OQ3cxnHNl6XKjgZkUg3ODv6N0fCszfemhs3\r\nD0kKN6v07jYieic3dF2EN5TAAjjLSUE4mHbdNlq0eTjyYo0374gROPQ56Te1R543Y691N7wh3zZx\r\nVGM3oiirNy0R5TfcJDY4cNCXN/i2dDigSqY27tFpON2FFTg5Cik44X3oN886MDeO/2s3ZonzNiyB\r\ngzdi7cs3zPvVN8lgKTgs5MA23IbZN2h2mzfuZCw3via4NiU9ezZpMug2Txb/NktATDdgFRM3kWk/\r\nN1tTJTdPofo2recJN6vpqzYjOMI2y10DN5pw7jYT8Lg2Sg3ZNsoIujYKWtU2ZBUKN4Bu2DY2l+Q2\r\nE54ON/3UBDfx0wA3nlyiNkn9Ajf9vAI3PVkgNwku9za7yrk215juNlmVBjf7R702d6XUNm3C9jaF\r\nMAQ3a5wLN8eq8zY4Rgg3hBu5NvDckzYSEt828b/jNpkMmTZZC+w2+EnXNgNMATeQTKo23BrtNjVR\r\n5Dakspc2CkXBNvIMBzcW4uo29SceN9M6GTd6+s825tjCNuAl2DYZwvk2iJawNkeC1TZLqiE3On8C\r\nN/xn/TaWdKc2xgEKN5US2jYbp+I20AH6Nrto2jbaBxw3e5qvNud54DYYoQI3GAzhNux0BDey0No2\r\nln8YNxM7/Db2UuE2ciW/NlFg/zZOz6M2LSoAN+vlujZRMN82NXvpNkeP4jYA2Mw2l5SZNm2uyTb3\r\nCec293XLNgvd6jbKghc3BvFpNuzoBjcXNBI3fqncNvJ70Tbbhak2+qvxNkVCtTbzoP82cTKxNrhU\r\nFjeFZ8Q2lHfWNqinBTcwAbw2mVPHNlD2BDdLJgQ3p6rhNgvGtDbIfI02xa74NhFI7Tam8tQ2tFOm\r\nNoI7hjboDaE2+Xv7Ns3U5zbfLuM2CK6eNvHLyjZmp+o2bw8IN5nxmjbYIqw2AADINg==",
                            "noiseTrainingType" : "default"
                          }
                        }
                    ],
                    "start" : 3,
                    "duration" : 17217,
                    "mediaStart" : 0,
                    "mediaDuration" : 17217,
                    "scalar" : 1,
                    "metadata" : {
                      "WinSubProjectDisplayName" : "",
                      "clipSpeedAttribute" : false
                    },
                    "animationTracks" : {

                    }
                  }
                ]
              },
              {
                "trackIndex" : 13,
                "medias" : [
                  {
                    "id" : 51,
                    "_type" : "IMFile",
                    "src" : 6,
                    "trackNumber" : 0,
                    "trimStartSum" : 0,
                    "attributes" : {
                      "ident" : "Slide1"
                    },
                    "effects" : [

                    ],
                    "start" : 150,
                    "duration" : 418,
                    "mediaStart" : 0,
                    "mediaDuration" : 1,
                    "scalar" : 1,
                    "metadata" : {
                      "WinSubProjectDisplayName" : "",
                      "clipSpeedAttribute" : false
                    },
                    "animationTracks" : {

                    }
                  }
                ],
                "transitions" : [
                  {
                    "name" : "Fade",
                    "duration" : 30,
                    "trivial" : false,
                    "useAudioPreRoll" : true,
                    "useVisualPreRoll" : true,
                    "rightMedia" : 51
                  },
                  {
                    "name" : "Fade",
                    "duration" : 30,
                    "trivial" : false,
                    "useAudioPreRoll" : true,
                    "useVisualPreRoll" : true,
                    "leftMedia" : 51
                  }
                ]
              },
              {
                "trackIndex" : 14,
                "medias" : [
                ]
              }
            ]
          }
        }
      ]
    },
    "trackAttributes" : [
      {
        "ident" : "",
        "audioMuted" : false,
        "videoHidden" : false,
        "magnetic" : false,
        "metadata" : {
          "IsLocked" : "False",
          "WinTrackHeight" : "108.923076923077",
          "trackHeight" : "86"
        }
      },
      {
        "ident" : "",
        "audioMuted" : false,
        "videoHidden" : false,
        "magnetic" : false,
        "metadata" : {
          "IsLocked" : "False",
          "WinTrackHeight" : "108.923076923077",
          "trackHeight" : "40"
        }
      },
      {
        "ident" : "",
        "audioMuted" : false,
        "videoHidden" : false,
        "magnetic" : false,
        "metadata" : {
          "IsLocked" : "False",
          "WinTrackHeight" : "108.923076923077",
          "trackHeight" : "40"
        }
      },
      {
        "ident" : "",
        "audioMuted" : false,
        "videoHidden" : false,
        "magnetic" : false,
        "metadata" : {
          "IsLocked" : "False",
          "WinTrackHeight" : "108.923076923077",
          "trackHeight" : "102"
        }
      },
      {
        "ident" : "",
        "audioMuted" : false,
        "videoHidden" : false,
        "magnetic" : false,
        "metadata" : {
          "IsLocked" : "False",
          "WinTrackHeight" : "108.923076923077",
          "trackHeight" : "150"
        }
      },
      {
        "ident" : "",
        "audioMuted" : false,
        "videoHidden" : false,
        "magnetic" : false,
        "metadata" : {
          "IsLocked" : "False",
          "WinTrackHeight" : "108.923076923077",
          "trackHeight" : "150"
        }
      },
      {
        "ident" : "",
        "audioMuted" : false,
        "videoHidden" : false,
        "magnetic" : false,
        "metadata" : {
          "IsLocked" : "False",
          "WinTrackHeight" : "108.923076923077",
          "trackHeight" : "102"
        }
      },
      {
        "ident" : "",
        "audioMuted" : false,
        "videoHidden" : false,
        "magnetic" : false,
        "metadata" : {
          "IsLocked" : "False",
          "WinTrackHeight" : "108.923076923077",
          "trackHeight" : "54"
        }
      },
      {
        "ident" : "",
        "audioMuted" : false,
        "videoHidden" : false,
        "magnetic" : false,
        "metadata" : {
          "IsLocked" : "False",
          "WinTrackHeight" : "108.923076923077",
          "trackHeight" : "86"
        }
      },
      {
        "ident" : "",
        "audioMuted" : false,
        "videoHidden" : false,
        "magnetic" : false,
        "metadata" : {
          "IsLocked" : "False",
          "WinTrackHeight" : "108.923076923077",
          "trackHeight" : "86"
        }
      },
      {
        "ident" : "",
        "audioMuted" : false,
        "videoHidden" : false,
        "magnetic" : false,
        "metadata" : {
          "IsLocked" : "False",
          "WinTrackHeight" : "108.923076923077"
        }
      },
      {
        "ident" : "",
        "audioMuted" : false,
        "videoHidden" : false,
        "magnetic" : false,
        "metadata" : {
          "IsLocked" : "False",
          "WinTrackHeight" : "108.923076923077"
        }
      },
      {
        "ident" : "",
        "audioMuted" : false,
        "videoHidden" : false,
        "magnetic" : false,
        "metadata" : {
          "IsLocked" : "False",
          "WinTrackHeight" : "108.923076923077"
        }
      },
      {
        "ident" : "",
        "audioMuted" : false,
        "videoHidden" : false,
        "magnetic" : false,
        "metadata" : {
          "IsLocked" : "False",
          "WinTrackHeight" : "108.923076923077"
        }
      },
      {
        "ident" : "",
        "audioMuted" : false,
        "videoHidden" : false,
        "magnetic" : false,
        "metadata" : {
          "IsLocked" : "False",
          "WinTrackHeight" : "108.923076923077"
        }
      }
    ],
    "captionAttributes" : {
      "enabled" : true,
      "fontName" : "Arial",
      "fontSize" : 32,
      "backgroundColor" : [ 0, 0, 0, 127],
      "foregroundColor" : [ 255, 255, 255, 255],
      "lang" : "en",
      "alignment" : 0,
      "defaultFontSize" : true,
      "opacity" : 0.5,
      "backgroundEnabled" : true,
      "backgroundOnlyAroundText" : true
    },
    "backgroundColor" : [ 0, 0, 0, 255]
  },
  "metadata" : {
    "AutoSaveFile" : "",
    "CanvasZoom" : 75,
    "Date" : "2020-01-27 11:33:13 PM",
    "Fit" : 0,
    "IsAutoSave" : "0",
    "Language" : "ENU",
    "ProfileName" : "MP4 only (up to 720p)",
    "Title" : "CamtasiaTemplateWindows",
    "audioNarrationNotes" : "",
    "calloutStyle" : "All",
    "canvasDetached" : "False",
    "canvasPositionHeight" : "0",
    "canvasPositionLeft" : "0",
    "canvasPositionTop" : "0",
    "canvasPositionWidth" : "0",
    "firstMedia" : true
  },
  "audioPlaybackRate" : 44100
,
  "themeFile" : null

}
