{
  "title" : "",
  "description" : "",
  "author" : "",
  "targetLoudness" : -18.0,
  "shouldApplyLoudnessNormalization" : false,
  "videoPlaybackRate" : 30,
  "audioPlaybackRate" : 44100,
  "width" : 1280.0,
  "height" : 720.0,
  "version" : "3.0",
  "editRate" : 30,
  "authoringClientName" :  {
    "name" : "Camtasia",
    "platform" : "Windows",
    "version" : "19.0"
  },
  "sourceBin" : [
    {
      "id" : 1,
      "src" : "D:\\Data Files\\Udemy\\Instructor\\Codestars\\Course-Prep-Splash\\Camtasia9TemplateWindows\\codestars_logo.png",
      "rect" : [0, 0, 1061, 168],
      "lastMod" : "20200128T043621",
      "sourceTracks" : [
        {
          "range" : [0, 1],
          "type" : 1,
          "editRate" : 10000000,
          "trackRect" : [0, 0, 1061, 168],
          "sampleRate" : 0,
          "bitDepth" : 32,
          "numChannels" : 0,
          "integratedLUFS" : 100.0,
          "peakLevel" : -1.0,
          "metaData" : ""
        }
      ]
    },
    {
      "id" : 2,
      "src" : "D:\\Data Files\\Udemy\\Instructor\\Codestars\\Course-Prep-Splash\\Camtasia9TemplateWindows\\star.png",
      "rect" : [0, 0, 199, 206],
      "lastMod" : "20200128T043621",
      "sourceTracks" : [
        {
          "range" : [0, 1],
          "type" : 1,
          "editRate" : 10000000,
          "trackRect" : [0, 0, 199, 206],
          "sampleRate" : 0,
          "bitDepth" : 32,
          "numChannels" : 0,
          "integratedLUFS" : 100.0,
          "peakLevel" : -1.0,
          "metaData" : ""
        }
      ]
    },
    {
      "id" : 3,
      "src" : "D:\\Data Files\\Udemy\\Instructor\\Codestars\\Course-Prep-Splash\\Camtasia-JPB-CPP\\Splash_Android.png",
      "rect" : [0, 0, 1920, 1080],
      "lastMod" : "20200201T225340",
      "sourceTracks" : [
        {
          "range" : [0, 1],
          "type" : 1,
          "editRate" : 10000000,
          "trackRect" : [0, 0, 1920, 1080],
          "sampleRate" : 0,
          "bitDepth" : 32,
          "numChannels" : 0,
          "integratedLUFS" : 100.0,
          "peakLevel" : -1.0,
          "metaData" : ""
        }
      ]
    },
    {
      "id" : 4,
      "src" : "C:\\Users\\profj\\Desktop\\Udemy\\Codestars\\CPP\\videos\\Course-Prep-Splash\\JPB-Images\\PNG\\Head.png",
      "rect" : [0, 0, 721, 1024],
      "lastMod" : "20200203T062252",
      "sourceTracks" : [
        {
          "range" : [0, 1],
          "type" : 1,
          "editRate" : 10000000,
          "trackRect" : [0, 0, 721, 1024],
          "sampleRate" : 0,
          "bitDepth" : 32,
          "numChannels" : 0,
          "integratedLUFS" : 100.0,
          "peakLevel" : -1.0,
          "metaData" : ""
        }
      ]
    },
    {
      "id" : 5,
      "src" : "C:\\Users\\profj\\Documents\\Camtasia\\Rec 02-05-20_001.trec",
      "rect" : [0, 0, 1920, 1080],
      "lastMod" : "20200205T071140",
      "sourceTracks" : [
        {
          "range" : [0, 19785],
          "type" : 0,
          "editRate" : 30,
          "trackRect" : [0, 0, 1920, 1080],
          "sampleRate" : 29,
          "bitDepth" : 0,
          "numChannels" : 0,
          "integratedLUFS" : 100.0,
          "peakLevel" : -1.0,
          "metaData" : "Rec 02-05-20_001.trec;"
        },
        {
          "range" : [0, 29085696],
          "type" : 2,
          "editRate" : 44100,
          "trackRect" : [0, 0, 0, 0],
          "sampleRate" : 44100,
          "bitDepth" : 16,
          "numChannels" : 2,
          "integratedLUFS" : -19.2400681451062,
          "peakLevel" : 1.0,
          "metaData" : ""
        },
        {
          "range" : [0, 29086720],
          "type" : 2,
          "editRate" : 44100,
          "trackRect" : [0, 0, 0, 0],
          "sampleRate" : 44100,
          "bitDepth" : 16,
          "numChannels" : 2,
          "integratedLUFS" : 0.0,
          "peakLevel" : 0.0,
          "metaData" : ""
        }
      ]
    },
    {
      "id" : 6,
      "src" : "C:\\Users\\profj\\Desktop\\Udemy\\Codestars\\CPP\\videos\\section2\\_intro-bulletpoints\\s2-lec3-var-dt\\Slide1.PNG",
      "rect" : [0, 0, 1280, 720],
      "lastMod" : "20200226T204526",
      "sourceTracks" : [
        {
          "range" : [0, 1],
          "type" : 1,
          "editRate" : 10000000,
          "trackRect" : [0, 0, 1280, 720],
          "sampleRate" : 0,
          "bitDepth" : 24,
          "numChannels" : 0,
          "integratedLUFS" : 100.0,
          "peakLevel" : -1.0,
          "metaData" : ""
        }
      ]
    }
  ],
  "timeline" : {
    "id" : 7,
    "sceneTrack" : {
      "scenes" : [
        {
          "duration" : 632.666666666667,
          "title" : "",
          "type" : "",
          "csml" : {
            "tracks" : [
              {
                "trackIndex" : 0,
                "medias" : [
                  {
                    "id" : 8,
                    "_type" : "IMFile",
                    "src" : 3,
                    "trackNumber" : 0,
                    "trimStartSum" : 0,
                    "attributes" : {
                      "ident" : "Splash_Android"
                    },
                    "parameters" : {
                      "translation0" : 0.00456702366917246,
                      "translation1" : -0.00256895081391425,
                      "scale0" : 0.666671423982989,
                      "scale1" : 0.666671423982989
                    },
                    "effects" : [

                    ],
                    "start" : 18830,
                    "duration" : 150,
                    "mediaStart" : 0,
                    "mediaDuration" : 1,
                    "scalar" : 1,
                    "metadata" : {
                      "WinSubProjectDisplayName" : "",
                      "clipSpeedAttribute" : false,
                      "default-scale" : "0.666667",
                      "effectApplied" : "none"
                    },
                    "animationTracks" : {

                    }
                  }
                ],
                "transitions" : [
                  {
                    "name" : "Fade",
                    "duration" : 30,
                    "trivial" : true,
                    "useAudioPreRoll" : false,
                    "useVisualPreRoll" : true,
                    "rightMedia" : 8
                  },
                  {
                    "name" : "Fade",
                    "duration" : 30,
                    "trivial" : true,
                    "useAudioPreRoll" : false,
                    "useVisualPreRoll" : true,
                    "leftMedia" : 8
                  }
                ]
              },
              {
                "trackIndex" : 1,
                "medias" : [
                  {
                    "id" : 9,
                    "_type" : "IMFile",
                    "src" : 2,
                    "trackNumber" : 0,
                    "trimStartSum" : 0,
                    "attributes" : {
                      "ident" : "star"
                    },
                    "parameters" : {
                      "translation0" : {
                        "type" : "double",
                        "defaultValue" : -522.733906099372,
                        "interp" : "linr"
                      },
                      "translation1" : {
                        "type" : "double",
                        "defaultValue" : -277.438113851611,
                        "interp" : "linr"
                      },
                      "translation2" : {
                        "type" : "double",
                        "defaultValue" : 0.0,
                        "interp" : "linr"
                      },
                      "rotation0" : {
                        "type" : "double",
                        "defaultValue" : 0.0,
                        "interp" : "linr"
                      },
                      "rotation1" : {
                        "type" : "double",
                        "defaultValue" : 0.0,
                        "interp" : "linr"
                      },
                      "rotation2" : {
                        "type" : "double",
                        "defaultValue" : 0.0,
                        "interp" : "linr"
                      },
                      "shear0" : {
                        "type" : "double",
                        "defaultValue" : 0.0,
                        "interp" : "linr"
                      },
                      "shear1" : {
                        "type" : "double",
                        "defaultValue" : 0.0,
                        "interp" : "linr"
                      },
                      "shear2" : {
                        "type" : "double",
                        "defaultValue" : 0.0,
                        "interp" : "linr"
                      },
                      "scale0" : {
                        "type" : "double",
                        "defaultValue" : 0.344059357782636,
                        "interp" : "linr"
                      },
                      "scale1" : {
                        "type" : "double",
                        "defaultValue" : 0.344059357782636,
                        "interp" : "linr"
                      },
                      "scale2" : {
                        "type" : "double",
                        "defaultValue" : 1.0,
                        "interp" : "linr"
                      },
                      "anchor0" : {
                        "type" : "double",
                        "defaultValue" : 0.0,
                        "interp" : "linr"
                      },
                      "anchor1" : {
                        "type" : "double",
                        "defaultValue" : 0.0,
                        "interp" : "linr"
                      },
                      "anchor2" : {
                        "type" : "double",
                        "defaultValue" : 0.0,
                        "interp" : "linr"
                      },
                      "opacity" : {
                        "type" : "double",
                        "defaultValue" : 1.0,
                        "keyframes" : [
                          {
                            "endTime" : 150,
                            "time" : 120,
                            "value" : 0.0,
                            "duration" : 30
                          }
                        ]
                      }
                    },
                    "effects" : [

                    ],
                    "start" : 18830,
                    "duration" : 150,
                    "mediaStart" : 0,
                    "mediaDuration" : 1,
                    "scalar" : 1,
                    "metadata" : {
                      "WinSubProjectDisplayName" : "",
                      "clipSpeedAttribute" : false,
                      "default-opacity" : 0.0,
                      "default-scale" : "1",
                      "effectApplied" : "none"
                    },
                    "animationTracks" : {
                      "visual" : [
                        {
                          "endTime" : 150,
                          "duration" : 30,
                          "range" : [ 120, 30]
                        }
                      ]
                    }
                  }
                ],
                "transitions" : [
                  {
                    "name" : "Fade",
                    "duration" : 30,
                    "trivial" : true,
                    "useAudioPreRoll" : true,
                    "useVisualPreRoll" : true,
                    "rightMedia" : 9
                  },
                  {
                    "name" : "Fade",
                    "duration" : 30,
                    "trivial" : true,
                    "useAudioPreRoll" : true,
                    "useVisualPreRoll" : true,
                    "leftMedia" : 9
                  }
                ]
              },
              {
                "trackIndex" : 2,
                "medias" : [
                  {
                    "id" : 10,
                    "_type" : "IMFile",
                    "src" : 1,
                    "trackNumber" : 0,
                    "trimStartSum" : 0,
                    "attributes" : {
                      "ident" : "codestars_logo"
                    },
                    "parameters" : {
                      "translation0" : {
                        "type" : "double",
                        "defaultValue" : -263.136792317664,
                        "interp" : "linr"
                      },
                      "translation1" : {
                        "type" : "double",
                        "defaultValue" : -271.784183685799,
                        "interp" : "linr"
                      },
                      "translation2" : {
                        "type" : "double",
                        "defaultValue" : 0.0,
                        "interp" : "linr"
                      },
                      "rotation0" : {
                        "type" : "double",
                        "defaultValue" : 0.0,
                        "interp" : "linr"
                      },
                      "rotation1" : {
                        "type" : "double",
                        "defaultValue" : 0.0,
                        "interp" : "linr"
                      },
                      "rotation2" : {
                        "type" : "double",
                        "defaultValue" : 0.0,
                        "interp" : "linr"
                      },
                      "shear0" : {
                        "type" : "double",
                        "defaultValue" : 0.0,
                        "interp" : "linr"
                      },
                      "shear1" : {
                        "type" : "double",
                        "defaultValue" : 0.0,
                        "interp" : "linr"
                      },
                      "shear2" : {
                        "type" : "double",
                        "defaultValue" : 0.0,
                        "interp" : "linr"
                      },
                      "scale0" : {
                        "type" : "double",
                        "defaultValue" : 0.402192662926175,
                        "interp" : "linr"
                      },
                      "scale1" : {
                        "type" : "double",
                        "defaultValue" : 0.402192662926175,
                        "interp" : "linr"
                      },
                      "scale2" : {
                        "type" : "double",
                        "defaultValue" : 1.0,
                        "interp" : "linr"
                      },
                      "anchor0" : {
                        "type" : "double",
                        "defaultValue" : 0.0,
                        "interp" : "linr"
                      },
                      "anchor1" : {
                        "type" : "double",
                        "defaultValue" : 0.0,
                        "interp" : "linr"
                      },
                      "anchor2" : {
                        "type" : "double",
                        "defaultValue" : 0.0,
                        "interp" : "linr"
                      },
                      "opacity" : 0.0
                    },
                    "effects" : [

                    ],
                    "start" : 18830,
                    "duration" : 150,
                    "mediaStart" : 0,
                    "mediaDuration" : 1,
                    "scalar" : 1,
                    "metadata" : {
                      "WinSubProjectDisplayName" : "",
                      "clipSpeedAttribute" : false,
                      "default-scale" : "1",
                      "effectApplied" : "none"
                    },
                    "animationTracks" : {

                    }
                  }
                ],
                "transitions" : [
                  {
                    "name" : "Fade",
                    "duration" : 30,
                    "trivial" : true,
                    "useAudioPreRoll" : true,
                    "useVisualPreRoll" : true,
                    "rightMedia" : 10
                  },
                  {
                    "name" : "Fade",
                    "duration" : 30,
                    "trivial" : true,
                    "useAudioPreRoll" : true,
                    "useVisualPreRoll" : true,
                    "leftMedia" : 10
                  }
                ]
              },
              {
                "trackIndex" : 3,
                "medias" : [
                  {
                    "id" : 11,
                    "_type" : "IMFile",
                    "src" : 3,
                    "trackNumber" : 0,
                    "trimStartSum" : 0,
                    "attributes" : {
                      "ident" : "Splash_Android"
                    },
                    "parameters" : {
                      "translation0" : -0.00456702364154329,
                      "translation1" : -6.87439439981899,
                      "scale0" : 0.666671423982989,
                      "scale1" : 0.666671423982989
                    },
                    "effects" : [

                    ],
                    "start" : 0,
                    "duration" : 150,
                    "mediaStart" : 0,
                    "mediaDuration" : 1,
                    "scalar" : 1,
                    "metadata" : {
                      "WinSubProjectDisplayName" : "",
                      "clipSpeedAttribute" : false,
                      "default-scale" : "0.666667",
                      "default-translation0" : 0.00456702366917246,
                      "default-translation1" : -0.00256895081391425,
                      "effectApplied" : "none"
                    },
                    "animationTracks" : {

                    }
                  },
                  {
                    "id" : 12,
                    "_type" : "IMFile",
                    "src" : 1,
                    "trackNumber" : 0,
                    "trimStartSum" : 0,
                    "attributes" : {
                      "ident" : "codestars_logo"
                    },
                    "parameters" : {
                      "translation0" : {
                        "type" : "double",
                        "defaultValue" : -263.136792317664,
                        "interp" : "linr"
                      },
                      "translation1" : {
                        "type" : "double",
                        "defaultValue" : -271.784183685799,
                        "interp" : "linr"
                      },
                      "translation2" : {
                        "type" : "double",
                        "defaultValue" : 0.0,
                        "interp" : "linr"
                      },
                      "rotation0" : {
                        "type" : "double",
                        "defaultValue" : 0.0,
                        "interp" : "linr"
                      },
                      "rotation1" : {
                        "type" : "double",
                        "defaultValue" : 0.0,
                        "interp" : "linr"
                      },
                      "rotation2" : {
                        "type" : "double",
                        "defaultValue" : 0.0,
                        "interp" : "linr"
                      },
                      "shear0" : {
                        "type" : "double",
                        "defaultValue" : 0.0,
                        "interp" : "linr"
                      },
                      "shear1" : {
                        "type" : "double",
                        "defaultValue" : 0.0,
                        "interp" : "linr"
                      },
                      "shear2" : {
                        "type" : "double",
                        "defaultValue" : 0.0,
                        "interp" : "linr"
                      },
                      "scale0" : {
                        "type" : "double",
                        "defaultValue" : 0.402192662926175,
                        "interp" : "linr"
                      },
                      "scale1" : {
                        "type" : "double",
                        "defaultValue" : 0.402192662926175,
                        "interp" : "linr"
                      },
                      "scale2" : {
                        "type" : "double",
                        "defaultValue" : 1.0,
                        "interp" : "linr"
                      },
                      "anchor0" : {
                        "type" : "double",
                        "defaultValue" : 0.0,
                        "interp" : "linr"
                      },
                      "anchor1" : {
                        "type" : "double",
                        "defaultValue" : 0.0,
                        "interp" : "linr"
                      },
                      "anchor2" : {
                        "type" : "double",
                        "defaultValue" : 0.0,
                        "interp" : "linr"
                      }
                    },
                    "effects" : [

                    ],
                    "start" : 18830,
                    "duration" : 150,
                    "mediaStart" : 0,
                    "mediaDuration" : 1,
                    "scalar" : 1,
                    "metadata" : {
                      "WinSubProjectDisplayName" : "",
                      "clipSpeedAttribute" : false,
                      "default-scale" : "1",
                      "effectApplied" : "none"
                    },
                    "animationTracks" : {

                    }
                  }
                ],
                "transitions" : [
                  {
                    "name" : "Fade",
                    "duration" : 30,
                    "trivial" : true,
                    "useAudioPreRoll" : false,
                    "useVisualPreRoll" : true,
                    "leftMedia" : 11
                  },
                  {
                    "name" : "Fade",
                    "duration" : 30,
                    "trivial" : true,
                    "useAudioPreRoll" : true,
                    "useVisualPreRoll" : true,
                    "rightMedia" : 12
                  },
                  {
                    "name" : "Fade",
                    "duration" : 30,
                    "trivial" : true,
                    "useAudioPreRoll" : true,
                    "useVisualPreRoll" : true,
                    "leftMedia" : 12
                  }
                ]
              },
              {
                "trackIndex" : 4,
                "medias" : [
                  {
                    "id" : 13,
                    "_type" : "IMFile",
                    "src" : 2,
                    "trackNumber" : 0,
                    "trimStartSum" : 0,
                    "attributes" : {
                      "ident" : "star"
                    },
                    "parameters" : {
                      "translation0" : {
                        "type" : "double",
                        "defaultValue" : -640.0,
                        "interp" : "linr",
                        "keyframes" : [
                          {
                            "endTime" : 30,
                            "time" : 0,
                            "value" : -522.733906099372,
                            "duration" : 30
                          }
                        ]
                      },
                      "translation1" : {
                        "type" : "double",
                        "defaultValue" : -0.0,
                        "interp" : "linr",
                        "keyframes" : [
                          {
                            "endTime" : 30,
                            "time" : 0,
                            "value" : -277.438113851611,
                            "duration" : 30
                          }
                        ]
                      },
                      "translation2" : {
                        "type" : "double",
                        "defaultValue" : 0.0,
                        "interp" : "linr"
                      },
                      "rotation0" : {
                        "type" : "double",
                        "defaultValue" : 0.0,
                        "interp" : "linr"
                      },
                      "rotation1" : {
                        "type" : "double",
                        "defaultValue" : 0.0,
                        "interp" : "linr"
                      },
                      "rotation2" : {
                        "type" : "double",
                        "defaultValue" : 6.28318530717959,
                        "interp" : "linr",
                        "keyframes" : [
                          {
                            "endTime" : 30,
                            "time" : 0,
                            "value" : 0.0,
                            "duration" : 30
                          }
                        ]
                      },
                      "shear0" : {
                        "type" : "double",
                        "defaultValue" : 0.0,
                        "interp" : "linr"
                      },
                      "shear1" : {
                        "type" : "double",
                        "defaultValue" : 0.0,
                        "interp" : "linr"
                      },
                      "shear2" : {
                        "type" : "double",
                        "defaultValue" : 0.0,
                        "interp" : "linr"
                      },
                      "scale0" : {
                        "type" : "double",
                        "defaultValue" : 0.0,
                        "interp" : "linr",
                        "keyframes" : [
                          {
                            "endTime" : 30,
                            "time" : 0,
                            "value" : 0.344059357782636,
                            "duration" : 30
                          }
                        ]
                      },
                      "scale1" : {
                        "type" : "double",
                        "defaultValue" : 0.0,
                        "interp" : "linr",
                        "keyframes" : [
                          {
                            "endTime" : 30,
                            "time" : 0,
                            "value" : 0.344059357782636,
                            "duration" : 30
                          }
                        ]
                      },
                      "scale2" : {
                        "type" : "double",
                        "defaultValue" : 1.0,
                        "interp" : "linr"
                      },
                      "anchor0" : {
                        "type" : "double",
                        "defaultValue" : 0.0,
                        "interp" : "linr"
                      },
                      "anchor1" : {
                        "type" : "double",
                        "defaultValue" : 0.0,
                        "interp" : "linr"
                      },
                      "anchor2" : {
                        "type" : "double",
                        "defaultValue" : 0.0,
                        "interp" : "linr"
                      },
                      "opacity" : {
                        "type" : "double",
                        "defaultValue" : 1.0,
                        "keyframes" : [
                          {
                            "endTime" : 150,
                            "time" : 120,
                            "value" : 0.0,
                            "duration" : 30
                          }
                        ]
                      }
                    },
                    "effects" : [

                    ],
                    "start" : 0,
                    "duration" : 150,
                    "mediaStart" : 0,
                    "mediaDuration" : 1,
                    "scalar" : 1,
                    "metadata" : {
                      "WinSubProjectDisplayName" : "",
                      "clipSpeedAttribute" : false,
                      "default-scale" : "1",
                      "effectApplied" : "none"
                    },
                    "animationTracks" : {
                      "visual" : [
                        {
                          "endTime" : 30,
                          "duration" : 30,
                          "range" : [ 0, 30]
                        },
                        {
                          "endTime" : 150,
                          "duration" : 30,
                          "range" : [ 120, 30]
                        }
                      ]
                    }
                  },
                  {
                    "id" : 14,
                    "_type" : "Callout",
                    "def" : {
                      "kind" : "TypeWinText",
                      "shape" : "",
                      "style" : "",
                      "Style" : 5.0,
                      "dimensionTime" : 0.0,
                      "height" : 180.0,
                      "line-spacing" : 0.0,
                      "textIgnoresOpacity" : 0.0,
                      "textRectHeight" : 1.0,
                      "textRectWidth" : 1.0,
                      "textRectX" : 0.0,
                      "textRectY" : 0.0,
                      "textVerticalAlign" : -1.0,
                      "width" : 320.0,
                      "filename" : "C:\\Program Files\\TechSmith\\Camtasia 9\\Media\\Studio\\Callouts\\trans_100x100.xml",
                      "horizontal-alignment" : "center",
                      "name" : "Text",
                      "text" : "{\\rtf1\\ansi\\ansicpg1252\\deff0\\nouicompat\\deflang1033{\\fonttbl{\\f0\\fnil\\fcharset0 Quicksand;}}\r\n{\\colortbl ;\\red255\\green255\\blue255;}\r\n{\\*\\generator Riched20 10.0.18362}\\viewkind4\\uc1 \r\n\\pard\\cf1\\f0\\fs80 The Complete\\par\r\n\\b\\fs90 C++ Developer Course\\par\r\n}\r\n",
                      "vertical-alignment" : "center",
                      "xmlContent" : "﻿<?xml version=\"1.0\"?>\n\n<Overlay version=\"1.0.1\">\n\n<Overlay_Filename>trans_100x100.png</Overlay_Filename>\n<Overlay_Name>Text</Overlay_Name>\n<Text_Top>0</Text_Top>\n<Text_Left>0</Text_Left>\n<Text_Bottom>0</Text_Bottom>\n<Text_Right>0</Text_Right>\n<Fill_Color>0</Fill_Color>\n<Border_Color>0</Border_Color>\n<Style>5</Style>\n</Overlay>",
                      "textAttributes" : {
                        "type" : "textAttributeList",
                        "keyframes" : [
                          {
                            "endTime" : 0,
                            "time" : 0,
                            "value" : null,
                            "duration" : 0
                          }
                        ]
                      }
                    },
                    "attributes" : {
                      "autoRotateText" : true
                    },
                    "parameters" : {
                      "translation0" : -70.9521418731169,
                      "translation1" : 239.738828503294,
                      "scale0" : 3.12385809835021,
                      "scale1" : 1.00002854389906
                    },
                    "effects" : [

                    ],
                    "start" : 18830,
                    "duration" : 150,
                    "mediaStart" : 0,
                    "mediaDuration" : 150,
                    "scalar" : 1,
                    "metadata" : {
                      "WinSubProjectDisplayName" : "",
                      "clipSpeedAttribute" : false,
                      "default-legacy-fill-style" : 5.0,
                      "default-legacy-text-callout-vertical-align" : "middle",
                      "default-scale0" : 1.0,
                      "default-scale1" : 1.0,
                      "default-text" : "{\\rtf1\\ansi\\ansicpg1252\\deff0\\deflang1033{\\fonttbl{\\f0\\fswiss\\fprq2\\fcharset0 Arial;}}{\\colortbl ;\\red255\\green255\\blue255;}\\viewkind4\\uc1\\pard\\qc\\cf1\\fs72 abc}",
                      "default-translation0" : 0.0,
                      "default-translation1" : 0.0
                    },
                    "animationTracks" : {

                    }
                  }
                ],
                "transitions" : [
                  {
                    "name" : "Fade",
                    "duration" : 30,
                    "trivial" : true,
                    "useAudioPreRoll" : true,
                    "useVisualPreRoll" : true,
                    "rightMedia" : 14
                  },
                  {
                    "name" : "Fade",
                    "duration" : 30,
                    "trivial" : true,
                    "useAudioPreRoll" : true,
                    "useVisualPreRoll" : true,
                    "leftMedia" : 14
                  }
                ]
              },
              {
                "trackIndex" : 5,
                "medias" : [
                  {
                    "id" : 15,
                    "_type" : "Callout",
                    "def" : {
                      "kind" : "remix",
                      "shape" : "text",
                      "style" : "bold",
                      "height" : 250.0,
                      "line-spacing" : 0.0,
                      "width" : 1035.85760517811,
                      "word-wrap" : 1.0,
                      "horizontal-alignment" : "left",
                      "text" : "Fundamentals\rVariables and Data Types (Part 1)",
                      "vertical-alignment" : "center",
                      "font" : {
                        "color-blue" : 1.0,
                        "color-green" : 1.0,
                        "color-red" : 1.0,
                        "size" : 96.0,
                        "tracking" : 0.0,
                        "name" : "Source Sans Pro",
                        "weight" : "Semi Bold"
                      },
                      "textAttributes" : {
                        "type" : "textAttributeList",
                        "keyframes" : [
                          {
                            "endTime" : 0,
                            "time" : 0,
                            "value" : [{"name":"fontSize","rangeEnd":46,"rangeStart":13,"value":52,"valueType":"double"},{"name":"strikethrough","rangeEnd":46,"rangeStart":0,"value":0,"valueType":"int"},{"name":"underline","rangeEnd":46,"rangeStart":0,"value":0,"valueType":"int"},{"name":"fontSize","rangeEnd":13,"rangeStart":0,"value":55,"valueType":"double"},{"name":"fgColor","rangeEnd":46,"rangeStart":0,"value":"(255,255,255,255)","valueType":"color"},{"name":"fontItalic","rangeEnd":46,"rangeStart":0,"value":0,"valueType":"int"},{"name":"kerning","rangeEnd":46,"rangeStart":0,"value":0,"valueType":"double"},{"name":"fontName","rangeEnd":46,"rangeStart":0,"value":"Quicksand","valueType":"string"},{"name":"fontWeight","rangeEnd":13,"rangeStart":0,"value":700,"valueType":"int"},{"name":"fontWeight","rangeEnd":46,"rangeStart":13,"value":400,"valueType":"int"}],
                            "duration" : 0
                          }
                        ]
                      }
                    },
                    "attributes" : {
                      "autoRotateText" : true
                    },
                    "parameters" : {
                      "translation0" : {
                        "type" : "double",
                        "defaultValue" : -913.412651778095,
                        "keyframes" : [
                          {
                            "endTime" : 38,
                            "time" : 8,
                            "value" : 98.5873482219166,
                            "duration" : 30
                          }
                        ]
                      },
                      "translation1" : {
                        "type" : "double",
                        "defaultValue" : -34.812002943898,
                        "keyframes" : [
                          {
                            "endTime" : 38,
                            "time" : 8,
                            "value" : -34.8120029438544,
                            "duration" : 30
                          }
                        ]
                      }
                    },
                    "effects" : [
                        {
                          "effectName" : "DropShadow",
                          "category" : "categoryVisualEffects",
                          "parameters" : {
                            "angle" : {
                              "type" : "double",
                              "defaultValue" : 5.49778714378214,
                              "uiHints" : {
                                "userInterfaceType" : 0,
                                "unitType" : 0
                              },
                              "keyframes" : [
                                {
                                  "endTime" : 38,
                                  "time" : 8,
                                  "value" : 5.49778714378214,
                                  "duration" : 30
                                }
                              ]
                            },
                            "blur" : 10.0,
                            "color-alpha" : 1.0,
                            "color-blue" : 0.1216,
                            "color-green" : 0.1216,
                            "color-red" : 0.1216,
                            "enabled" : 1,
                            "offset" : 10.0,
                            "opacity" : 0.4
                          }
                        }
                    ],
                    "start" : 35,
                    "duration" : 115,
                    "mediaStart" : 8,
                    "mediaDuration" : 115,
                    "scalar" : 1,
                    "metadata" : {
                      "WinSubProjectDisplayName" : "",
                      "clipSpeedAttribute" : false,
                      "default-HAlign" : "center",
                      "default-LineSpace" : 0.0,
                      "default-VAlign" : "center",
                      "default-text-attributes" : "[{\"name\":\"fontWeight\",\"rangeEnd\":37,\"rangeStart\":26,\"value\":100,\"valueType\":\"int\"},{\"name\":\"underline\",\"rangeEnd\":37,\"rangeStart\":0,\"value\":0,\"valueType\":\"int\"},{\"name\":\"fontWeight\",\"rangeEnd\":26,\"rangeStart\":0,\"value\":700,\"valueType\":\"int\"},{\"name\":\"fgColor\",\"rangeEnd\":37,\"rangeStart\":0,\"value\":\"(255,255,255,255)\",\"valueType\":\"color\"},{\"name\":\"fontSize\",\"rangeEnd\":26,\"rangeStart\":0,\"value\":55,\"valueType\":\"double\"},{\"name\":\"fontItalic\",\"rangeEnd\":37,\"rangeStart\":0,\"value\":0,\"valueType\":\"int\"},{\"name\":\"strikethrough\",\"rangeEnd\":37,\"rangeStart\":0,\"value\":0,\"valueType\":\"int\"},{\"name\":\"fontName\",\"rangeEnd\":37,\"rangeStart\":0,\"value\":\"Quicksand\",\"valueType\":\"string\"},{\"name\":\"fontSize\",\"rangeEnd\":37,\"rangeStart\":26,\"value\":52,\"valueType\":\"double\"}]",
                      "default-translation0" : 204.5,
                      "default-translation1" : 0.0
                    },
                    "animationTracks" : {
                      "visual" : [
                        {
                          "endTime" : 38,
                          "duration" : 30,
                          "range" : [ 8, 30]
                        }
                      ]
                    }
                  },
                  {
                    "id" : 16,
                    "_type" : "IMFile",
                    "src" : 4,
                    "trackNumber" : 0,
                    "trimStartSum" : 0,
                    "attributes" : {
                      "ident" : "Head"
                    },
                    "parameters" : {
                      "translation0" : 537.015153862789,
                      "translation1" : -206.400000000049,
                      "scale0" : 0.35,
                      "scale1" : 0.35
                    },
                    "effects" : [

                    ],
                    "start" : 18830,
                    "duration" : 150,
                    "mediaStart" : 0,
                    "mediaDuration" : 1,
                    "scalar" : 1,
                    "metadata" : {
                      "WinSubProjectDisplayName" : "",
                      "clipSpeedAttribute" : false,
                      "default-scale0" : 0.703125,
                      "default-scale1" : 0.703125,
                      "default-translation0" : 0.0,
                      "default-translation1" : 0.0
                    },
                    "animationTracks" : {

                    }
                  }
                ],
                "transitions" : [
                  {
                    "name" : "Fade",
                    "duration" : 30,
                    "trivial" : true,
                    "useAudioPreRoll" : true,
                    "useVisualPreRoll" : true,
                    "leftMedia" : 15
                  },
                  {
                    "name" : "Fade",
                    "duration" : 30,
                    "trivial" : false,
                    "useAudioPreRoll" : true,
                    "useVisualPreRoll" : true,
                    "rightMedia" : 16
                  },
                  {
                    "name" : "Fade",
                    "duration" : 30,
                    "trivial" : false,
                    "useAudioPreRoll" : true,
                    "useVisualPreRoll" : true,
                    "leftMedia" : 16
                  }
                ]
              },
              {
                "trackIndex" : 6,
                "medias" : [
                  {
                    "id" : 17,
                    "_type" : "Callout",
                    "def" : {
                      "kind" : "TypeWinText",
                      "shape" : "",
                      "style" : "",
                      "Style" : 5.0,
                      "dimensionTime" : 0.0,
                      "height" : 180.0,
                      "line-spacing" : 0.0,
                      "textIgnoresOpacity" : 0.0,
                      "textRectHeight" : 1.0,
                      "textRectWidth" : 1.0,
                      "textRectX" : 0.0,
                      "textRectY" : 0.0,
                      "textVerticalAlign" : 0.0,
                      "width" : 320.0,
                      "filename" : "C:\\Program Files\\TechSmith\\Camtasia 9\\Media\\Studio\\Callouts\\trans_100x100.xml",
                      "horizontal-alignment" : "center",
                      "name" : "Text",
                      "text" : "{\\rtf1\\ansi\\ansicpg1252\\deff0\\nouicompat\\deflang1033{\\fonttbl{\\f0\\fnil\\fcharset0 Quicksand;}}\r\n{\\colortbl ;\\red255\\green255\\blue255;}\r\n{\\*\\generator Riched20 10.0.18362}\\viewkind4\\uc1 \r\n\\pard\\qc\\cf1\\b\\f0\\fs124 #\\fs256 2\\fs72\\par\r\n}\r\n",
                      "vertical-alignment" : "center",
                      "xmlContent" : "﻿<?xml version=\"1.0\"?>\n\n<Overlay version=\"1.0.1\">\n\n<Overlay_Filename>trans_100x100.png</Overlay_Filename>\n<Overlay_Name>Text</Overlay_Name>\n<Text_Top>0</Text_Top>\n<Text_Left>0</Text_Left>\n<Text_Bottom>0</Text_Bottom>\n<Text_Right>0</Text_Right>\n<Fill_Color>0</Fill_Color>\n<Border_Color>0</Border_Color>\n<Style>5</Style>\n</Overlay>",
                      "textAttributes" : {
                        "type" : "textAttributeList",
                        "keyframes" : [
                          {
                            "endTime" : 0,
                            "time" : 0,
                            "value" : null,
                            "duration" : 0
                          }
                        ]
                      }
                    },
                    "attributes" : {
                      "autoRotateText" : true
                    },
                    "parameters" : {
                      "translation0" : {
                        "type" : "double",
                        "defaultValue" : -820.538865370044,
                        "keyframes" : [
                          {
                            "endTime" : 65,
                            "time" : 35,
                            "value" : -488.499999999933,
                            "duration" : 30
                          }
                        ]
                      },
                      "translation1" : {
                        "type" : "double",
                        "defaultValue" : -34.8120029438978,
                        "keyframes" : [
                          {
                            "endTime" : 65,
                            "time" : 35,
                            "value" : -34.8120029438634,
                            "duration" : 30
                          }
                        ]
                      },
                      "scale0" : {
                        "type" : "double",
                        "defaultValue" : 0.580906148866913,
                        "keyframes" : [
                          {
                            "endTime" : 65,
                            "time" : 35,
                            "value" : 0.580906148866913,
                            "duration" : 30
                          }
                        ]
                      },
                      "scale1" : {
                        "type" : "double",
                        "defaultValue" : 1.43801063442563,
                        "keyframes" : [
                          {
                            "endTime" : 65,
                            "time" : 35,
                            "value" : 1.43801063442563,
                            "duration" : 30
                          }
                        ]
                      }
                    },
                    "effects" : [

                    ],
                    "start" : 35,
                    "duration" : 115,
                    "mediaStart" : 35,
                    "mediaDuration" : 115,
                    "scalar" : 1,
                    "metadata" : {
                      "WinSubProjectDisplayName" : "",
                      "clipSpeedAttribute" : false,
                      "default-legacy-fill-style" : 5.0,
                      "default-legacy-text-callout-vertical-align" : "middle",
                      "default-rotation2" : 0.0,
                      "default-scale0" : 1.0,
                      "default-scale1" : 1.0,
                      "default-text" : "{\\rtf1\\ansi\\ansicpg1252\\deff0\\deflang1033{\\fonttbl{\\f0\\fswiss\\fprq2\\fcharset0 Arial;}}{\\colortbl ;\\red255\\green255\\blue255;}\\viewkind4\\uc1\\pard\\qc\\cf1\\fs72 abc}",
                      "default-translation0" : 0.0,
                      "default-translation1" : 0.0
                    },
                    "animationTracks" : {
                      "visual" : [
                        {
                          "endTime" : 65,
                          "duration" : 30,
                          "range" : [ 35, 30]
                        }
                      ]
                    }
                  }
                ],
                "transitions" : [
                  {
                    "name" : "Fade",
                    "duration" : 30,
                    "trivial" : true,
                    "useAudioPreRoll" : true,
                    "useVisualPreRoll" : true,
                    "leftMedia" : 17
                  }
                ]
              },
              {
                "trackIndex" : 7,
                "medias" : [
                  {
                    "id" : 18,
                    "_type" : "IMFile",
                    "src" : 1,
                    "trackNumber" : 0,
                    "trimStartSum" : 0,
                    "attributes" : {
                      "ident" : "codestars_logo"
                    },
                    "parameters" : {
                      "translation0" : {
                        "type" : "double",
                        "defaultValue" : -263.136792317664,
                        "interp" : "linr"
                      },
                      "translation1" : {
                        "type" : "double",
                        "defaultValue" : -271.784183685799,
                        "interp" : "linr"
                      },
                      "translation2" : {
                        "type" : "double",
                        "defaultValue" : 0.0,
                        "interp" : "linr"
                      },
                      "rotation0" : {
                        "type" : "double",
                        "defaultValue" : 0.0,
                        "interp" : "linr"
                      },
                      "rotation1" : {
                        "type" : "double",
                        "defaultValue" : 0.0,
                        "interp" : "linr"
                      },
                      "rotation2" : {
                        "type" : "double",
                        "defaultValue" : 0.0,
                        "interp" : "linr"
                      },
                      "shear0" : {
                        "type" : "double",
                        "defaultValue" : 0.0,
                        "interp" : "linr"
                      },
                      "shear1" : {
                        "type" : "double",
                        "defaultValue" : 0.0,
                        "interp" : "linr"
                      },
                      "shear2" : {
                        "type" : "double",
                        "defaultValue" : 0.0,
                        "interp" : "linr"
                      },
                      "scale0" : {
                        "type" : "double",
                        "defaultValue" : 0.402192662926175,
                        "interp" : "linr"
                      },
                      "scale1" : {
                        "type" : "double",
                        "defaultValue" : 0.402192662926175,
                        "interp" : "linr"
                      },
                      "scale2" : {
                        "type" : "double",
                        "defaultValue" : 1.0,
                        "interp" : "linr"
                      },
                      "anchor0" : {
                        "type" : "double",
                        "defaultValue" : 0.0,
                        "interp" : "linr"
                      },
                      "anchor1" : {
                        "type" : "double",
                        "defaultValue" : 0.0,
                        "interp" : "linr"
                      },
                      "anchor2" : {
                        "type" : "double",
                        "defaultValue" : 0.0,
                        "interp" : "linr"
                      }
                    },
                    "effects" : [

                    ],
                    "start" : 0,
                    "duration" : 150,
                    "mediaStart" : 0,
                    "mediaDuration" : 1,
                    "scalar" : 1,
                    "metadata" : {
                      "WinSubProjectDisplayName" : "",
                      "clipSpeedAttribute" : false,
                      "default-scale" : "1",
                      "effectApplied" : "none"
                    },
                    "animationTracks" : {

                    }
                  }
                ],
                "transitions" : [
                  {
                    "name" : "Fade",
                    "duration" : 30,
                    "trivial" : true,
                    "useAudioPreRoll" : true,
                    "useVisualPreRoll" : true,
                    "leftMedia" : 18
                  }
                ]
              },
              {
                "trackIndex" : 8,
                "medias" : [
                ]
              },
              {
                "trackIndex" : 9,
                "medias" : [
                  {
                    "id" : 19,
                    "_type" : "Callout",
                    "def" : {
                      "kind" : "TypeWinText",
                      "shape" : "",
                      "style" : "",
                      "Style" : 5.0,
                      "dimensionTime" : 0.0,
                      "height" : 180.0,
                      "line-spacing" : 0.0,
                      "textIgnoresOpacity" : 0.0,
                      "textRectHeight" : 1.0,
                      "textRectWidth" : 1.0,
                      "textRectX" : 0.0,
                      "textRectY" : 0.0,
                      "textVerticalAlign" : -1.0,
                      "width" : 320.0,
                      "filename" : "C:\\Program Files\\TechSmith\\Camtasia 9\\Media\\Studio\\Callouts\\trans_100x100.xml",
                      "horizontal-alignment" : "center",
                      "name" : "Text",
                      "text" : "{\\rtf1\\ansi\\ansicpg1252\\deff0\\nouicompat\\deflang1033{\\fonttbl{\\f0\\fnil\\fcharset0 Quicksand;}}\r\n{\\colortbl ;\\red255\\green255\\blue255;}\r\n{\\*\\generator Riched20 10.0.18362}\\viewkind4\\uc1 \r\n\\pard\\cf1\\f0\\fs80 The Complete\\par\r\n\\b\\fs90 C++ Developer Course\\par\r\n}\r\n",
                      "vertical-alignment" : "center",
                      "xmlContent" : "﻿<?xml version=\"1.0\"?>\n\n<Overlay version=\"1.0.1\">\n\n<Overlay_Filename>trans_100x100.png</Overlay_Filename>\n<Overlay_Name>Text</Overlay_Name>\n<Text_Top>0</Text_Top>\n<Text_Left>0</Text_Left>\n<Text_Bottom>0</Text_Bottom>\n<Text_Right>0</Text_Right>\n<Fill_Color>0</Fill_Color>\n<Border_Color>0</Border_Color>\n<Style>5</Style>\n</Overlay>",
                      "textAttributes" : {
                        "type" : "textAttributeList",
                        "keyframes" : [
                          {
                            "endTime" : 0,
                            "time" : 0,
                            "value" : null,
                            "duration" : 0
                          }
                        ]
                      }
                    },
                    "attributes" : {
                      "autoRotateText" : true
                    },
                    "parameters" : {
                      "translation0" : -72.2854752064544,
                      "translation1" : 239.738828503294,
                      "scale0" : 3.12385809835021,
                      "scale1" : 1.00002854389906
                    },
                    "effects" : [

                    ],
                    "start" : 0,
                    "duration" : 150,
                    "mediaStart" : 0,
                    "mediaDuration" : 150,
                    "scalar" : 1,
                    "metadata" : {
                      "WinSubProjectDisplayName" : "",
                      "clipSpeedAttribute" : false,
                      "default-legacy-fill-style" : 5.0,
                      "default-legacy-text-callout-vertical-align" : "middle",
                      "default-scale0" : 1.0,
                      "default-scale1" : 1.0,
                      "default-text" : "{\\rtf1\\ansi\\ansicpg1252\\deff0\\deflang1033{\\fonttbl{\\f0\\fswiss\\fprq2\\fcharset0 Arial;}}{\\colortbl ;\\red255\\green255\\blue255;}\\viewkind4\\uc1\\pard\\qc\\cf1\\fs72 abc}",
                      "default-translation0" : 0.0,
                      "default-translation1" : 0.0
                    },
                    "animationTracks" : {

                    }
                  }
                ],
                "transitions" : [
                  {
                    "name" : "Fade",
                    "duration" : 30,
                    "trivial" : true,
                    "useAudioPreRoll" : true,
                    "useVisualPreRoll" : true,
                    "leftMedia" : 19
                  }
                ]
              },
              {
                "trackIndex" : 10,
                "medias" : [
                  {
                    "id" : 20,
                    "_type" : "IMFile",
                    "src" : 4,
                    "trackNumber" : 0,
                    "trimStartSum" : 0,
                    "attributes" : {
                      "ident" : "Head"
                    },
                    "parameters" : {
                      "translation0" : 513.825000000109,
                      "translation1" : -179.200000000031,
                      "scale0" : 0.35,
                      "scale1" : 0.35
                    },
                    "effects" : [

                    ],
                    "start" : 0,
                    "duration" : 150,
                    "mediaStart" : 0,
                    "mediaDuration" : 1,
                    "scalar" : 1,
                    "metadata" : {
                      "WinSubProjectDisplayName" : "",
                      "clipSpeedAttribute" : false,
                      "default-scale0" : 0.703125,
                      "default-scale1" : 0.703125,
                      "default-translation0" : 0.0,
                      "default-translation1" : 0.0
                    },
                    "animationTracks" : {

                    }
                  }
                ],
                "transitions" : [
                  {
                    "name" : "Fade",
                    "duration" : 30,
                    "trivial" : false,
                    "useAudioPreRoll" : true,
                    "useVisualPreRoll" : true,
                    "leftMedia" : 20
                  }
                ]
              },
              {
                "trackIndex" : 11,
                "medias" : [
                  {
                    "id" : 21,
                    "_type" : "StitchedMedia",
                    "minMediaStart" : 0,
                    "attributes" : {
                      "ident" : "Rec 02-05-20_001",
                      "gain" : 1.0,
                      "mixToMono" : false
                    },
                    "parameters" : {
                      "translation0" : {
                        "type" : "double",
                        "defaultValue" : 0.0,
                        "keyframes" : [
                          {
                            "endTime" : 1319,
                            "time" : 1289,
                            "value" : -148.298296538205,
                            "duration" : 30
                          },
                          {
                            "endTime" : 1455,
                            "time" : 1425,
                            "value" : -88.4086350071495,
                            "duration" : 30
                          },
                          {
                            "endTime" : 1954,
                            "time" : 1924,
                            "value" : -0.112457581193498,
                            "duration" : 30
                          },
                          {
                            "endTime" : 2106,
                            "time" : 2076,
                            "value" : -669.45918096325,
                            "duration" : 30
                          },
                          {
                            "endTime" : 2225,
                            "time" : 2195,
                            "value" : -34.6595612978512,
                            "duration" : 30
                          },
                          {
                            "endTime" : 2443,
                            "time" : 2413,
                            "value" : 89.9328964619876,
                            "duration" : 30
                          },
                          {
                            "endTime" : 2517,
                            "time" : 2487,
                            "value" : 396.129279938051,
                            "duration" : 30
                          }
                        ]
                      },
                      "translation1" : {
                        "type" : "double",
                        "defaultValue" : 0.0,
                        "keyframes" : [
                          {
                            "endTime" : 1319,
                            "time" : 1289,
                            "value" : -75.9315385973875,
                            "duration" : 30
                          },
                          {
                            "endTime" : 1455,
                            "time" : 1425,
                            "value" : 26.7364572526014,
                            "duration" : 30
                          },
                          {
                            "endTime" : 1954,
                            "time" : 1924,
                            "value" : 0.214167213945473,
                            "duration" : 30
                          },
                          {
                            "endTime" : 2106,
                            "time" : 2076,
                            "value" : -300.015917504096,
                            "duration" : 30
                          },
                          {
                            "endTime" : 2225,
                            "time" : 2195,
                            "value" : -2.01405099385352,
                            "duration" : 30
                          },
                          {
                            "endTime" : 2443,
                            "time" : 2413,
                            "value" : -68.1249112788543,
                            "duration" : 30
                          },
                          {
                            "endTime" : 2517,
                            "time" : 2487,
                            "value" : -247.717209196851,
                            "duration" : 30
                          }
                        ]
                      },
                      "scale0" : {
                        "type" : "double",
                        "defaultValue" : 0.666666666666667,
                        "keyframes" : [
                          {
                            "endTime" : 1319,
                            "time" : 1289,
                            "value" : 1.12415701873214,
                            "duration" : 30
                          },
                          {
                            "endTime" : 1455,
                            "time" : 1425,
                            "value" : 1.12415696777461,
                            "duration" : 30
                          },
                          {
                            "endTime" : 1954,
                            "time" : 1924,
                            "value" : 0.634542711767656,
                            "duration" : 30
                          },
                          {
                            "endTime" : 2106,
                            "time" : 2076,
                            "value" : 1.28810445725126,
                            "duration" : 30
                          },
                          {
                            "endTime" : 2225,
                            "time" : 2195,
                            "value" : 0.932568202896407,
                            "duration" : 30
                          },
                          {
                            "endTime" : 2443,
                            "time" : 2413,
                            "value" : 0.760346665956901,
                            "duration" : 30
                          },
                          {
                            "endTime" : 2517,
                            "time" : 2487,
                            "value" : 1.07930119189785,
                            "duration" : 30
                          }
                        ]
                      },
                      "scale1" : {
                        "type" : "double",
                        "defaultValue" : 0.666666666666667,
                        "keyframes" : [
                          {
                            "endTime" : 1319,
                            "time" : 1289,
                            "value" : 1.12415721499473,
                            "duration" : 30
                          },
                          {
                            "endTime" : 1954,
                            "time" : 1924,
                            "value" : 0.634542880077304,
                            "duration" : 30
                          },
                          {
                            "endTime" : 2106,
                            "time" : 2076,
                            "value" : 1.28810497721636,
                            "duration" : 30
                          },
                          {
                            "endTime" : 2225,
                            "time" : 2195,
                            "value" : 0.932568443699631,
                            "duration" : 30
                          },
                          {
                            "endTime" : 2443,
                            "time" : 2413,
                            "value" : 0.760346873945873,
                            "duration" : 30
                          },
                          {
                            "endTime" : 2517,
                            "time" : 2487,
                            "value" : 1.0793015471043,
                            "duration" : 30
                          }
                        ]
                      },
                      "volume" : 1.0,
                      "cursorOpacity" : 1.0,
                      "cursorScale" : 1.0
                    },
                    "medias" : [
                        {
                          "id" : 22,
                          "_type" : "UnifiedMedia",
                          "video" : 
                              {
                                "id" : 23,
                                "_type" : "ScreenVMFile",
                                "src" : 5,
                                "trackNumber" : 0,
                                "attributes" : {
                                  "ident" : "Rec 02-05-20_001"
                                },
                                "parameters" : {
                                  "cursorScale" : {
                                    "type" : "double",
                                    "defaultValue" : 0.0,
                                    "interp" : "linr"
                                  },
                                  "cursorOpacity" : {
                                    "type" : "double",
                                    "defaultValue" : 0.0,
                                    "interp" : "linr"
                                  }
                                },
                                "effects" : [

                                ],
                                "start" : 0,
                                "duration" : 4214,
                                "mediaStart" : 0,
                                "mediaDuration" : 4214,
                                "scalar" : 1,
                                "animationTracks" : {

                                }
                              },
                          "audio" : 
                              {
                                "id" : 24,
                                "_type" : "AMFile",
                                "src" : 5,
                                "trackNumber" : 2,
                                "attributes" : {
                                  "ident" : "",
                                  "sampleRate" : 44100,
                                  "bitDepth" : 16,
                                  "gain" : 1.0,
                                  "mixToMono" : false
                                },
                                  "channelNumber" : "0,1",
                                "effects" : [

                                ],
                                "start" : 0,
                                "duration" : 4214,
                                "mediaStart" : 0,
                                "mediaDuration" : 4214,
                                "scalar" : 1,
                                "animationTracks" : {

                                }
                              }
,
                          "start" : 0,
                          "duration" : 4214,
                          "mediaStart" : 0,
                          "mediaDuration" : 19785,
                          "scalar" : 1,
                          "metadata" : {
                            "AutoAppliedSmartFocus" : "False",
                            "WinSubProjectDisplayName" : "",
                            "clipSpeedAttribute" : false,
                            "default-scale0" : 0.666666666666667,
                            "default-scale1" : 0.666666666666667,
                            "default-translation0" : 0.0,
                            "default-translation1" : 0.0
                          }
                        },
                        {
                          "id" : 25,
                          "_type" : "UnifiedMedia",
                          "video" : 
                              {
                                "id" : 26,
                                "_type" : "ScreenVMFile",
                                "src" : 5,
                                "trackNumber" : 0,
                                "attributes" : {
                                  "ident" : "Rec 02-05-20_001"
                                },
                                "parameters" : {
                                  "cursorScale" : {
                                    "type" : "double",
                                    "defaultValue" : 0.0,
                                    "interp" : "linr"
                                  },
                                  "cursorOpacity" : {
                                    "type" : "double",
                                    "defaultValue" : 0.0,
                                    "interp" : "linr"
                                  }
                                },
                                "effects" : [

                                ],
                                "start" : 4214,
                                "duration" : 7487,
                                "mediaStart" : 4292,
                                "mediaDuration" : 7487,
                                "scalar" : 1,
                                "animationTracks" : {

                                }
                              },
                          "audio" : 
                              {
                                "id" : 27,
                                "_type" : "AMFile",
                                "src" : 5,
                                "trackNumber" : 2,
                                "attributes" : {
                                  "ident" : "",
                                  "sampleRate" : 44100,
                                  "bitDepth" : 16,
                                  "gain" : 1.0,
                                  "mixToMono" : false
                                },
                                  "channelNumber" : "0,1",
                                "effects" : [

                                ],
                                "start" : 4214,
                                "duration" : 7487,
                                "mediaStart" : 4292,
                                "mediaDuration" : 7487,
                                "scalar" : 1,
                                "animationTracks" : {

                                }
                              }
,
                          "start" : 4214,
                          "duration" : 7487,
                          "mediaStart" : 0,
                          "mediaDuration" : 19785,
                          "scalar" : 1,
                          "metadata" : {
                            "AutoAppliedSmartFocus" : "False",
                            "WinSubProjectDisplayName" : "",
                            "clipSpeedAttribute" : false,
                            "default-scale0" : 0.666666666666667,
                            "default-scale1" : 0.666666666666667,
                            "default-translation0" : 0.0,
                            "default-translation1" : 0.0
                          }
                        },
                        {
                          "id" : 28,
                          "_type" : "UnifiedMedia",
                          "video" : 
                              {
                                "id" : 29,
                                "_type" : "ScreenVMFile",
                                "src" : 5,
                                "trackNumber" : 0,
                                "attributes" : {
                                  "ident" : "Rec 02-05-20_001"
                                },
                                "parameters" : {
                                  "cursorScale" : {
                                    "type" : "double",
                                    "defaultValue" : 0.0,
                                    "interp" : "linr"
                                  },
                                  "cursorOpacity" : {
                                    "type" : "double",
                                    "defaultValue" : 0.0,
                                    "interp" : "linr"
                                  }
                                },
                                "effects" : [

                                ],
                                "start" : 11701,
                                "duration" : 1145,
                                "mediaStart" : 11802,
                                "mediaDuration" : 1145,
                                "scalar" : 1,
                                "animationTracks" : {

                                }
                              },
                          "audio" : 
                              {
                                "id" : 30,
                                "_type" : "AMFile",
                                "src" : 5,
                                "trackNumber" : 2,
                                "attributes" : {
                                  "ident" : "",
                                  "sampleRate" : 44100,
                                  "bitDepth" : 16,
                                  "gain" : 1.0,
                                  "mixToMono" : false
                                },
                                  "channelNumber" : "0,1",
                                "effects" : [

                                ],
                                "start" : 11701,
                                "duration" : 1145,
                                "mediaStart" : 11802,
                                "mediaDuration" : 1145,
                                "scalar" : 1,
                                "animationTracks" : {

                                }
                              }
,
                          "start" : 11701,
                          "duration" : 1145,
                          "mediaStart" : 0,
                          "mediaDuration" : 19785,
                          "scalar" : 1,
                          "metadata" : {
                            "AutoAppliedSmartFocus" : "False",
                            "WinSubProjectDisplayName" : "",
                            "clipSpeedAttribute" : false,
                            "default-scale0" : 0.666666666666667,
                            "default-scale1" : 0.666666666666667,
                            "default-translation0" : 0.0,
                            "default-translation1" : 0.0
                          }
                        },
                        {
                          "id" : 31,
                          "_type" : "UnifiedMedia",
                          "video" : 
                              {
                                "id" : 32,
                                "_type" : "ScreenVMFile",
                                "src" : 5,
                                "trackNumber" : 0,
                                "attributes" : {
                                  "ident" : "Rec 02-05-20_001"
                                },
                                "parameters" : {
                                  "cursorScale" : {
                                    "type" : "double",
                                    "defaultValue" : 0.0,
                                    "interp" : "linr"
                                  },
                                  "cursorOpacity" : {
                                    "type" : "double",
                                    "defaultValue" : 0.0,
                                    "interp" : "linr"
                                  }
                                },
                                "effects" : [

                                ],
                                "start" : 12846,
                                "duration" : 970,
                                "mediaStart" : 13375,
                                "mediaDuration" : 970,
                                "scalar" : 1,
                                "animationTracks" : {

                                }
                              },
                          "audio" : 
                              {
                                "id" : 33,
                                "_type" : "AMFile",
                                "src" : 5,
                                "trackNumber" : 2,
                                "attributes" : {
                                  "ident" : "",
                                  "sampleRate" : 44100,
                                  "bitDepth" : 16,
                                  "gain" : 1.0,
                                  "mixToMono" : false
                                },
                                  "channelNumber" : "0,1",
                                "effects" : [

                                ],
                                "start" : 12846,
                                "duration" : 970,
                                "mediaStart" : 13375,
                                "mediaDuration" : 970,
                                "scalar" : 1,
                                "animationTracks" : {

                                }
                              }
,
                          "start" : 12846,
                          "duration" : 970,
                          "mediaStart" : 0,
                          "mediaDuration" : 19785,
                          "scalar" : 1,
                          "metadata" : {
                            "AutoAppliedSmartFocus" : "False",
                            "WinSubProjectDisplayName" : "",
                            "clipSpeedAttribute" : false,
                            "default-scale0" : 0.666666666666667,
                            "default-scale1" : 0.666666666666667,
                            "default-translation0" : 0.0,
                            "default-translation1" : 0.0
                          }
                        },
                        {
                          "id" : 34,
                          "_type" : "UnifiedMedia",
                          "video" : 
                              {
                                "id" : 35,
                                "_type" : "ScreenVMFile",
                                "src" : 5,
                                "trackNumber" : 0,
                                "attributes" : {
                                  "ident" : "Rec 02-05-20_001"
                                },
                                "parameters" : {
                                  "cursorScale" : {
                                    "type" : "double",
                                    "defaultValue" : 0.0,
                                    "interp" : "linr"
                                  },
                                  "cursorOpacity" : {
                                    "type" : "double",
                                    "defaultValue" : 0.0,
                                    "interp" : "linr"
                                  }
                                },
                                "effects" : [

                                ],
                                "start" : 13816,
                                "duration" : 749,
                                "mediaStart" : 14391,
                                "mediaDuration" : 749,
                                "scalar" : 1,
                                "animationTracks" : {

                                }
                              },
                          "audio" : 
                              {
                                "id" : 36,
                                "_type" : "AMFile",
                                "src" : 5,
                                "trackNumber" : 2,
                                "attributes" : {
                                  "ident" : "",
                                  "sampleRate" : 44100,
                                  "bitDepth" : 16,
                                  "gain" : 1.0,
                                  "mixToMono" : false
                                },
                                  "channelNumber" : "0,1",
                                "effects" : [

                                ],
                                "start" : 13816,
                                "duration" : 749,
                                "mediaStart" : 14391,
                                "mediaDuration" : 749,
                                "scalar" : 1,
                                "animationTracks" : {

                                }
                              }
,
                          "start" : 13816,
                          "duration" : 749,
                          "mediaStart" : 0,
                          "mediaDuration" : 19785,
                          "scalar" : 1,
                          "metadata" : {
                            "AutoAppliedSmartFocus" : "False",
                            "WinSubProjectDisplayName" : "",
                            "clipSpeedAttribute" : false,
                            "default-scale0" : 0.666666666666667,
                            "default-scale1" : 0.666666666666667,
                            "default-translation0" : 0.0,
                            "default-translation1" : 0.0
                          }
                        },
                        {
                          "id" : 37,
                          "_type" : "UnifiedMedia",
                          "video" : 
                              {
                                "id" : 38,
                                "_type" : "ScreenVMFile",
                                "src" : 5,
                                "trackNumber" : 0,
                                "attributes" : {
                                  "ident" : "Rec 02-05-20_001"
                                },
                                "parameters" : {
                                  "cursorScale" : {
                                    "type" : "double",
                                    "defaultValue" : 0.0,
                                    "interp" : "linr"
                                  },
                                  "cursorOpacity" : {
                                    "type" : "double",
                                    "defaultValue" : 0.0,
                                    "interp" : "linr"
                                  }
                                },
                                "effects" : [

                                ],
                                "start" : 14565,
                                "duration" : 1147,
                                "mediaStart" : 15257,
                                "mediaDuration" : 1147,
                                "scalar" : 1,
                                "animationTracks" : {

                                }
                              },
                          "audio" : 
                              {
                                "id" : 39,
                                "_type" : "AMFile",
                                "src" : 5,
                                "trackNumber" : 2,
                                "attributes" : {
                                  "ident" : "",
                                  "sampleRate" : 44100,
                                  "bitDepth" : 16,
                                  "gain" : 1.0,
                                  "mixToMono" : false
                                },
                                  "channelNumber" : "0,1",
                                "effects" : [

                                ],
                                "start" : 14565,
                                "duration" : 1147,
                                "mediaStart" : 15257,
                                "mediaDuration" : 1147,
                                "scalar" : 1,
                                "animationTracks" : {

                                }
                              }
,
                          "start" : 14565,
                          "duration" : 1147,
                          "mediaStart" : 0,
                          "mediaDuration" : 19785,
                          "scalar" : 1,
                          "metadata" : {
                            "AutoAppliedSmartFocus" : "False",
                            "WinSubProjectDisplayName" : "",
                            "clipSpeedAttribute" : false,
                            "default-scale0" : 0.666666666666667,
                            "default-scale1" : 0.666666666666667,
                            "default-translation0" : 0.0,
                            "default-translation1" : 0.0
                          }
                        },
                        {
                          "id" : 40,
                          "_type" : "UnifiedMedia",
                          "video" : 
                              {
                                "id" : 41,
                                "_type" : "ScreenVMFile",
                                "src" : 5,
                                "trackNumber" : 0,
                                "attributes" : {
                                  "ident" : "Rec 02-05-20_001"
                                },
                                "parameters" : {
                                  "cursorScale" : {
                                    "type" : "double",
                                    "defaultValue" : 0.0,
                                    "interp" : "linr"
                                  },
                                  "cursorOpacity" : {
                                    "type" : "double",
                                    "defaultValue" : 0.0,
                                    "interp" : "linr"
                                  }
                                },
                                "effects" : [

                                ],
                                "start" : 15712,
                                "duration" : 1427,
                                "mediaStart" : 16467,
                                "mediaDuration" : 1427,
                                "scalar" : 1,
                                "animationTracks" : {

                                }
                              },
                          "audio" : 
                              {
                                "id" : 42,
                                "_type" : "AMFile",
                                "src" : 5,
                                "trackNumber" : 2,
                                "attributes" : {
                                  "ident" : "",
                                  "sampleRate" : 44100,
                                  "bitDepth" : 16,
                                  "gain" : 1.0,
                                  "mixToMono" : false
                                },
                                  "channelNumber" : "0,1",
                                "effects" : [

                                ],
                                "start" : 15712,
                                "duration" : 1427,
                                "mediaStart" : 16467,
                                "mediaDuration" : 1427,
                                "scalar" : 1,
                                "animationTracks" : {

                                }
                              }
,
                          "start" : 15712,
                          "duration" : 1427,
                          "mediaStart" : 0,
                          "mediaDuration" : 19785,
                          "scalar" : 1,
                          "metadata" : {
                            "AutoAppliedSmartFocus" : "False",
                            "WinSubProjectDisplayName" : "",
                            "clipSpeedAttribute" : false,
                            "default-scale0" : 0.666666666666667,
                            "default-scale1" : 0.666666666666667,
                            "default-translation0" : 0.0,
                            "default-translation1" : 0.0
                          }
                        },
                        {
                          "id" : 43,
                          "_type" : "UnifiedMedia",
                          "video" : 
                              {
                                "id" : 44,
                                "_type" : "ScreenVMFile",
                                "src" : 5,
                                "trackNumber" : 0,
                                "attributes" : {
                                  "ident" : "Rec 02-05-20_001"
                                },
                                "parameters" : {
                                  "cursorScale" : {
                                    "type" : "double",
                                    "defaultValue" : 0.0,
                                    "interp" : "linr"
                                  },
                                  "cursorOpacity" : {
                                    "type" : "double",
                                    "defaultValue" : 0.0,
                                    "interp" : "linr"
                                  }
                                },
                                "effects" : [

                                ],
                                "start" : 17139,
                                "duration" : 2,
                                "mediaStart" : 17904,
                                "mediaDuration" : 2,
                                "scalar" : 1,
                                "animationTracks" : {

                                }
                              },
                          "audio" : 
                              {
                                "id" : 45,
                                "_type" : "AMFile",
                                "src" : 5,
                                "trackNumber" : 2,
                                "attributes" : {
                                  "ident" : "",
                                  "sampleRate" : 44100,
                                  "bitDepth" : 16,
                                  "gain" : 1.0,
                                  "mixToMono" : false
                                },
                                  "channelNumber" : "0,1",
                                "effects" : [

                                ],
                                "start" : 17139,
                                "duration" : 2,
                                "mediaStart" : 17904,
                                "mediaDuration" : 2,
                                "scalar" : 1,
                                "animationTracks" : {

                                }
                              }
,
                          "start" : 17139,
                          "duration" : 2,
                          "mediaStart" : 0,
                          "mediaDuration" : 19785,
                          "scalar" : 1,
                          "metadata" : {
                            "AutoAppliedSmartFocus" : "False",
                            "WinSubProjectDisplayName" : "",
                            "clipSpeedAttribute" : false,
                            "default-scale0" : 0.666666666666667,
                            "default-scale1" : 0.666666666666667,
                            "default-translation0" : 0.0,
                            "default-translation1" : 0.0
                          }
                        },
                        {
                          "id" : 46,
                          "_type" : "UnifiedMedia",
                          "video" : 
                              {
                                "id" : 47,
                                "_type" : "ScreenVMFile",
                                "src" : 5,
                                "trackNumber" : 0,
                                "attributes" : {
                                  "ident" : "Rec 02-05-20_001"
                                },
                                "parameters" : {
                                  "cursorScale" : {
                                    "type" : "double",
                                    "defaultValue" : 0.0,
                                    "interp" : "linr"
                                  },
                                  "cursorOpacity" : {
                                    "type" : "double",
                                    "defaultValue" : 0.0,
                                    "interp" : "linr"
                                  }
                                },
                                "effects" : [

                                ],
                                "start" : 17141,
                                "duration" : 2,
                                "mediaStart" : 18077,
                                "mediaDuration" : 2,
                                "scalar" : 1,
                                "animationTracks" : {

                                }
                              },
                          "audio" : 
                              {
                                "id" : 48,
                                "_type" : "AMFile",
                                "src" : 5,
                                "trackNumber" : 2,
                                "attributes" : {
                                  "ident" : "",
                                  "sampleRate" : 44100,
                                  "bitDepth" : 16,
                                  "gain" : 1.0,
                                  "mixToMono" : false
                                },
                                  "channelNumber" : "0,1",
                                "effects" : [

                                ],
                                "start" : 17141,
                                "duration" : 2,
                                "mediaStart" : 18077,
                                "mediaDuration" : 2,
                                "scalar" : 1,
                                "animationTracks" : {

                                }
                              }
,
                          "start" : 17141,
                          "duration" : 2,
                          "mediaStart" : 0,
                          "mediaDuration" : 19785,
                          "scalar" : 1,
                          "metadata" : {
                            "AutoAppliedSmartFocus" : "False",
                            "WinSubProjectDisplayName" : "",
                            "clipSpeedAttribute" : false,
                            "default-scale0" : 0.666666666666667,
                            "default-scale1" : 0.666666666666667,
                            "default-translation0" : 0.0,
                            "default-translation1" : 0.0
                          }
                        },
                        {
                          "id" : 49,
                          "_type" : "UnifiedMedia",
                          "video" : 
                              {
                                "id" : 50,
                                "_type" : "ScreenVMFile",
                                "src" : 5,
                                "trackNumber" : 0,
                                "attributes" : {
                                  "ident" : "Rec 02-05-20_001"
                                },
                                "parameters" : {
                                  "cursorScale" : {
                                    "type" : "double",
                                    "defaultValue" : 0.0,
                                    "interp" : "linr"
                                  },
                                  "cursorOpacity" : {
                                    "type" : "double",
                                    "defaultValue" : 0.0,
                                    "interp" : "linr"
                                  }
                                },
                                "effects" : [

                                ],
                                "start" : 17143,
                                "duration" : 1697,
                                "mediaStart" : 18088,
                                "mediaDuration" : 1697,
                                "scalar" : 1,
                                "animationTracks" : {

                                }
                              },
                          "audio" : 
                              {
                                "id" : 51,
                                "_type" : "AMFile",
                                "src" : 5,
                                "trackNumber" : 2,
                                "attributes" : {
                                  "ident" : "",
                                  "sampleRate" : 44100,
                                  "bitDepth" : 16,
                                  "gain" : 1.0,
                                  "mixToMono" : false
                                },
                                  "channelNumber" : "0,1",
                                "effects" : [

                                ],
                                "start" : 17143,
                                "duration" : 1697,
                                "mediaStart" : 18088,
                                "mediaDuration" : 1697,
                                "scalar" : 1,
                                "animationTracks" : {

                                }
                              }
,
                          "start" : 17143,
                          "duration" : 1697,
                          "mediaStart" : 0,
                          "mediaDuration" : 19785,
                          "scalar" : 1,
                          "metadata" : {
                            "AutoAppliedSmartFocus" : "False",
                            "WinSubProjectDisplayName" : "",
                            "clipSpeedAttribute" : false,
                            "default-scale0" : 0.666666666666667,
                            "default-scale1" : 0.666666666666667,
                            "default-translation0" : 0.0,
                            "default-translation1" : 0.0
                          }
                        }
                    ],
                    "effects" : [

                    ],
                    "start" : 1229,
                    "duration" : 17611,
                    "mediaStart" : 1229,
                    "mediaDuration" : 17611,
                    "scalar" : 1,
                    "metadata" : {
                      "AutoAppliedSmartFocus" : "False",
                      "WinSubProjectDisplayName" : "",
                      "clipSpeedAttribute" : false
                    },
                    "animationTracks" : {
                      "visual" : [
                        {
                          "endTime" : 1319,
                          "duration" : 30,
                          "range" : [ 1289, 30]
                        },
                        {
                          "endTime" : 1455,
                          "duration" : 30,
                          "range" : [ 1425, 30]
                        },
                        {
                          "endTime" : 1954,
                          "duration" : 30,
                          "range" : [ 1924, 30]
                        },
                        {
                          "endTime" : 2106,
                          "duration" : 30,
                          "range" : [ 2076, 30]
                        },
                        {
                          "endTime" : 2225,
                          "duration" : 30,
                          "range" : [ 2195, 30]
                        },
                        {
                          "endTime" : 2443,
                          "duration" : 30,
                          "range" : [ 2413, 30]
                        },
                        {
                          "endTime" : 2517,
                          "duration" : 30,
                          "range" : [ 2487, 30]
                        }
                      ]
                    }
                  }
                ],
                "transitions" : [
                  {
                    "name" : "Fade",
                    "duration" : 30,
                    "trivial" : false,
                    "useAudioPreRoll" : true,
                    "useVisualPreRoll" : true,
                    "rightMedia" : 21
                  },
                  {
                    "name" : "Fade",
                    "duration" : 30,
                    "trivial" : false,
                    "useAudioPreRoll" : true,
                    "useVisualPreRoll" : true,
                    "leftMedia" : 21
                  }
                ]
              },
              {
                "trackIndex" : 12,
                "medias" : [
                  {
                    "id" : 52,
                    "_type" : "StitchedMedia",
                    "minMediaStart" : 0,
                    "attributes" : {
                      "ident" : "Rec 02-05-20_001",
                      "gain" : 1.0,
                      "mixToMono" : false
                    },
                    "parameters" : {
                      "volume" : 1.0,
                      "cursorOpacity" : 1.0,
                      "cursorScale" : 1.0
                    },
                    "medias" : [
                        {
                          "id" : 53,
                          "_type" : "AMFile",
                          "src" : 5,
                          "trackNumber" : 1,
                          "attributes" : {
                            "ident" : "Rec 02-05-20_001",
                            "sampleRate" : 44100,
                            "bitDepth" : 16,
                            "gain" : 1.0,
                            "mixToMono" : false
                          },
                            "channelNumber" : "0,1",
                          "effects" : [

                          ],
                          "start" : 0,
                          "duration" : 4214,
                          "mediaStart" : 0,
                          "mediaDuration" : 4214,
                          "scalar" : 1,
                          "metadata" : {
                            "WinSubProjectDisplayName" : "",
                            "clipSpeedAttribute" : false
                          },
                          "animationTracks" : {

                          }
                        },
                        {
                          "id" : 54,
                          "_type" : "AMFile",
                          "src" : 5,
                          "trackNumber" : 1,
                          "attributes" : {
                            "ident" : "Rec 02-05-20_001",
                            "sampleRate" : 44100,
                            "bitDepth" : 16,
                            "gain" : 1.0,
                            "mixToMono" : false
                          },
                            "channelNumber" : "0,1",
                          "effects" : [

                          ],
                          "start" : 4214,
                          "duration" : 7487,
                          "mediaStart" : 4292,
                          "mediaDuration" : 7487,
                          "scalar" : 1,
                          "metadata" : {
                            "WinSubProjectDisplayName" : "",
                            "clipSpeedAttribute" : false
                          },
                          "animationTracks" : {

                          }
                        },
                        {
                          "id" : 55,
                          "_type" : "AMFile",
                          "src" : 5,
                          "trackNumber" : 1,
                          "attributes" : {
                            "ident" : "Rec 02-05-20_001",
                            "sampleRate" : 44100,
                            "bitDepth" : 16,
                            "gain" : 1.0,
                            "mixToMono" : false
                          },
                            "channelNumber" : "0,1",
                          "effects" : [

                          ],
                          "start" : 11701,
                          "duration" : 1145,
                          "mediaStart" : 11802,
                          "mediaDuration" : 1145,
                          "scalar" : 1,
                          "metadata" : {
                            "WinSubProjectDisplayName" : "",
                            "clipSpeedAttribute" : false
                          },
                          "animationTracks" : {

                          }
                        },
                        {
                          "id" : 56,
                          "_type" : "AMFile",
                          "src" : 5,
                          "trackNumber" : 1,
                          "attributes" : {
                            "ident" : "Rec 02-05-20_001",
                            "sampleRate" : 44100,
                            "bitDepth" : 16,
                            "gain" : 1.0,
                            "mixToMono" : false
                          },
                            "channelNumber" : "0,1",
                          "effects" : [

                          ],
                          "start" : 12846,
                          "duration" : 970,
                          "mediaStart" : 13375,
                          "mediaDuration" : 970,
                          "scalar" : 1,
                          "metadata" : {
                            "WinSubProjectDisplayName" : "",
                            "clipSpeedAttribute" : false
                          },
                          "animationTracks" : {

                          }
                        },
                        {
                          "id" : 57,
                          "_type" : "AMFile",
                          "src" : 5,
                          "trackNumber" : 1,
                          "attributes" : {
                            "ident" : "Rec 02-05-20_001",
                            "sampleRate" : 44100,
                            "bitDepth" : 16,
                            "gain" : 1.0,
                            "mixToMono" : false
                          },
                            "channelNumber" : "0,1",
                          "effects" : [

                          ],
                          "start" : 13816,
                          "duration" : 749,
                          "mediaStart" : 14391,
                          "mediaDuration" : 749,
                          "scalar" : 1,
                          "metadata" : {
                            "WinSubProjectDisplayName" : "",
                            "clipSpeedAttribute" : false
                          },
                          "animationTracks" : {

                          }
                        },
                        {
                          "id" : 58,
                          "_type" : "AMFile",
                          "src" : 5,
                          "trackNumber" : 1,
                          "attributes" : {
                            "ident" : "Rec 02-05-20_001",
                            "sampleRate" : 44100,
                            "bitDepth" : 16,
                            "gain" : 1.0,
                            "mixToMono" : false
                          },
                            "channelNumber" : "0,1",
                          "effects" : [

                          ],
                          "start" : 14565,
                          "duration" : 1147,
                          "mediaStart" : 15257,
                          "mediaDuration" : 1147,
                          "scalar" : 1,
                          "metadata" : {
                            "WinSubProjectDisplayName" : "",
                            "clipSpeedAttribute" : false
                          },
                          "animationTracks" : {

                          }
                        },
                        {
                          "id" : 59,
                          "_type" : "AMFile",
                          "src" : 5,
                          "trackNumber" : 1,
                          "attributes" : {
                            "ident" : "Rec 02-05-20_001",
                            "sampleRate" : 44100,
                            "bitDepth" : 16,
                            "gain" : 1.0,
                            "mixToMono" : false
                          },
                            "channelNumber" : "0,1",
                          "effects" : [

                          ],
                          "start" : 15712,
                          "duration" : 1427,
                          "mediaStart" : 16467,
                          "mediaDuration" : 1427,
                          "scalar" : 1,
                          "metadata" : {
                            "WinSubProjectDisplayName" : "",
                            "clipSpeedAttribute" : false
                          },
                          "animationTracks" : {

                          }
                        },
                        {
                          "id" : 60,
                          "_type" : "AMFile",
                          "src" : 5,
                          "trackNumber" : 1,
                          "attributes" : {
                            "ident" : "Rec 02-05-20_001",
                            "sampleRate" : 44100,
                            "bitDepth" : 16,
                            "gain" : 1.0,
                            "mixToMono" : false
                          },
                            "channelNumber" : "0,1",
                          "effects" : [

                          ],
                          "start" : 17139,
                          "duration" : 2,
                          "mediaStart" : 17904,
                          "mediaDuration" : 2,
                          "scalar" : 1,
                          "metadata" : {
                            "WinSubProjectDisplayName" : "",
                            "clipSpeedAttribute" : false
                          },
                          "animationTracks" : {

                          }
                        },
                        {
                          "id" : 61,
                          "_type" : "AMFile",
                          "src" : 5,
                          "trackNumber" : 1,
                          "attributes" : {
                            "ident" : "Rec 02-05-20_001",
                            "sampleRate" : 44100,
                            "bitDepth" : 16,
                            "gain" : 1.0,
                            "mixToMono" : false
                          },
                            "channelNumber" : "0,1",
                          "effects" : [

                          ],
                          "start" : 17141,
                          "duration" : 2,
                          "mediaStart" : 18077,
                          "mediaDuration" : 2,
                          "scalar" : 1,
                          "metadata" : {
                            "WinSubProjectDisplayName" : "",
                            "clipSpeedAttribute" : false
                          },
                          "animationTracks" : {

                          }
                        },
                        {
                          "id" : 62,
                          "_type" : "AMFile",
                          "src" : 5,
                          "trackNumber" : 1,
                          "attributes" : {
                            "ident" : "Rec 02-05-20_001",
                            "sampleRate" : 44100,
                            "bitDepth" : 16,
                            "gain" : 1.0,
                            "mixToMono" : false
                          },
                            "channelNumber" : "0,1",
                          "effects" : [

                          ],
                          "start" : 17143,
                          "duration" : 1698,
                          "mediaStart" : 18088,
                          "mediaDuration" : 1698,
                          "scalar" : 1,
                          "metadata" : {
                            "WinSubProjectDisplayName" : "",
                            "clipSpeedAttribute" : false
                          },
                          "animationTracks" : {

                          }
                        }
                    ],
                    "effects" : [
                        {
                          "effectName" : "NoiseReduction",
                          "category" : "categoryAudioEffects",
                          "parameters" : {
                            "denoiserAmount" : 7.6,
                            "denoiserThreshold" : 0.0,
                            "noiseProfile" : "jMnLQDUcHEJl8BdBK+q6QRJJjkDW58lAWK8DQR7NmT94ClY/eHxZP9yzjz9wfEpAlZu+Pg4LZj/t\r\nGqk/6EI9Pw1/Pz9qoNA+BzAFP2pouD536vg+hzUlPx6wiT5xlUA/mJJAQDiLHD+GMzQ/VJTyPv+H\r\nWT6mLIw+8bkdPeU7xT14WUA+NPpKPVjTET4Nkv096P7IPdb1vT5C5Mo9AIN5PigE+z2c4DQ+CaMf\r\nPkMG8D21gaw+wo3YPj89tz5c43I+4VCcPWt86T0G+3M+QoHuPfjCKT8IA1A/VYQ3P3nAZj9w6PU+\r\nHYx4P3LVmj/pd80/lFXiP8Pbkj+KsMA/u4gqQPLKnz+5e9I/BL2nP+o8nj9Lq8s+e/j+Pq8BXj9s\r\nbsE+tNV4PnqnOD6tIdA+AzOQPnzloj8fVv4/s1o/QPgMTECqVCRAO2EKQFHttj931p0+BdpSPztR\r\n3D6/rig+GvCOPkCuWj5sH3g+lRo7PjkiGD406yU9tDcHPh4PCD6RRqs9aDltPSy/nD2YCRs9FVck\r\nPcQVCT1FPkI95sAvPgofVz7ZuW0+Ko9qPft3rz2jQh8+r6jFPJCA9Dx7fI493AncPMHJoT3Z90Y9\r\nEmrGPEvgeT1VdCg9uE4lPb8d1DyETiY9arQlPdFjjz2dMZY9TgcHPv4yFj5MCEk+Lq8bPvFItD0w\r\n6zs+6L39PTIZbD5a300+HdVFPuYEET+7MSk/JNNIPt7gRD+sr/A+xNXWPtaxEz+bc+4+lUw3P43C\r\nPD4aBr0+bQqcPoARwT7dqt8+BwiiPloArT2by0M+f/CjPcnsVT1wAII93i4EPhu1vj1kzJc+JrGw\r\nPiAlaz6MicU96Hp6PS1UFz2bzMw9lmBePmRLsj5wdbY+PGR9PlfL3D3e2os9V8/ZPefu3T0rwok9\r\ny6dnPu3Qtj6hT7M+MeipPVj2jj1xCag8e2OCPD9YPz3/6o89bYkjPTzcgz0VwYc9qpMnPej1BD0+\r\niMs8hvROPXsQlj0NZ9U9m/YPPmx+oz6HpKg+ZGiLPuBzFj4SVhY9MkEBPHad8T0MFdI9RZFDPkJU\r\nbT6VSxY+t6TYPU/XED3hQgM+vnOJPUTnZj0h/cU9QByZPUDBkT0UNWI9z4UyPbgWhzzLipw8dzZy\r\nO/wUXj0UINo9vI7qPfdJBT7C2709FWi/PD28KDzyNmc7fPFSPBS3hjyMr6w8csE1PDLzkjx+cp08\r\nr0xePAe+izxSDYg8IJBGPOicGz3XUfs9IZYwPgZtQT6BFxw+iIA5Pm4Gxj21SBs9jo2aPXjEwD0U\r\n9vU8at69PbZHwD222tM9wD3QPfxGJj4gsg4+3vUKPQkR4DwtFCI9IZiEPfEQij1ucx09GFouPSuw\r\nhjxeWBk8poSiPKqgsjtgv487g6emPD3ZCz0C+Rs8pv0iPDLBrjxC89Y8rYqBPD6lWTyRD7k7epkQ\r\nPAa/8D0Kt/M9FgAbPclAOT3CqBg9TCMDPgd7VT42nfY+caPdPmdlcz7Hmk89933gPIZ5LT0kEPg+\r\nTwhrPwRUjz9dnE8/arbVPiNptT0jyY49OgzFPSbjND6F1VI+VYiBPutFhj79epc+RcJ+PvAOOj9G\r\no4M+1hEOPiWNET2xoPI8MuVSPXbtOj5OeXM9ZMdxPY1k1jxS8sc9IJSFO7qtszvnvNA9rKf6Pbqp\r\nGT4Z+OY+Bs3jPRTpXT4Up9Q9anx8PtpVJj0MLzE+wweJPNphGz7Hroo9vf/LPkx6zz1ehlc9eRHy\r\nPM42JT5Z/Zk8YHHLPbostzzhVrE9f5YvPFxiyT1vJY07KtO2POvbXTywx1E96dySPTgylT0sfDM9\r\np4G9PRndOz1aPb09OSCfPaiKBD+W7dE+XxMVP+WGIz/5mYk/e2sYPxGcPT8kbO8+j0MeP8AxEz+C\r\nF2I/iEIOP/hBmj8bew0/1psuP86wCD/pH7k+FjpKPvTmqD54itc+Ea4hPwiZ2T5EDG4+nQJkPjkv\r\nJz5eNlQ9vRmnO0xIZDzlQoQ9UwjwPf6oQT422zY+CfOfPaq9Pj01nIk7FOb0O6yg4z2nRKU9g+CP\r\nPl+IRz4pCtA9pL9YPJ8yRjztGT49lmNLPgzwkT4dU1E/L3cdP+sd8j6Tehw/4KNhPuqXpD70kww/\r\n7WYcP2izdD8am9w/XnCYPyZqIT90WQM+zLQ/PvWohD7hkRA/vNsdP5iUeD894Bo/8IHwPh3PLz6Q\r\nKRk+xgSYParrTD6+ABY+WQK4PszoMj77dFk+yfE6Pqx8Kj6p3qg94rlJPWNjjD0DRwU+ZW+/Peii\r\nQT7vzgI+FNWUPTWlLTwHW2Q8HSNMPVjRtDwbK6I8IVvDPA3asTwf+Ow8P70VPqMkBT2A5QA7jVJ0\r\nPJZgbjy0IqQ8mu4EPMYBMDytyBs9BFlfOzzTLT38WBw9s/sWPDB33jpgan47GkFoPLubhTqzpjA9\r\nnUJTPB5onDyXzMo8qae4Pa+JYTxDdJg8g6nsO0LSkzwdJfw7e18fPQUr5zwQCFc9/11ePUWMlj08\r\nAl49bI53PRGAIj2HQUA93josPd00zDziRbo8blKRPNazUTwWPEQ81purPfnohD3YE049RB2pPaxf\r\nKj6vFo09ee2hPSzSrz05ngU+c9qKPWjTDD4pDKg94TqHPPc+bj2UfIM9iblBPey0LD2hfGo9yChW\r\nPRFSeTxnuhI9puKJPVdcUT0FOj0+55F2Pq8HbD6K5Qs+gXBVPnhuCz5/wAE+yXTPPRr8qD3xqA08\r\nIN31PF9xBTyziqk8HTXsPDU5Hz5iIsE93sE0PUeObD2qopc9PrULPfdPqT16XhU9EWYUPfzdgTys\r\nDG89htmCPGiUzDtZDZg7YK4GPaonLT3A+Yk7prthPaLTuDwKjvU7MjwOPTyWej37juE8metbPSR/\r\ntTyScFI9Uj/WOyueozyWEAc9xlW4PO6EqDwDc+48RPc1PfQs2DtndTw9lRw2PWflyTz9D8U8581u\r\nPeingTzqK0M9nCOZPQm3/z0x5fc8iGMAPkWVBj24rvc87s9wPXOZoTscgeI8hISRPOuYWj2gYBA+\r\n+6NtPeWHmz3DZPE87JlcPBm7CjzoLbs9DdMxPCnZmjyU+108bSErPH5LHDwofcg79dkFPF63Hjw9\r\nxOs7bNMqPFsFQz3qhbE727hePV8uxTxXpYw871InPLpdpjv+Sfk7in77POFKAz04J2886OsdPHXA\r\nnDsF7Tk8bJaYOyGS1zskhXg8GHt3O0xCbjvKeu87g3sEO4wyiTkmWHg5ZKM0OwujZjuvMHI6tKVr\r\nO+K/hjv8fsY7CPQhPEC0UTseYmo7fmmuO+hHpzn42Kk6tPoJOy+wFjsRU547HAkwOwIGsDsNQRk8\r\neyBeOnWeHjpz2yE7lWleO4FVnjvYbHo7/w6+O26ULzvlqes65pM6O1s2EDs2Qm06XkSoO5b6iDvi\r\njpg7ePL1OmZG3Tq4jvg6JGWfOy5DqDu5KtA7452WO6UIgTsUwqo8Xk2OO/j5zjvAzyc8cMqxO06d\r\nNDzAmOA762qJO4nXHjtuhx87DQ0jPLJqrzpGxDY83dnvO+wwoDuASBw8p4W+O6ghhTudS4o7Xwnz\r\nO9csujsk9Uo60kazO8jRUDztqXY7WhgLOxpO0ztO6Jw7PfOoOwlA0TwJUqE7tA0IPAqRPjzJMrA6\r\nHx5qPJ+aoztkSu46DxWKOwH8MzoO5sk7h404O0sqfjlRZT47H2WWOxIMEDuoDSg8cbJWO5F3hTsr\r\nj4E8O068Ov4rKzz3HP06csHmO+rPmDtDvtk7fYHdO7bW9jtg0+k5oyr2OmEkwzs9LLg6S25FO4I7\r\nlzpd0rc7O2upO3BUpjlcezs7g408Ozb6MTrJaBI7fzFqO0htmDryWPk6FWIqOs7izjt49Lc7uaQO\r\nOgav+DlPbVo7giFXOuCDtDvsEAU7b4pTPKxCwjqjmLI75AAeOyq2+Dmi26g7WvayO9EGVDuadEw7\r\nqLiUOhIXmzkUQA474tQzOZTerjorERY6ntySOwi+aTkoT6U63IUnO3xEVTrfDPM6Ek73OhSHsDoF\r\nSD05Ws6dOk7PHjrtTXc7mPwbO+J2yztDIw86OiSmOa1ytjpssp46CWoEOx9WeDrGwFo7LJSZOp7y\r\nwDtJSRc7nnLUOgHAQzqiGuU5JJoVOxnlgzuqUXE6tIjeO+BBgju2ULA6simjOIoW5DomEic8zZby\r\nO7rgADp8SyE79Ah+Orc1yTpWtCM6pmNJO+XQ5zl7wB073MRfOpCthjlnznE5UwlNOQqvUzpQN4I7\r\ncy03O2LT1jrF2ts6HjzPO4W91DvLBF47CCysORiiajvY8644xty3OkiL1Dn+jKE6wJGhO572LTsE\r\nBjQ6bpH6Ott/JjrzH+g7nDH1OqR6CDyHUqg71Pz5O5f8xTt4bzQ7fxr6OUzppjtFP586VmVJOrb2\r\njTjH4BM78P0GO8nkgjvBNu06XtrdOyVQTzvC5vI62yh9OoUU3zrU7jc6QCIkOh/IGzpTig875PsX\r\nOYw37TlyOFE51DAGOv1jLzn1Bys79l8pOyWhzjsmQ5o7otmuO+rxuzvuBRc8meBaO/YB5Drztv86\r\nYKMtPHF30zrlnZE6bjZFOX73yjnitR05FYLbOjUwDzsPk4I6YS8vO4QX7ztlLbo5cuBaORIXdjtS\r\nRc47dCi4OyypADv7aMY5a/KqOwl7jDnXJjQ74sceO2aogTvuEcI7lL4bOmTLpTrEo9k7NYFzO8WX\r\nvjqi+uA5Yge1O5LhAzt0E507PzW6O3h7eTtWKJA7oBWNO9pbYDvq1J87LAydO13vzTrjPi87kXgJ\r\nOnyESTs7RjU70oWBOk7JrzqBdM85OqYQOspBXjqYyIY6ZyIMOgA0fzousKs6lR2COoxGHjpprC87\r\npkREOp5TUjssOZA7GueJO2RngDvk5gU7LA6SO55cZTsvOVM7TIJkO3aABzoxUAs7w24POyLGkzp4\r\nL8U6qiUEOovg6zr5edo6OSL7OdcfDzvDCGo66NgJO+7bETuA2DA6ugrbOvQMRDp53ak6bEeGOowS\r\nITquHGU6L7m/Oes1rznamxY6J3qbOen5ojmNMLE5KUc8OeXhIDk8BpM4fZAVORdEvzgkwCk42btM\r\nORuQ+zgGb4c5qo2cOVy3XzkWeGo5+XTUOXtHxTl1RjU5al6dOXif9zlsKNc4UCyqOYf37Tnv3K45\r\nIVNeOSGTkTkeiR85nBj0OGsxATkHvz055uRtOLDNhThfewg5RX+JOPBqLDj4+j841zmWOIeLMThq\r\npG84biC9ONuPMziq0iU4AhrGOFW6PjhB+0I4vU2aODj6nzgHVTM4qTs3OIZHWziruDQ47K8qOEQl\r\nSTixcSs4dGo3OAGqJDhNDSw4Jd05OHCtJDjkhro4ANyqOFniPTlI7rI4fWh9OcTplzmy0PM5Rvfi\r\nOTKehjmHdNg5D4UFOivuvDlxXYU5OMckOapkgTmWVa84Ng6WOMpXQzjUJi84uDE1OACZFzik08tA\r\nNRwcQvb1F0Ei7LpBEkmOQNbnyUBYrwNBS7KZP0EGVj+kiVk/JsaPP3B8SkAYf74+DgtmP+0aqT8u\r\nMj0/DX8/P2qg0D71FwU/ami4Pnfq+D6HNSU/VoqJPnGVQD+YkkBAOIscP7suND9UlPI+/4dZPqYs\r\njD5MWR095TvFPdgDQD72Z0s9fQkSPg2S/T3vnck91vW9PkLkyj0Ag3k+KAT7PZzgND5lRh8+Qwbw\r\nPbWBrD7Cjdg+Pz23Plzjcj7hUJw9a3zpPQb7cz5Cge49+MIpPwgDUD9VhDc/ecBmP3Do9T4djHg/\r\nctWaP+l3zT+UVeI/w9uSP4qwwD+7iCpA8sqfP7l70j8Evac/6jyeP0uryz57+P4+rwFeP2xuwT60\r\n1Xg+eqc4Pow20D4DM5A+fOWiPx9W/j+zWj9A+AxMQKpUJEA7YQpAUe22P3fWnT4F2lI/gGjcPr+u\r\nKD4a8I4+QK5aPmwfeD6VGjs+OSIYPqj5JT20Nwc+Hg8IPpFGqz1oOW09bnucPdbkGz34ZCQ9bj4J\r\nPUU+Qj3mwC8+Ch9XPtm5bT6MkWo9+3evPTGpHj7YHcU808f0PNOMjj2khNs8wcmhPdn3Rj0SasY8\r\nS+B5Pa2tKD24TiU9vx3UPFhRJj2A/Cg90WOPPZ0xlj1OBwc+hmAXPkwIST6yXRw+FaW1PdEAPD4f\r\ndf49MhlsPlrfTT4MQ0g+5gQRP7sxKT9okkk+INNEP6yv8D7eG9c+BvUUPz2I8D4EaTc/gow8PhoG\r\nvT4C+Zo+aXbBPg+p4T6cyaM+rH+sPfJFRT535aI97b9OPeSweT32IQM+tdXAPcCImT4LfrQ+RtZw\r\nPmKRyz0qLIA9F20XPaCpyT2s+l8+coizPvLmuD55F4E+V8vcPd7aiz0y9Nk9yCTiPTXLiT1yUW0+\r\npru7PmqWuD5YbLQ97GGXPULJuTzORY081D9GPQvpkz0XuSo9gtyJPSLrjT1oPjI94goOPbwo1Tz1\r\nVk89CvGZPXq52D1fZxI+qqylPk0zqz46C44+A+AZPsB+Fj3cyAA8ECLxPd/G1D0NIUU+PnFwPlsy\r\nGT4JyNw9npIRPeFCAz78GIk91nZrPRwOyT3Dtpo9UySTPUZhZD1E7zM9bf+GPKV5nTz2zXI7hPxg\r\nPSSH3T2Vgu89HLoGPrk1vj1Wfbo8PbwoPPI2ZzuIalA8nvKIPGFRrjzgxDw8kDqVPFqWoDzBPWM8\r\nB76LPKMdiDwgkEY8SY0aPYjx/D2XhjE+2w9DPoHQHT7SDzs+nB7IPVl6HT2pYpw9/srDPQxM/DzI\r\nKsI9h07CPZDr1T0VcdM9PFQnPjDhDz7G4Qo92IjmPDXpJj1oOIY9gkKKPf5ZGT0Pvy49vEaGPJAr\r\nHjwKdKg8Qx+0O3bzhztpvaw8QPoLPQZNIzxtDC48MsGuPNsV3zytioE80iBlPPzUtzvYRxE80Ev2\r\nPQiE+D24kyQ9yUA5PcKoGD1GJAQ+Ol9ZPr7v+z5n1eM+9Mx5PlUgWD33feA8EyU9PZlH/T6Ye28/\r\noW+SP7FsVD+/w90+vPu9PTfXjj0/l8w9fic9PsTAWj4AkYY+1PuKPmR/nj7+pIU+t3dBP4QaiT4H\r\npBc+R78fPbm3Cj14zV893qxDPiregD3PNoI9jWTWPDDh2D0Yv4Y70CnfOwww0D2qSwA+TVYdPg9R\r\n6z7EOe490pZjPlLy3D340IA+CLAsPaDsMz7ewIg8gfMePtbiiz1wAdA+e6bTPVG2Yz0yLPI8CaMr\r\nPr8bozycCtY99HjGPBRtuj3UCi88wwTXPTWjpTvTfMs8+kBePPAEYj0MT5I9SQ+gPZOfQj3+Isc9\r\nEIQ9PRkyyD3iNZ49X7QFPx1M1D6sjhk/LL8nPwqcjj/ciB0/RlxFP94P9j4p+CM/KPEVP+VoZj9N\r\nYhA/gIecP5i4Dz+C1jI/hBAMPzORwD7NO1Q+H6CvPkvG3T4kXSY/5TDgPpEXeT4G4Gs+340wPvTT\r\nXT1yM7o7ryNkPG2Hiz0hDfo9IGtLPou0PD7re6o9gZJJPdavgztzM9M7y77mPRfYpz2mIJE+CV9L\r\nPm8G3z2lSl88RO9BPCANPj3tHkU+xEqTPhYzVT86+SE/tp76Pj4iIj+NA20+MOWrPvAnED/auSE/\r\nDXB6P2AP4z80rZw/8kAoPzyPDT7x2Ew+8MqHPjPcEz8+HyE/M+p+P9BoHj+AmPo+Kdk4PpqOJT69\r\nraM9LfdXPr5MHz4jc7w+hDE4PlEVYj6qYj4+nXExPkuNrj1pyVo9MGqTPQmBDD5kj8c9PmRJPh6F\r\nBj4MQZw9PnY7PIm3fTyYdUg9Zha1PDkkozwggsM8ieu3PCn17DyrbRs+ZSkFPTc05jqAcnQ8gGRu\r\nPI90ozxK8Qg8G4o1PKOhHj1R9lY78sosPUQzHT0bfRM8gAbUOo13fzvBLWU8dfeFOt1YLj3lQEs8\r\naxuZPNYoxjzuaLY9DZdZPKLRlDyzIOc7GJyRPN6m+jvEPB09dnLmPPp1Vz3fgl09U8+WPbL9Xz12\r\nUXk9AkUjPcMnQD1UzSw9naDKPPELtjwTHI08tHxXPLHsQzyyL689bPmGPZfaWD2+h649yN8uPiAJ\r\nkz2yQKY9hNW2PfMwCj4kS489nOMPPqaBrD2Ld5A8Gu51PdARhz31TEo9Fz4xPS0Ecz27YF49OCuG\r\nPH++Gz0GD489tktePXZdQT64230+scB0PqiqEj5ZK14+sGsSPisRCD7hF9o9FP2uPeEoIzy+j/g8\r\nnloFPB68ozyNGec8pSUfPidNwj2ImTg9b95yPTCcnD2Y8xI9QgGwPY9HHj0tzxo99iOKPDnEeD1S\r\n2YI8N6vdO+DKmDtBCwI9UwsrPYjVhztMZGA9LPW3PKS+/DvJ/RA9CUl9PRDB3zyv1V49Ehu1PFba\r\nTj1aQ9w79aeiPKrwBz3ZMrk8H16mPO/36zzLaTY9nqvWOwK5PD2AkjY9Kp3JPHyExTyau249aieB\r\nPPHrQj3PJ5k9un7/Pay99jz7ngA+9aoGPSCP9zyGJXA9x5uhOwDW4Tzpr5E8qHhaPf9MED7hAm49\r\nYo2bPYzp8DyfEVw8f1cLPNSEuz3oZDI8tL6bPLuTXjxIBSo8cCMbPAAQxzsmPAQ8plMePMCK7Dsd\r\n+Ck8XwpDPWDMsDsFcV4937fEPFTQjDwBlSY8lKqlO5pX+Du+Tvs8iFIDPZJRbzwa5x08QEKcO/r3\r\nOjzZApk7TFXWO/yvdzy+bXQ7EnxtO+q77Tu1kQM7XzmMOWJvfTnPRTQ7bDVlOyD1bzpsw2k7N7aG\r\nOxQ6xjsDKSI8ootROz9qazsM9607RIKwOYiOpzpKzwk7hb0UO6XVnDuz0y87iNSxO1c2Gjx7IF46\r\nN64jOvdnIjvuHmA7q9OeO3hHezvl0r47crMwOwFR6jrMOjw7PgIQO3Iuczr00ag7VwuIO79QmDuP\r\n1fQ6w8HbOg6j+Dpcgp87K4SnO6DCzzuNvJc7iFiBO26cqzzplI0761zRO/3aJzwNV7E7I3Y1POWi\r\n3ztn7Ig7xeQdO4KSHTuc9yI8RCazOhudNjwjlvA7mz6hO81FHDx4Fr87ouSFO34dijvWE/M7yve5\r\nO8DvSDqicrM7KA5SPFCceDt4yww701TUO0f7nDtfGqo7FWfRPOmNoTu+qgc8qOU+PDqkrjp/u2k8\r\nuyWkO7FU8Dqiwoo7feg1OmDPyztHEDk7Syp+ORnxPTtwgJY7fzAQO52LKTwkfVc756KFO7ongTwW\r\nark6j4MqPBep+jol6+U7oH2YOwGQ2Dvx2dw7QjT2O2DT6TkhcvQ6AdHCO3FQuDpeOkk7yWWXOiN9\r\nuju1S6s7cFSmORJyPTsNiD07/AAzOlKSEDvILWg7o32YOiof9TpEKiM6XVrMOxU2tTuELA86EBH9\r\nOTaGWzuCIVc6ng+2OxRFBTtw51M8iM/AOhpwsjvh6B477XP8OcI9qDurmLI7qORSO2JiTjv6gpM6\r\n9vqYOb/JDjvi1DM5a4iwOvZ2EzqOApM7bmpwOeSsojqQ2Cg7PCxXOvXO8zpuyPk6scu0OgVIPTna\r\nQKE6IrcbOnQ3eztblxs7w6HKO6iMEDo6JKY5ktm2OhmYnzqw1AM7QTh9OqxHWTtmg5U6sYG/O8c0\r\nEzs5ONY6odg+Om603jnrvRI7ZvSCO6y9bzp18907bvWBO14BsDqyKaM4DGnnOgaHJjzUoPQ7fgUA\r\nOk58JDs2Tn06Gs3OOoxOIDq+HUk7If/xOR/0HTsHCmA6sm2OOdKbajmiIFI50eBZOjHXgjt51Tk7\r\nvJjYOhIU4joM1c873zbXOzCLXDuvs685pANsO3BvqThtcLc6OXDUOc7yoDo996A7Aq8tO6raNTp6\r\nHfg6d3MkOk556jvQVvY68C0JPFFbqDsBwfc7LbvEO+0RMztSofs50WumO5hSmzqMmkg6CISYOGIH\r\nFDu/ygU7UoSDO4B27TrsJd47MANQOx4Z8zpQtYA62xzfOlFHNTqyTiU6Oe4bOn4hEDsI0yE5EBnu\r\nOda7Ujl8pQk6/WMvOdIRLDt5+SY71UfOO2ivmTuCca8785O7O7sfFjyjpVo7XeHjOko6/zolvC08\r\n9fPVOtrGkTpuNkU5M2bIOWatGjmtEts6OFUQO8kKgDodEC47jonvO3WvujkG2WA5JC54O5+WzzuU\r\neLk7L3QCO704yDlgGqk7GgiLOex7MjsS6x47yC6BO54nwzuZmRo6MX6oOiUd2ju2AnY7kne9OjJE\r\n4DluZrQ7jS4EO/minTvsXbk74vJ5O6kpkDs7u4w7/mlhOy+roDvwnJ07Py3POia5MDvHpgc6Ns5J\r\nO+b1NDubsYI6co2vOiVr0Tll4hE6RABfOq6jiDoh0gw6fGB9OkhIrzoCbYM6QwIiOpoHMDutljo6\r\nee9OO45kjztEook75nl8OwQoBDsnr5E7BVNmOyvqUTu58GI7peYJOjSlCzuYeBA7Fl+XOuJ9xDq0\r\nj/45LxbpOsxj1joeRfw5AkUNO1Y5ZjpjRwg79HcSO0+uLDochNk6acBFOrs8pzpMWYc6080iOlkz\r\naDquPco5dmu0OdvHGjrMKqM5UPGkOcXntTn2ej05pOAhOS6glTjAPBU59DO9OEIINDirCVY5qe8B\r\nOdRsgjnewaI5iwZYObaDbjmyRdc5pV/GOYqIMTk3Fp05k0b1Oc+73TjVC6s5r1voOdYOrDmFF1k5\r\nBWiQOZe5KTlaZu0450zqOE/VNDlWZn04xq6IOKPECDk3Jos4MXUeOAhhITgjB5M4baowOJcocTif\r\n4bU4Ly4zOB+5OzjQ3L04PQBCOJvzQDic/pI4JU+ZOEbNLjizWjM4WvVsOKFpOjizYjE49KFXOEWl\r\nKTjCkkk4meMqOJbPJTjs9Ts49H1NOAjQtzhw7Z84BClBOUQxuzjGLYA5gU6ZOfL78jnEkuU5E+WD\r\nORw+2jk9GwM6DVG5OXj0hzmVUBo5SNOFOaBsrTitT544sUMgOK7ZNjjgbCI4AIkLOA==",
                            "noiseTrainingType" : "default"
                          }
                        }
                    ],
                    "start" : 0,
                    "duration" : 18841,
                    "mediaStart" : 0,
                    "mediaDuration" : 18841,
                    "scalar" : 1,
                    "metadata" : {
                      "WinSubProjectDisplayName" : "",
                      "clipSpeedAttribute" : false
                    },
                    "animationTracks" : {

                    }
                  }
                ]
              },
              {
                "trackIndex" : 13,
                "medias" : [
                  {
                    "id" : 63,
                    "_type" : "IMFile",
                    "src" : 6,
                    "trackNumber" : 0,
                    "trimStartSum" : 0,
                    "attributes" : {
                      "ident" : "Slide1"
                    },
                    "effects" : [

                    ],
                    "start" : 120,
                    "duration" : 1109,
                    "mediaStart" : 0,
                    "mediaDuration" : 1,
                    "scalar" : 1,
                    "metadata" : {
                      "WinSubProjectDisplayName" : "",
                      "clipSpeedAttribute" : false
                    },
                    "animationTracks" : {

                    }
                  }
                ],
                "transitions" : [
                  {
                    "name" : "Fade",
                    "duration" : 30,
                    "trivial" : false,
                    "useAudioPreRoll" : true,
                    "useVisualPreRoll" : true,
                    "rightMedia" : 63
                  },
                  {
                    "name" : "Fade",
                    "duration" : 30,
                    "trivial" : false,
                    "useAudioPreRoll" : true,
                    "useVisualPreRoll" : true,
                    "leftMedia" : 63
                  }
                ]
              },
              {
                "trackIndex" : 14,
                "medias" : [
                ]
              }
            ]
          }
        }
      ]
    },
    "trackAttributes" : [
      {
        "ident" : "",
        "audioMuted" : false,
        "videoHidden" : false,
        "magnetic" : false,
        "metadata" : {
          "IsLocked" : "False",
          "WinTrackHeight" : "108.923076923077",
          "trackHeight" : "86"
        }
      },
      {
        "ident" : "",
        "audioMuted" : false,
        "videoHidden" : false,
        "magnetic" : false,
        "metadata" : {
          "IsLocked" : "False",
          "WinTrackHeight" : "108.923076923077",
          "trackHeight" : "40"
        }
      },
      {
        "ident" : "",
        "audioMuted" : false,
        "videoHidden" : false,
        "magnetic" : false,
        "metadata" : {
          "IsLocked" : "False",
          "WinTrackHeight" : "108.923076923077",
          "trackHeight" : "40"
        }
      },
      {
        "ident" : "",
        "audioMuted" : false,
        "videoHidden" : false,
        "magnetic" : false,
        "metadata" : {
          "IsLocked" : "False",
          "WinTrackHeight" : "108.923076923077",
          "trackHeight" : "102"
        }
      },
      {
        "ident" : "",
        "audioMuted" : false,
        "videoHidden" : false,
        "magnetic" : false,
        "metadata" : {
          "IsLocked" : "False",
          "WinTrackHeight" : "108.923076923077",
          "trackHeight" : "150"
        }
      },
      {
        "ident" : "",
        "audioMuted" : false,
        "videoHidden" : false,
        "magnetic" : false,
        "metadata" : {
          "IsLocked" : "False",
          "WinTrackHeight" : "108.923076923077",
          "trackHeight" : "150"
        }
      },
      {
        "ident" : "",
        "audioMuted" : false,
        "videoHidden" : false,
        "magnetic" : false,
        "metadata" : {
          "IsLocked" : "False",
          "WinTrackHeight" : "108.923076923077",
          "trackHeight" : "102"
        }
      },
      {
        "ident" : "",
        "audioMuted" : false,
        "videoHidden" : false,
        "magnetic" : false,
        "metadata" : {
          "IsLocked" : "False",
          "WinTrackHeight" : "108.923076923077",
          "trackHeight" : "54"
        }
      },
      {
        "ident" : "",
        "audioMuted" : false,
        "videoHidden" : false,
        "magnetic" : false,
        "metadata" : {
          "IsLocked" : "False",
          "WinTrackHeight" : "108.923076923077",
          "trackHeight" : "86"
        }
      },
      {
        "ident" : "",
        "audioMuted" : false,
        "videoHidden" : false,
        "magnetic" : false,
        "metadata" : {
          "IsLocked" : "False",
          "WinTrackHeight" : "108.923076923077",
          "trackHeight" : "86"
        }
      },
      {
        "ident" : "",
        "audioMuted" : false,
        "videoHidden" : false,
        "magnetic" : false,
        "metadata" : {
          "IsLocked" : "False",
          "WinTrackHeight" : "108.923076923077"
        }
      },
      {
        "ident" : "",
        "audioMuted" : false,
        "videoHidden" : false,
        "magnetic" : false,
        "metadata" : {
          "IsLocked" : "False",
          "WinTrackHeight" : "108.923076923077"
        }
      },
      {
        "ident" : "",
        "audioMuted" : false,
        "videoHidden" : false,
        "magnetic" : false,
        "metadata" : {
          "IsLocked" : "False",
          "WinTrackHeight" : "108.923076923077"
        }
      },
      {
        "ident" : "",
        "audioMuted" : false,
        "videoHidden" : false,
        "magnetic" : false,
        "metadata" : {
          "IsLocked" : "False",
          "WinTrackHeight" : "108.923076923077"
        }
      },
      {
        "ident" : "",
        "audioMuted" : false,
        "videoHidden" : false,
        "magnetic" : false,
        "metadata" : {
          "IsLocked" : "False",
          "WinTrackHeight" : "108.923076923077"
        }
      }
    ],
    "captionAttributes" : {
      "enabled" : true,
      "fontName" : "Arial",
      "fontSize" : 32,
      "backgroundColor" : [ 0, 0, 0, 127],
      "foregroundColor" : [ 255, 255, 255, 255],
      "lang" : "en",
      "alignment" : 0,
      "defaultFontSize" : true,
      "opacity" : 0.5,
      "backgroundEnabled" : true,
      "backgroundOnlyAroundText" : true
    },
    "backgroundColor" : [ 0, 0, 0, 255]
  },
  "metadata" : {
    "AutoSaveFile" : "C:\\Users\\profj\\AppData\\Local\\TechSmith\\Camtasia Studio\\19.0\\Auto-Saves\\0203VariablesDataTypesPart15a6875fe.autosave.tscproj",
    "CanvasZoom" : 75,
    "Date" : "2020-01-27 11:33:13 PM",
    "Fit" : 0,
    "IsAutoSave" : "0",
    "Language" : "ENU",
    "ProfileName" : "MP4 only (up to 720p)",
    "Title" : "CamtasiaTemplateWindows",
    "audioNarrationNotes" : "",
    "calloutStyle" : "All",
    "canvasDetached" : "False",
    "canvasPositionHeight" : "0",
    "canvasPositionLeft" : "0",
    "canvasPositionTop" : "0",
    "canvasPositionWidth" : "0",
    "firstMedia" : true
  },
  "audioPlaybackRate" : 44100
,
  "themeFile" : null

}
