{
  "title" : "",
  "description" : "",
  "author" : "",
  "targetLoudness" : -18.0,
  "shouldApplyLoudnessNormalization" : false,
  "videoPlaybackRate" : 30,
  "audioPlaybackRate" : 44100,
  "width" : 1280.0,
  "height" : 720.0,
  "version" : "3.0",
  "editRate" : 30,
  "authoringClientName" :  {
    "name" : "Camtasia",
    "platform" : "Windows",
    "version" : "19.0"
  },
  "sourceBin" : [
    {
      "id" : 1,
      "src" : "D:\\Data Files\\Udemy\\Instructor\\Codestars\\Course-Prep-Splash\\Camtasia9TemplateWindows\\codestars_logo.png",
      "rect" : [0, 0, 1061, 168],
      "lastMod" : "20200128T043621",
      "sourceTracks" : [
        {
          "range" : [0, 1],
          "type" : 1,
          "editRate" : 10000000,
          "trackRect" : [0, 0, 1061, 168],
          "sampleRate" : 0,
          "bitDepth" : 32,
          "numChannels" : 0,
          "integratedLUFS" : 100.0,
          "peakLevel" : -1.0,
          "metaData" : ""
        }
      ]
    },
    {
      "id" : 2,
      "src" : "D:\\Data Files\\Udemy\\Instructor\\Codestars\\Course-Prep-Splash\\Camtasia9TemplateWindows\\star.png",
      "rect" : [0, 0, 199, 206],
      "lastMod" : "20200128T043621",
      "sourceTracks" : [
        {
          "range" : [0, 1],
          "type" : 1,
          "editRate" : 10000000,
          "trackRect" : [0, 0, 199, 206],
          "sampleRate" : 0,
          "bitDepth" : 32,
          "numChannels" : 0,
          "integratedLUFS" : 100.0,
          "peakLevel" : -1.0,
          "metaData" : ""
        }
      ]
    },
    {
      "id" : 3,
      "src" : "D:\\Data Files\\Udemy\\Instructor\\Codestars\\Course-Prep-Splash\\Camtasia-JPB-CPP\\Splash_Android.png",
      "rect" : [0, 0, 1920, 1080],
      "lastMod" : "20200201T225340",
      "sourceTracks" : [
        {
          "range" : [0, 1],
          "type" : 1,
          "editRate" : 10000000,
          "trackRect" : [0, 0, 1920, 1080],
          "sampleRate" : 0,
          "bitDepth" : 32,
          "numChannels" : 0,
          "integratedLUFS" : 100.0,
          "peakLevel" : -1.0,
          "metaData" : ""
        }
      ]
    },
    {
      "id" : 4,
      "src" : "C:\\Users\\profj\\Desktop\\Udemy\\Codestars\\CPP\\videos\\Course-Prep-Splash\\JPB-Images\\PNG\\Head.png",
      "rect" : [0, 0, 721, 1024],
      "lastMod" : "20200203T062252",
      "sourceTracks" : [
        {
          "range" : [0, 1],
          "type" : 1,
          "editRate" : 10000000,
          "trackRect" : [0, 0, 721, 1024],
          "sampleRate" : 0,
          "bitDepth" : 32,
          "numChannels" : 0,
          "integratedLUFS" : 100.0,
          "peakLevel" : -1.0,
          "metaData" : ""
        }
      ]
    },
    {
      "id" : 5,
      "src" : "C:\\Users\\profj\\Documents\\Camtasia\\Rec 02-09-20_001.trec",
      "rect" : [0, 0, 1920, 1080],
      "lastMod" : "20200209T061702",
      "sourceTracks" : [
        {
          "range" : [0, 18929],
          "type" : 0,
          "editRate" : 30,
          "trackRect" : [0, 0, 1920, 1080],
          "sampleRate" : 29,
          "bitDepth" : 0,
          "numChannels" : 0,
          "integratedLUFS" : 100.0,
          "peakLevel" : -1.0,
          "metaData" : "Rec 02-09-20_001.trec;"
        },
        {
          "range" : [0, 27828224],
          "type" : 2,
          "editRate" : 44100,
          "trackRect" : [0, 0, 0, 0],
          "sampleRate" : 44100,
          "bitDepth" : 16,
          "numChannels" : 2,
          "integratedLUFS" : -21.322674584757,
          "peakLevel" : 1.0,
          "metaData" : ""
        },
        {
          "range" : [0, 27826176],
          "type" : 2,
          "editRate" : 44100,
          "trackRect" : [0, 0, 0, 0],
          "sampleRate" : 44100,
          "bitDepth" : 16,
          "numChannels" : 2,
          "integratedLUFS" : 0.0,
          "peakLevel" : 0.0,
          "metaData" : ""
        }
      ]
    },
    {
      "id" : 6,
      "src" : "C:\\Users\\profj\\Desktop\\Udemy\\Codestars\\CPP\\videos\\section2\\_intro-bulletpoints\\s2-lec4-var-dt-pt2\\Slide1.PNG",
      "rect" : [0, 0, 1280, 720],
      "lastMod" : "20200226T211119",
      "sourceTracks" : [
        {
          "range" : [0, 1],
          "type" : 1,
          "editRate" : 10000000,
          "trackRect" : [0, 0, 1280, 720],
          "sampleRate" : 0,
          "bitDepth" : 24,
          "numChannels" : 0,
          "integratedLUFS" : 100.0,
          "peakLevel" : -1.0,
          "metaData" : ""
        }
      ]
    }
  ],
  "timeline" : {
    "id" : 7,
    "sceneTrack" : {
      "scenes" : [
        {
          "duration" : 552.0,
          "title" : "",
          "type" : "",
          "csml" : {
            "tracks" : [
              {
                "trackIndex" : 0,
                "medias" : [
                  {
                    "id" : 8,
                    "_type" : "IMFile",
                    "src" : 3,
                    "trackNumber" : 0,
                    "trimStartSum" : 0,
                    "attributes" : {
                      "ident" : "Splash_Android"
                    },
                    "parameters" : {
                      "translation0" : 0.00456702366917246,
                      "translation1" : -0.00256895081391425,
                      "scale0" : 0.666671423982989,
                      "scale1" : 0.666671423982989
                    },
                    "effects" : [

                    ],
                    "start" : 16410,
                    "duration" : 150,
                    "mediaStart" : 0,
                    "mediaDuration" : 1,
                    "scalar" : 1,
                    "metadata" : {
                      "WinSubProjectDisplayName" : "",
                      "clipSpeedAttribute" : false,
                      "default-scale" : "0.666667",
                      "effectApplied" : "none"
                    },
                    "animationTracks" : {

                    }
                  }
                ],
                "transitions" : [
                  {
                    "name" : "Fade",
                    "duration" : 30,
                    "trivial" : true,
                    "useAudioPreRoll" : false,
                    "useVisualPreRoll" : true,
                    "rightMedia" : 8
                  },
                  {
                    "name" : "Fade",
                    "duration" : 30,
                    "trivial" : true,
                    "useAudioPreRoll" : false,
                    "useVisualPreRoll" : true,
                    "leftMedia" : 8
                  }
                ]
              },
              {
                "trackIndex" : 1,
                "medias" : [
                  {
                    "id" : 9,
                    "_type" : "IMFile",
                    "src" : 2,
                    "trackNumber" : 0,
                    "trimStartSum" : 0,
                    "attributes" : {
                      "ident" : "star"
                    },
                    "parameters" : {
                      "translation0" : {
                        "type" : "double",
                        "defaultValue" : -522.733906099372,
                        "interp" : "linr"
                      },
                      "translation1" : {
                        "type" : "double",
                        "defaultValue" : -277.438113851611,
                        "interp" : "linr"
                      },
                      "translation2" : {
                        "type" : "double",
                        "defaultValue" : 0.0,
                        "interp" : "linr"
                      },
                      "rotation0" : {
                        "type" : "double",
                        "defaultValue" : 0.0,
                        "interp" : "linr"
                      },
                      "rotation1" : {
                        "type" : "double",
                        "defaultValue" : 0.0,
                        "interp" : "linr"
                      },
                      "rotation2" : {
                        "type" : "double",
                        "defaultValue" : 0.0,
                        "interp" : "linr"
                      },
                      "shear0" : {
                        "type" : "double",
                        "defaultValue" : 0.0,
                        "interp" : "linr"
                      },
                      "shear1" : {
                        "type" : "double",
                        "defaultValue" : 0.0,
                        "interp" : "linr"
                      },
                      "shear2" : {
                        "type" : "double",
                        "defaultValue" : 0.0,
                        "interp" : "linr"
                      },
                      "scale0" : {
                        "type" : "double",
                        "defaultValue" : 0.344059357782636,
                        "interp" : "linr"
                      },
                      "scale1" : {
                        "type" : "double",
                        "defaultValue" : 0.344059357782636,
                        "interp" : "linr"
                      },
                      "scale2" : {
                        "type" : "double",
                        "defaultValue" : 1.0,
                        "interp" : "linr"
                      },
                      "anchor0" : {
                        "type" : "double",
                        "defaultValue" : 0.0,
                        "interp" : "linr"
                      },
                      "anchor1" : {
                        "type" : "double",
                        "defaultValue" : 0.0,
                        "interp" : "linr"
                      },
                      "anchor2" : {
                        "type" : "double",
                        "defaultValue" : 0.0,
                        "interp" : "linr"
                      },
                      "opacity" : {
                        "type" : "double",
                        "defaultValue" : 1.0,
                        "keyframes" : [
                          {
                            "endTime" : 150,
                            "time" : 120,
                            "value" : 0.0,
                            "duration" : 30
                          }
                        ]
                      }
                    },
                    "effects" : [

                    ],
                    "start" : 16410,
                    "duration" : 150,
                    "mediaStart" : 0,
                    "mediaDuration" : 1,
                    "scalar" : 1,
                    "metadata" : {
                      "WinSubProjectDisplayName" : "",
                      "clipSpeedAttribute" : false,
                      "default-opacity" : 0.0,
                      "default-scale" : "1",
                      "effectApplied" : "none"
                    },
                    "animationTracks" : {
                      "visual" : [
                        {
                          "endTime" : 150,
                          "duration" : 30,
                          "range" : [ 120, 30]
                        }
                      ]
                    }
                  }
                ],
                "transitions" : [
                  {
                    "name" : "Fade",
                    "duration" : 30,
                    "trivial" : true,
                    "useAudioPreRoll" : true,
                    "useVisualPreRoll" : true,
                    "rightMedia" : 9
                  },
                  {
                    "name" : "Fade",
                    "duration" : 30,
                    "trivial" : true,
                    "useAudioPreRoll" : true,
                    "useVisualPreRoll" : true,
                    "leftMedia" : 9
                  }
                ]
              },
              {
                "trackIndex" : 2,
                "medias" : [
                  {
                    "id" : 10,
                    "_type" : "IMFile",
                    "src" : 1,
                    "trackNumber" : 0,
                    "trimStartSum" : 0,
                    "attributes" : {
                      "ident" : "codestars_logo"
                    },
                    "parameters" : {
                      "translation0" : {
                        "type" : "double",
                        "defaultValue" : -263.136792317664,
                        "interp" : "linr"
                      },
                      "translation1" : {
                        "type" : "double",
                        "defaultValue" : -271.784183685799,
                        "interp" : "linr"
                      },
                      "translation2" : {
                        "type" : "double",
                        "defaultValue" : 0.0,
                        "interp" : "linr"
                      },
                      "rotation0" : {
                        "type" : "double",
                        "defaultValue" : 0.0,
                        "interp" : "linr"
                      },
                      "rotation1" : {
                        "type" : "double",
                        "defaultValue" : 0.0,
                        "interp" : "linr"
                      },
                      "rotation2" : {
                        "type" : "double",
                        "defaultValue" : 0.0,
                        "interp" : "linr"
                      },
                      "shear0" : {
                        "type" : "double",
                        "defaultValue" : 0.0,
                        "interp" : "linr"
                      },
                      "shear1" : {
                        "type" : "double",
                        "defaultValue" : 0.0,
                        "interp" : "linr"
                      },
                      "shear2" : {
                        "type" : "double",
                        "defaultValue" : 0.0,
                        "interp" : "linr"
                      },
                      "scale0" : {
                        "type" : "double",
                        "defaultValue" : 0.402192662926175,
                        "interp" : "linr"
                      },
                      "scale1" : {
                        "type" : "double",
                        "defaultValue" : 0.402192662926175,
                        "interp" : "linr"
                      },
                      "scale2" : {
                        "type" : "double",
                        "defaultValue" : 1.0,
                        "interp" : "linr"
                      },
                      "anchor0" : {
                        "type" : "double",
                        "defaultValue" : 0.0,
                        "interp" : "linr"
                      },
                      "anchor1" : {
                        "type" : "double",
                        "defaultValue" : 0.0,
                        "interp" : "linr"
                      },
                      "anchor2" : {
                        "type" : "double",
                        "defaultValue" : 0.0,
                        "interp" : "linr"
                      },
                      "opacity" : 0.0
                    },
                    "effects" : [

                    ],
                    "start" : 16410,
                    "duration" : 150,
                    "mediaStart" : 0,
                    "mediaDuration" : 1,
                    "scalar" : 1,
                    "metadata" : {
                      "WinSubProjectDisplayName" : "",
                      "clipSpeedAttribute" : false,
                      "default-scale" : "1",
                      "effectApplied" : "none"
                    },
                    "animationTracks" : {

                    }
                  }
                ],
                "transitions" : [
                  {
                    "name" : "Fade",
                    "duration" : 30,
                    "trivial" : true,
                    "useAudioPreRoll" : true,
                    "useVisualPreRoll" : true,
                    "rightMedia" : 10
                  },
                  {
                    "name" : "Fade",
                    "duration" : 30,
                    "trivial" : true,
                    "useAudioPreRoll" : true,
                    "useVisualPreRoll" : true,
                    "leftMedia" : 10
                  }
                ]
              },
              {
                "trackIndex" : 3,
                "medias" : [
                  {
                    "id" : 11,
                    "_type" : "IMFile",
                    "src" : 3,
                    "trackNumber" : 0,
                    "trimStartSum" : 0,
                    "attributes" : {
                      "ident" : "Splash_Android"
                    },
                    "parameters" : {
                      "translation0" : -0.00456702364154329,
                      "translation1" : -6.87439439981899,
                      "scale0" : 0.666671423982989,
                      "scale1" : 0.666671423982989
                    },
                    "effects" : [

                    ],
                    "start" : 0,
                    "duration" : 150,
                    "mediaStart" : 0,
                    "mediaDuration" : 1,
                    "scalar" : 1,
                    "metadata" : {
                      "WinSubProjectDisplayName" : "",
                      "clipSpeedAttribute" : false,
                      "default-scale" : "0.666667",
                      "default-translation0" : 0.00456702366917246,
                      "default-translation1" : -0.00256895081391425,
                      "effectApplied" : "none"
                    },
                    "animationTracks" : {

                    }
                  },
                  {
                    "id" : 12,
                    "_type" : "IMFile",
                    "src" : 1,
                    "trackNumber" : 0,
                    "trimStartSum" : 0,
                    "attributes" : {
                      "ident" : "codestars_logo"
                    },
                    "parameters" : {
                      "translation0" : {
                        "type" : "double",
                        "defaultValue" : -263.136792317664,
                        "interp" : "linr"
                      },
                      "translation1" : {
                        "type" : "double",
                        "defaultValue" : -271.784183685799,
                        "interp" : "linr"
                      },
                      "translation2" : {
                        "type" : "double",
                        "defaultValue" : 0.0,
                        "interp" : "linr"
                      },
                      "rotation0" : {
                        "type" : "double",
                        "defaultValue" : 0.0,
                        "interp" : "linr"
                      },
                      "rotation1" : {
                        "type" : "double",
                        "defaultValue" : 0.0,
                        "interp" : "linr"
                      },
                      "rotation2" : {
                        "type" : "double",
                        "defaultValue" : 0.0,
                        "interp" : "linr"
                      },
                      "shear0" : {
                        "type" : "double",
                        "defaultValue" : 0.0,
                        "interp" : "linr"
                      },
                      "shear1" : {
                        "type" : "double",
                        "defaultValue" : 0.0,
                        "interp" : "linr"
                      },
                      "shear2" : {
                        "type" : "double",
                        "defaultValue" : 0.0,
                        "interp" : "linr"
                      },
                      "scale0" : {
                        "type" : "double",
                        "defaultValue" : 0.402192662926175,
                        "interp" : "linr"
                      },
                      "scale1" : {
                        "type" : "double",
                        "defaultValue" : 0.402192662926175,
                        "interp" : "linr"
                      },
                      "scale2" : {
                        "type" : "double",
                        "defaultValue" : 1.0,
                        "interp" : "linr"
                      },
                      "anchor0" : {
                        "type" : "double",
                        "defaultValue" : 0.0,
                        "interp" : "linr"
                      },
                      "anchor1" : {
                        "type" : "double",
                        "defaultValue" : 0.0,
                        "interp" : "linr"
                      },
                      "anchor2" : {
                        "type" : "double",
                        "defaultValue" : 0.0,
                        "interp" : "linr"
                      }
                    },
                    "effects" : [

                    ],
                    "start" : 16410,
                    "duration" : 150,
                    "mediaStart" : 0,
                    "mediaDuration" : 1,
                    "scalar" : 1,
                    "metadata" : {
                      "WinSubProjectDisplayName" : "",
                      "clipSpeedAttribute" : false,
                      "default-scale" : "1",
                      "effectApplied" : "none"
                    },
                    "animationTracks" : {

                    }
                  }
                ],
                "transitions" : [
                  {
                    "name" : "Fade",
                    "duration" : 30,
                    "trivial" : true,
                    "useAudioPreRoll" : false,
                    "useVisualPreRoll" : true,
                    "leftMedia" : 11
                  },
                  {
                    "name" : "Fade",
                    "duration" : 30,
                    "trivial" : true,
                    "useAudioPreRoll" : true,
                    "useVisualPreRoll" : true,
                    "rightMedia" : 12
                  },
                  {
                    "name" : "Fade",
                    "duration" : 30,
                    "trivial" : true,
                    "useAudioPreRoll" : true,
                    "useVisualPreRoll" : true,
                    "leftMedia" : 12
                  }
                ]
              },
              {
                "trackIndex" : 4,
                "medias" : [
                  {
                    "id" : 13,
                    "_type" : "IMFile",
                    "src" : 2,
                    "trackNumber" : 0,
                    "trimStartSum" : 0,
                    "attributes" : {
                      "ident" : "star"
                    },
                    "parameters" : {
                      "translation0" : {
                        "type" : "double",
                        "defaultValue" : -640.0,
                        "interp" : "linr",
                        "keyframes" : [
                          {
                            "endTime" : 30,
                            "time" : 0,
                            "value" : -522.733906099372,
                            "duration" : 30
                          }
                        ]
                      },
                      "translation1" : {
                        "type" : "double",
                        "defaultValue" : -0.0,
                        "interp" : "linr",
                        "keyframes" : [
                          {
                            "endTime" : 30,
                            "time" : 0,
                            "value" : -277.438113851611,
                            "duration" : 30
                          }
                        ]
                      },
                      "translation2" : {
                        "type" : "double",
                        "defaultValue" : 0.0,
                        "interp" : "linr"
                      },
                      "rotation0" : {
                        "type" : "double",
                        "defaultValue" : 0.0,
                        "interp" : "linr"
                      },
                      "rotation1" : {
                        "type" : "double",
                        "defaultValue" : 0.0,
                        "interp" : "linr"
                      },
                      "rotation2" : {
                        "type" : "double",
                        "defaultValue" : 6.28318530717959,
                        "interp" : "linr",
                        "keyframes" : [
                          {
                            "endTime" : 30,
                            "time" : 0,
                            "value" : 0.0,
                            "duration" : 30
                          }
                        ]
                      },
                      "shear0" : {
                        "type" : "double",
                        "defaultValue" : 0.0,
                        "interp" : "linr"
                      },
                      "shear1" : {
                        "type" : "double",
                        "defaultValue" : 0.0,
                        "interp" : "linr"
                      },
                      "shear2" : {
                        "type" : "double",
                        "defaultValue" : 0.0,
                        "interp" : "linr"
                      },
                      "scale0" : {
                        "type" : "double",
                        "defaultValue" : 0.0,
                        "interp" : "linr",
                        "keyframes" : [
                          {
                            "endTime" : 30,
                            "time" : 0,
                            "value" : 0.344059357782636,
                            "duration" : 30
                          }
                        ]
                      },
                      "scale1" : {
                        "type" : "double",
                        "defaultValue" : 0.0,
                        "interp" : "linr",
                        "keyframes" : [
                          {
                            "endTime" : 30,
                            "time" : 0,
                            "value" : 0.344059357782636,
                            "duration" : 30
                          }
                        ]
                      },
                      "scale2" : {
                        "type" : "double",
                        "defaultValue" : 1.0,
                        "interp" : "linr"
                      },
                      "anchor0" : {
                        "type" : "double",
                        "defaultValue" : 0.0,
                        "interp" : "linr"
                      },
                      "anchor1" : {
                        "type" : "double",
                        "defaultValue" : 0.0,
                        "interp" : "linr"
                      },
                      "anchor2" : {
                        "type" : "double",
                        "defaultValue" : 0.0,
                        "interp" : "linr"
                      },
                      "opacity" : {
                        "type" : "double",
                        "defaultValue" : 1.0,
                        "keyframes" : [
                          {
                            "endTime" : 150,
                            "time" : 120,
                            "value" : 0.0,
                            "duration" : 30
                          }
                        ]
                      }
                    },
                    "effects" : [

                    ],
                    "start" : 0,
                    "duration" : 150,
                    "mediaStart" : 0,
                    "mediaDuration" : 1,
                    "scalar" : 1,
                    "metadata" : {
                      "WinSubProjectDisplayName" : "",
                      "clipSpeedAttribute" : false,
                      "default-scale" : "1",
                      "effectApplied" : "none"
                    },
                    "animationTracks" : {
                      "visual" : [
                        {
                          "endTime" : 30,
                          "duration" : 30,
                          "range" : [ 0, 30]
                        },
                        {
                          "endTime" : 150,
                          "duration" : 30,
                          "range" : [ 120, 30]
                        }
                      ]
                    }
                  },
                  {
                    "id" : 14,
                    "_type" : "Callout",
                    "def" : {
                      "kind" : "TypeWinText",
                      "shape" : "",
                      "style" : "",
                      "Style" : 5.0,
                      "dimensionTime" : 0.0,
                      "height" : 180.0,
                      "line-spacing" : 0.0,
                      "textIgnoresOpacity" : 0.0,
                      "textRectHeight" : 1.0,
                      "textRectWidth" : 1.0,
                      "textRectX" : 0.0,
                      "textRectY" : 0.0,
                      "textVerticalAlign" : -1.0,
                      "width" : 320.0,
                      "filename" : "C:\\Program Files\\TechSmith\\Camtasia 9\\Media\\Studio\\Callouts\\trans_100x100.xml",
                      "horizontal-alignment" : "center",
                      "name" : "Text",
                      "text" : "{\\rtf1\\ansi\\ansicpg1252\\deff0\\nouicompat\\deflang1033{\\fonttbl{\\f0\\fnil\\fcharset0 Quicksand;}}\r\n{\\colortbl ;\\red255\\green255\\blue255;}\r\n{\\*\\generator Riched20 10.0.18362}\\viewkind4\\uc1 \r\n\\pard\\cf1\\f0\\fs80 The Complete\\par\r\n\\b\\fs90 C++ Developer Course\\par\r\n}\r\n",
                      "vertical-alignment" : "center",
                      "xmlContent" : "﻿<?xml version=\"1.0\"?>\n\n<Overlay version=\"1.0.1\">\n\n<Overlay_Filename>trans_100x100.png</Overlay_Filename>\n<Overlay_Name>Text</Overlay_Name>\n<Text_Top>0</Text_Top>\n<Text_Left>0</Text_Left>\n<Text_Bottom>0</Text_Bottom>\n<Text_Right>0</Text_Right>\n<Fill_Color>0</Fill_Color>\n<Border_Color>0</Border_Color>\n<Style>5</Style>\n</Overlay>",
                      "textAttributes" : {
                        "type" : "textAttributeList",
                        "keyframes" : [
                          {
                            "endTime" : 0,
                            "time" : 0,
                            "value" : null,
                            "duration" : 0
                          }
                        ]
                      }
                    },
                    "attributes" : {
                      "autoRotateText" : true
                    },
                    "parameters" : {
                      "translation0" : -70.9521418731169,
                      "translation1" : 239.738828503294,
                      "scale0" : 3.12385809835021,
                      "scale1" : 1.00002854389906
                    },
                    "effects" : [

                    ],
                    "start" : 16410,
                    "duration" : 150,
                    "mediaStart" : 0,
                    "mediaDuration" : 150,
                    "scalar" : 1,
                    "metadata" : {
                      "WinSubProjectDisplayName" : "",
                      "clipSpeedAttribute" : false,
                      "default-legacy-fill-style" : 5.0,
                      "default-legacy-text-callout-vertical-align" : "middle",
                      "default-scale0" : 1.0,
                      "default-scale1" : 1.0,
                      "default-text" : "{\\rtf1\\ansi\\ansicpg1252\\deff0\\deflang1033{\\fonttbl{\\f0\\fswiss\\fprq2\\fcharset0 Arial;}}{\\colortbl ;\\red255\\green255\\blue255;}\\viewkind4\\uc1\\pard\\qc\\cf1\\fs72 abc}",
                      "default-translation0" : 0.0,
                      "default-translation1" : 0.0
                    },
                    "animationTracks" : {

                    }
                  }
                ],
                "transitions" : [
                  {
                    "name" : "Fade",
                    "duration" : 30,
                    "trivial" : true,
                    "useAudioPreRoll" : true,
                    "useVisualPreRoll" : true,
                    "rightMedia" : 14
                  },
                  {
                    "name" : "Fade",
                    "duration" : 30,
                    "trivial" : true,
                    "useAudioPreRoll" : true,
                    "useVisualPreRoll" : true,
                    "leftMedia" : 14
                  }
                ]
              },
              {
                "trackIndex" : 5,
                "medias" : [
                  {
                    "id" : 15,
                    "_type" : "Callout",
                    "def" : {
                      "kind" : "remix",
                      "shape" : "text",
                      "style" : "bold",
                      "height" : 250.0,
                      "line-spacing" : 0.0,
                      "width" : 1035.85760517811,
                      "word-wrap" : 1.0,
                      "horizontal-alignment" : "left",
                      "text" : "Fundamentals\rVariables and Data Types (Part 2)",
                      "vertical-alignment" : "center",
                      "font" : {
                        "color-blue" : 1.0,
                        "color-green" : 1.0,
                        "color-red" : 1.0,
                        "size" : 96.0,
                        "tracking" : 0.0,
                        "name" : "Source Sans Pro",
                        "weight" : "Semi Bold"
                      },
                      "textAttributes" : {
                        "type" : "textAttributeList",
                        "keyframes" : [
                          {
                            "endTime" : 0,
                            "time" : 0,
                            "value" : [{"name":"fontWeight","rangeEnd":46,"rangeStart":13,"value":400,"valueType":"int"},{"name":"fgColor","rangeEnd":46,"rangeStart":0,"value":"(255,255,255,255)","valueType":"color"},{"name":"fontItalic","rangeEnd":46,"rangeStart":0,"value":0,"valueType":"int"},{"name":"kerning","rangeEnd":46,"rangeStart":0,"value":0,"valueType":"double"},{"name":"fontWeight","rangeEnd":13,"rangeStart":0,"value":700,"valueType":"int"},{"name":"fontName","rangeEnd":46,"rangeStart":0,"value":"Quicksand","valueType":"string"},{"name":"fontSize","rangeEnd":46,"rangeStart":13,"value":52,"valueType":"double"},{"name":"fontSize","rangeEnd":13,"rangeStart":0,"value":55,"valueType":"double"},{"name":"strikethrough","rangeEnd":46,"rangeStart":0,"value":0,"valueType":"int"},{"name":"underline","rangeEnd":46,"rangeStart":0,"value":0,"valueType":"int"}],
                            "duration" : 0
                          }
                        ]
                      }
                    },
                    "attributes" : {
                      "autoRotateText" : true
                    },
                    "parameters" : {
                      "translation0" : {
                        "type" : "double",
                        "defaultValue" : -913.412651778095,
                        "keyframes" : [
                          {
                            "endTime" : 38,
                            "time" : 8,
                            "value" : 99.920681555355,
                            "duration" : 30
                          }
                        ]
                      },
                      "translation1" : {
                        "type" : "double",
                        "defaultValue" : -34.812002943898,
                        "keyframes" : [
                          {
                            "endTime" : 38,
                            "time" : 8,
                            "value" : -34.8120029438544,
                            "duration" : 30
                          }
                        ]
                      }
                    },
                    "effects" : [
                        {
                          "effectName" : "DropShadow",
                          "category" : "categoryVisualEffects",
                          "parameters" : {
                            "angle" : {
                              "type" : "double",
                              "defaultValue" : 5.49778714378214,
                              "uiHints" : {
                                "userInterfaceType" : 0,
                                "unitType" : 0
                              },
                              "keyframes" : [
                                {
                                  "endTime" : 38,
                                  "time" : 8,
                                  "value" : 5.49778714378214,
                                  "duration" : 30
                                }
                              ]
                            },
                            "blur" : 10.0,
                            "color-alpha" : 1.0,
                            "color-blue" : 0.1216,
                            "color-green" : 0.1216,
                            "color-red" : 0.1216,
                            "enabled" : 1,
                            "offset" : 10.0,
                            "opacity" : 0.4
                          }
                        }
                    ],
                    "start" : 35,
                    "duration" : 115,
                    "mediaStart" : 8,
                    "mediaDuration" : 115,
                    "scalar" : 1,
                    "metadata" : {
                      "WinSubProjectDisplayName" : "",
                      "clipSpeedAttribute" : false,
                      "default-HAlign" : "center",
                      "default-LineSpace" : 0.0,
                      "default-VAlign" : "center",
                      "default-text-attributes" : "[{\"name\":\"fontWeight\",\"rangeEnd\":37,\"rangeStart\":26,\"value\":100,\"valueType\":\"int\"},{\"name\":\"underline\",\"rangeEnd\":37,\"rangeStart\":0,\"value\":0,\"valueType\":\"int\"},{\"name\":\"fontWeight\",\"rangeEnd\":26,\"rangeStart\":0,\"value\":700,\"valueType\":\"int\"},{\"name\":\"fgColor\",\"rangeEnd\":37,\"rangeStart\":0,\"value\":\"(255,255,255,255)\",\"valueType\":\"color\"},{\"name\":\"fontSize\",\"rangeEnd\":26,\"rangeStart\":0,\"value\":55,\"valueType\":\"double\"},{\"name\":\"fontItalic\",\"rangeEnd\":37,\"rangeStart\":0,\"value\":0,\"valueType\":\"int\"},{\"name\":\"strikethrough\",\"rangeEnd\":37,\"rangeStart\":0,\"value\":0,\"valueType\":\"int\"},{\"name\":\"fontName\",\"rangeEnd\":37,\"rangeStart\":0,\"value\":\"Quicksand\",\"valueType\":\"string\"},{\"name\":\"fontSize\",\"rangeEnd\":37,\"rangeStart\":26,\"value\":52,\"valueType\":\"double\"}]",
                      "default-translation0" : 204.5,
                      "default-translation1" : 0.0
                    },
                    "animationTracks" : {
                      "visual" : [
                        {
                          "endTime" : 38,
                          "duration" : 30,
                          "range" : [ 8, 30]
                        }
                      ]
                    }
                  },
                  {
                    "id" : 16,
                    "_type" : "IMFile",
                    "src" : 4,
                    "trackNumber" : 0,
                    "trimStartSum" : 0,
                    "attributes" : {
                      "ident" : "Head"
                    },
                    "parameters" : {
                      "translation0" : 537.015153862789,
                      "translation1" : -206.400000000049,
                      "scale0" : 0.35,
                      "scale1" : 0.35
                    },
                    "effects" : [

                    ],
                    "start" : 16410,
                    "duration" : 150,
                    "mediaStart" : 0,
                    "mediaDuration" : 1,
                    "scalar" : 1,
                    "metadata" : {
                      "WinSubProjectDisplayName" : "",
                      "clipSpeedAttribute" : false,
                      "default-scale0" : 0.703125,
                      "default-scale1" : 0.703125,
                      "default-translation0" : 0.0,
                      "default-translation1" : 0.0
                    },
                    "animationTracks" : {

                    }
                  }
                ],
                "transitions" : [
                  {
                    "name" : "Fade",
                    "duration" : 30,
                    "trivial" : true,
                    "useAudioPreRoll" : true,
                    "useVisualPreRoll" : true,
                    "leftMedia" : 15
                  },
                  {
                    "name" : "Fade",
                    "duration" : 30,
                    "trivial" : false,
                    "useAudioPreRoll" : true,
                    "useVisualPreRoll" : true,
                    "rightMedia" : 16
                  },
                  {
                    "name" : "Fade",
                    "duration" : 30,
                    "trivial" : false,
                    "useAudioPreRoll" : true,
                    "useVisualPreRoll" : true,
                    "leftMedia" : 16
                  }
                ]
              },
              {
                "trackIndex" : 6,
                "medias" : [
                  {
                    "id" : 17,
                    "_type" : "Callout",
                    "def" : {
                      "kind" : "TypeWinText",
                      "shape" : "",
                      "style" : "",
                      "Style" : 5.0,
                      "dimensionTime" : 0.0,
                      "height" : 180.0,
                      "line-spacing" : 0.0,
                      "textIgnoresOpacity" : 0.0,
                      "textRectHeight" : 1.0,
                      "textRectWidth" : 1.0,
                      "textRectX" : 0.0,
                      "textRectY" : 0.0,
                      "textVerticalAlign" : 0.0,
                      "width" : 320.0,
                      "filename" : "C:\\Program Files\\TechSmith\\Camtasia 9\\Media\\Studio\\Callouts\\trans_100x100.xml",
                      "horizontal-alignment" : "center",
                      "name" : "Text",
                      "text" : "{\\rtf1\\ansi\\ansicpg1252\\deff0\\nouicompat\\deflang1033{\\fonttbl{\\f0\\fnil\\fcharset0 Quicksand;}}\r\n{\\colortbl ;\\red255\\green255\\blue255;}\r\n{\\*\\generator Riched20 10.0.18362}\\viewkind4\\uc1 \r\n\\pard\\qc\\cf1\\b\\f0\\fs124 #\\fs256 2\\fs72\\par\r\n}\r\n",
                      "vertical-alignment" : "center",
                      "xmlContent" : "﻿<?xml version=\"1.0\"?>\n\n<Overlay version=\"1.0.1\">\n\n<Overlay_Filename>trans_100x100.png</Overlay_Filename>\n<Overlay_Name>Text</Overlay_Name>\n<Text_Top>0</Text_Top>\n<Text_Left>0</Text_Left>\n<Text_Bottom>0</Text_Bottom>\n<Text_Right>0</Text_Right>\n<Fill_Color>0</Fill_Color>\n<Border_Color>0</Border_Color>\n<Style>5</Style>\n</Overlay>",
                      "textAttributes" : {
                        "type" : "textAttributeList",
                        "keyframes" : [
                          {
                            "endTime" : 0,
                            "time" : 0,
                            "value" : null,
                            "duration" : 0
                          }
                        ]
                      }
                    },
                    "attributes" : {
                      "autoRotateText" : true
                    },
                    "parameters" : {
                      "translation0" : {
                        "type" : "double",
                        "defaultValue" : -820.538865370044,
                        "keyframes" : [
                          {
                            "endTime" : 65,
                            "time" : 35,
                            "value" : -488.499999999933,
                            "duration" : 30
                          }
                        ]
                      },
                      "translation1" : {
                        "type" : "double",
                        "defaultValue" : -34.8120029438978,
                        "keyframes" : [
                          {
                            "endTime" : 65,
                            "time" : 35,
                            "value" : -34.8120029438634,
                            "duration" : 30
                          }
                        ]
                      },
                      "scale0" : {
                        "type" : "double",
                        "defaultValue" : 0.580906148866913,
                        "keyframes" : [
                          {
                            "endTime" : 65,
                            "time" : 35,
                            "value" : 0.580906148866913,
                            "duration" : 30
                          }
                        ]
                      },
                      "scale1" : {
                        "type" : "double",
                        "defaultValue" : 1.43801063442563,
                        "keyframes" : [
                          {
                            "endTime" : 65,
                            "time" : 35,
                            "value" : 1.43801063442563,
                            "duration" : 30
                          }
                        ]
                      }
                    },
                    "effects" : [

                    ],
                    "start" : 35,
                    "duration" : 115,
                    "mediaStart" : 35,
                    "mediaDuration" : 115,
                    "scalar" : 1,
                    "metadata" : {
                      "WinSubProjectDisplayName" : "",
                      "clipSpeedAttribute" : false,
                      "default-legacy-fill-style" : 5.0,
                      "default-legacy-text-callout-vertical-align" : "middle",
                      "default-rotation2" : 0.0,
                      "default-scale0" : 1.0,
                      "default-scale1" : 1.0,
                      "default-text" : "{\\rtf1\\ansi\\ansicpg1252\\deff0\\deflang1033{\\fonttbl{\\f0\\fswiss\\fprq2\\fcharset0 Arial;}}{\\colortbl ;\\red255\\green255\\blue255;}\\viewkind4\\uc1\\pard\\qc\\cf1\\fs72 abc}",
                      "default-translation0" : 0.0,
                      "default-translation1" : 0.0
                    },
                    "animationTracks" : {
                      "visual" : [
                        {
                          "endTime" : 65,
                          "duration" : 30,
                          "range" : [ 35, 30]
                        }
                      ]
                    }
                  }
                ],
                "transitions" : [
                  {
                    "name" : "Fade",
                    "duration" : 30,
                    "trivial" : true,
                    "useAudioPreRoll" : true,
                    "useVisualPreRoll" : true,
                    "leftMedia" : 17
                  }
                ]
              },
              {
                "trackIndex" : 7,
                "medias" : [
                  {
                    "id" : 18,
                    "_type" : "IMFile",
                    "src" : 1,
                    "trackNumber" : 0,
                    "trimStartSum" : 0,
                    "attributes" : {
                      "ident" : "codestars_logo"
                    },
                    "parameters" : {
                      "translation0" : {
                        "type" : "double",
                        "defaultValue" : -263.136792317664,
                        "interp" : "linr"
                      },
                      "translation1" : {
                        "type" : "double",
                        "defaultValue" : -271.784183685799,
                        "interp" : "linr"
                      },
                      "translation2" : {
                        "type" : "double",
                        "defaultValue" : 0.0,
                        "interp" : "linr"
                      },
                      "rotation0" : {
                        "type" : "double",
                        "defaultValue" : 0.0,
                        "interp" : "linr"
                      },
                      "rotation1" : {
                        "type" : "double",
                        "defaultValue" : 0.0,
                        "interp" : "linr"
                      },
                      "rotation2" : {
                        "type" : "double",
                        "defaultValue" : 0.0,
                        "interp" : "linr"
                      },
                      "shear0" : {
                        "type" : "double",
                        "defaultValue" : 0.0,
                        "interp" : "linr"
                      },
                      "shear1" : {
                        "type" : "double",
                        "defaultValue" : 0.0,
                        "interp" : "linr"
                      },
                      "shear2" : {
                        "type" : "double",
                        "defaultValue" : 0.0,
                        "interp" : "linr"
                      },
                      "scale0" : {
                        "type" : "double",
                        "defaultValue" : 0.402192662926175,
                        "interp" : "linr"
                      },
                      "scale1" : {
                        "type" : "double",
                        "defaultValue" : 0.402192662926175,
                        "interp" : "linr"
                      },
                      "scale2" : {
                        "type" : "double",
                        "defaultValue" : 1.0,
                        "interp" : "linr"
                      },
                      "anchor0" : {
                        "type" : "double",
                        "defaultValue" : 0.0,
                        "interp" : "linr"
                      },
                      "anchor1" : {
                        "type" : "double",
                        "defaultValue" : 0.0,
                        "interp" : "linr"
                      },
                      "anchor2" : {
                        "type" : "double",
                        "defaultValue" : 0.0,
                        "interp" : "linr"
                      }
                    },
                    "effects" : [

                    ],
                    "start" : 0,
                    "duration" : 150,
                    "mediaStart" : 0,
                    "mediaDuration" : 1,
                    "scalar" : 1,
                    "metadata" : {
                      "WinSubProjectDisplayName" : "",
                      "clipSpeedAttribute" : false,
                      "default-scale" : "1",
                      "effectApplied" : "none"
                    },
                    "animationTracks" : {

                    }
                  }
                ],
                "transitions" : [
                  {
                    "name" : "Fade",
                    "duration" : 30,
                    "trivial" : true,
                    "useAudioPreRoll" : true,
                    "useVisualPreRoll" : true,
                    "leftMedia" : 18
                  }
                ]
              },
              {
                "trackIndex" : 8,
                "medias" : [
                ]
              },
              {
                "trackIndex" : 9,
                "medias" : [
                  {
                    "id" : 19,
                    "_type" : "Callout",
                    "def" : {
                      "kind" : "TypeWinText",
                      "shape" : "",
                      "style" : "",
                      "Style" : 5.0,
                      "dimensionTime" : 0.0,
                      "height" : 180.0,
                      "line-spacing" : 0.0,
                      "textIgnoresOpacity" : 0.0,
                      "textRectHeight" : 1.0,
                      "textRectWidth" : 1.0,
                      "textRectX" : 0.0,
                      "textRectY" : 0.0,
                      "textVerticalAlign" : -1.0,
                      "width" : 320.0,
                      "filename" : "C:\\Program Files\\TechSmith\\Camtasia 9\\Media\\Studio\\Callouts\\trans_100x100.xml",
                      "horizontal-alignment" : "center",
                      "name" : "Text",
                      "text" : "{\\rtf1\\ansi\\ansicpg1252\\deff0\\nouicompat\\deflang1033{\\fonttbl{\\f0\\fnil\\fcharset0 Quicksand;}}\r\n{\\colortbl ;\\red255\\green255\\blue255;}\r\n{\\*\\generator Riched20 10.0.18362}\\viewkind4\\uc1 \r\n\\pard\\cf1\\f0\\fs80 The Complete\\par\r\n\\b\\fs90 C++ Developer Course\\par\r\n}\r\n",
                      "vertical-alignment" : "center",
                      "xmlContent" : "﻿<?xml version=\"1.0\"?>\n\n<Overlay version=\"1.0.1\">\n\n<Overlay_Filename>trans_100x100.png</Overlay_Filename>\n<Overlay_Name>Text</Overlay_Name>\n<Text_Top>0</Text_Top>\n<Text_Left>0</Text_Left>\n<Text_Bottom>0</Text_Bottom>\n<Text_Right>0</Text_Right>\n<Fill_Color>0</Fill_Color>\n<Border_Color>0</Border_Color>\n<Style>5</Style>\n</Overlay>",
                      "textAttributes" : {
                        "type" : "textAttributeList",
                        "keyframes" : [
                          {
                            "endTime" : 0,
                            "time" : 0,
                            "value" : null,
                            "duration" : 0
                          }
                        ]
                      }
                    },
                    "attributes" : {
                      "autoRotateText" : true
                    },
                    "parameters" : {
                      "translation0" : -72.2854752064544,
                      "translation1" : 239.738828503294,
                      "scale0" : 3.12385809835021,
                      "scale1" : 1.00002854389906
                    },
                    "effects" : [

                    ],
                    "start" : 0,
                    "duration" : 150,
                    "mediaStart" : 0,
                    "mediaDuration" : 150,
                    "scalar" : 1,
                    "metadata" : {
                      "WinSubProjectDisplayName" : "",
                      "clipSpeedAttribute" : false,
                      "default-legacy-fill-style" : 5.0,
                      "default-legacy-text-callout-vertical-align" : "middle",
                      "default-scale0" : 1.0,
                      "default-scale1" : 1.0,
                      "default-text" : "{\\rtf1\\ansi\\ansicpg1252\\deff0\\deflang1033{\\fonttbl{\\f0\\fswiss\\fprq2\\fcharset0 Arial;}}{\\colortbl ;\\red255\\green255\\blue255;}\\viewkind4\\uc1\\pard\\qc\\cf1\\fs72 abc}",
                      "default-translation0" : 0.0,
                      "default-translation1" : 0.0
                    },
                    "animationTracks" : {

                    }
                  }
                ],
                "transitions" : [
                  {
                    "name" : "Fade",
                    "duration" : 30,
                    "trivial" : true,
                    "useAudioPreRoll" : true,
                    "useVisualPreRoll" : true,
                    "leftMedia" : 19
                  }
                ]
              },
              {
                "trackIndex" : 10,
                "medias" : [
                  {
                    "id" : 20,
                    "_type" : "IMFile",
                    "src" : 4,
                    "trackNumber" : 0,
                    "trimStartSum" : 0,
                    "attributes" : {
                      "ident" : "Head"
                    },
                    "parameters" : {
                      "translation0" : 536.491666666922,
                      "translation1" : -187.676963350509,
                      "scale0" : 0.35,
                      "scale1" : 0.35
                    },
                    "effects" : [

                    ],
                    "start" : 0,
                    "duration" : 150,
                    "mediaStart" : 0,
                    "mediaDuration" : 1,
                    "scalar" : 1,
                    "metadata" : {
                      "WinSubProjectDisplayName" : "",
                      "clipSpeedAttribute" : false,
                      "default-scale0" : 0.703125,
                      "default-scale1" : 0.703125,
                      "default-translation0" : 0.0,
                      "default-translation1" : 0.0
                    },
                    "animationTracks" : {

                    }
                  }
                ],
                "transitions" : [
                  {
                    "name" : "Fade",
                    "duration" : 30,
                    "trivial" : false,
                    "useAudioPreRoll" : true,
                    "useVisualPreRoll" : true,
                    "leftMedia" : 20
                  }
                ]
              },
              {
                "trackIndex" : 11,
                "medias" : [
                ]
              },
              {
                "trackIndex" : 12,
                "medias" : [
                  {
                    "id" : 21,
                    "_type" : "StitchedMedia",
                    "minMediaStart" : 0,
                    "attributes" : {
                      "ident" : "Rec 02-09-20_001",
                      "gain" : 1.0,
                      "mixToMono" : false
                    },
                    "parameters" : {
                      "translation0" : {
                        "type" : "double",
                        "defaultValue" : 0.0,
                        "keyframes" : [
                          {
                            "endTime" : 1544,
                            "time" : 1514,
                            "value" : 7.42997613333027,
                            "duration" : 30
                          },
                          {
                            "endTime" : 2386,
                            "time" : 2356,
                            "value" : 15.7438655861005,
                            "duration" : 30
                          },
                          {
                            "endTime" : 2476,
                            "time" : 2446,
                            "value" : -403.344553126613,
                            "duration" : 30
                          },
                          {
                            "endTime" : 2638,
                            "time" : 2608,
                            "value" : 1.18699893456573,
                            "duration" : 30
                          },
                          {
                            "endTime" : 2956,
                            "time" : 2926,
                            "value" : 342.001955431566,
                            "duration" : 30
                          },
                          {
                            "endTime" : 6402,
                            "time" : 6372,
                            "value" : 301.290113555997,
                            "duration" : 30
                          }
                        ]
                      },
                      "translation1" : {
                        "type" : "double",
                        "defaultValue" : 0.0,
                        "keyframes" : [
                          {
                            "endTime" : 1544,
                            "time" : 1514,
                            "value" : -18.5749399677202,
                            "duration" : 30
                          },
                          {
                            "endTime" : 2386,
                            "time" : 2356,
                            "value" : -8.70127584084562,
                            "duration" : 30
                          },
                          {
                            "endTime" : 2476,
                            "time" : 2446,
                            "value" : -256.225373585311,
                            "duration" : 30
                          },
                          {
                            "endTime" : 2638,
                            "time" : 2608,
                            "value" : -11.0420530723372,
                            "duration" : 30
                          },
                          {
                            "endTime" : 2956,
                            "time" : 2926,
                            "value" : -192.376221668581,
                            "duration" : 30
                          },
                          {
                            "endTime" : 6402,
                            "time" : 6372,
                            "value" : -169.47589515906,
                            "duration" : 30
                          }
                        ]
                      },
                      "scale0" : {
                        "type" : "double",
                        "defaultValue" : 0.666666666666667,
                        "keyframes" : [
                          {
                            "endTime" : 1544,
                            "time" : 1514,
                            "value" : 0.976248958239232,
                            "duration" : 30
                          },
                          {
                            "endTime" : 2386,
                            "time" : 2356,
                            "value" : 0.650266715065953,
                            "duration" : 30
                          },
                          {
                            "endTime" : 2476,
                            "time" : 2446,
                            "value" : 1.0868170269619,
                            "duration" : 30
                          },
                          {
                            "endTime" : 2638,
                            "time" : 2608,
                            "value" : 1.01673473563695,
                            "duration" : 30
                          },
                          {
                            "endTime" : 2956,
                            "time" : 2926,
                            "value" : 1.02291871162579,
                            "duration" : 30
                          },
                          {
                            "endTime" : 6402,
                            "time" : 6372,
                            "value" : 0.980510570389819,
                            "duration" : 30
                          }
                        ]
                      },
                      "scale1" : {
                        "type" : "double",
                        "defaultValue" : 0.666666666666667,
                        "keyframes" : [
                          {
                            "endTime" : 1544,
                            "time" : 1514,
                            "value" : 0.976249049449853,
                            "duration" : 30
                          },
                          {
                            "endTime" : 2386,
                            "time" : 2356,
                            "value" : 0.650266832928261,
                            "duration" : 30
                          },
                          {
                            "endTime" : 2476,
                            "time" : 2446,
                            "value" : 1.08681734602433,
                            "duration" : 30
                          },
                          {
                            "endTime" : 2638,
                            "time" : 2608,
                            "value" : 1.01673497757964,
                            "duration" : 30
                          },
                          {
                            "endTime" : 2956,
                            "time" : 2926,
                            "value" : 1.02291892377814,
                            "duration" : 30
                          },
                          {
                            "endTime" : 6402,
                            "time" : 6372,
                            "value" : 0.980510909430311,
                            "duration" : 30
                          }
                        ]
                      },
                      "volume" : {
                        "type" : "double",
                        "keyframes" : [
                          {
                            "endTime" : 0,
                            "time" : 0,
                            "value" : 1.0,
                            "duration" : 0
                          },
                          {
                            "endTime" : 14382,
                            "time" : 14382,
                            "value" : 1.0,
                            "duration" : 0
                          },
                          {
                            "endTime" : 14383,
                            "time" : 14383,
                            "value" : 0.0,
                            "duration" : 0
                          },
                          {
                            "endTime" : 14569,
                            "time" : 14569,
                            "value" : 0.0,
                            "duration" : 0
                          },
                          {
                            "endTime" : 14570,
                            "time" : 14570,
                            "value" : 1.0,
                            "duration" : 0
                          }
                        ]
                      },
                      "cursorOpacity" : 1.0,
                      "cursorScale" : 1.0
                    },
                    "medias" : [
                        {
                          "id" : 22,
                          "_type" : "UnifiedMedia",
                          "video" : 
                              {
                                "id" : 23,
                                "_type" : "ScreenVMFile",
                                "src" : 5,
                                "trackNumber" : 0,
                                "attributes" : {
                                  "ident" : "Rec 02-09-20_001"
                                },
                                "parameters" : {
                                  "cursorScale" : {
                                    "type" : "double",
                                    "defaultValue" : 0.0,
                                    "interp" : "linr"
                                  },
                                  "cursorOpacity" : {
                                    "type" : "double",
                                    "defaultValue" : 0.0,
                                    "interp" : "linr"
                                  }
                                },
                                "effects" : [

                                ],
                                "start" : 0,
                                "duration" : 3760,
                                "mediaStart" : 0,
                                "mediaDuration" : 3760,
                                "scalar" : 1,
                                "animationTracks" : {

                                }
                              },
                          "audio" : 
                              {
                                "id" : 24,
                                "_type" : "AMFile",
                                "src" : 5,
                                "trackNumber" : 2,
                                "attributes" : {
                                  "ident" : "",
                                  "sampleRate" : 44100,
                                  "bitDepth" : 16,
                                  "gain" : 1.0,
                                  "mixToMono" : false
                                },
                                  "channelNumber" : "0,1",
                                "effects" : [

                                ],
                                "start" : 0,
                                "duration" : 3760,
                                "mediaStart" : 0,
                                "mediaDuration" : 3760,
                                "scalar" : 1,
                                "animationTracks" : {

                                }
                              }
,
                          "start" : 0,
                          "duration" : 3760,
                          "mediaStart" : 0,
                          "mediaDuration" : 18929,
                          "scalar" : 1,
                          "metadata" : {
                            "AutoAppliedSmartFocus" : "False",
                            "WinSubProjectDisplayName" : "",
                            "clipSpeedAttribute" : false,
                            "default-scale0" : 0.666666666666667,
                            "default-scale1" : 0.666666666666667,
                            "default-translation0" : 0.0,
                            "default-translation1" : 0.0
                          }
                        },
                        {
                          "id" : 25,
                          "_type" : "UnifiedMedia",
                          "video" : 
                              {
                                "id" : 26,
                                "_type" : "ScreenVMFile",
                                "src" : 5,
                                "trackNumber" : 0,
                                "attributes" : {
                                  "ident" : "Rec 02-09-20_001"
                                },
                                "parameters" : {
                                  "cursorScale" : {
                                    "type" : "double",
                                    "defaultValue" : 0.0,
                                    "interp" : "linr"
                                  },
                                  "cursorOpacity" : {
                                    "type" : "double",
                                    "defaultValue" : 0.0,
                                    "interp" : "linr"
                                  }
                                },
                                "effects" : [

                                ],
                                "start" : 3760,
                                "duration" : 353,
                                "mediaStart" : 3946,
                                "mediaDuration" : 353,
                                "scalar" : 1,
                                "animationTracks" : {

                                }
                              },
                          "audio" : 
                              {
                                "id" : 27,
                                "_type" : "AMFile",
                                "src" : 5,
                                "trackNumber" : 2,
                                "attributes" : {
                                  "ident" : "",
                                  "sampleRate" : 44100,
                                  "bitDepth" : 16,
                                  "gain" : 1.0,
                                  "mixToMono" : false
                                },
                                  "channelNumber" : "0,1",
                                "effects" : [

                                ],
                                "start" : 3760,
                                "duration" : 353,
                                "mediaStart" : 3946,
                                "mediaDuration" : 353,
                                "scalar" : 1,
                                "animationTracks" : {

                                }
                              }
,
                          "start" : 3760,
                          "duration" : 353,
                          "mediaStart" : 0,
                          "mediaDuration" : 18929,
                          "scalar" : 1,
                          "metadata" : {
                            "AutoAppliedSmartFocus" : "False",
                            "WinSubProjectDisplayName" : "",
                            "clipSpeedAttribute" : false,
                            "default-scale0" : 0.666666666666667,
                            "default-scale1" : 0.666666666666667,
                            "default-translation0" : 0.0,
                            "default-translation1" : 0.0
                          }
                        },
                        {
                          "id" : 28,
                          "_type" : "UnifiedMedia",
                          "video" : 
                              {
                                "id" : 29,
                                "_type" : "ScreenVMFile",
                                "src" : 5,
                                "trackNumber" : 0,
                                "attributes" : {
                                  "ident" : "Rec 02-09-20_001"
                                },
                                "parameters" : {
                                  "cursorScale" : {
                                    "type" : "double",
                                    "defaultValue" : 0.0,
                                    "interp" : "linr"
                                  },
                                  "cursorOpacity" : {
                                    "type" : "double",
                                    "defaultValue" : 0.0,
                                    "interp" : "linr"
                                  }
                                },
                                "effects" : [

                                ],
                                "start" : 4113,
                                "duration" : 107,
                                "mediaStart" : 4479,
                                "mediaDuration" : 107,
                                "scalar" : 1,
                                "animationTracks" : {

                                }
                              },
                          "audio" : 
                              {
                                "id" : 30,
                                "_type" : "AMFile",
                                "src" : 5,
                                "trackNumber" : 2,
                                "attributes" : {
                                  "ident" : "",
                                  "sampleRate" : 44100,
                                  "bitDepth" : 16,
                                  "gain" : 1.0,
                                  "mixToMono" : false
                                },
                                  "channelNumber" : "0,1",
                                "effects" : [

                                ],
                                "start" : 4113,
                                "duration" : 107,
                                "mediaStart" : 4479,
                                "mediaDuration" : 107,
                                "scalar" : 1,
                                "animationTracks" : {

                                }
                              }
,
                          "start" : 4113,
                          "duration" : 107,
                          "mediaStart" : 0,
                          "mediaDuration" : 18929,
                          "scalar" : 1,
                          "metadata" : {
                            "AutoAppliedSmartFocus" : "False",
                            "WinSubProjectDisplayName" : "",
                            "clipSpeedAttribute" : false,
                            "default-scale0" : 0.666666666666667,
                            "default-scale1" : 0.666666666666667,
                            "default-translation0" : 0.0,
                            "default-translation1" : 0.0
                          }
                        },
                        {
                          "id" : 31,
                          "_type" : "UnifiedMedia",
                          "video" : 
                              {
                                "id" : 32,
                                "_type" : "ScreenVMFile",
                                "src" : 5,
                                "trackNumber" : 0,
                                "attributes" : {
                                  "ident" : "Rec 02-09-20_001"
                                },
                                "parameters" : {
                                  "cursorScale" : {
                                    "type" : "double",
                                    "defaultValue" : 0.0,
                                    "interp" : "linr"
                                  },
                                  "cursorOpacity" : {
                                    "type" : "double",
                                    "defaultValue" : 0.0,
                                    "interp" : "linr"
                                  }
                                },
                                "effects" : [

                                ],
                                "start" : 4220,
                                "duration" : 2434,
                                "mediaStart" : 4846,
                                "mediaDuration" : 2434,
                                "scalar" : 1,
                                "animationTracks" : {

                                }
                              },
                          "audio" : 
                              {
                                "id" : 33,
                                "_type" : "AMFile",
                                "src" : 5,
                                "trackNumber" : 2,
                                "attributes" : {
                                  "ident" : "",
                                  "sampleRate" : 44100,
                                  "bitDepth" : 16,
                                  "gain" : 1.0,
                                  "mixToMono" : false
                                },
                                  "channelNumber" : "0,1",
                                "effects" : [

                                ],
                                "start" : 4220,
                                "duration" : 2434,
                                "mediaStart" : 4846,
                                "mediaDuration" : 2434,
                                "scalar" : 1,
                                "animationTracks" : {

                                }
                              }
,
                          "start" : 4220,
                          "duration" : 2434,
                          "mediaStart" : 0,
                          "mediaDuration" : 18929,
                          "scalar" : 1,
                          "metadata" : {
                            "AutoAppliedSmartFocus" : "False",
                            "WinSubProjectDisplayName" : "",
                            "clipSpeedAttribute" : false,
                            "default-scale0" : 0.666666666666667,
                            "default-scale1" : 0.666666666666667,
                            "default-translation0" : 0.0,
                            "default-translation1" : 0.0
                          }
                        },
                        {
                          "id" : 34,
                          "_type" : "UnifiedMedia",
                          "video" : 
                              {
                                "id" : 35,
                                "_type" : "ScreenVMFile",
                                "src" : 5,
                                "trackNumber" : 0,
                                "attributes" : {
                                  "ident" : "Rec 02-09-20_001"
                                },
                                "parameters" : {
                                  "cursorScale" : {
                                    "type" : "double",
                                    "defaultValue" : 0.0,
                                    "interp" : "linr"
                                  },
                                  "cursorOpacity" : {
                                    "type" : "double",
                                    "defaultValue" : 0.0,
                                    "interp" : "linr"
                                  }
                                },
                                "effects" : [

                                ],
                                "start" : 6654,
                                "duration" : 403,
                                "mediaStart" : 7299,
                                "mediaDuration" : 403,
                                "scalar" : 1,
                                "animationTracks" : {

                                }
                              },
                          "audio" : 
                              {
                                "id" : 36,
                                "_type" : "AMFile",
                                "src" : 5,
                                "trackNumber" : 2,
                                "attributes" : {
                                  "ident" : "",
                                  "sampleRate" : 44100,
                                  "bitDepth" : 16,
                                  "gain" : 1.0,
                                  "mixToMono" : false
                                },
                                  "channelNumber" : "0,1",
                                "effects" : [

                                ],
                                "start" : 6654,
                                "duration" : 403,
                                "mediaStart" : 7299,
                                "mediaDuration" : 403,
                                "scalar" : 1,
                                "animationTracks" : {

                                }
                              }
,
                          "start" : 6654,
                          "duration" : 403,
                          "mediaStart" : 0,
                          "mediaDuration" : 18929,
                          "scalar" : 1,
                          "metadata" : {
                            "AutoAppliedSmartFocus" : "False",
                            "WinSubProjectDisplayName" : "",
                            "clipSpeedAttribute" : false,
                            "default-scale0" : 0.666666666666667,
                            "default-scale1" : 0.666666666666667,
                            "default-translation0" : 0.0,
                            "default-translation1" : 0.0
                          }
                        },
                        {
                          "id" : 37,
                          "_type" : "UnifiedMedia",
                          "video" : 
                              {
                                "id" : 38,
                                "_type" : "ScreenVMFile",
                                "src" : 5,
                                "trackNumber" : 0,
                                "attributes" : {
                                  "ident" : "Rec 02-09-20_001"
                                },
                                "parameters" : {
                                  "cursorScale" : {
                                    "type" : "double",
                                    "defaultValue" : 0.0,
                                    "interp" : "linr"
                                  },
                                  "cursorOpacity" : {
                                    "type" : "double",
                                    "defaultValue" : 0.0,
                                    "interp" : "linr"
                                  }
                                },
                                "effects" : [

                                ],
                                "start" : 7057,
                                "duration" : 2427,
                                "mediaStart" : 7741,
                                "mediaDuration" : 2427,
                                "scalar" : 1,
                                "animationTracks" : {

                                }
                              },
                          "audio" : 
                              {
                                "id" : 39,
                                "_type" : "AMFile",
                                "src" : 5,
                                "trackNumber" : 2,
                                "attributes" : {
                                  "ident" : "",
                                  "sampleRate" : 44100,
                                  "bitDepth" : 16,
                                  "gain" : 1.0,
                                  "mixToMono" : false
                                },
                                  "channelNumber" : "0,1",
                                "effects" : [

                                ],
                                "start" : 7057,
                                "duration" : 2427,
                                "mediaStart" : 7741,
                                "mediaDuration" : 2427,
                                "scalar" : 1,
                                "animationTracks" : {

                                }
                              }
,
                          "start" : 7057,
                          "duration" : 2427,
                          "mediaStart" : 0,
                          "mediaDuration" : 18929,
                          "scalar" : 1,
                          "metadata" : {
                            "AutoAppliedSmartFocus" : "False",
                            "WinSubProjectDisplayName" : "",
                            "clipSpeedAttribute" : false,
                            "default-scale0" : 0.666666666666667,
                            "default-scale1" : 0.666666666666667,
                            "default-translation0" : 0.0,
                            "default-translation1" : 0.0
                          }
                        },
                        {
                          "id" : 40,
                          "_type" : "UnifiedMedia",
                          "video" : 
                              {
                                "id" : 41,
                                "_type" : "ScreenVMFile",
                                "src" : 5,
                                "trackNumber" : 0,
                                "attributes" : {
                                  "ident" : "Rec 02-09-20_001"
                                },
                                "parameters" : {
                                  "cursorScale" : {
                                    "type" : "double",
                                    "defaultValue" : 0.0,
                                    "interp" : "linr"
                                  },
                                  "cursorOpacity" : {
                                    "type" : "double",
                                    "defaultValue" : 0.0,
                                    "interp" : "linr"
                                  }
                                },
                                "effects" : [

                                ],
                                "start" : 9484,
                                "duration" : 385,
                                "mediaStart" : 10506,
                                "mediaDuration" : 385,
                                "scalar" : 1,
                                "animationTracks" : {

                                }
                              },
                          "audio" : 
                              {
                                "id" : 42,
                                "_type" : "AMFile",
                                "src" : 5,
                                "trackNumber" : 2,
                                "attributes" : {
                                  "ident" : "",
                                  "sampleRate" : 44100,
                                  "bitDepth" : 16,
                                  "gain" : 1.0,
                                  "mixToMono" : false
                                },
                                  "channelNumber" : "0,1",
                                "effects" : [

                                ],
                                "start" : 9484,
                                "duration" : 385,
                                "mediaStart" : 10506,
                                "mediaDuration" : 385,
                                "scalar" : 1,
                                "animationTracks" : {

                                }
                              }
,
                          "start" : 9484,
                          "duration" : 385,
                          "mediaStart" : 0,
                          "mediaDuration" : 18929,
                          "scalar" : 1,
                          "metadata" : {
                            "AutoAppliedSmartFocus" : "False",
                            "WinSubProjectDisplayName" : "",
                            "clipSpeedAttribute" : false,
                            "default-scale0" : 0.666666666666667,
                            "default-scale1" : 0.666666666666667,
                            "default-translation0" : 0.0,
                            "default-translation1" : 0.0
                          }
                        },
                        {
                          "id" : 43,
                          "_type" : "UnifiedMedia",
                          "video" : 
                              {
                                "id" : 44,
                                "_type" : "ScreenVMFile",
                                "src" : 5,
                                "trackNumber" : 0,
                                "attributes" : {
                                  "ident" : "Rec 02-09-20_001"
                                },
                                "parameters" : {
                                  "cursorScale" : {
                                    "type" : "double",
                                    "defaultValue" : 0.0,
                                    "interp" : "linr"
                                  },
                                  "cursorOpacity" : {
                                    "type" : "double",
                                    "defaultValue" : 0.0,
                                    "interp" : "linr"
                                  }
                                },
                                "effects" : [

                                ],
                                "start" : 9869,
                                "duration" : 4512,
                                "mediaStart" : 10937,
                                "mediaDuration" : 4512,
                                "scalar" : 1,
                                "animationTracks" : {

                                }
                              },
                          "audio" : 
                              {
                                "id" : 45,
                                "_type" : "AMFile",
                                "src" : 5,
                                "trackNumber" : 2,
                                "attributes" : {
                                  "ident" : "",
                                  "sampleRate" : 44100,
                                  "bitDepth" : 16,
                                  "gain" : 1.0,
                                  "mixToMono" : false
                                },
                                  "channelNumber" : "0,1",
                                "effects" : [

                                ],
                                "start" : 9869,
                                "duration" : 4512,
                                "mediaStart" : 10937,
                                "mediaDuration" : 4512,
                                "scalar" : 1,
                                "animationTracks" : {

                                }
                              }
,
                          "start" : 9869,
                          "duration" : 4512,
                          "mediaStart" : 0,
                          "mediaDuration" : 18929,
                          "scalar" : 1,
                          "metadata" : {
                            "AutoAppliedSmartFocus" : "False",
                            "WinSubProjectDisplayName" : "",
                            "clipSpeedAttribute" : false,
                            "default-scale0" : 0.666666666666667,
                            "default-scale1" : 0.666666666666667,
                            "default-translation0" : 0.0,
                            "default-translation1" : 0.0
                          }
                        },
                        {
                          "id" : 46,
                          "_type" : "UnifiedMedia",
                          "video" : 
                              {
                                "id" : 47,
                                "_type" : "ScreenVMFile",
                                "src" : 5,
                                "trackNumber" : 0,
                                "attributes" : {
                                  "ident" : "Rec 02-09-20_001"
                                },
                                "parameters" : {
                                  "cursorScale" : {
                                    "type" : "double",
                                    "defaultValue" : 0.0,
                                    "interp" : "linr"
                                  },
                                  "cursorOpacity" : {
                                    "type" : "double",
                                    "defaultValue" : 0.0,
                                    "interp" : "linr"
                                  }
                                },
                                "effects" : [

                                ],
                                "start" : 14381,
                                "duration" : 987,
                                "mediaStart" : 15522,
                                "mediaDuration" : 987,
                                "scalar" : 1,
                                "animationTracks" : {

                                }
                              },
                          "audio" : 
                              {
                                "id" : 48,
                                "_type" : "AMFile",
                                "src" : 5,
                                "trackNumber" : 2,
                                "attributes" : {
                                  "ident" : "",
                                  "sampleRate" : 44100,
                                  "bitDepth" : 16,
                                  "gain" : 1.0,
                                  "mixToMono" : false
                                },
                                  "channelNumber" : "0,1",
                                "effects" : [

                                ],
                                "start" : 14381,
                                "duration" : 987,
                                "mediaStart" : 15522,
                                "mediaDuration" : 987,
                                "scalar" : 1,
                                "animationTracks" : {

                                }
                              }
,
                          "start" : 14381,
                          "duration" : 987,
                          "mediaStart" : 0,
                          "mediaDuration" : 18929,
                          "scalar" : 1,
                          "metadata" : {
                            "AutoAppliedSmartFocus" : "False",
                            "WinSubProjectDisplayName" : "",
                            "clipSpeedAttribute" : false,
                            "default-scale0" : 0.666666666666667,
                            "default-scale1" : 0.666666666666667,
                            "default-translation0" : 0.0,
                            "default-translation1" : 0.0
                          }
                        },
                        {
                          "id" : 49,
                          "_type" : "UnifiedMedia",
                          "video" : 
                              {
                                "id" : 50,
                                "_type" : "ScreenVMFile",
                                "src" : 5,
                                "trackNumber" : 0,
                                "attributes" : {
                                  "ident" : "Rec 02-09-20_001"
                                },
                                "parameters" : {
                                  "cursorScale" : {
                                    "type" : "double",
                                    "defaultValue" : 0.0,
                                    "interp" : "linr"
                                  },
                                  "cursorOpacity" : {
                                    "type" : "double",
                                    "defaultValue" : 0.0,
                                    "interp" : "linr"
                                  }
                                },
                                "effects" : [

                                ],
                                "start" : 15368,
                                "duration" : 737,
                                "mediaStart" : 17236,
                                "mediaDuration" : 737,
                                "scalar" : 1,
                                "animationTracks" : {

                                }
                              },
                          "audio" : 
                              {
                                "id" : 51,
                                "_type" : "AMFile",
                                "src" : 5,
                                "trackNumber" : 2,
                                "attributes" : {
                                  "ident" : "",
                                  "sampleRate" : 44100,
                                  "bitDepth" : 16,
                                  "gain" : 1.0,
                                  "mixToMono" : false
                                },
                                  "channelNumber" : "0,1",
                                "effects" : [

                                ],
                                "start" : 15368,
                                "duration" : 737,
                                "mediaStart" : 17236,
                                "mediaDuration" : 737,
                                "scalar" : 1,
                                "animationTracks" : {

                                }
                              }
,
                          "start" : 15368,
                          "duration" : 737,
                          "mediaStart" : 0,
                          "mediaDuration" : 18929,
                          "scalar" : 1,
                          "metadata" : {
                            "AutoAppliedSmartFocus" : "False",
                            "WinSubProjectDisplayName" : "",
                            "clipSpeedAttribute" : false,
                            "default-scale0" : 0.666666666666667,
                            "default-scale1" : 0.666666666666667,
                            "default-translation0" : 0.0,
                            "default-translation1" : 0.0
                          }
                        },
                        {
                          "id" : 52,
                          "_type" : "UnifiedMedia",
                          "video" : 
                              {
                                "id" : 53,
                                "_type" : "ScreenVMFile",
                                "src" : 5,
                                "trackNumber" : 0,
                                "attributes" : {
                                  "ident" : "Rec 02-09-20_001"
                                },
                                "parameters" : {
                                  "cursorScale" : {
                                    "type" : "double",
                                    "defaultValue" : 0.0,
                                    "interp" : "linr"
                                  },
                                  "cursorOpacity" : {
                                    "type" : "double",
                                    "defaultValue" : 0.0,
                                    "interp" : "linr"
                                  }
                                },
                                "effects" : [

                                ],
                                "start" : 16105,
                                "duration" : 6,
                                "mediaStart" : 18467,
                                "mediaDuration" : 6,
                                "scalar" : 1,
                                "animationTracks" : {

                                }
                              },
                          "audio" : 
                              {
                                "id" : 54,
                                "_type" : "AMFile",
                                "src" : 5,
                                "trackNumber" : 2,
                                "attributes" : {
                                  "ident" : "",
                                  "sampleRate" : 44100,
                                  "bitDepth" : 16,
                                  "gain" : 1.0,
                                  "mixToMono" : false
                                },
                                  "channelNumber" : "0,1",
                                "effects" : [

                                ],
                                "start" : 16105,
                                "duration" : 6,
                                "mediaStart" : 18467,
                                "mediaDuration" : 6,
                                "scalar" : 1,
                                "animationTracks" : {

                                }
                              }
,
                          "start" : 16105,
                          "duration" : 6,
                          "mediaStart" : 0,
                          "mediaDuration" : 18929,
                          "scalar" : 1,
                          "metadata" : {
                            "AutoAppliedSmartFocus" : "False",
                            "WinSubProjectDisplayName" : "",
                            "clipSpeedAttribute" : false,
                            "default-scale0" : 0.666666666666667,
                            "default-scale1" : 0.666666666666667,
                            "default-translation0" : 0.0,
                            "default-translation1" : 0.0
                          }
                        },
                        {
                          "id" : 55,
                          "_type" : "UnifiedMedia",
                          "video" : 
                              {
                                "id" : 56,
                                "_type" : "ScreenVMFile",
                                "src" : 5,
                                "trackNumber" : 0,
                                "attributes" : {
                                  "ident" : "Rec 02-09-20_001"
                                },
                                "parameters" : {
                                  "cursorScale" : {
                                    "type" : "double",
                                    "defaultValue" : 0.0,
                                    "interp" : "linr"
                                  },
                                  "cursorOpacity" : {
                                    "type" : "double",
                                    "defaultValue" : 0.0,
                                    "interp" : "linr"
                                  }
                                },
                                "effects" : [

                                ],
                                "start" : 16111,
                                "duration" : 299,
                                "mediaStart" : 18630,
                                "mediaDuration" : 299,
                                "scalar" : 1,
                                "animationTracks" : {

                                }
                              },
                          "audio" : 
                              {
                                "id" : 57,
                                "_type" : "AMFile",
                                "src" : 5,
                                "trackNumber" : 2,
                                "attributes" : {
                                  "ident" : "",
                                  "sampleRate" : 44100,
                                  "bitDepth" : 16,
                                  "gain" : 1.0,
                                  "mixToMono" : false
                                },
                                  "channelNumber" : "0,1",
                                "effects" : [

                                ],
                                "start" : 16111,
                                "duration" : 299,
                                "mediaStart" : 18630,
                                "mediaDuration" : 299,
                                "scalar" : 1,
                                "animationTracks" : {

                                }
                              }
,
                          "start" : 16111,
                          "duration" : 299,
                          "mediaStart" : 0,
                          "mediaDuration" : 18929,
                          "scalar" : 1,
                          "metadata" : {
                            "AutoAppliedSmartFocus" : "False",
                            "WinSubProjectDisplayName" : "",
                            "clipSpeedAttribute" : false,
                            "default-scale0" : 0.666666666666667,
                            "default-scale1" : 0.666666666666667,
                            "default-translation0" : 0.0,
                            "default-translation1" : 0.0
                          }
                        }
                    ],
                    "effects" : [

                    ],
                    "start" : 1425,
                    "duration" : 14985,
                    "mediaStart" : 1425,
                    "mediaDuration" : 14985,
                    "scalar" : 1,
                    "metadata" : {
                      "AutoAppliedSmartFocus" : "False",
                      "WinSubProjectDisplayName" : "",
                      "clipSpeedAttribute" : false
                    },
                    "animationTracks" : {
                      "visual" : [
                        {
                          "endTime" : 1544,
                          "duration" : 30,
                          "range" : [ 1514, 30]
                        },
                        {
                          "endTime" : 2386,
                          "duration" : 30,
                          "range" : [ 2356, 30]
                        },
                        {
                          "endTime" : 2476,
                          "duration" : 30,
                          "range" : [ 2446, 30]
                        },
                        {
                          "endTime" : 2638,
                          "duration" : 30,
                          "range" : [ 2608, 30]
                        },
                        {
                          "endTime" : 2956,
                          "duration" : 30,
                          "range" : [ 2926, 30]
                        },
                        {
                          "endTime" : 6402,
                          "duration" : 30,
                          "range" : [ 6372, 30]
                        }
                      ]
                    }
                  }
                ],
                "transitions" : [
                  {
                    "name" : "Fade",
                    "duration" : 30,
                    "trivial" : false,
                    "useAudioPreRoll" : true,
                    "useVisualPreRoll" : true,
                    "rightMedia" : 21
                  },
                  {
                    "name" : "Fade",
                    "duration" : 30,
                    "trivial" : false,
                    "useAudioPreRoll" : true,
                    "useVisualPreRoll" : true,
                    "leftMedia" : 21
                  }
                ]
              },
              {
                "trackIndex" : 13,
                "medias" : [
                  {
                    "id" : 58,
                    "_type" : "StitchedMedia",
                    "minMediaStart" : 0,
                    "attributes" : {
                      "ident" : "Rec 02-09-20_001",
                      "gain" : 1.0,
                      "mixToMono" : false
                    },
                    "parameters" : {
                      "volume" : {
                        "type" : "double",
                        "keyframes" : [
                          {
                            "endTime" : 0,
                            "time" : 0,
                            "value" : 1.0,
                            "duration" : 0
                          },
                          {
                            "endTime" : 14382,
                            "time" : 14382,
                            "value" : 1.0,
                            "duration" : 0
                          },
                          {
                            "endTime" : 14383,
                            "time" : 14383,
                            "value" : 0.0,
                            "duration" : 0
                          },
                          {
                            "endTime" : 14569,
                            "time" : 14569,
                            "value" : 0.0,
                            "duration" : 0
                          },
                          {
                            "endTime" : 14570,
                            "time" : 14570,
                            "value" : 1.0,
                            "duration" : 0
                          }
                        ]
                      },
                      "cursorOpacity" : 1.0,
                      "cursorScale" : 1.0
                    },
                    "medias" : [
                        {
                          "id" : 59,
                          "_type" : "AMFile",
                          "src" : 5,
                          "trackNumber" : 1,
                          "attributes" : {
                            "ident" : "Rec 02-09-20_001",
                            "sampleRate" : 44100,
                            "bitDepth" : 16,
                            "gain" : 1.0,
                            "mixToMono" : false
                          },
                            "channelNumber" : "0,1",
                          "effects" : [

                          ],
                          "start" : 0,
                          "duration" : 3760,
                          "mediaStart" : 0,
                          "mediaDuration" : 3760,
                          "scalar" : 1,
                          "metadata" : {
                            "WinSubProjectDisplayName" : "",
                            "clipSpeedAttribute" : false
                          },
                          "animationTracks" : {

                          }
                        },
                        {
                          "id" : 60,
                          "_type" : "AMFile",
                          "src" : 5,
                          "trackNumber" : 1,
                          "attributes" : {
                            "ident" : "Rec 02-09-20_001",
                            "sampleRate" : 44100,
                            "bitDepth" : 16,
                            "gain" : 1.0,
                            "mixToMono" : false
                          },
                            "channelNumber" : "0,1",
                          "effects" : [

                          ],
                          "start" : 3760,
                          "duration" : 353,
                          "mediaStart" : 3946,
                          "mediaDuration" : 353,
                          "scalar" : 1,
                          "metadata" : {
                            "WinSubProjectDisplayName" : "",
                            "clipSpeedAttribute" : false
                          },
                          "animationTracks" : {

                          }
                        },
                        {
                          "id" : 61,
                          "_type" : "AMFile",
                          "src" : 5,
                          "trackNumber" : 1,
                          "attributes" : {
                            "ident" : "Rec 02-09-20_001",
                            "sampleRate" : 44100,
                            "bitDepth" : 16,
                            "gain" : 1.0,
                            "mixToMono" : false
                          },
                            "channelNumber" : "0,1",
                          "effects" : [

                          ],
                          "start" : 4113,
                          "duration" : 107,
                          "mediaStart" : 4479,
                          "mediaDuration" : 107,
                          "scalar" : 1,
                          "metadata" : {
                            "WinSubProjectDisplayName" : "",
                            "clipSpeedAttribute" : false
                          },
                          "animationTracks" : {

                          }
                        },
                        {
                          "id" : 62,
                          "_type" : "AMFile",
                          "src" : 5,
                          "trackNumber" : 1,
                          "attributes" : {
                            "ident" : "Rec 02-09-20_001",
                            "sampleRate" : 44100,
                            "bitDepth" : 16,
                            "gain" : 1.0,
                            "mixToMono" : false
                          },
                            "channelNumber" : "0,1",
                          "effects" : [

                          ],
                          "start" : 4220,
                          "duration" : 2434,
                          "mediaStart" : 4846,
                          "mediaDuration" : 2434,
                          "scalar" : 1,
                          "metadata" : {
                            "WinSubProjectDisplayName" : "",
                            "clipSpeedAttribute" : false
                          },
                          "animationTracks" : {

                          }
                        },
                        {
                          "id" : 63,
                          "_type" : "AMFile",
                          "src" : 5,
                          "trackNumber" : 1,
                          "attributes" : {
                            "ident" : "Rec 02-09-20_001",
                            "sampleRate" : 44100,
                            "bitDepth" : 16,
                            "gain" : 1.0,
                            "mixToMono" : false
                          },
                            "channelNumber" : "0,1",
                          "effects" : [

                          ],
                          "start" : 6654,
                          "duration" : 403,
                          "mediaStart" : 7299,
                          "mediaDuration" : 403,
                          "scalar" : 1,
                          "metadata" : {
                            "WinSubProjectDisplayName" : "",
                            "clipSpeedAttribute" : false
                          },
                          "animationTracks" : {

                          }
                        },
                        {
                          "id" : 64,
                          "_type" : "AMFile",
                          "src" : 5,
                          "trackNumber" : 1,
                          "attributes" : {
                            "ident" : "Rec 02-09-20_001",
                            "sampleRate" : 44100,
                            "bitDepth" : 16,
                            "gain" : 1.0,
                            "mixToMono" : false
                          },
                            "channelNumber" : "0,1",
                          "effects" : [

                          ],
                          "start" : 7057,
                          "duration" : 2427,
                          "mediaStart" : 7741,
                          "mediaDuration" : 2427,
                          "scalar" : 1,
                          "metadata" : {
                            "WinSubProjectDisplayName" : "",
                            "clipSpeedAttribute" : false
                          },
                          "animationTracks" : {

                          }
                        },
                        {
                          "id" : 65,
                          "_type" : "AMFile",
                          "src" : 5,
                          "trackNumber" : 1,
                          "attributes" : {
                            "ident" : "Rec 02-09-20_001",
                            "sampleRate" : 44100,
                            "bitDepth" : 16,
                            "gain" : 1.0,
                            "mixToMono" : false
                          },
                            "channelNumber" : "0,1",
                          "effects" : [

                          ],
                          "start" : 9484,
                          "duration" : 385,
                          "mediaStart" : 10506,
                          "mediaDuration" : 385,
                          "scalar" : 1,
                          "metadata" : {
                            "WinSubProjectDisplayName" : "",
                            "clipSpeedAttribute" : false
                          },
                          "animationTracks" : {

                          }
                        },
                        {
                          "id" : 66,
                          "_type" : "AMFile",
                          "src" : 5,
                          "trackNumber" : 1,
                          "attributes" : {
                            "ident" : "Rec 02-09-20_001",
                            "sampleRate" : 44100,
                            "bitDepth" : 16,
                            "gain" : 1.0,
                            "mixToMono" : false
                          },
                            "channelNumber" : "0,1",
                          "effects" : [

                          ],
                          "start" : 9869,
                          "duration" : 4512,
                          "mediaStart" : 10937,
                          "mediaDuration" : 4512,
                          "scalar" : 1,
                          "metadata" : {
                            "WinSubProjectDisplayName" : "",
                            "clipSpeedAttribute" : false
                          },
                          "animationTracks" : {

                          }
                        },
                        {
                          "id" : 67,
                          "_type" : "AMFile",
                          "src" : 5,
                          "trackNumber" : 1,
                          "attributes" : {
                            "ident" : "Rec 02-09-20_001",
                            "sampleRate" : 44100,
                            "bitDepth" : 16,
                            "gain" : 1.0,
                            "mixToMono" : false
                          },
                            "channelNumber" : "0,1",
                          "effects" : [

                          ],
                          "start" : 14381,
                          "duration" : 987,
                          "mediaStart" : 15522,
                          "mediaDuration" : 987,
                          "scalar" : 1,
                          "metadata" : {
                            "WinSubProjectDisplayName" : "",
                            "clipSpeedAttribute" : false
                          },
                          "animationTracks" : {

                          }
                        },
                        {
                          "id" : 68,
                          "_type" : "AMFile",
                          "src" : 5,
                          "trackNumber" : 1,
                          "attributes" : {
                            "ident" : "Rec 02-09-20_001",
                            "sampleRate" : 44100,
                            "bitDepth" : 16,
                            "gain" : 1.0,
                            "mixToMono" : false
                          },
                            "channelNumber" : "0,1",
                          "effects" : [

                          ],
                          "start" : 15368,
                          "duration" : 737,
                          "mediaStart" : 17236,
                          "mediaDuration" : 737,
                          "scalar" : 1,
                          "metadata" : {
                            "WinSubProjectDisplayName" : "",
                            "clipSpeedAttribute" : false
                          },
                          "animationTracks" : {

                          }
                        },
                        {
                          "id" : 69,
                          "_type" : "AMFile",
                          "src" : 5,
                          "trackNumber" : 1,
                          "attributes" : {
                            "ident" : "Rec 02-09-20_001",
                            "sampleRate" : 44100,
                            "bitDepth" : 16,
                            "gain" : 1.0,
                            "mixToMono" : false
                          },
                            "channelNumber" : "0,1",
                          "effects" : [

                          ],
                          "start" : 16105,
                          "duration" : 6,
                          "mediaStart" : 18467,
                          "mediaDuration" : 6,
                          "scalar" : 1,
                          "metadata" : {
                            "WinSubProjectDisplayName" : "",
                            "clipSpeedAttribute" : false
                          },
                          "animationTracks" : {

                          }
                        },
                        {
                          "id" : 70,
                          "_type" : "AMFile",
                          "src" : 5,
                          "trackNumber" : 1,
                          "attributes" : {
                            "ident" : "Rec 02-09-20_001",
                            "sampleRate" : 44100,
                            "bitDepth" : 16,
                            "gain" : 1.0,
                            "mixToMono" : false
                          },
                            "channelNumber" : "0,1",
                          "effects" : [

                          ],
                          "start" : 16111,
                          "duration" : 301,
                          "mediaStart" : 18630,
                          "mediaDuration" : 301,
                          "scalar" : 1,
                          "metadata" : {
                            "WinSubProjectDisplayName" : "",
                            "clipSpeedAttribute" : false
                          },
                          "animationTracks" : {

                          }
                        }
                    ],
                    "effects" : [
                        {
                          "effectName" : "NoiseReduction",
                          "category" : "categoryAudioEffects",
                          "parameters" : {
                            "denoiserAmount" : 8.0,
                            "denoiserThreshold" : 0.0,
                            "noiseProfile" : "5H3oQNnWhEIPRTlBT7XIQC4gIECF565A7tXAQNG1tj82lCo/tjRrP57VRT+UkR0/d/o2Pjalij5i\r\ndpg+5HN1Pk5Xqz08UA4+eLSUPjfblD5AC8o9/gw1PckbMz1K/Y0+UFQqPibwnD4oyxo+KGAYPREU\r\nID3BZ+o8e/2oPOLGXD3Nb9Y8mKHBPA7TuzwZzOg8TsjHPN8C0jy/Zw49ofbmPM7CPjxjx/w8mbte\r\nPbXH9zy+B149Mji8PdwoAj25tTY9XRITPSP2bDyRnik9bL2SPXZPazyANpc9kQmEPZ4Ghj0MlN89\r\n66L2PbKYYz2U7kg95yEJPTlSxTsd/cI7q4EKPCMhATys9mg8r0OEO4rv0TvyNKM7mUD/O0lFtztE\r\nbGc8fxUDPV4DUj3pybI8aBJDPTgWLz2jrv07BkapPPYwojw8gss7fIaIPL6DYTyQhI08G6GSO/5u\r\nADzi4dE7ra9NPGFh1TtcUJo7W7BkOwxhEjsGzi873Z6gO65SMTv3aik71P4vOxWcdzsasXo7wxUw\r\nOyTzfzuo7UA7Eh0uOw1zOztixlA7bDEaOyUAtzplOwE7lsYjOxNOGzsWyBQ7i/g6Ow8NDDud+h87\r\nErfMOsn/JDtumTA7JArkOnHP2jrzUhg763poOil1wzq4VBE7Ff36OtfPmTq1seY61ugJO0xdBTtO\r\n1eY6jea7OgIB1Doh9KQ6yR6TOi521DrmqKQ6vKm9OguTfTrwy7k61diHOnCfqjoESYY6VDRMOlmK\r\nbzpnoI46pLE4OmWRfzpsm5c6V3iNOicTkTrV8bg6qPiQOqdKvToszZ46VdZHOr4csjrsNgo7AF/4\r\nObthlzpVUtA6fHDROkpJSjrPonw6KUmMOg36bjpkRF86GF/kOrYuejoyhJg6X7wUOt4fMTpK50U6\r\n/LOaOiHpPDrJ/XU6v6CCOnih0zpleAw6MtknOiHOXTrwULg6FKR0OukcnjqFTTo67NxzOigZRjpd\r\ntRQ6ATFLOn7RfTo6LbU5PBo7OkWgKDptii860cBUOq+hTjoF3xE6ZXuFOtZCczred9w5uIrrOcac\r\nNzodLjE6bV4gOt6UDjqv1vo5UyvLOR4rWjobyyA63JwUOtAPEjoyxnQ6d4CXORfpETqAyWY6L0xE\r\nOm7qkTnWVfk5CpE5OqaVezrwLQs60wpCOo7UsjkXPiw6WIQBOpWVizq2Md05DdUKOgk0uTma6Oo5\r\ntoW+Od6vFTrYwsI5CQ4AOv9MGTqk8405dlwcOohCgTqy4hw66nAuOkT51TlBbQM6JLLlORUsBzoS\r\nZ8c52rdQOiL3gTljCeI5ENcDOki1jDpNqMw5ZG78Obq5zjmvP5E6KY6wOcQsBzqzpb45ZgAhOugK\r\n0zkUMCI6h+TDOXSWnTn3nSE6MU/xORLtzjncXvs5oMSUOVNkvzkqtGE5iorjOcn8kjm3jg46P/qV\r\nOYA2IzrV+to5OhwBOhiKvjnPY7g54/2kOYGjsDnwe9o5m5mEOfrx7DlbKog5+pqaOYn6rjmYHqs5\r\noZCwOWIOCDrKbPQ5AqPzOfk9qzlkNkk5cJHrOV17+TldVY45YWJnOalk3zknZOk5S/EEOlFOqTnh\r\nwto5WqjKOdoJIzpwg6w5BBwsOkBMHTq8+og5xegrOYoUUTm9zgs5q9WeOTxsZjnpFE85FYuTOcrI\r\nmTlj2bg5dnbzOduAwjnI55I5KxUTOlClDzp2B3c5xyanOQ5OcjnSvk4542FgOXrCczmQfNE5r2Tn\r\nOb40yTl/ssA5elGEOdOgJjpocHE5cHyKOWSZrTmpWaM577lTOYTBvznhDM85IvksOV0UhDmrI5Q5\r\nEhSPOaEFvTnXh5c5Kta1OUbgUDlyVQU6rIK0OQydkDlHKD85YmdrOVPEhzlZylo57k+YOUfbITkC\r\nsHU58uFSOYtLEzlOhkY5EHBQOYcI2jnykUk5lg+DOTtkLjlbB385/MWEOVBveTkPq2k5RI2gOaJS\r\nljnwfcQ5RtsfOWa+jDkpLW4503i3ObxvzTkSCc05bERXOXaCljmaYhU56GKROUcFnznCxls5HMWC\r\nOewJvznEj/M5bo9bOeM9LTlMegs6/uBwOcdWLjmBpf44uP6ROSKmiTk6vyQ5B18AObgVGjlN/vQ4\r\nz8FFOTKwtjhl71o5Fg/9OP7yKDnPbOQ4FBuyOTY3ATmWJ3M52pSjOSBgHTmSKGA55Fq+OZaxfzmM\r\nHCw5AcA8OdJFYTkzCE05a8I0OdrBqjl+u6U52awuOWSWIzlCu4g5EyeEObJCijmSpF05bKx7OVox\r\nMTnMB585rnEeOUz9rzg9iDk5dAj0OB41VDlwYcs5JOU/OV24KTnLeLY5ll0/OU4fMjlTMjQ5Fw9R\r\nOVEWMTniq3k5/pqwOGOxLTmihIo5eHGGOWdxUTkcA/44cpokOYEvTjmk/zE5DCpFOfyEuznUFVM5\r\nphTyOEvp9DnGzaE5sumtOBO1uTj/Oj85AErHOGwV9TjslTI5X1QeOS0RSjk+RDc5PssaOQQ13zl4\r\nzSM52FtxOcSgEDnjbNk49lc5OS8CIDkEscs4YPKyOeGNJzmo8gA5TkFFOa594DlmS5E5dzcsOTW8\r\nJzkrCzQ5QYYpOdGuHTl4nGY5XmgiOYJIJzl2EmI5HO0UOf9JUzlC+jc5YwwYOcxLDjnknxo5/YMc\r\nOZ0USzmZNGg5BV48OZYbwjnbpw05xbs7ObbkQDmJq105PG1TOZiN1jjawXA5QPMJOVCLOzlA/G45\r\nt++BOXX6sDixq9s5fbTROJwA3TgRzwo5TLsaOeSu7Dhxvoc5gKQVOXhNhTlfvvA4/hc2OUz5jjla\r\nf2Q5Uq68OM66dDmUs+E4PH9ROffYezlvRHk5LgvYOLoWYTl6JSo5zg2XOJJhGzlVkR85GhUzOeKe\r\n6DlLcHc5sllrOetNBTn8id04gL3kOFIeLjkf0Ig5RkPgOEjrSzllVCk5if48OZiZNzmCG/84mvIf\r\nOdVJyThppuE4LsqFOSBYCzk0Glo5tKQeOcbxxzhf4EM5EM7POHNDQzkjX8k4HMEBOTr1ujjmcuk4\r\noHzgOMeLGDkwmeQ4ukcXOfAQCTlTVAg5uQqpOB9fwTlTE3g5KWNtOUHWkzjVsfM4kKwyORbnDDkt\r\nEQs5pv8UOVO+Gzl7Hxw5ZfOkOAT2qDmnacQ4xKcJOWjXIzkeecc5KonyOCbYtjgUAus4wLgSOeTl\r\nGznzzzY5hM57OOZjGDk4MIM5V2oqOXnf+zjSU0E5/uSTOFLFwTgO2rM4KPczOTpuSjmxF005ZWDE\r\nOJy+GTk4fP84bNQEObUsEzljkio5A03/OKNEJTnNEhQ5emFAOUzjIzlQAwI5gmThOH57DjnnbNE4\r\nr1IEOTrWvjgqvMY4EDTAOLzSNzn+F1s5bgkXOWXOtjjUcbk4DD7VONCDCzkkT8o4SMNJOXGuMzn/\r\neI85xdMXOQKe/DgWJZw4ZGWVOCayUzmicBE5uGzFOLKGATlrIQU5jFSlOGaCljgOcJw5ZiJNOeIw\r\n/DjgZp04ey2xOMW+/zjrwgw5RzgFOccRATkFbHw54EcjOT0cxTiS4vE4R9kgOZI1BzkZ9185jmUG\r\nOddbsjim3hQ5MC73OAqzADm2crw4GoSnOJFVzThhURQ5uOzAOBMRBTnAu8Q4JknuOHZXFTl+Gi85\r\n9RCaOPsYzDj/l6A4Ms+7ONwI4DghIdI47x3DOIyMCTnF9p04GR22OOjsizjuGys5uCj1OOHHlzlU\r\nq3M4Rq4nOdf3czjaECo5LraMOC5gnTjceKA4xhyNOGjimjgqU5I4sWeaOPBllzhFBHU4XSuOOGqe\r\nhDgXu5o4OeB9OJkOlDjctLQ40aaEOKn+hDiK3Is4JoqFOFMejTgiAoI4YQuJOFjmjThkv4o4NP6P\r\nOGaKijg7HJ84UN2DOCo4gDhcZI04Nf6NOEELjTgAMYo4UBaBOLwOgDjaIng45U57OHg4ijiSsnc4\r\nQDqGOFmmhzhL+IY4oYSEOB3MhDg0Wn44ihiMOFtmlDiCcpU4OiFdOJcKhDjU74M4IqCNOIvOhjg7\r\nyYU4LhSRONTJlTiZx344iCKBOB2NhzhGsoM4s8RnOIGNkzggTYQ4SQqAOE46YTgzbZY4po6AOM70\r\nfzg814A4bjdrOEoAizglDoc4md5vOOVCbjjeGXQ4OaOKOOHWmTi6xHg48uh8OMhxiThr1oo4F2F3\r\nOONkbjjdwnI4bBh9OGbDfDizQIY4qKFmOGX4cjhhfn44XuWIOMUTdzjLiII4bQaXOEYBZjiyKG84\r\n7strOEwejjjODoQ4DoZ3ONXafjh9Y144K5B1OGVJbzi0/m44ol1wOAc7fTjr54c4jvxyOCscdDj8\r\nZ2I4ti16OOkZYzjk2Go4R69kOOudYDiGomo4Fb58ON/+hDiu8lw4kOtpOCptajj8Slk4RW51OHlx\r\nYjjIdYE42iFdOFRQXTgExm841714OFgkcTjM/Hg4Og9sOGoygDivr4E4soyDOD6UdThiHGw4bldw\r\nOIb5aDgSjWs4N5BOOHRCajj1O4E4BPdTOBUMYDj/SYc4XkN7OI+ihzjJ3G44dUNcONIAbjiMN2c4\r\nKk1oOD4ofDjuO2U4N9pfOPROWDjSmlw4LvRwOO50cDhCZ2U47PxwOFaHTjj4Y3c4LLN2OJMlcDgm\r\nToI4Ted5ONjYeDh9xVs4euFxOGf0ezhf90k4rq9oOA5ncjhaLnQ4WH9lOHY+dDi8zHY4OuNiOC1c\r\nYziWpm041X5lOFo3gDgJhlM4/opkOLJlcDiERWU4ep1MONlLYTguwkw4T3dROH+RUjguD144riNS\r\nOMnpVzjdh0M4uEtqOLEfYTgMHFc4E76MOIu3VjjCrGI4y8hoOAQziDgudnE4cstnONG2Yzhj2Ho4\r\nfWxTOLIVazgzbmg49mReOJPKSDhOWGk4sjVSOAbmcjh1dmM48T5UOObSYDjX0Ws4bjFdOCNtejjy\r\ndlo4IxBQOA1BSjgJ90g4zHFlOLJoUzhxAIA4XV5VOG6FUzhxeTk4nwpjON30aTgurXk4RGpzOFY8\r\naTjkeEU4JKdQOBK1UzgIGX44a/d5OFjFSDjg3jo4tlhIOB4XTzgwZGE4a75ZOKIWZThF2Wk4PS5s\r\nODbPQjjFGz04pd51OIQdRjjQUWA4u/BVOM4RWTjhRIE4hxFcOLKhPzifYVY4bz9SOJTCQjjLzG84\r\nuBBNOMTseTgbslM4HMtxOPEoQTioymQ4O0xUOD8ObTit9Fs4Rb5gOO2obzgLOXk4cVlnONOiUTgi\r\nrkk4fIl2ODGMRjgIlno4d1JPONKNXDjWQD047XtIOB76Zzhwi0w4u+BcOBMVZDiYLl84mSdOOG6k\r\naDiPCmA4UKhaONyORziLYGA4KhpYOFi5fTixCHg4h8pZOMwzXzhgbUw47+s7OLHTajjmqlk4ff9h\r\nOG1MiDi/eF04IL1JOAlrTDgBNWo4HZ1pOOeIWzhIImo426xvOI2+VThJdF44fxpKOABBQjhJZOhA\r\nyNqEQqBKOUH7vshAHgwgQNPorkA62sBAUaG2PzCuKj9uD2s/x+JFP4qlHT/zPzY+qsSKPnMtmD41\r\nRnU+ZDutPff3DT6zTpo+IieZPg29zT3eVDM9zd4yPcZxjT5eby4+XWSfPogLID5PwxU9ppYhPenw\r\n5zwz0qc8DCVcPTIk1TxbQsY8pIC/PFYU6TworMc8fOPQPFOODj1Qcuc8YNdAPDqB/zx6N149/G/4\r\nPJM0XT2wWb09vagDPWznNj2Y/BI9KeZiPMBjLj0u/5I9rtNrPNR6lz3kYoQ9S2WKPcR85D0MWfg9\r\nke9gPW48Sz2T0Q09eiPGO7xZvzulNQo8B0v/O4DYaTx+a4Q7ebXJO3BZnjugDgE8mAK6O9MAZjxw\r\n/AQ92MpWPWg3sjzfU0Q9Ybg2PfNc+zsD+608Oi+ePB4Szzt5B4k856RlPBJ9jzzIB5M7OrEKPBFY\r\nzTuvzE088KbZO46wmTvkH2E7CWUUO6NROTv+5aM7YmwtO4EGKjt8gUE71ttwO5rchTsj4yw7pDSO\r\nO0lZRTs/EkE7Q2U2OyCrUzva6Rc79EfCOg/I8zrntys7/lkXO83tDTudIDI7asEKOyv2DTu2V9w6\r\nDPopOxbIQTsofOw6WT/aOr4kITvlemI6tL3GOgIWHTuDUvg6z8yZOu2S5Dru2wM7jMwEO3Wi+DrG\r\nysE6sWzMOkGawDpdKYg6RQzDOr7bqTqb7bQ6nC9gOuDmrzo2s5I6LWuqOhMrhTp+h146+9hvOnPA\r\njzrd/006UGaAOo+dpjrARJU61heEOocVpjpxJ506qzbDOstHnjrPNyw6uh2rOjIHEzs/fvg5jTSC\r\nOpq10DroTdU6TFNjOjUegzoc8I86bQpQOqqRNTpwg+w6qUWEOiGikjpEBys6T3Q6Oo8ISjqgzJc6\r\nIjc+OtZ0cToBwW06TQbLOmMSDTrXoys6PGBwOo7Zqzo2rXQ6/negOvzFOzrGxGo6IFmAOh/hKjrj\r\no1s6JM1vOmGp2zmw2DE6MScsOk5TSzo1+HU6KK95OnKxMzopPpM6T91ZOoXw9Dnvbd05MEBBOqq2\r\nMTphOTQ6y64dOui4+zlhRtc5MZtaOn/sHjr9VQQ6Bm4ROpB2ejq0P5s59icmOvA3XjqIKlQ6J+e2\r\nOVUfGToEjj86csZ8OlVkBzodzVI62vy0OTcRSjqTLBU6ufiQOpz1ujlOnxo6GiKWOdDIwDlTTvA5\r\nkicdOsPqpDlmdxI6imgeOjM4ozk/oBk632qCOlrzHTqSYSk6RXDpOQwz7zkY8Q06rWoLOsIbqzlY\r\nJUE6IblwOUhN6jkYpww6ZBSKOno00DmQ1uk5QlKzOZyOkDoPb5s5ZsH+OZ4yvTk0IEc62zrnOZa5\r\nKzrtRq05rCrCOab7DDo3IfA5HsHtOfwM0DmQtZM55EOxOeBmQzlild85DgGIOXGyLToCq4I5vmgW\r\nOheCyzmaHes5s4rPOVQ8pzk/lJ45Q/qxOaLvAjr6cJQ5cg3oOUGTjzkSVZQ5jveTOeCorjnlTds5\r\nOnz1OXTz6TnhWcs5yFCwOcf6VjnAAdQ525T6OWjosTkt1mI5I3EEOu6F7Tm8CNQ5NxOrOVEDDDqi\r\n7cw5GRgfOlWTnTn2ZhA6S8sLOiXXlzkZ/Eg5VCdVOSYwGzmqp7M5RS+KOcBhfTncdpY5mmCgOWud\r\npzkUitM5w6WpORC0gjlymBo6O8kOOidBUjlUspc5fHB2OSwZbTkbrDs5BPiOOVtGwjlsWug5iHGm\r\nOd0p6zlpIoI5ocsqOvs5iDm8Z5I5CPmtOX2AxTkTLXU5ELK3OYELvDmaflc5gduSOebLgTmDPoo5\r\nB6yoOVlOoDkGiMg5D/+GOdPgADqam6Q5MaOKOaiKZjmC0i85OTeUOQHGgzmEYqM5rRJIOUvQQDkZ\r\nE4U5HFckOaZOZDn/9os5n1/ZOeCeDDmHMZI5r+0uORkojTl6vGU5qU9wOSE/NTkgTWE53c6JOYN8\r\nyzl6Dxc5AT2gOfR5gTlnnrg5SI2zOUzS2zm48mM535iwORLqLzlrBoo5Bve9ORQLkDme9mc5O7TA\r\nOf8o/jl84XE5sq8dOd57Djo4dXY5lhs5OWbYGTmyfFQ5LBaJOeDVDTmxQig53HclOfgJ4jjiHxY5\r\nQTnEOO2KajkYNf443lFEOUhJEDk1edI5RXIyOUQhhzlg6Zk5K/MvOeA1IzmUkpQ5ghdSOSX1Izm/\r\nbDk5Qt49OS4DUjlG5zs5Re3GOVIytTmORz45Xs8YOfitdjme9sI5WgCROf0CaTm5sIY58iokObAs\r\ngTle/zU5B+3OOF0uKzn0MNo42CE7OXo0xTmSQjA5eUgoOW8JtzmFrE05M/UxOSzSQzkcrio5XZM8\r\nOaaQjTlqucA49bA9OQOuczmO5Z05MY6GOYjMMjkvOhU5uRkkOcUSFTmkJFc53VfOOZZRYzkHks84\r\n4L7iOVFjtTlpb8Y4hi8UOb3iJDkGod848CExOf5jEzneBwA5I7MwOXR1PjlL8T05nPPWOanCPDks\r\nWXU54FsiOTcX2ji6p0E5OuwXOcYq+zgGBKA57h04OaMd0TgC+CQ5PnTSOVRSeTm8GSw5wnIhOeDE\r\nMzkqhTI5nn8cOdK7ZjnFOhs55Xs8ObKaZDkAfBg5HP5WOYSJMDnPDSY5vv0TOR7PETnpbhs5IDBi\r\nObp2ZTm6YjU5SRvBOZulDzkV+TY5sAU2OQqoXjnSNVw5jEXfOBKwdzklRBE5zABMOaB0gDmqqH05\r\nkaavOJSY1jklKtQ4l7njOEWtBjmRFCQ54EbeODECiTlCYCs5ul6AOW350jijjio5MN2POZwZdjnc\r\nKcM4tDZwObqy2TgCmFM5oKl1Ob33dDnMx+o4y6hiOYXNITkNzJY4h5EKORseGzmAFjE5VFvpOX2e\r\nbjnGel852s0SObQZ2jg+D+I4+opFOVJIhjlGU9M4MYRWOVkYHTnMQTU5qSA/Oan/5zhwxSc5KR3C\r\nOL346Di2AYQ51uIDOXCsXzlo+xY5IxndODxpPTmuCNk4VFI+OQhVtzg7zeo4yPHNOGZG5Thob9g4\r\nYuwtOaoD4zi7uAw5P2wYOdfHBjnpyJw4Vl6pOcyNXzmuIWw55uyROILT5TjnIzk5OdUqOXRPDDnS\r\njh85XekmOe5gGzmrFJ44u5ehOTDS1jhZORA5z8onOc4rwDlTcvA4/Oa8OGhj7TgcLBo5DTYUOUS1\r\nQDkYPIg47iwYOTd5hjkcXCY5EQX1OObjPznKMIg4LIyzOMawxzikBzU5Xb07OXxwVTmP48E4Zw0Y\r\nOX8L8TjOowA5Kl8GOR6FIjloOxQ5k6M4Oc1XJTnQiVE5wYkiOV4wBzlvNPk4I0ANOe/v4zio+Ac5\r\nv7/UOJbazzgqNsg4xWI1OZqmXDnqTRo521+wOCRbxjjz4ds4VFoROYy30DieTkg5vOg4OQY4kzle\r\naxI5/cz5OHHpozgj1Js4K41TOfmEFDm+O9c4ZxEGOSWHEzmL/Zc4cXSUONSTlznptEA5fKr/OM8i\r\nrDhwMaw42lIAOZIg/ThuKAI5FBIMORKmgjlcMis5ULmyOAwT6zi12xQ5bE0AObqtUDkACQM5NJbG\r\nOLOo7DiYDPU4opX3OMYL0zhRJ7I4p63SOFzlCzkon7w4aiHtOJH2xjhc7O04u+ETOURsPzkBvJY4\r\n+Ra5OD5vozjfLLo4jeLXOH4Q2jjQ/NI4W7ACOcm7mDjXDbE4IvShOGzLKTnLiuM4AJSYOd5bdzhL\r\nLx05hkhkOG9HGzmzaZE4vf+nOBvzmzgcVZ04jueROHZTiTiCNZc4MOehOE/RjTh516U477ecODSc\r\neThnpJM4kMaZOMDRjjjCe3Q42el3OHxfkTjLKIk4JeSZOBj9kTgMfXs4TGKHOBM0jTjGz5M4uRmL\r\nOMoKizgmaYo40LuOOBPihjjulos4xXGEOIXpjDgCpIk4fEeDOAXQcjj/+YI42kCSOC6zhDgBWXo4\r\ncw94OJh3hzjAHYI4MKqWODFjZzhtVZ04TJeKOHEfeTiRn4A4gr2OOJh3kThSgoY4wcd4OL6RdDgy\r\nHI84/MVwOC5rkDiN0304Zh6DOKeemTiNFoU4fv5nOGLBbjj+LYM4x5VNOJUufDjBFnI4nc+SOM78\r\nbTiDrnA4A39sOMtkgDjNZ2k4gD+HOKvGdDglx44492p3OHZ8cDjjg404UmNqOF2UYziiH444f8F9\r\nOObzdTh2SnE4j2CIOOAzjjieuIk4DodxONspczi+9Ho4IPWIOGSxdTgtSnw46nmPOCcyjjgIcI44\r\n/XSGOAptZTj/JnY4BEtPOMttaDj0In44MvpyOCffjDiv0IQ4vJWMOInMYDjJqFo4FbqCOBU/eTi7\r\n1H44fI9wOPlmfTga9344RzVtOK2DYzh3alw4lUtpOL6WhDiiAno4gl5dOIEbdTh7+4Q42fSPOEZa\r\nYTiMAXo4ALlnOCN0aTiG13M4jKZfOFBwgzj4LGM4GKyHOFoiVjjqLnw4FxhrOMgJRTjV3m44BEJY\r\nOKp0Zzjf03I4TPBbON9LVjhGJFw4AfqAOHOPhDgfAmw4IgyCOOspejhHbTI4JxmAOPdbazjMkHw4\r\n8pZtOPRrXzj2J044AqyCOHHUbTioOT44UtJrOKwpbDhhbXs4xGpXOKh2VDiKd4A48jt+OCVEdDhz\r\n63M432VSOCj0ZDj4b2A4sK12OPjvajj8jmg4mCNUOAJOQzhfhFM4bgxlOCUzYzjK+HQ4TzKBONY3\r\nfDgcFGI48OJYOE73ZTiWxk44CDRLOCTNXziImG04i7dYOAh2czhjYnU4MEA/OLoFgTiQclw4OmZP\r\nONxzUzht4mA46gBeOET+WTgNmFo4q6hhOBekaTgdAoA47MlCONUtXDgyVmA4reZlOJKIXjjZkDw4\r\nY2s7ONaMVTjA1VA4JYFWOAvvRDh+RmY41jpZOChBbDjFVmA4oTNfOAd8aTiS5FY4GNVOOMhzVjgI\r\nmFM4Q8JsOOUQgTi7yVA46oRWOHdNVTga8E04Jl1cOGktdDjYC4U4Y+dDOGcKWzgLkXQ4dx5aOMZW\r\ncThNMG44gSBmOH31Xjj7tGc42UdiOH3YXjg8wGM4RwtTOLgtXzg08oc4+ElZOCNygDjd/Fo4pMxO\r\nOLU1fzgK5mI4e/hiONL0Xjg8x3Q4zjVmOMhCWziayHk4j+VOOOHaUDiAN2Q45ANqOPIFWDiWHXE4\r\nxvtfOG8yUjhh7lI4eGhKOFZSZji56mM47rtiOJScMjhI4U84Yd1POOrlRDgpblg4VjNJOFt2YTh6\r\ni0844WFaOK53Ojj3PGo4ZlRoOECmdTjo90w4fWpBODwHWTgxp184D4ViOLTNhDgo5lc4PGNIOLSU\r\nZji400k4uVpFOC9UajgeYmk4EH5LOKknVTjRLGU4sFhQOFx+Njh+G1k48WxbOI8qbzjQElk4vytz\r\nOI9uVDiiiFw4w1NROJkWPjgAwFc4VOlVOMqsVTiFeXU4lzldODBHbDiQz3w4ABl2OA==",
                            "noiseTrainingType" : "default"
                          }
                        }
                    ],
                    "start" : 0,
                    "duration" : 16412,
                    "mediaStart" : 0,
                    "mediaDuration" : 16412,
                    "scalar" : 1,
                    "metadata" : {
                      "WinSubProjectDisplayName" : "",
                      "clipSpeedAttribute" : false
                    },
                    "animationTracks" : {

                    }
                  }
                ]
              },
              {
                "trackIndex" : 14,
                "medias" : [
                  {
                    "id" : 71,
                    "_type" : "IMFile",
                    "src" : 6,
                    "trackNumber" : 0,
                    "trimStartSum" : 0,
                    "attributes" : {
                      "ident" : "Slide1"
                    },
                    "effects" : [

                    ],
                    "start" : 150,
                    "duration" : 1275,
                    "mediaStart" : 0,
                    "mediaDuration" : 1,
                    "scalar" : 1,
                    "metadata" : {
                      "WinSubProjectDisplayName" : "",
                      "clipSpeedAttribute" : false
                    },
                    "animationTracks" : {

                    }
                  }
                ],
                "transitions" : [
                  {
                    "name" : "Fade",
                    "duration" : 30,
                    "trivial" : false,
                    "useAudioPreRoll" : true,
                    "useVisualPreRoll" : true,
                    "rightMedia" : 71
                  },
                  {
                    "name" : "Fade",
                    "duration" : 30,
                    "trivial" : false,
                    "useAudioPreRoll" : true,
                    "useVisualPreRoll" : true,
                    "leftMedia" : 71
                  }
                ]
              },
              {
                "trackIndex" : 15,
                "medias" : [
                ]
              }
            ]
          }
        }
      ]
    },
    "trackAttributes" : [
      {
        "ident" : "",
        "audioMuted" : false,
        "videoHidden" : false,
        "magnetic" : false,
        "metadata" : {
          "IsLocked" : "False",
          "WinTrackHeight" : "108.923076923077",
          "trackHeight" : "86"
        }
      },
      {
        "ident" : "",
        "audioMuted" : false,
        "videoHidden" : false,
        "magnetic" : false,
        "metadata" : {
          "IsLocked" : "False",
          "WinTrackHeight" : "108.923076923077",
          "trackHeight" : "40"
        }
      },
      {
        "ident" : "",
        "audioMuted" : false,
        "videoHidden" : false,
        "magnetic" : false,
        "metadata" : {
          "IsLocked" : "False",
          "WinTrackHeight" : "108.923076923077",
          "trackHeight" : "40"
        }
      },
      {
        "ident" : "",
        "audioMuted" : false,
        "videoHidden" : false,
        "magnetic" : false,
        "metadata" : {
          "IsLocked" : "False",
          "WinTrackHeight" : "108.923076923077",
          "trackHeight" : "102"
        }
      },
      {
        "ident" : "",
        "audioMuted" : false,
        "videoHidden" : false,
        "magnetic" : false,
        "metadata" : {
          "IsLocked" : "False",
          "WinTrackHeight" : "108.923076923077",
          "trackHeight" : "150"
        }
      },
      {
        "ident" : "",
        "audioMuted" : false,
        "videoHidden" : false,
        "magnetic" : false,
        "metadata" : {
          "IsLocked" : "False",
          "WinTrackHeight" : "108.923076923077",
          "trackHeight" : "150"
        }
      },
      {
        "ident" : "",
        "audioMuted" : false,
        "videoHidden" : false,
        "magnetic" : false,
        "metadata" : {
          "IsLocked" : "False",
          "WinTrackHeight" : "108.923076923077",
          "trackHeight" : "102"
        }
      },
      {
        "ident" : "",
        "audioMuted" : false,
        "videoHidden" : false,
        "magnetic" : false,
        "metadata" : {
          "IsLocked" : "False",
          "WinTrackHeight" : "108.923076923077",
          "trackHeight" : "54"
        }
      },
      {
        "ident" : "",
        "audioMuted" : false,
        "videoHidden" : false,
        "magnetic" : false,
        "metadata" : {
          "IsLocked" : "False",
          "WinTrackHeight" : "108.923076923077",
          "trackHeight" : "86"
        }
      },
      {
        "ident" : "",
        "audioMuted" : false,
        "videoHidden" : false,
        "magnetic" : false,
        "metadata" : {
          "IsLocked" : "False",
          "WinTrackHeight" : "108.923076923077",
          "trackHeight" : "86"
        }
      },
      {
        "ident" : "",
        "audioMuted" : false,
        "videoHidden" : false,
        "magnetic" : false,
        "metadata" : {
          "IsLocked" : "False",
          "WinTrackHeight" : "108.923076923077"
        }
      },
      {
        "ident" : "",
        "audioMuted" : false,
        "videoHidden" : false,
        "magnetic" : false,
        "metadata" : {
          "IsLocked" : "False",
          "WinTrackHeight" : "108.923076923077"
        }
      },
      {
        "ident" : "",
        "audioMuted" : false,
        "videoHidden" : false,
        "magnetic" : false,
        "metadata" : {
          "IsLocked" : "False",
          "WinTrackHeight" : "108.923076923077"
        }
      },
      {
        "ident" : "",
        "audioMuted" : false,
        "videoHidden" : false,
        "magnetic" : false,
        "metadata" : {
          "IsLocked" : "False",
          "WinTrackHeight" : "108.923076923077"
        }
      },
      {
        "ident" : "",
        "audioMuted" : false,
        "videoHidden" : false,
        "magnetic" : false,
        "metadata" : {
          "IsLocked" : "False",
          "WinTrackHeight" : "108.923076923077"
        }
      },
      {
        "ident" : "",
        "audioMuted" : false,
        "videoHidden" : false,
        "magnetic" : false,
        "metadata" : {
          "IsLocked" : "False",
          "WinTrackHeight" : "108.923076923077"
        }
      }
    ],
    "captionAttributes" : {
      "enabled" : true,
      "fontName" : "Arial",
      "fontSize" : 32,
      "backgroundColor" : [ 0, 0, 0, 127],
      "foregroundColor" : [ 255, 255, 255, 255],
      "lang" : "en",
      "alignment" : 0,
      "defaultFontSize" : true,
      "opacity" : 0.5,
      "backgroundEnabled" : true,
      "backgroundOnlyAroundText" : true
    },
    "backgroundColor" : [ 0, 0, 0, 255]
  },
  "metadata" : {
    "AutoSaveFile" : "C:\\Users\\profj\\AppData\\Local\\TechSmith\\Camtasia Studio\\19.0\\Auto-Saves\\0204VariablesDataTypesPart26edc4732.autosave.tscproj",
    "CanvasZoom" : 75,
    "Date" : "2020-01-27 11:33:13 PM",
    "Fit" : 0,
    "IsAutoSave" : "0",
    "Language" : "ENU",
    "ProfileName" : "MP4 only (up to 720p)",
    "ProjectDimensionsChanged" : "0",
    "Title" : "CamtasiaTemplateWindows",
    "audioNarrationNotes" : "",
    "calloutStyle" : "All",
    "canvasDetached" : "False",
    "canvasPositionHeight" : "0",
    "canvasPositionLeft" : "0",
    "canvasPositionTop" : "0",
    "canvasPositionWidth" : "0",
    "firstMedia" : true
  },
  "audioPlaybackRate" : 44100
,
  "themeFile" : null

}
