{
  "title" : "",
  "description" : "",
  "author" : "",
  "targetLoudness" : -18.0,
  "shouldApplyLoudnessNormalization" : false,
  "videoPlaybackRate" : 30,
  "audioPlaybackRate" : 44100,
  "width" : 1280.0,
  "height" : 720.0,
  "version" : "3.0",
  "editRate" : 30,
  "authoringClientName" :  {
    "name" : "Camtasia",
    "platform" : "Windows",
    "version" : "19.0"
  },
  "sourceBin" : [
    {
      "id" : 1,
      "src" : "D:\\Data Files\\Udemy\\Instructor\\Codestars\\Course-Prep-Splash\\Camtasia9TemplateWindows\\codestars_logo.png",
      "rect" : [0, 0, 1061, 168],
      "lastMod" : "20200128T043621",
      "sourceTracks" : [
        {
          "range" : [0, 1],
          "type" : 1,
          "editRate" : 10000000,
          "trackRect" : [0, 0, 1061, 168],
          "sampleRate" : 0,
          "bitDepth" : 32,
          "numChannels" : 0,
          "integratedLUFS" : 100.0,
          "peakLevel" : -1.0,
          "metaData" : ""
        }
      ]
    },
    {
      "id" : 2,
      "src" : "D:\\Data Files\\Udemy\\Instructor\\Codestars\\Course-Prep-Splash\\Camtasia9TemplateWindows\\star.png",
      "rect" : [0, 0, 199, 206],
      "lastMod" : "20200128T043621",
      "sourceTracks" : [
        {
          "range" : [0, 1],
          "type" : 1,
          "editRate" : 10000000,
          "trackRect" : [0, 0, 199, 206],
          "sampleRate" : 0,
          "bitDepth" : 32,
          "numChannels" : 0,
          "integratedLUFS" : 100.0,
          "peakLevel" : -1.0,
          "metaData" : ""
        }
      ]
    },
    {
      "id" : 3,
      "src" : "D:\\Data Files\\Udemy\\Instructor\\Codestars\\Course-Prep-Splash\\Camtasia-JPB-CPP\\Splash_Android.png",
      "rect" : [0, 0, 1920, 1080],
      "lastMod" : "20200201T225340",
      "sourceTracks" : [
        {
          "range" : [0, 1],
          "type" : 1,
          "editRate" : 10000000,
          "trackRect" : [0, 0, 1920, 1080],
          "sampleRate" : 0,
          "bitDepth" : 32,
          "numChannels" : 0,
          "integratedLUFS" : 100.0,
          "peakLevel" : -1.0,
          "metaData" : ""
        }
      ]
    },
    {
      "id" : 4,
      "src" : "C:\\Users\\profj\\Desktop\\Udemy\\Codestars\\CPP\\videos\\Course-Prep-Splash\\JPB-Images\\PNG\\Head.png",
      "rect" : [0, 0, 721, 1024],
      "lastMod" : "20200203T062252",
      "sourceTracks" : [
        {
          "range" : [0, 1],
          "type" : 1,
          "editRate" : 10000000,
          "trackRect" : [0, 0, 721, 1024],
          "sampleRate" : 0,
          "bitDepth" : 32,
          "numChannels" : 0,
          "integratedLUFS" : 100.0,
          "peakLevel" : -1.0,
          "metaData" : ""
        }
      ]
    },
    {
      "id" : 5,
      "src" : "C:\\Users\\profj\\Documents\\Camtasia\\Rec 02-09-20_008.trec",
      "rect" : [0, 0, 1920, 1080],
      "lastMod" : "20200209T212440",
      "sourceTracks" : [
        {
          "range" : [0, 13529],
          "type" : 0,
          "editRate" : 30,
          "trackRect" : [0, 0, 1920, 1080],
          "sampleRate" : 29,
          "bitDepth" : 0,
          "numChannels" : 0,
          "integratedLUFS" : 100.0,
          "peakLevel" : -1.0,
          "metaData" : "Rec 02-09-20_008.trec;"
        },
        {
          "range" : [0, 19890176],
          "type" : 2,
          "editRate" : 44100,
          "trackRect" : [0, 0, 0, 0],
          "sampleRate" : 44100,
          "bitDepth" : 16,
          "numChannels" : 2,
          "integratedLUFS" : -23.0779181675129,
          "peakLevel" : 1.0,
          "metaData" : ""
        },
        {
          "range" : [0, 19889152],
          "type" : 2,
          "editRate" : 44100,
          "trackRect" : [0, 0, 0, 0],
          "sampleRate" : 44100,
          "bitDepth" : 16,
          "numChannels" : 2,
          "integratedLUFS" : 0.0,
          "peakLevel" : 0.0,
          "metaData" : ""
        }
      ]
    },
    {
      "id" : 6,
      "src" : "C:\\Users\\profj\\Desktop\\Udemy\\Codestars\\CPP\\videos\\section2\\_intro-bulletpoints\\s2-lec6-comments\\Slide1.PNG",
      "rect" : [0, 0, 1280, 720],
      "lastMod" : "20200226T222306",
      "sourceTracks" : [
        {
          "range" : [0, 1],
          "type" : 1,
          "editRate" : 10000000,
          "trackRect" : [0, 0, 1280, 720],
          "sampleRate" : 0,
          "bitDepth" : 24,
          "numChannels" : 0,
          "integratedLUFS" : 100.0,
          "peakLevel" : -1.0,
          "metaData" : ""
        }
      ]
    }
  ],
  "timeline" : {
    "id" : 7,
    "sceneTrack" : {
      "scenes" : [
        {
          "duration" : 417.666666666667,
          "title" : "",
          "type" : "",
          "csml" : {
            "tracks" : [
              {
                "trackIndex" : 0,
                "medias" : [
                  {
                    "id" : 8,
                    "_type" : "IMFile",
                    "src" : 3,
                    "trackNumber" : 0,
                    "trimStartSum" : 0,
                    "attributes" : {
                      "ident" : "Splash_Android"
                    },
                    "parameters" : {
                      "translation0" : 0.00456702366917246,
                      "translation1" : -0.00256895081391425,
                      "scale0" : 0.666671423982989,
                      "scale1" : 0.666671423982989
                    },
                    "effects" : [

                    ],
                    "start" : 12380,
                    "duration" : 150,
                    "mediaStart" : 0,
                    "mediaDuration" : 1,
                    "scalar" : 1,
                    "metadata" : {
                      "WinSubProjectDisplayName" : "",
                      "clipSpeedAttribute" : false,
                      "default-scale" : "0.666667",
                      "effectApplied" : "none"
                    },
                    "animationTracks" : {

                    }
                  }
                ],
                "transitions" : [
                  {
                    "name" : "Fade",
                    "duration" : 30,
                    "trivial" : true,
                    "useAudioPreRoll" : false,
                    "useVisualPreRoll" : true,
                    "rightMedia" : 8
                  },
                  {
                    "name" : "Fade",
                    "duration" : 30,
                    "trivial" : true,
                    "useAudioPreRoll" : false,
                    "useVisualPreRoll" : true,
                    "leftMedia" : 8
                  }
                ]
              },
              {
                "trackIndex" : 1,
                "medias" : [
                  {
                    "id" : 9,
                    "_type" : "IMFile",
                    "src" : 2,
                    "trackNumber" : 0,
                    "trimStartSum" : 0,
                    "attributes" : {
                      "ident" : "star"
                    },
                    "parameters" : {
                      "translation0" : {
                        "type" : "double",
                        "defaultValue" : -522.733906099372,
                        "interp" : "linr"
                      },
                      "translation1" : {
                        "type" : "double",
                        "defaultValue" : -277.438113851611,
                        "interp" : "linr"
                      },
                      "translation2" : {
                        "type" : "double",
                        "defaultValue" : 0.0,
                        "interp" : "linr"
                      },
                      "rotation0" : {
                        "type" : "double",
                        "defaultValue" : 0.0,
                        "interp" : "linr"
                      },
                      "rotation1" : {
                        "type" : "double",
                        "defaultValue" : 0.0,
                        "interp" : "linr"
                      },
                      "rotation2" : {
                        "type" : "double",
                        "defaultValue" : 0.0,
                        "interp" : "linr"
                      },
                      "shear0" : {
                        "type" : "double",
                        "defaultValue" : 0.0,
                        "interp" : "linr"
                      },
                      "shear1" : {
                        "type" : "double",
                        "defaultValue" : 0.0,
                        "interp" : "linr"
                      },
                      "shear2" : {
                        "type" : "double",
                        "defaultValue" : 0.0,
                        "interp" : "linr"
                      },
                      "scale0" : {
                        "type" : "double",
                        "defaultValue" : 0.344059357782636,
                        "interp" : "linr"
                      },
                      "scale1" : {
                        "type" : "double",
                        "defaultValue" : 0.344059357782636,
                        "interp" : "linr"
                      },
                      "scale2" : {
                        "type" : "double",
                        "defaultValue" : 1.0,
                        "interp" : "linr"
                      },
                      "anchor0" : {
                        "type" : "double",
                        "defaultValue" : 0.0,
                        "interp" : "linr"
                      },
                      "anchor1" : {
                        "type" : "double",
                        "defaultValue" : 0.0,
                        "interp" : "linr"
                      },
                      "anchor2" : {
                        "type" : "double",
                        "defaultValue" : 0.0,
                        "interp" : "linr"
                      },
                      "opacity" : {
                        "type" : "double",
                        "defaultValue" : 1.0,
                        "keyframes" : [
                          {
                            "endTime" : 150,
                            "time" : 120,
                            "value" : 0.0,
                            "duration" : 30
                          }
                        ]
                      }
                    },
                    "effects" : [

                    ],
                    "start" : 12380,
                    "duration" : 150,
                    "mediaStart" : 0,
                    "mediaDuration" : 1,
                    "scalar" : 1,
                    "metadata" : {
                      "WinSubProjectDisplayName" : "",
                      "clipSpeedAttribute" : false,
                      "default-opacity" : 0.0,
                      "default-scale" : "1",
                      "effectApplied" : "none"
                    },
                    "animationTracks" : {
                      "visual" : [
                        {
                          "endTime" : 150,
                          "duration" : 30,
                          "range" : [ 120, 30]
                        }
                      ]
                    }
                  }
                ],
                "transitions" : [
                  {
                    "name" : "Fade",
                    "duration" : 30,
                    "trivial" : true,
                    "useAudioPreRoll" : true,
                    "useVisualPreRoll" : true,
                    "rightMedia" : 9
                  },
                  {
                    "name" : "Fade",
                    "duration" : 30,
                    "trivial" : true,
                    "useAudioPreRoll" : true,
                    "useVisualPreRoll" : true,
                    "leftMedia" : 9
                  }
                ]
              },
              {
                "trackIndex" : 2,
                "medias" : [
                  {
                    "id" : 10,
                    "_type" : "IMFile",
                    "src" : 1,
                    "trackNumber" : 0,
                    "trimStartSum" : 0,
                    "attributes" : {
                      "ident" : "codestars_logo"
                    },
                    "parameters" : {
                      "translation0" : {
                        "type" : "double",
                        "defaultValue" : -263.136792317664,
                        "interp" : "linr"
                      },
                      "translation1" : {
                        "type" : "double",
                        "defaultValue" : -271.784183685799,
                        "interp" : "linr"
                      },
                      "translation2" : {
                        "type" : "double",
                        "defaultValue" : 0.0,
                        "interp" : "linr"
                      },
                      "rotation0" : {
                        "type" : "double",
                        "defaultValue" : 0.0,
                        "interp" : "linr"
                      },
                      "rotation1" : {
                        "type" : "double",
                        "defaultValue" : 0.0,
                        "interp" : "linr"
                      },
                      "rotation2" : {
                        "type" : "double",
                        "defaultValue" : 0.0,
                        "interp" : "linr"
                      },
                      "shear0" : {
                        "type" : "double",
                        "defaultValue" : 0.0,
                        "interp" : "linr"
                      },
                      "shear1" : {
                        "type" : "double",
                        "defaultValue" : 0.0,
                        "interp" : "linr"
                      },
                      "shear2" : {
                        "type" : "double",
                        "defaultValue" : 0.0,
                        "interp" : "linr"
                      },
                      "scale0" : {
                        "type" : "double",
                        "defaultValue" : 0.402192662926175,
                        "interp" : "linr"
                      },
                      "scale1" : {
                        "type" : "double",
                        "defaultValue" : 0.402192662926175,
                        "interp" : "linr"
                      },
                      "scale2" : {
                        "type" : "double",
                        "defaultValue" : 1.0,
                        "interp" : "linr"
                      },
                      "anchor0" : {
                        "type" : "double",
                        "defaultValue" : 0.0,
                        "interp" : "linr"
                      },
                      "anchor1" : {
                        "type" : "double",
                        "defaultValue" : 0.0,
                        "interp" : "linr"
                      },
                      "anchor2" : {
                        "type" : "double",
                        "defaultValue" : 0.0,
                        "interp" : "linr"
                      },
                      "opacity" : 0.0
                    },
                    "effects" : [

                    ],
                    "start" : 12380,
                    "duration" : 150,
                    "mediaStart" : 0,
                    "mediaDuration" : 1,
                    "scalar" : 1,
                    "metadata" : {
                      "WinSubProjectDisplayName" : "",
                      "clipSpeedAttribute" : false,
                      "default-scale" : "1",
                      "effectApplied" : "none"
                    },
                    "animationTracks" : {

                    }
                  }
                ],
                "transitions" : [
                  {
                    "name" : "Fade",
                    "duration" : 30,
                    "trivial" : true,
                    "useAudioPreRoll" : true,
                    "useVisualPreRoll" : true,
                    "rightMedia" : 10
                  },
                  {
                    "name" : "Fade",
                    "duration" : 30,
                    "trivial" : true,
                    "useAudioPreRoll" : true,
                    "useVisualPreRoll" : true,
                    "leftMedia" : 10
                  }
                ]
              },
              {
                "trackIndex" : 3,
                "medias" : [
                  {
                    "id" : 11,
                    "_type" : "IMFile",
                    "src" : 3,
                    "trackNumber" : 0,
                    "trimStartSum" : 0,
                    "attributes" : {
                      "ident" : "Splash_Android"
                    },
                    "parameters" : {
                      "translation0" : -0.00456702364154329,
                      "translation1" : -6.87439439981899,
                      "scale0" : 0.666671423982989,
                      "scale1" : 0.666671423982989
                    },
                    "effects" : [

                    ],
                    "start" : 0,
                    "duration" : 150,
                    "mediaStart" : 0,
                    "mediaDuration" : 1,
                    "scalar" : 1,
                    "metadata" : {
                      "WinSubProjectDisplayName" : "",
                      "clipSpeedAttribute" : false,
                      "default-scale" : "0.666667",
                      "default-translation0" : 0.00456702366917246,
                      "default-translation1" : -0.00256895081391425,
                      "effectApplied" : "none"
                    },
                    "animationTracks" : {

                    }
                  },
                  {
                    "id" : 12,
                    "_type" : "IMFile",
                    "src" : 1,
                    "trackNumber" : 0,
                    "trimStartSum" : 0,
                    "attributes" : {
                      "ident" : "codestars_logo"
                    },
                    "parameters" : {
                      "translation0" : {
                        "type" : "double",
                        "defaultValue" : -263.136792317664,
                        "interp" : "linr"
                      },
                      "translation1" : {
                        "type" : "double",
                        "defaultValue" : -271.784183685799,
                        "interp" : "linr"
                      },
                      "translation2" : {
                        "type" : "double",
                        "defaultValue" : 0.0,
                        "interp" : "linr"
                      },
                      "rotation0" : {
                        "type" : "double",
                        "defaultValue" : 0.0,
                        "interp" : "linr"
                      },
                      "rotation1" : {
                        "type" : "double",
                        "defaultValue" : 0.0,
                        "interp" : "linr"
                      },
                      "rotation2" : {
                        "type" : "double",
                        "defaultValue" : 0.0,
                        "interp" : "linr"
                      },
                      "shear0" : {
                        "type" : "double",
                        "defaultValue" : 0.0,
                        "interp" : "linr"
                      },
                      "shear1" : {
                        "type" : "double",
                        "defaultValue" : 0.0,
                        "interp" : "linr"
                      },
                      "shear2" : {
                        "type" : "double",
                        "defaultValue" : 0.0,
                        "interp" : "linr"
                      },
                      "scale0" : {
                        "type" : "double",
                        "defaultValue" : 0.402192662926175,
                        "interp" : "linr"
                      },
                      "scale1" : {
                        "type" : "double",
                        "defaultValue" : 0.402192662926175,
                        "interp" : "linr"
                      },
                      "scale2" : {
                        "type" : "double",
                        "defaultValue" : 1.0,
                        "interp" : "linr"
                      },
                      "anchor0" : {
                        "type" : "double",
                        "defaultValue" : 0.0,
                        "interp" : "linr"
                      },
                      "anchor1" : {
                        "type" : "double",
                        "defaultValue" : 0.0,
                        "interp" : "linr"
                      },
                      "anchor2" : {
                        "type" : "double",
                        "defaultValue" : 0.0,
                        "interp" : "linr"
                      }
                    },
                    "effects" : [

                    ],
                    "start" : 12380,
                    "duration" : 150,
                    "mediaStart" : 0,
                    "mediaDuration" : 1,
                    "scalar" : 1,
                    "metadata" : {
                      "WinSubProjectDisplayName" : "",
                      "clipSpeedAttribute" : false,
                      "default-scale" : "1",
                      "effectApplied" : "none"
                    },
                    "animationTracks" : {

                    }
                  }
                ],
                "transitions" : [
                  {
                    "name" : "Fade",
                    "duration" : 30,
                    "trivial" : true,
                    "useAudioPreRoll" : false,
                    "useVisualPreRoll" : true,
                    "leftMedia" : 11
                  },
                  {
                    "name" : "Fade",
                    "duration" : 30,
                    "trivial" : true,
                    "useAudioPreRoll" : true,
                    "useVisualPreRoll" : true,
                    "rightMedia" : 12
                  },
                  {
                    "name" : "Fade",
                    "duration" : 30,
                    "trivial" : true,
                    "useAudioPreRoll" : true,
                    "useVisualPreRoll" : true,
                    "leftMedia" : 12
                  }
                ]
              },
              {
                "trackIndex" : 4,
                "medias" : [
                  {
                    "id" : 13,
                    "_type" : "IMFile",
                    "src" : 2,
                    "trackNumber" : 0,
                    "trimStartSum" : 0,
                    "attributes" : {
                      "ident" : "star"
                    },
                    "parameters" : {
                      "translation0" : {
                        "type" : "double",
                        "defaultValue" : -640.0,
                        "interp" : "linr",
                        "keyframes" : [
                          {
                            "endTime" : 30,
                            "time" : 0,
                            "value" : -522.733906099372,
                            "duration" : 30
                          }
                        ]
                      },
                      "translation1" : {
                        "type" : "double",
                        "defaultValue" : -0.0,
                        "interp" : "linr",
                        "keyframes" : [
                          {
                            "endTime" : 30,
                            "time" : 0,
                            "value" : -277.438113851611,
                            "duration" : 30
                          }
                        ]
                      },
                      "translation2" : {
                        "type" : "double",
                        "defaultValue" : 0.0,
                        "interp" : "linr"
                      },
                      "rotation0" : {
                        "type" : "double",
                        "defaultValue" : 0.0,
                        "interp" : "linr"
                      },
                      "rotation1" : {
                        "type" : "double",
                        "defaultValue" : 0.0,
                        "interp" : "linr"
                      },
                      "rotation2" : {
                        "type" : "double",
                        "defaultValue" : 6.28318530717959,
                        "interp" : "linr",
                        "keyframes" : [
                          {
                            "endTime" : 30,
                            "time" : 0,
                            "value" : 0.0,
                            "duration" : 30
                          }
                        ]
                      },
                      "shear0" : {
                        "type" : "double",
                        "defaultValue" : 0.0,
                        "interp" : "linr"
                      },
                      "shear1" : {
                        "type" : "double",
                        "defaultValue" : 0.0,
                        "interp" : "linr"
                      },
                      "shear2" : {
                        "type" : "double",
                        "defaultValue" : 0.0,
                        "interp" : "linr"
                      },
                      "scale0" : {
                        "type" : "double",
                        "defaultValue" : 0.0,
                        "interp" : "linr",
                        "keyframes" : [
                          {
                            "endTime" : 30,
                            "time" : 0,
                            "value" : 0.344059357782636,
                            "duration" : 30
                          }
                        ]
                      },
                      "scale1" : {
                        "type" : "double",
                        "defaultValue" : 0.0,
                        "interp" : "linr",
                        "keyframes" : [
                          {
                            "endTime" : 30,
                            "time" : 0,
                            "value" : 0.344059357782636,
                            "duration" : 30
                          }
                        ]
                      },
                      "scale2" : {
                        "type" : "double",
                        "defaultValue" : 1.0,
                        "interp" : "linr"
                      },
                      "anchor0" : {
                        "type" : "double",
                        "defaultValue" : 0.0,
                        "interp" : "linr"
                      },
                      "anchor1" : {
                        "type" : "double",
                        "defaultValue" : 0.0,
                        "interp" : "linr"
                      },
                      "anchor2" : {
                        "type" : "double",
                        "defaultValue" : 0.0,
                        "interp" : "linr"
                      },
                      "opacity" : {
                        "type" : "double",
                        "defaultValue" : 1.0,
                        "keyframes" : [
                          {
                            "endTime" : 150,
                            "time" : 120,
                            "value" : 0.0,
                            "duration" : 30
                          }
                        ]
                      }
                    },
                    "effects" : [

                    ],
                    "start" : 0,
                    "duration" : 150,
                    "mediaStart" : 0,
                    "mediaDuration" : 1,
                    "scalar" : 1,
                    "metadata" : {
                      "WinSubProjectDisplayName" : "",
                      "clipSpeedAttribute" : false,
                      "default-scale" : "1",
                      "effectApplied" : "none"
                    },
                    "animationTracks" : {
                      "visual" : [
                        {
                          "endTime" : 30,
                          "duration" : 30,
                          "range" : [ 0, 30]
                        },
                        {
                          "endTime" : 150,
                          "duration" : 30,
                          "range" : [ 120, 30]
                        }
                      ]
                    }
                  },
                  {
                    "id" : 14,
                    "_type" : "Callout",
                    "def" : {
                      "kind" : "TypeWinText",
                      "shape" : "",
                      "style" : "",
                      "Style" : 5.0,
                      "dimensionTime" : 0.0,
                      "height" : 180.0,
                      "line-spacing" : 0.0,
                      "textIgnoresOpacity" : 0.0,
                      "textRectHeight" : 1.0,
                      "textRectWidth" : 1.0,
                      "textRectX" : 0.0,
                      "textRectY" : 0.0,
                      "textVerticalAlign" : -1.0,
                      "width" : 320.0,
                      "filename" : "C:\\Program Files\\TechSmith\\Camtasia 9\\Media\\Studio\\Callouts\\trans_100x100.xml",
                      "horizontal-alignment" : "center",
                      "name" : "Text",
                      "text" : "{\\rtf1\\ansi\\ansicpg1252\\deff0\\nouicompat\\deflang1033{\\fonttbl{\\f0\\fnil\\fcharset0 Quicksand;}}\r\n{\\colortbl ;\\red255\\green255\\blue255;}\r\n{\\*\\generator Riched20 10.0.18362}\\viewkind4\\uc1 \r\n\\pard\\cf1\\f0\\fs80 The Complete\\par\r\n\\b\\fs90 C++ Developer Course\\par\r\n}\r\n",
                      "vertical-alignment" : "center",
                      "xmlContent" : "﻿<?xml version=\"1.0\"?>\n\n<Overlay version=\"1.0.1\">\n\n<Overlay_Filename>trans_100x100.png</Overlay_Filename>\n<Overlay_Name>Text</Overlay_Name>\n<Text_Top>0</Text_Top>\n<Text_Left>0</Text_Left>\n<Text_Bottom>0</Text_Bottom>\n<Text_Right>0</Text_Right>\n<Fill_Color>0</Fill_Color>\n<Border_Color>0</Border_Color>\n<Style>5</Style>\n</Overlay>",
                      "textAttributes" : {
                        "type" : "textAttributeList",
                        "keyframes" : [
                          {
                            "endTime" : 0,
                            "time" : 0,
                            "value" : null,
                            "duration" : 0
                          }
                        ]
                      }
                    },
                    "attributes" : {
                      "autoRotateText" : true
                    },
                    "parameters" : {
                      "translation0" : -70.9521418731169,
                      "translation1" : 239.738828503294,
                      "scale0" : 3.12385809835021,
                      "scale1" : 1.00002854389906
                    },
                    "effects" : [

                    ],
                    "start" : 12380,
                    "duration" : 150,
                    "mediaStart" : 0,
                    "mediaDuration" : 150,
                    "scalar" : 1,
                    "metadata" : {
                      "WinSubProjectDisplayName" : "",
                      "clipSpeedAttribute" : false,
                      "default-legacy-fill-style" : 5.0,
                      "default-legacy-text-callout-vertical-align" : "middle",
                      "default-scale0" : 1.0,
                      "default-scale1" : 1.0,
                      "default-text" : "{\\rtf1\\ansi\\ansicpg1252\\deff0\\deflang1033{\\fonttbl{\\f0\\fswiss\\fprq2\\fcharset0 Arial;}}{\\colortbl ;\\red255\\green255\\blue255;}\\viewkind4\\uc1\\pard\\qc\\cf1\\fs72 abc}",
                      "default-translation0" : 0.0,
                      "default-translation1" : 0.0
                    },
                    "animationTracks" : {

                    }
                  }
                ],
                "transitions" : [
                  {
                    "name" : "Fade",
                    "duration" : 30,
                    "trivial" : true,
                    "useAudioPreRoll" : true,
                    "useVisualPreRoll" : true,
                    "rightMedia" : 14
                  },
                  {
                    "name" : "Fade",
                    "duration" : 30,
                    "trivial" : true,
                    "useAudioPreRoll" : true,
                    "useVisualPreRoll" : true,
                    "leftMedia" : 14
                  }
                ]
              },
              {
                "trackIndex" : 5,
                "medias" : [
                  {
                    "id" : 15,
                    "_type" : "Callout",
                    "def" : {
                      "kind" : "remix",
                      "shape" : "text",
                      "style" : "bold",
                      "height" : 250.0,
                      "line-spacing" : 0.0,
                      "width" : 1035.85760517811,
                      "word-wrap" : 1.0,
                      "horizontal-alignment" : "left",
                      "text" : "Fundamentals\rComments",
                      "vertical-alignment" : "center",
                      "font" : {
                        "color-blue" : 1.0,
                        "color-green" : 1.0,
                        "color-red" : 1.0,
                        "size" : 96.0,
                        "tracking" : 0.0,
                        "name" : "Source Sans Pro",
                        "weight" : "Semi Bold"
                      },
                      "textAttributes" : {
                        "type" : "textAttributeList",
                        "keyframes" : [
                          {
                            "endTime" : 0,
                            "time" : 0,
                            "value" : [{"name":"fgColor","rangeEnd":21,"rangeStart":0,"value":"(255,255,255,255)","valueType":"color"},{"name":"fontSize","rangeEnd":13,"rangeStart":0,"value":55,"valueType":"double"},{"name":"fontName","rangeEnd":21,"rangeStart":0,"value":"Quicksand","valueType":"string"},{"name":"fontWeight","rangeEnd":13,"rangeStart":0,"value":700,"valueType":"int"},{"name":"kerning","rangeEnd":21,"rangeStart":0,"value":0,"valueType":"double"},{"name":"fontWeight","rangeEnd":21,"rangeStart":13,"value":400,"valueType":"int"},{"name":"underline","rangeEnd":21,"rangeStart":0,"value":0,"valueType":"int"},{"name":"fontSize","rangeEnd":21,"rangeStart":13,"value":52,"valueType":"double"},{"name":"fontItalic","rangeEnd":21,"rangeStart":0,"value":0,"valueType":"int"},{"name":"strikethrough","rangeEnd":21,"rangeStart":0,"value":0,"valueType":"int"}],
                            "duration" : 0
                          }
                        ]
                      }
                    },
                    "attributes" : {
                      "autoRotateText" : true
                    },
                    "parameters" : {
                      "translation0" : {
                        "type" : "double",
                        "defaultValue" : -913.412651778095,
                        "keyframes" : [
                          {
                            "endTime" : 38,
                            "time" : 8,
                            "value" : 99.920681555355,
                            "duration" : 30
                          }
                        ]
                      },
                      "translation1" : {
                        "type" : "double",
                        "defaultValue" : -34.812002943898,
                        "keyframes" : [
                          {
                            "endTime" : 38,
                            "time" : 8,
                            "value" : -34.8120029438544,
                            "duration" : 30
                          }
                        ]
                      }
                    },
                    "effects" : [
                        {
                          "effectName" : "DropShadow",
                          "category" : "categoryVisualEffects",
                          "parameters" : {
                            "angle" : {
                              "type" : "double",
                              "defaultValue" : 5.49778714378214,
                              "uiHints" : {
                                "userInterfaceType" : 0,
                                "unitType" : 0
                              },
                              "keyframes" : [
                                {
                                  "endTime" : 38,
                                  "time" : 8,
                                  "value" : 5.49778714378214,
                                  "duration" : 30
                                }
                              ]
                            },
                            "blur" : 10.0,
                            "color-alpha" : 1.0,
                            "color-blue" : 0.1216,
                            "color-green" : 0.1216,
                            "color-red" : 0.1216,
                            "enabled" : 1,
                            "offset" : 10.0,
                            "opacity" : 0.4
                          }
                        }
                    ],
                    "start" : 35,
                    "duration" : 115,
                    "mediaStart" : 8,
                    "mediaDuration" : 115,
                    "scalar" : 1,
                    "metadata" : {
                      "WinSubProjectDisplayName" : "",
                      "clipSpeedAttribute" : false,
                      "default-HAlign" : "center",
                      "default-LineSpace" : 0.0,
                      "default-VAlign" : "center",
                      "default-text-attributes" : "[{\"name\":\"fontWeight\",\"rangeEnd\":37,\"rangeStart\":26,\"value\":100,\"valueType\":\"int\"},{\"name\":\"underline\",\"rangeEnd\":37,\"rangeStart\":0,\"value\":0,\"valueType\":\"int\"},{\"name\":\"fontWeight\",\"rangeEnd\":26,\"rangeStart\":0,\"value\":700,\"valueType\":\"int\"},{\"name\":\"fgColor\",\"rangeEnd\":37,\"rangeStart\":0,\"value\":\"(255,255,255,255)\",\"valueType\":\"color\"},{\"name\":\"fontSize\",\"rangeEnd\":26,\"rangeStart\":0,\"value\":55,\"valueType\":\"double\"},{\"name\":\"fontItalic\",\"rangeEnd\":37,\"rangeStart\":0,\"value\":0,\"valueType\":\"int\"},{\"name\":\"strikethrough\",\"rangeEnd\":37,\"rangeStart\":0,\"value\":0,\"valueType\":\"int\"},{\"name\":\"fontName\",\"rangeEnd\":37,\"rangeStart\":0,\"value\":\"Quicksand\",\"valueType\":\"string\"},{\"name\":\"fontSize\",\"rangeEnd\":37,\"rangeStart\":26,\"value\":52,\"valueType\":\"double\"}]",
                      "default-translation0" : 204.5,
                      "default-translation1" : 0.0
                    },
                    "animationTracks" : {
                      "visual" : [
                        {
                          "endTime" : 38,
                          "duration" : 30,
                          "range" : [ 8, 30]
                        }
                      ]
                    }
                  },
                  {
                    "id" : 16,
                    "_type" : "IMFile",
                    "src" : 4,
                    "trackNumber" : 0,
                    "trimStartSum" : 0,
                    "attributes" : {
                      "ident" : "Head"
                    },
                    "parameters" : {
                      "translation0" : 537.015153862789,
                      "translation1" : -206.400000000049,
                      "scale0" : 0.35,
                      "scale1" : 0.35
                    },
                    "effects" : [

                    ],
                    "start" : 12380,
                    "duration" : 150,
                    "mediaStart" : 0,
                    "mediaDuration" : 1,
                    "scalar" : 1,
                    "metadata" : {
                      "WinSubProjectDisplayName" : "",
                      "clipSpeedAttribute" : false,
                      "default-scale0" : 0.703125,
                      "default-scale1" : 0.703125,
                      "default-translation0" : 0.0,
                      "default-translation1" : 0.0
                    },
                    "animationTracks" : {

                    }
                  }
                ],
                "transitions" : [
                  {
                    "name" : "Fade",
                    "duration" : 30,
                    "trivial" : true,
                    "useAudioPreRoll" : true,
                    "useVisualPreRoll" : true,
                    "leftMedia" : 15
                  },
                  {
                    "name" : "Fade",
                    "duration" : 30,
                    "trivial" : false,
                    "useAudioPreRoll" : true,
                    "useVisualPreRoll" : true,
                    "rightMedia" : 16
                  },
                  {
                    "name" : "Fade",
                    "duration" : 30,
                    "trivial" : false,
                    "useAudioPreRoll" : true,
                    "useVisualPreRoll" : true,
                    "leftMedia" : 16
                  }
                ]
              },
              {
                "trackIndex" : 6,
                "medias" : [
                  {
                    "id" : 17,
                    "_type" : "Callout",
                    "def" : {
                      "kind" : "TypeWinText",
                      "shape" : "",
                      "style" : "",
                      "Style" : 5.0,
                      "dimensionTime" : 0.0,
                      "height" : 180.0,
                      "line-spacing" : 0.0,
                      "textIgnoresOpacity" : 0.0,
                      "textRectHeight" : 1.0,
                      "textRectWidth" : 1.0,
                      "textRectX" : 0.0,
                      "textRectY" : 0.0,
                      "textVerticalAlign" : 0.0,
                      "width" : 320.0,
                      "filename" : "C:\\Program Files\\TechSmith\\Camtasia 9\\Media\\Studio\\Callouts\\trans_100x100.xml",
                      "horizontal-alignment" : "center",
                      "name" : "Text",
                      "text" : "{\\rtf1\\ansi\\ansicpg1252\\deff0\\nouicompat\\deflang1033{\\fonttbl{\\f0\\fnil\\fcharset0 Quicksand;}}\r\n{\\colortbl ;\\red255\\green255\\blue255;}\r\n{\\*\\generator Riched20 10.0.18362}\\viewkind4\\uc1 \r\n\\pard\\qc\\cf1\\b\\f0\\fs124 #\\fs256 2\\fs72\\par\r\n}\r\n",
                      "vertical-alignment" : "center",
                      "xmlContent" : "﻿<?xml version=\"1.0\"?>\n\n<Overlay version=\"1.0.1\">\n\n<Overlay_Filename>trans_100x100.png</Overlay_Filename>\n<Overlay_Name>Text</Overlay_Name>\n<Text_Top>0</Text_Top>\n<Text_Left>0</Text_Left>\n<Text_Bottom>0</Text_Bottom>\n<Text_Right>0</Text_Right>\n<Fill_Color>0</Fill_Color>\n<Border_Color>0</Border_Color>\n<Style>5</Style>\n</Overlay>",
                      "textAttributes" : {
                        "type" : "textAttributeList",
                        "keyframes" : [
                          {
                            "endTime" : 0,
                            "time" : 0,
                            "value" : null,
                            "duration" : 0
                          }
                        ]
                      }
                    },
                    "attributes" : {
                      "autoRotateText" : true
                    },
                    "parameters" : {
                      "translation0" : {
                        "type" : "double",
                        "defaultValue" : -820.538865370044,
                        "keyframes" : [
                          {
                            "endTime" : 65,
                            "time" : 35,
                            "value" : -488.499999999933,
                            "duration" : 30
                          }
                        ]
                      },
                      "translation1" : {
                        "type" : "double",
                        "defaultValue" : -34.8120029438978,
                        "keyframes" : [
                          {
                            "endTime" : 65,
                            "time" : 35,
                            "value" : -34.8120029438634,
                            "duration" : 30
                          }
                        ]
                      },
                      "scale0" : {
                        "type" : "double",
                        "defaultValue" : 0.580906148866913,
                        "keyframes" : [
                          {
                            "endTime" : 65,
                            "time" : 35,
                            "value" : 0.580906148866913,
                            "duration" : 30
                          }
                        ]
                      },
                      "scale1" : {
                        "type" : "double",
                        "defaultValue" : 1.43801063442563,
                        "keyframes" : [
                          {
                            "endTime" : 65,
                            "time" : 35,
                            "value" : 1.43801063442563,
                            "duration" : 30
                          }
                        ]
                      }
                    },
                    "effects" : [

                    ],
                    "start" : 35,
                    "duration" : 115,
                    "mediaStart" : 35,
                    "mediaDuration" : 115,
                    "scalar" : 1,
                    "metadata" : {
                      "WinSubProjectDisplayName" : "",
                      "clipSpeedAttribute" : false,
                      "default-legacy-fill-style" : 5.0,
                      "default-legacy-text-callout-vertical-align" : "middle",
                      "default-rotation2" : 0.0,
                      "default-scale0" : 1.0,
                      "default-scale1" : 1.0,
                      "default-text" : "{\\rtf1\\ansi\\ansicpg1252\\deff0\\deflang1033{\\fonttbl{\\f0\\fswiss\\fprq2\\fcharset0 Arial;}}{\\colortbl ;\\red255\\green255\\blue255;}\\viewkind4\\uc1\\pard\\qc\\cf1\\fs72 abc}",
                      "default-translation0" : 0.0,
                      "default-translation1" : 0.0
                    },
                    "animationTracks" : {
                      "visual" : [
                        {
                          "endTime" : 65,
                          "duration" : 30,
                          "range" : [ 35, 30]
                        }
                      ]
                    }
                  }
                ],
                "transitions" : [
                  {
                    "name" : "Fade",
                    "duration" : 30,
                    "trivial" : true,
                    "useAudioPreRoll" : true,
                    "useVisualPreRoll" : true,
                    "leftMedia" : 17
                  }
                ]
              },
              {
                "trackIndex" : 7,
                "medias" : [
                  {
                    "id" : 18,
                    "_type" : "IMFile",
                    "src" : 1,
                    "trackNumber" : 0,
                    "trimStartSum" : 0,
                    "attributes" : {
                      "ident" : "codestars_logo"
                    },
                    "parameters" : {
                      "translation0" : {
                        "type" : "double",
                        "defaultValue" : -263.136792317664,
                        "interp" : "linr"
                      },
                      "translation1" : {
                        "type" : "double",
                        "defaultValue" : -271.784183685799,
                        "interp" : "linr"
                      },
                      "translation2" : {
                        "type" : "double",
                        "defaultValue" : 0.0,
                        "interp" : "linr"
                      },
                      "rotation0" : {
                        "type" : "double",
                        "defaultValue" : 0.0,
                        "interp" : "linr"
                      },
                      "rotation1" : {
                        "type" : "double",
                        "defaultValue" : 0.0,
                        "interp" : "linr"
                      },
                      "rotation2" : {
                        "type" : "double",
                        "defaultValue" : 0.0,
                        "interp" : "linr"
                      },
                      "shear0" : {
                        "type" : "double",
                        "defaultValue" : 0.0,
                        "interp" : "linr"
                      },
                      "shear1" : {
                        "type" : "double",
                        "defaultValue" : 0.0,
                        "interp" : "linr"
                      },
                      "shear2" : {
                        "type" : "double",
                        "defaultValue" : 0.0,
                        "interp" : "linr"
                      },
                      "scale0" : {
                        "type" : "double",
                        "defaultValue" : 0.402192662926175,
                        "interp" : "linr"
                      },
                      "scale1" : {
                        "type" : "double",
                        "defaultValue" : 0.402192662926175,
                        "interp" : "linr"
                      },
                      "scale2" : {
                        "type" : "double",
                        "defaultValue" : 1.0,
                        "interp" : "linr"
                      },
                      "anchor0" : {
                        "type" : "double",
                        "defaultValue" : 0.0,
                        "interp" : "linr"
                      },
                      "anchor1" : {
                        "type" : "double",
                        "defaultValue" : 0.0,
                        "interp" : "linr"
                      },
                      "anchor2" : {
                        "type" : "double",
                        "defaultValue" : 0.0,
                        "interp" : "linr"
                      }
                    },
                    "effects" : [

                    ],
                    "start" : 0,
                    "duration" : 150,
                    "mediaStart" : 0,
                    "mediaDuration" : 1,
                    "scalar" : 1,
                    "metadata" : {
                      "WinSubProjectDisplayName" : "",
                      "clipSpeedAttribute" : false,
                      "default-scale" : "1",
                      "effectApplied" : "none"
                    },
                    "animationTracks" : {

                    }
                  }
                ],
                "transitions" : [
                  {
                    "name" : "Fade",
                    "duration" : 30,
                    "trivial" : true,
                    "useAudioPreRoll" : true,
                    "useVisualPreRoll" : true,
                    "leftMedia" : 18
                  }
                ]
              },
              {
                "trackIndex" : 8,
                "medias" : [
                ]
              },
              {
                "trackIndex" : 9,
                "medias" : [
                  {
                    "id" : 19,
                    "_type" : "Callout",
                    "def" : {
                      "kind" : "TypeWinText",
                      "shape" : "",
                      "style" : "",
                      "Style" : 5.0,
                      "dimensionTime" : 0.0,
                      "height" : 180.0,
                      "line-spacing" : 0.0,
                      "textIgnoresOpacity" : 0.0,
                      "textRectHeight" : 1.0,
                      "textRectWidth" : 1.0,
                      "textRectX" : 0.0,
                      "textRectY" : 0.0,
                      "textVerticalAlign" : -1.0,
                      "width" : 320.0,
                      "filename" : "C:\\Program Files\\TechSmith\\Camtasia 9\\Media\\Studio\\Callouts\\trans_100x100.xml",
                      "horizontal-alignment" : "center",
                      "name" : "Text",
                      "text" : "{\\rtf1\\ansi\\ansicpg1252\\deff0\\nouicompat\\deflang1033{\\fonttbl{\\f0\\fnil\\fcharset0 Quicksand;}}\r\n{\\colortbl ;\\red255\\green255\\blue255;}\r\n{\\*\\generator Riched20 10.0.18362}\\viewkind4\\uc1 \r\n\\pard\\cf1\\f0\\fs80 The Complete\\par\r\n\\b\\fs90 C++ Developer Course\\par\r\n}\r\n",
                      "vertical-alignment" : "center",
                      "xmlContent" : "﻿<?xml version=\"1.0\"?>\n\n<Overlay version=\"1.0.1\">\n\n<Overlay_Filename>trans_100x100.png</Overlay_Filename>\n<Overlay_Name>Text</Overlay_Name>\n<Text_Top>0</Text_Top>\n<Text_Left>0</Text_Left>\n<Text_Bottom>0</Text_Bottom>\n<Text_Right>0</Text_Right>\n<Fill_Color>0</Fill_Color>\n<Border_Color>0</Border_Color>\n<Style>5</Style>\n</Overlay>",
                      "textAttributes" : {
                        "type" : "textAttributeList",
                        "keyframes" : [
                          {
                            "endTime" : 0,
                            "time" : 0,
                            "value" : null,
                            "duration" : 0
                          }
                        ]
                      }
                    },
                    "attributes" : {
                      "autoRotateText" : true
                    },
                    "parameters" : {
                      "translation0" : -72.2854752064544,
                      "translation1" : 239.738828503294,
                      "scale0" : 3.12385809835021,
                      "scale1" : 1.00002854389906
                    },
                    "effects" : [

                    ],
                    "start" : 0,
                    "duration" : 150,
                    "mediaStart" : 0,
                    "mediaDuration" : 150,
                    "scalar" : 1,
                    "metadata" : {
                      "WinSubProjectDisplayName" : "",
                      "clipSpeedAttribute" : false,
                      "default-legacy-fill-style" : 5.0,
                      "default-legacy-text-callout-vertical-align" : "middle",
                      "default-scale0" : 1.0,
                      "default-scale1" : 1.0,
                      "default-text" : "{\\rtf1\\ansi\\ansicpg1252\\deff0\\deflang1033{\\fonttbl{\\f0\\fswiss\\fprq2\\fcharset0 Arial;}}{\\colortbl ;\\red255\\green255\\blue255;}\\viewkind4\\uc1\\pard\\qc\\cf1\\fs72 abc}",
                      "default-translation0" : 0.0,
                      "default-translation1" : 0.0
                    },
                    "animationTracks" : {

                    }
                  }
                ],
                "transitions" : [
                  {
                    "name" : "Fade",
                    "duration" : 30,
                    "trivial" : true,
                    "useAudioPreRoll" : true,
                    "useVisualPreRoll" : true,
                    "leftMedia" : 19
                  }
                ]
              },
              {
                "trackIndex" : 10,
                "medias" : [
                  {
                    "id" : 20,
                    "_type" : "IMFile",
                    "src" : 4,
                    "trackNumber" : 0,
                    "trimStartSum" : 0,
                    "attributes" : {
                      "ident" : "Head"
                    },
                    "parameters" : {
                      "translation0" : 536.491666666922,
                      "translation1" : -187.676963350509,
                      "scale0" : 0.35,
                      "scale1" : 0.35
                    },
                    "effects" : [

                    ],
                    "start" : 0,
                    "duration" : 150,
                    "mediaStart" : 0,
                    "mediaDuration" : 1,
                    "scalar" : 1,
                    "metadata" : {
                      "WinSubProjectDisplayName" : "",
                      "clipSpeedAttribute" : false,
                      "default-scale0" : 0.703125,
                      "default-scale1" : 0.703125,
                      "default-translation0" : 0.0,
                      "default-translation1" : 0.0
                    },
                    "animationTracks" : {

                    }
                  }
                ],
                "transitions" : [
                  {
                    "name" : "Fade",
                    "duration" : 30,
                    "trivial" : false,
                    "useAudioPreRoll" : true,
                    "useVisualPreRoll" : true,
                    "leftMedia" : 20
                  }
                ]
              },
              {
                "trackIndex" : 11,
                "medias" : [
                ]
              },
              {
                "trackIndex" : 12,
                "medias" : [
                  {
                    "id" : 21,
                    "_type" : "StitchedMedia",
                    "minMediaStart" : 0,
                    "attributes" : {
                      "ident" : "Rec 02-09-20_008",
                      "gain" : 1.0,
                      "mixToMono" : false
                    },
                    "parameters" : {
                      "translation0" : {
                        "type" : "double",
                        "defaultValue" : 0.0,
                        "keyframes" : [
                          {
                            "endTime" : 1254,
                            "time" : 1224,
                            "value" : 17.7018027881544,
                            "duration" : 30
                          },
                          {
                            "endTime" : 1931,
                            "time" : 1901,
                            "value" : -316.949029111445,
                            "duration" : 30
                          },
                          {
                            "endTime" : 2100,
                            "time" : 2070,
                            "value" : 54.7921228549279,
                            "duration" : 30
                          },
                          {
                            "endTime" : 2231,
                            "time" : 2201,
                            "value" : 316.949036557718,
                            "duration" : 30
                          },
                          {
                            "endTime" : 7583,
                            "time" : 7553,
                            "value" : 279.016105877018,
                            "duration" : 30
                          },
                          {
                            "endTime" : 7928,
                            "time" : 7898,
                            "value" : 316.948870618648,
                            "duration" : 30
                          }
                        ]
                      },
                      "translation1" : {
                        "type" : "double",
                        "defaultValue" : 0.0,
                        "keyframes" : [
                          {
                            "endTime" : 1254,
                            "time" : 1224,
                            "value" : -18.9663837902861,
                            "duration" : 30
                          },
                          {
                            "endTime" : 1931,
                            "time" : 1901,
                            "value" : -178.284041978264,
                            "duration" : 30
                          },
                          {
                            "endTime" : 2100,
                            "time" : 2070,
                            "value" : -11.3798302741717,
                            "duration" : 30
                          },
                          {
                            "endTime" : 2231,
                            "time" : 2201,
                            "value" : -178.284097157758,
                            "duration" : 30
                          },
                          {
                            "endTime" : 7583,
                            "time" : 7553,
                            "value" : 178.284086990599,
                            "duration" : 30
                          },
                          {
                            "endTime" : 7928,
                            "time" : 7898,
                            "value" : -178.284123114432,
                            "duration" : 30
                          }
                        ]
                      },
                      "scale0" : {
                        "type" : "double",
                        "defaultValue" : 0.666666666666667,
                        "keyframes" : [
                          {
                            "endTime" : 1254,
                            "time" : 1224,
                            "value" : 0.996822102134648,
                            "duration" : 30
                          },
                          {
                            "endTime" : 1931,
                            "time" : 1901,
                            "value" : 0.996821807673735,
                            "duration" : 30
                          },
                          {
                            "endTime" : 2100,
                            "time" : 2070,
                            "value" : 0.996821876515579,
                            "duration" : 30
                          },
                          {
                            "endTime" : 2231,
                            "time" : 2201,
                            "value" : 0.996821943377827,
                            "duration" : 30
                          },
                          {
                            "endTime" : 7583,
                            "time" : 7553,
                            "value" : 0.99682178182633,
                            "duration" : 30
                          },
                          {
                            "endTime" : 7928,
                            "time" : 7898,
                            "value" : 0.996821755061693,
                            "duration" : 30
                          }
                        ]
                      },
                      "scale1" : {
                        "type" : "double",
                        "defaultValue" : 0.666666666666667,
                        "keyframes" : [
                          {
                            "endTime" : 1254,
                            "time" : 1224,
                            "value" : 0.996822287390706,
                            "duration" : 30
                          },
                          {
                            "endTime" : 1931,
                            "time" : 1901,
                            "value" : 0.996822277373727,
                            "duration" : 30
                          },
                          {
                            "endTime" : 2100,
                            "time" : 2070,
                            "value" : 0.996822287390706,
                            "duration" : 30
                          },
                          {
                            "endTime" : 2231,
                            "time" : 2201,
                            "value" : 0.996822375538727,
                            "duration" : 30
                          },
                          {
                            "endTime" : 7583,
                            "time" : 7553,
                            "value" : 0.996822434357211,
                            "duration" : 30
                          },
                          {
                            "endTime" : 7928,
                            "time" : 7898,
                            "value" : 0.996822447659846,
                            "duration" : 30
                          }
                        ]
                      },
                      "volume" : {
                        "type" : "double",
                        "keyframes" : [
                          {
                            "endTime" : 0,
                            "time" : 0,
                            "value" : 1.0,
                            "duration" : 0
                          },
                          {
                            "endTime" : 9616,
                            "time" : 9616,
                            "value" : 1.0,
                            "duration" : 0
                          },
                          {
                            "endTime" : 9617,
                            "time" : 9617,
                            "value" : 0.0,
                            "duration" : 0
                          },
                          {
                            "endTime" : 9828,
                            "time" : 9828,
                            "value" : 0.0,
                            "duration" : 0
                          },
                          {
                            "endTime" : 9829,
                            "time" : 9829,
                            "value" : 1.0,
                            "duration" : 0
                          }
                        ]
                      },
                      "cursorOpacity" : 1.0,
                      "cursorScale" : 1.0
                    },
                    "medias" : [
                        {
                          "id" : 22,
                          "_type" : "UnifiedMedia",
                          "video" : 
                              {
                                "id" : 23,
                                "_type" : "ScreenVMFile",
                                "src" : 5,
                                "trackNumber" : 0,
                                "attributes" : {
                                  "ident" : "Rec 02-09-20_008"
                                },
                                "parameters" : {
                                  "cursorScale" : {
                                    "type" : "double",
                                    "defaultValue" : 0.0,
                                    "interp" : "linr"
                                  },
                                  "cursorOpacity" : {
                                    "type" : "double",
                                    "defaultValue" : 0.0,
                                    "interp" : "linr"
                                  }
                                },
                                "effects" : [

                                ],
                                "start" : 0,
                                "duration" : 2684,
                                "mediaStart" : 0,
                                "mediaDuration" : 2684,
                                "scalar" : 1,
                                "animationTracks" : {

                                }
                              },
                          "audio" : 
                              {
                                "id" : 24,
                                "_type" : "AMFile",
                                "src" : 5,
                                "trackNumber" : 2,
                                "attributes" : {
                                  "ident" : "",
                                  "sampleRate" : 44100,
                                  "bitDepth" : 16,
                                  "gain" : 1.0,
                                  "mixToMono" : false
                                },
                                  "channelNumber" : "0,1",
                                "effects" : [

                                ],
                                "start" : 0,
                                "duration" : 2684,
                                "mediaStart" : 0,
                                "mediaDuration" : 2684,
                                "scalar" : 1,
                                "animationTracks" : {

                                }
                              }
,
                          "start" : 0,
                          "duration" : 2684,
                          "mediaStart" : 0,
                          "mediaDuration" : 13529,
                          "scalar" : 1,
                          "metadata" : {
                            "AutoAppliedSmartFocus" : "False",
                            "WinSubProjectDisplayName" : "",
                            "clipSpeedAttribute" : false,
                            "default-scale0" : 0.666666666666667,
                            "default-scale1" : 0.666666666666667,
                            "default-translation0" : 0.0,
                            "default-translation1" : 0.0
                          }
                        },
                        {
                          "id" : 25,
                          "_type" : "UnifiedMedia",
                          "video" : 
                              {
                                "id" : 26,
                                "_type" : "ScreenVMFile",
                                "src" : 5,
                                "trackNumber" : 0,
                                "attributes" : {
                                  "ident" : "Rec 02-09-20_008"
                                },
                                "parameters" : {
                                  "cursorScale" : {
                                    "type" : "double",
                                    "defaultValue" : 0.0,
                                    "interp" : "linr"
                                  },
                                  "cursorOpacity" : {
                                    "type" : "double",
                                    "defaultValue" : 0.0,
                                    "interp" : "linr"
                                  }
                                },
                                "effects" : [

                                ],
                                "start" : 2684,
                                "duration" : 1105,
                                "mediaStart" : 3067,
                                "mediaDuration" : 1105,
                                "scalar" : 1,
                                "animationTracks" : {

                                }
                              },
                          "audio" : 
                              {
                                "id" : 27,
                                "_type" : "AMFile",
                                "src" : 5,
                                "trackNumber" : 2,
                                "attributes" : {
                                  "ident" : "",
                                  "sampleRate" : 44100,
                                  "bitDepth" : 16,
                                  "gain" : 1.0,
                                  "mixToMono" : false
                                },
                                  "channelNumber" : "0,1",
                                "effects" : [

                                ],
                                "start" : 2684,
                                "duration" : 1105,
                                "mediaStart" : 3067,
                                "mediaDuration" : 1105,
                                "scalar" : 1,
                                "animationTracks" : {

                                }
                              }
,
                          "start" : 2684,
                          "duration" : 1105,
                          "mediaStart" : 0,
                          "mediaDuration" : 13529,
                          "scalar" : 1,
                          "metadata" : {
                            "AutoAppliedSmartFocus" : "False",
                            "WinSubProjectDisplayName" : "",
                            "clipSpeedAttribute" : false,
                            "default-scale0" : 0.666666666666667,
                            "default-scale1" : 0.666666666666667,
                            "default-translation0" : 0.0,
                            "default-translation1" : 0.0
                          }
                        },
                        {
                          "id" : 28,
                          "_type" : "UnifiedMedia",
                          "video" : 
                              {
                                "id" : 29,
                                "_type" : "ScreenVMFile",
                                "src" : 5,
                                "trackNumber" : 0,
                                "attributes" : {
                                  "ident" : "Rec 02-09-20_008"
                                },
                                "parameters" : {
                                  "cursorScale" : {
                                    "type" : "double",
                                    "defaultValue" : 0.0,
                                    "interp" : "linr"
                                  },
                                  "cursorOpacity" : {
                                    "type" : "double",
                                    "defaultValue" : 0.0,
                                    "interp" : "linr"
                                  }
                                },
                                "effects" : [

                                ],
                                "start" : 3789,
                                "duration" : 4376,
                                "mediaStart" : 4343,
                                "mediaDuration" : 4376,
                                "scalar" : 1,
                                "animationTracks" : {

                                }
                              },
                          "audio" : 
                              {
                                "id" : 30,
                                "_type" : "AMFile",
                                "src" : 5,
                                "trackNumber" : 2,
                                "attributes" : {
                                  "ident" : "",
                                  "sampleRate" : 44100,
                                  "bitDepth" : 16,
                                  "gain" : 1.0,
                                  "mixToMono" : false
                                },
                                  "channelNumber" : "0,1",
                                "effects" : [

                                ],
                                "start" : 3789,
                                "duration" : 4376,
                                "mediaStart" : 4343,
                                "mediaDuration" : 4376,
                                "scalar" : 1,
                                "animationTracks" : {

                                }
                              }
,
                          "start" : 3789,
                          "duration" : 4376,
                          "mediaStart" : 0,
                          "mediaDuration" : 13529,
                          "scalar" : 1,
                          "metadata" : {
                            "AutoAppliedSmartFocus" : "False",
                            "WinSubProjectDisplayName" : "",
                            "clipSpeedAttribute" : false,
                            "default-scale0" : 0.666666666666667,
                            "default-scale1" : 0.666666666666667,
                            "default-translation0" : 0.0,
                            "default-translation1" : 0.0
                          }
                        },
                        {
                          "id" : 31,
                          "_type" : "UnifiedMedia",
                          "video" : 
                              {
                                "id" : 32,
                                "_type" : "ScreenVMFile",
                                "src" : 5,
                                "trackNumber" : 0,
                                "attributes" : {
                                  "ident" : "Rec 02-09-20_008"
                                },
                                "parameters" : {
                                  "cursorScale" : {
                                    "type" : "double",
                                    "defaultValue" : 0.0,
                                    "interp" : "linr"
                                  },
                                  "cursorOpacity" : {
                                    "type" : "double",
                                    "defaultValue" : 0.0,
                                    "interp" : "linr"
                                  }
                                },
                                "effects" : [

                                ],
                                "start" : 8165,
                                "duration" : 315,
                                "mediaStart" : 8834,
                                "mediaDuration" : 315,
                                "scalar" : 1,
                                "animationTracks" : {

                                }
                              },
                          "audio" : 
                              {
                                "id" : 33,
                                "_type" : "AMFile",
                                "src" : 5,
                                "trackNumber" : 2,
                                "attributes" : {
                                  "ident" : "",
                                  "sampleRate" : 44100,
                                  "bitDepth" : 16,
                                  "gain" : 1.0,
                                  "mixToMono" : false
                                },
                                  "channelNumber" : "0,1",
                                "effects" : [

                                ],
                                "start" : 8165,
                                "duration" : 315,
                                "mediaStart" : 8834,
                                "mediaDuration" : 315,
                                "scalar" : 1,
                                "animationTracks" : {

                                }
                              }
,
                          "start" : 8165,
                          "duration" : 315,
                          "mediaStart" : 0,
                          "mediaDuration" : 13529,
                          "scalar" : 1,
                          "metadata" : {
                            "AutoAppliedSmartFocus" : "False",
                            "WinSubProjectDisplayName" : "",
                            "clipSpeedAttribute" : false,
                            "default-scale0" : 0.666666666666667,
                            "default-scale1" : 0.666666666666667,
                            "default-translation0" : 0.0,
                            "default-translation1" : 0.0
                          }
                        },
                        {
                          "id" : 34,
                          "_type" : "UnifiedMedia",
                          "video" : 
                              {
                                "id" : 35,
                                "_type" : "ScreenVMFile",
                                "src" : 5,
                                "trackNumber" : 0,
                                "attributes" : {
                                  "ident" : "Rec 02-09-20_008"
                                },
                                "parameters" : {
                                  "cursorScale" : {
                                    "type" : "double",
                                    "defaultValue" : 0.0,
                                    "interp" : "linr"
                                  },
                                  "cursorOpacity" : {
                                    "type" : "double",
                                    "defaultValue" : 0.0,
                                    "interp" : "linr"
                                  }
                                },
                                "effects" : [

                                ],
                                "start" : 8480,
                                "duration" : 3898,
                                "mediaStart" : 9631,
                                "mediaDuration" : 3898,
                                "scalar" : 1,
                                "animationTracks" : {

                                }
                              },
                          "audio" : 
                              {
                                "id" : 36,
                                "_type" : "AMFile",
                                "src" : 5,
                                "trackNumber" : 2,
                                "attributes" : {
                                  "ident" : "",
                                  "sampleRate" : 44100,
                                  "bitDepth" : 16,
                                  "gain" : 1.0,
                                  "mixToMono" : false
                                },
                                  "channelNumber" : "0,1",
                                "effects" : [

                                ],
                                "start" : 8480,
                                "duration" : 3898,
                                "mediaStart" : 9631,
                                "mediaDuration" : 3898,
                                "scalar" : 1,
                                "animationTracks" : {

                                }
                              }
,
                          "start" : 8480,
                          "duration" : 3898,
                          "mediaStart" : 0,
                          "mediaDuration" : 13529,
                          "scalar" : 1,
                          "metadata" : {
                            "AutoAppliedSmartFocus" : "False",
                            "WinSubProjectDisplayName" : "",
                            "clipSpeedAttribute" : false,
                            "default-scale0" : 0.666666666666667,
                            "default-scale1" : 0.666666666666667,
                            "default-translation0" : 0.0,
                            "default-translation1" : 0.0
                          }
                        }
                    ],
                    "effects" : [

                    ],
                    "start" : 1299,
                    "duration" : 11079,
                    "mediaStart" : 1299,
                    "mediaDuration" : 11079,
                    "scalar" : 1,
                    "metadata" : {
                      "AutoAppliedSmartFocus" : "False",
                      "WinSubProjectDisplayName" : "",
                      "clipSpeedAttribute" : false
                    },
                    "animationTracks" : {
                      "visual" : [
                        {
                          "endTime" : 1254,
                          "duration" : 30,
                          "range" : [ 1224, 30]
                        },
                        {
                          "endTime" : 1931,
                          "duration" : 30,
                          "range" : [ 1901, 30]
                        },
                        {
                          "endTime" : 2100,
                          "duration" : 30,
                          "range" : [ 2070, 30]
                        },
                        {
                          "endTime" : 2231,
                          "duration" : 30,
                          "range" : [ 2201, 30]
                        },
                        {
                          "endTime" : 7583,
                          "duration" : 30,
                          "range" : [ 7553, 30]
                        },
                        {
                          "endTime" : 7928,
                          "duration" : 30,
                          "range" : [ 7898, 30]
                        }
                      ]
                    }
                  }
                ],
                "transitions" : [
                  {
                    "name" : "Fade",
                    "duration" : 30,
                    "trivial" : false,
                    "useAudioPreRoll" : true,
                    "useVisualPreRoll" : true,
                    "rightMedia" : 21
                  },
                  {
                    "name" : "Fade",
                    "duration" : 30,
                    "trivial" : false,
                    "useAudioPreRoll" : true,
                    "useVisualPreRoll" : true,
                    "leftMedia" : 21
                  }
                ]
              },
              {
                "trackIndex" : 13,
                "medias" : [
                  {
                    "id" : 37,
                    "_type" : "StitchedMedia",
                    "minMediaStart" : 0,
                    "attributes" : {
                      "ident" : "Rec 02-09-20_008",
                      "gain" : 1.0,
                      "mixToMono" : false
                    },
                    "parameters" : {
                      "volume" : {
                        "type" : "double",
                        "keyframes" : [
                          {
                            "endTime" : 0,
                            "time" : 0,
                            "value" : 1.0,
                            "duration" : 0
                          },
                          {
                            "endTime" : 9616,
                            "time" : 9616,
                            "value" : 1.0,
                            "duration" : 0
                          },
                          {
                            "endTime" : 9617,
                            "time" : 9617,
                            "value" : 0.0,
                            "duration" : 0
                          },
                          {
                            "endTime" : 9828,
                            "time" : 9828,
                            "value" : 0.0,
                            "duration" : 0
                          },
                          {
                            "endTime" : 9829,
                            "time" : 9829,
                            "value" : 1.0,
                            "duration" : 0
                          }
                        ]
                      },
                      "cursorOpacity" : 1.0,
                      "cursorScale" : 1.0
                    },
                    "medias" : [
                        {
                          "id" : 38,
                          "_type" : "AMFile",
                          "src" : 5,
                          "trackNumber" : 1,
                          "attributes" : {
                            "ident" : "Rec 02-09-20_008",
                            "sampleRate" : 44100,
                            "bitDepth" : 16,
                            "gain" : 1.0,
                            "mixToMono" : false
                          },
                            "channelNumber" : "0,1",
                          "effects" : [

                          ],
                          "start" : 0,
                          "duration" : 2684,
                          "mediaStart" : 0,
                          "mediaDuration" : 2684,
                          "scalar" : 1,
                          "metadata" : {
                            "WinSubProjectDisplayName" : "",
                            "clipSpeedAttribute" : false
                          },
                          "animationTracks" : {

                          }
                        },
                        {
                          "id" : 39,
                          "_type" : "AMFile",
                          "src" : 5,
                          "trackNumber" : 1,
                          "attributes" : {
                            "ident" : "Rec 02-09-20_008",
                            "sampleRate" : 44100,
                            "bitDepth" : 16,
                            "gain" : 1.0,
                            "mixToMono" : false
                          },
                            "channelNumber" : "0,1",
                          "effects" : [

                          ],
                          "start" : 2684,
                          "duration" : 1105,
                          "mediaStart" : 3067,
                          "mediaDuration" : 1105,
                          "scalar" : 1,
                          "metadata" : {
                            "WinSubProjectDisplayName" : "",
                            "clipSpeedAttribute" : false
                          },
                          "animationTracks" : {

                          }
                        },
                        {
                          "id" : 40,
                          "_type" : "AMFile",
                          "src" : 5,
                          "trackNumber" : 1,
                          "attributes" : {
                            "ident" : "Rec 02-09-20_008",
                            "sampleRate" : 44100,
                            "bitDepth" : 16,
                            "gain" : 1.0,
                            "mixToMono" : false
                          },
                            "channelNumber" : "0,1",
                          "effects" : [

                          ],
                          "start" : 3789,
                          "duration" : 4376,
                          "mediaStart" : 4343,
                          "mediaDuration" : 4376,
                          "scalar" : 1,
                          "metadata" : {
                            "WinSubProjectDisplayName" : "",
                            "clipSpeedAttribute" : false
                          },
                          "animationTracks" : {

                          }
                        },
                        {
                          "id" : 41,
                          "_type" : "AMFile",
                          "src" : 5,
                          "trackNumber" : 1,
                          "attributes" : {
                            "ident" : "Rec 02-09-20_008",
                            "sampleRate" : 44100,
                            "bitDepth" : 16,
                            "gain" : 1.0,
                            "mixToMono" : false
                          },
                            "channelNumber" : "0,1",
                          "effects" : [

                          ],
                          "start" : 8165,
                          "duration" : 315,
                          "mediaStart" : 8834,
                          "mediaDuration" : 315,
                          "scalar" : 1,
                          "metadata" : {
                            "WinSubProjectDisplayName" : "",
                            "clipSpeedAttribute" : false
                          },
                          "animationTracks" : {

                          }
                        },
                        {
                          "id" : 42,
                          "_type" : "AMFile",
                          "src" : 5,
                          "trackNumber" : 1,
                          "attributes" : {
                            "ident" : "Rec 02-09-20_008",
                            "sampleRate" : 44100,
                            "bitDepth" : 16,
                            "gain" : 1.0,
                            "mixToMono" : false
                          },
                            "channelNumber" : "0,1",
                          "effects" : [

                          ],
                          "start" : 8480,
                          "duration" : 3900,
                          "mediaStart" : 9631,
                          "mediaDuration" : 3900,
                          "scalar" : 1,
                          "metadata" : {
                            "WinSubProjectDisplayName" : "",
                            "clipSpeedAttribute" : false
                          },
                          "animationTracks" : {

                          }
                        }
                    ],
                    "effects" : [
                        {
                          "effectName" : "NoiseReduction",
                          "category" : "categoryAudioEffects",
                          "parameters" : {
                            "denoiserAmount" : 8.0,
                            "denoiserThreshold" : 0.0,
                            "noiseProfile" : "gyOfP7Z+O0Dq/mdA5ykoQBpbpT9/8FdA6WXQQMGXiz83zYI/siHtPqyBND8aRH0/uhg6PzJzZT9c\r\np1M/EN0fQFk8JD+s9lc/iE9FPVCYSD4F/Ow+Z5mUPhehMT8OPMU9qB9pP4SyRj+nk7I+qKDzPiQ2\r\nAj6zbbY8iNe6Patlkjyvs7I9SXmfPZYP0D346D4+7QddPkKqgj7XKxA+invPPYBdqDwKRZg+Mowd\r\nPurWVz5QnNc9s+XDPTwQmD5pJaQ+P8FQPl9cXD3iATU+fU0CP3o0bD59IYU+R8wkPj1Ihj+E0O89\r\ntjpRP8bNdD/Uv6g/TYSmP9esOz9NKCA//4K4P1JdMD/Z+MQ+m7nLP52ljj9TZy8+6ESdPvmQAz8i\r\nwcE/NNJuP6Yyaz+wxSNAxVC9P+KT+kAVRpVAtBVEQK5Ba0Bvb71AWkS2P7tkc0CSnB9BSpYtQGLF\r\nYz9ZgqM+RO3+PuwKhj6XzVM/jmBzPwBvKD6ifYg+tr/MPTbGoz6O/sA9trHyPTKgmD5L730+ZsKl\r\nPub5gT7qQhg+S1JOPkAU4D7/ZsY+dVOJPgDjWj6u8jk+XtSWPcHraD1GoIs9Z2fCPDSVCT1/Ui89\r\nJwhRPYJrrz36ans91q/qPBhNUD1VJX89ALLhPf5zHz2sLaU8imj5PblOMD6li6k+vKp+PYAJoz2U\r\naRU+tDlaPaq/9j0y+i4+H71OPiJbQT7kot0+BVIUPxNRxD5UW1o+pamtPpRf2z52ulo+4VEiPzLk\r\nkT6xwUE+7Jr7PhU/fz4iJXU+xtSSPlD3jz69bW4+/lYZPtQLcj4cyn8+/GguPqASgD58pJc+DUw+\r\nPtgidD6/d3Y+yrX6PUfIlj1jeKs+axyRPj+xVD4MTmw+mu8nPqgZnD2ZegI+jDycPd7J9z2m4ME+\r\nsMr/PSf+Xz7rWfM+f9G3Pd6WHz7hBsg9NuFPPfhzqj1I0449CPZ+PMK6yj03DU09mbS1PN+e9jys\r\nlhs84G+APPEXMzwGPsw7rZLtPMNPMz1L16Y7N+xFPLGL6TwbeVA8XJzdPOZjDz3wPoE9QSgDPdM9\r\nJj0UpDQ+7ycrPiK8pz0GX4w9NbsTPVIdLT3frio9k0JDPRGRZj3RNso9cMr9PL6F1DwdgHw9qUDw\r\nPTeU2D0hblE9VmoCPT7J6jyqci89Z5hVPefx6zz4dL88KQIsPUtWljzUyHw8dLLXPAjqGT07YSg9\r\np6sJPaE6bDw5ypk8NqpFPUqGbjzSva08kZ+kPSj4HD41c6g9nBssPaWEpj3bIKM9nFuYPIQLeDxa\r\nSxg9X5oKPhFnXz3Zs948dKlvPT1uBD5/syY+hAwFPhxIxjyq0xI+BaBvPm0wFj4a7D893+34O6qr\r\nmD2JM5A9O6rtPIjI0jspuaA8UOE7PDzjyTsIRg89+GyXO2dQST0z4QE9Kg+FPeZbiD0CFpE9uRNq\r\nPW3pXT1qfHs+ZTalPri+VD7XYyo9pGGRPoigLT/E1zA/wcUsPhXB1T6amqM/swimP6xvHz9v5QI+\r\nAlQoP6I3hD/usiI/On1TPkAxvz5ldQo/AcnzPpS5aj7exMs9BKuMPtFKnD7g+j4+/lGBPnkOIz4S\r\nWhM+1PktPqKaJj4pYug98dzqPZMVjz7QT1c+dbp/Pdr/sjwQsHs9jf0pPVn5njtsaps8LV/gPUb5\r\n/T0ZFYs9JFO+Pfk8zT1hGiU9kdfsPQPgFD5FL3s+CzZoPlrGTj7HwgI+k5AtPo5eqj7wOsA+bI6l\r\nPrUKCj4Drwg//nm0PhLYQj5Oh1w+iMM1PjvIXD1m/1w86ItVPUuxlz1IzYs9IKKoPWSS3z1ldVc+\r\nvt/FPm3L2T4pPfI+oD1EPmVkIT/3ze0+CCjuPq8L6z7GpCI/1EUJPzuThD6G2IM+rOkFP0K8Gz8R\r\n5NM+Q+v+Ptg8Uz/MLYs/MegqP7alwz5AnTo/ZKOAP4BBLD+Yt/Y+pSDqPgsbHz+GDzE/6zoiP77o\r\niT5RZlY/GjfQPxyecD9vUXU/VGnGPyxtG0BZMAtAcKS+P2o3vT/NHKs/ZTB9Px4tNj+mQC0/bWf4\r\nPnZkpj6IxkI+YtsBPlzvgTyU6E09Ag9RPcbnnj3Kpow9oE4/PmrcxT6w5vs+tKpnP9RplT+w2pA/\r\nNgrMP1++tD8ThOM/OfS2P0ESrT+/T6I/0gx2PwWUUj8jIzw/SslLP7U2XT/Ns2M/7FwrP62ykD8y\r\nnpI/HzCNP0Snjj9Oh4A/TJ+sP1NC1j+kuZE/KhG/PzMGyT83RcY/oC6VP2kMbj+bm3g/XnFGP0C7\r\nQT+YnzY/DG6GP8euez+isII/Nm6QP6j0oT/qtbg/ldavP+Grkz/0v8k/SKGrP7Y3hT/c76Y/b1mj\r\nP+9hnj8ppZI/ghpjP5ORVD8jqjw/u1AzPy5ZUz/Upnc/YYluP+QIwD+txMM/iwbsPwr/+z+VoNs/\r\nkvq5P9opIj8ifk0/VMv+PlsHzj7Mzdw+VM0yPzCDNz9V8Dc/giA1P96XDj9ZHRA/BLLmPtVS5D69\r\nvds+yAiHPv5tBD/vn98+lkFRP0rJXz9/LEY/QM1kP9mvgD/FP1w/aPATP6xqjT7aP3g+1v6lPo29\r\nxz1yQ9w9xRkAPju5Bj4Tg1s+KqvzPQt0Wj7y/6A+JP/KPpxhFD+02Cs/MZ4jP7+lTz+k/Fo/ONde\r\nP7nZWT/yvBg/CACgPkGwjj5gpUA+W/XWPSg2kT0Nj4c8vTdpPVBqmD0qgS89RDftPZYIQD4FQmY+\r\naGqKPmFU0z2kJb09qD8iPsEHID6JaRk+XmoZPmStHT7vvRE+mZz/PVJ7zT0LErk9pzJhPWKuSj2k\r\nqhs83JPpPHl7xTs+KqU8BlkSPA7eCz2NFRc+3ePaPTxp3z3MB9M9ACuePbWF1D1Wxxk+0XSVPQ0n\r\nAD1JkSs91RZYPT0EOD11UUw9yHhnPTjHjz2N+gk+Y9E4PmBxGj6MUwk+qQZCPnHsTT4IoVc+GRYR\r\nPgqdsD0MJsM94hktPV64ST3PoBw9ABpwOxBjND3xYmU9xjWEPawb7z1+BII95gFVPrSJgj5mJbU9\r\ndA85Peqwgz04BHA8pDyXPdAOEj0PDWM7qqqaPHwejTzkQO08CrxTPZKGTD12XWc8yZMXPaE9kz0o\r\n1ic9BW/2PJ+WADzbE0s9qu/ZPH7baz2PPaA91lldPZFShT3UL+Y9EzcDPmhgRz3ANkg90URSPZZU\r\n8zxWiNk85Xe1PHYTDTxYSxo8yLHcPNF+0zwSR6k7tV02PSvefz0zvZA9CJvoPbVboj2Q6gw+cEAU\r\nPg3VDD78lXM+VC4qPhFJYD6qp7A+QdM8PiCkhT5yxqg+BgQGPuIoFj6DwAw+CoOVPXQdiT3LKjY9\r\nwiNZPemXkD0Fl1o9AD+CPbGyrT23M4k9fuuuPUs0wT2ybTA91PX6PW4d/D39k6s9bBzhPa7Y5D2V\r\naw4+Irk0Poh/DT4GIA0+AG4mPoIwAD4ywQY+pDvuPRmEzz2Uoes9zECVPbXPxD009sY96tZRPZq1\r\nXz1RlDQ9+YexPE+lZTz6zs87stBvO/GE1zrsNhY73rOcO24LNzyU5Ww8MRUMPb+pjz3awJo9eAUc\r\nPqOCMj6iij4+BL1fPgquXj7sSlY+WR5jPn+BMD4aau49aoKbPTmBMz1RPGQ8b3hPPKupODznIXU8\r\nfoCqPLBKNTxzCsc8Be/kPDisDT0kNxQ9aDHvPEHDJD0RAgo9yhcIPcDdkjxYTKg8qwx2PIW7gzsW\r\nL7A7/7K8O21BvzrA2rY5NMxGOpoD1jktvDI7XAO6O3BHLTzA8ms8ijTaO26FeDwpODE8PVYOPO+i\r\n6DvW0dg7CDCdO43AqzsmZiM7Ls0iO/v7ujqjj4Q6KnlDOwgHiDujYFc7WvUjPKyMEzxFoRU8ZuVX\r\nPB7rKDwQrgk8SPgdPLKmPDyEwuA7mBmKO77KQDtcsdg6K4RQOnkgDDvPKW47BvCiOo6lwTpMjzE7\r\nLsf5OinVgzoZd7I6YPKgOlkXpjl5K7M5BoFvOg8DGTo07YU5eIeuOf9qJzpcUqk68Fu+OjA1lznE\r\nczc6sAS7OqdRMDov7XY6zvttOvQbZzlW0Jc5pPI3OsTqiTmaAag5THDSOd6p4jd34j45EEvkOIBy\r\nKzkHnR45JlQkOEiLBjlAObg4FGbeOAVoODjte1w4Jh1xOCi/FDm0lzk5iMQLOHcYHTlYq/A4Xv+U\r\nOMrLhzg/51I4gfO1OJGo0jiK2ow4+LwROffsjjjFeGQ4IOmkOOZ0STm4DOo4c4ckOT39uDhOm1A5\r\noHj3OCfgbjkwwAI5hgIIOZs79ThxW285Md77OAe4kDip/wk5Pwo7OfjtCzmU8rc4Ms4MOZrgKTlB\r\nzUA4cNEgOYZUZjglmr446vmDOPpRgTh8Fuk3Q1y5N6vctzfMsa43LuDwN2kz6TfByhE4BmBFOHTm\r\nAjgBM3A4WDoGOO/9RjiUGD447MgLOKt7Bzi6Tu83IyqUOJPJ0jiv1hQ5zfRROccPMDkgdbA5SUNx\r\nOdiVnjm0upI58WfoOYDF1zmmI/I5NaKjOUZSrTnNQZs56yvjOdTgjTn5OS05AT5nOb1Hgjm/fe84\r\nnP8rObSIJjkxfSI5g+4pOTi85zg/lzw5Xo4hOYC1ZDnaaII50pALOZq6Zjklrk84n2cjOauXkjiU\r\nsMY4QymKOF9sHTiISAw4ObcBOOcsLjhF4Ts4a52kOCQR1Ti+WRI4A2/4OE3ACzjKXdk4hP/SOBUX\r\nqzhjG6k4jGAlOSU2Fjl+kLs4XssEOWICfDmSBAo5fYtMOabyFDkRslY5f0jxONz6XDkg3dc4ug+s\r\nOKpYATkTvgg5ulxQONoW3DcIp8s3r2MLOAw/hDensSM3r7s1N8ntVjdImiY37IAlN0vFvDfea5A3\r\nyHZHN1GzQDeqi4Q32MewNwD1TTd18lU3Yf8cN8ytMzeOqj03TrlIN18wCTeKEy83sAExN93GMje+\r\nXRg3v6Q4N9sSIzc2yz03RBVUN8BOVTeypis34UcjNxZ2cTfabUM3Ow9MN5ZrTDd2HDg3dogMN1Xn\r\nKDdQSyY3mCQ0N3HoGzfJXy83PC5JNxn6LTe9+z83qOwqNz9kSzfcHVk3IRd4N2TnIjeU2Cw3KuIr\r\nNxBnNzdt0ik3cj4zNxc8RDcOqC03gO9ON0/nPTexPkM3FH0oN8wLDzdvTRg3/Wc4N9ADIjfynxs3\r\ne+puNyk0JDdz8Dc3Z9cwN6BIITee+TM374QmN8SlJjfIxTs35kYDN8/eDTfuQSo3XIJiN1tuQzfQ\r\nOxQ3CxZFN/5yMTe4vlA3CJJJN3B9XDdSjUE3Df0QN6HbJTel+zo34fQ4N5zORzcsG0Y3eUw1N383\r\nMze5mwM34Lx6N9TbNzcdtUA3Z3tfN08EZDct0z03cXsbN/XUZTcovi83l4pXN9O4NTfJqz439e05\r\nNx0INTfUYCw3x54ZN+5IJDd0o0M3CdgcN0HGHTcLKBY3dzs4Nx7rIjeKnUc3YZ8LNwBkHzcgUJ8/\r\n5V87QLb1Z0A7HihAYmelP7DzV0D2X9BAkq6LP+rCgj9SZe0+GoI0Pyo7fT+FIDo/YK9lPzXkUz+W\r\n9R9AfY8kP6sbWD9oW0U9O/pIPhJO7T5eypQ+WpQxPyCMxT06mWg/McdFPxz0sT6e1/I+tgABPs2Z\r\nsDyEmrY9X56TPH73tD2EEJ896/XXPZ9JQz46bGI+W2KGPk6HFT6kvtg9Py+qPBjDnD6zoyM+LA1f\r\nPmyk4D2Y0so972KcPqhSqD7rqVg+LrNxPY5ePz5WVQc/Wg97PnMejj4q3yQ+V1KLP5gzBD4KBVc/\r\nmmh/P8F/rj9Q7qw//aZEP+fdKD/BNr4/Wp84P5RNzz7P29E/cKGOPz4VOj5HGp0+N4ADPwTVwT+K\r\nqG4/wDN6P9rCKkAWusU/FHUAQVMCm0Ddnk1AYeJ0QIWGvUA2xsM/zAp+QJJyI0HDrzJAekF0P4Co\r\ntD4nogg/tnOMPuPrWD+OqX0/xWooPuQyjj4QG8w9D5WjPiRwwD139vI9uZ6XPjSCfT7Wg6U+EAqC\r\nPoy2GD6g6U0+BmrgPutlxj7aq4k+CUhaPguIOT5Qp5c90oNpPX+Fiz1TO8E8GQMKPWZBLz2nylA9\r\ni3KvPYh2ez2iF+s8fhZPPR7Dfz1gNeI9qAUfPY+tpjxkPvk9fMIwPt21qT6WzX49PZujPTjLFD5g\r\nmFo9wiP7PXMRMj4wR1M++ZhIPsmB4z5vvhg/PWDLPl0aZj5PoLQ+2nXiPmkAaD4YcSI/fIaUPplw\r\nTj7gJPs+D8CEPuwJgD4LsJQ+O1iWPpz8eT5EUSI+eM99Pp3hhT6ImDg+Fw6GPoY6nj7vQT4+ecZ9\r\nPg/KgD7YPvs9WnyWPY05qz54c5E+GvBUPpUKbD7IKCg+VEucPfjHAj60E5w9to33PfjuwT4XkgA+\r\niuFfPqee8z4GKrg9GokfPqV3xz3wRE89bMuqPTm0kj3IQ4A8G67LPS11TT078rQ8dhD4PCsNIDw+\r\nzoQ8g5s6PH2F0jv1k+488TIzPcQLrjulwEI8DYjpPEV7TzwZEt4823UQPZ2agD3MzQM9IiUmPV/G\r\nND7Cxis+xoepPa+tiz2McRM99rEuPWZUKz1xXEY9jCdmPZZPyj2mW/08i27XPLydej1wavA9GsnY\r\nPZUeUT1g9wI9ZMnqPJLcLz1OAVY9K2HpPKGfxTy28S894PyYPCYYfDwiK988zvUfPdDELz1eaA89\r\nQfJ5PBx6ojzIcEo9lMh2PG5ktzyO36g9yv8fPphBrD3FdTE93F6qPWZEpz00IqA8Ji2EPOtqHj18\r\n8g4+H1NpPR746Tyu4Hs9KK4JPo1PLT4Ivgk+VePYPDlcGD4PKHc+C/YbPuo1TT3sAAw8mnahPere\r\nlj3R1fw86mLyO+ASrjxTW1A8flzoO/x1Dz3Lupg7urlRPcIjAj1CD4U9owCMPYDRkz1My3I9qhVw\r\nPdYJgz4wEas+xxZZPvLTOT0G2Zg+m5MzPyJkNj9uqTg+k1/iPnVNqT/PNqs/TJglP+r6ET6iyTA/\r\nx26JP0F9KT8R2mM+yM7JPiliED/Adfw+aQdzPhEp3D1tN5M+JMegPsuBRj7EbYU+O40pPtnCGT4y\r\n5jU+fGEuPiiL9D1DOvc95k2TPoFLXT520oU99lnBPDpNgz34CS89OV2jO5CsnTw65OE97rf/PahT\r\njT1O3MI9GSjSPZ12KD1AwvQ9l5MZPq81gT6ByG4+cyJVPgn1CD5wDzU+CZOvPvAHxj5kWas+btcR\r\nPv7xDD9gQrs+Fx5MPsDLZT6LnD0+cwNzPVDqYTyaV1s9aiCRPVnOij0AMqw98ZLnPfcsYD40F8w+\r\nWs3gPqxr+j76kVA+saUmPxSn9z7g5fY+Xlb0PlNEKD/yQw4//16MPm11iz7Ujws/k7ohP9Gv3j7W\r\n+QU/idhcP1TikD8OGzQ/ysTRPuq8RD8o9YY/1j03P1dVAz8Ntfs+WJkoP1fkOD+Tryg/Ri+UPq0A\r\nYT8HpNc/Nel7P+vpgD80hM8/g9EhQLNuEUDavMg/GH3HPx85tD9z7oU/EVNCP7XnOD/Q4wU/ZTG1\r\nPi5sWD7lTBI+fResPOnWcD20inQ9zo62PYi4nz0smkU+0znTPjVABz9uP3M/7KCcPzn6lz8ck9Q/\r\nUCi+P3u96z8KQL4/P4mzP2RSpz/Sc30/M65YPyi9QT+kLFE/FH5iP1T7aD+P7DA/uO2UP+Awlj/R\r\nWJE/IBCTP9uDhT+p67E/bpncPyiLlz8CT8Y/rRbQP6PHzD8Cipo/A1t3P96IgD/6ZE0/NhdIP78T\r\nPT9LmYo/PwuCP9J8hz+LapU/dmCoPy+uwD/P77c/Fq2bP0ZG0z8wZLU/kdqNP4ffsD+MkK0/4leo\r\nP5iOnD98JHQ/LhRiP9HSRj8k9Do/nkBZP1hXfT9kqXQ/eJfEPxiYxz+l/+8/lCsAQNs63z8dKLw/\r\nkAAkPxWiTT+6Mv0+b5HMPl6v3D4OljQ/ow06P+8FOz9d9jg/WU0RP1iuET/2/uc+ctXjPq6C2T5g\r\nj4Q+KdYCP+5g3D5gRE8/de1eP88ERj9AXmY/WBCCP5m6Xj8FIBY/wVmQPqLTfD7uPKg+RGrLPc2C\r\n3T0+Iv49VUYEPumCVz444uo9eChUPlhfnT4Pxsc+yFMTP3iCKz/E5yQ/2ZpRP7g5Xj+ABmM/7zde\r\nP0OAHD8kn6U+ipuTPiNiSD6gnt89g/eZParXhjytZGM9GoeWPXy7Kj1pwu89DyRCPtjVZz4IH4s+\r\nktPSPS43uz3goCA+qaYePosLGT6kvBk+BGwfPsM3FD7PdwE+e5XSPXMdvz2AbWo9SsdTPWo0Gzzi\r\nVek8JqLFO4oznDyO/hI8uvgLPanLGD4D+d09PQriPQGs1z2kuKI9GgzXPRj/Gj4+MpU98a79PMXp\r\nKz2BQF89Li03PajBVD3bDHk9IrmcPUzkET4bjEE+tdEiPmRBED4DoUk+iGJVPicyXj5oBRU+UDm3\r\nPe2VyD1VQTQ94XFOPX5VGj0Mm4g70ow+PfQMcD2Ai4o9Wqz2PW99hz1Cg1o+gSCFPhWouD3iT0M9\r\nfdGIPTdTgjw1BJ49YtMXPez2TDvui6k8G32aPIIt/zxKQVw9eMpOPUyefjzNkR49z/OWPe6sLz1Y\r\nuPs8SiERPHBWVz2i1+s8J/91PY7+pT1aU2c9DbqIPegc7D3yAAY+FnVMPdz8TT3WAVo9gpL/PL5D\r\n5Dzm3r88cqIZPCu8JTxe2uY8lDDcPDImvDvK4Dw92KSEPfwslj3Ihu49BkGpPRVFEj7X1hg+GjwT\r\nPribfD6LyzE+LtNpPhf9tj5440U+t76LPjFkrz7u8w0+cKIePjwfFT5w2KE9CmiUPbgdSD0Avms9\r\nSzibPXGUbj0KgY09wUW5Pf+7kj1skro9VD3HPVN4Nz3mFwI+Oj0BPkx+sz2fFuw9rvruPfBaFD7Y\r\nlDo++ucRPhknET4odSk+g7MCPlhdCD5VFvA9DtXQPUJY7D0UoZU9nlXFPe+Exj3VtlE94aVfPUq+\r\nMz3NtK889uhkPNSpzDuPUms77NvVOrWYFTss7pw7auk1PCLcajw2Iww9zCePPdhymj0Lxxs+dxcy\r\nPvx9Pj4H2F8+d75ePpJoVj5/NmM+0tQwPsNq7j2mCJs9Au0zPehkZTx6XE88qAs5PMr/dTxAHqs8\r\npRw1PBb/xTxoc+Q8CqsNPT+vEz3Eyu48+AclPRKrCT0e+gc9aJGTPELspzy6mHY8HDKEO5ttrjvG\r\nTL0798PCOlK8uTkIU0U6ro/cOVSfMDsAMbg7JiwsPPtlbDweD9k7Ix53PPIRMTyKJw48ZmjpO9D8\r\n2DvqUJw7Q/arO3nAIzszVCM7ujS8OstghDqYTkI7QW6GO0xAVjsCuSM8nxsTPAVuFTzAglg8cisp\r\nPOurCTz6DR08p0c9PDJh4TuNnIk79Q9AO9NY1zqpOU06TkEKO8bjcDtyPKM6cmTCOm8LNDsu5Ps6\r\njqeDOiJ5tjoWfaI6sUWmOfb4vTnq+XQ64uAWOnb9hjlOe7Y53tcrOruEojq/U7061jGZOXqrNzqu\r\nPLo6E9EwOuBNczquc3I6unJnOTUNmDmhITY6A92FOa7OrTkdT885SesOOOSlPjlMu984VMQqOcKV\r\nHjmN+AQ4bYkGOTuItDgw29M4wfEvOKGhWDgVuG04BKMXOTr7QzlP6QQ4T68dOfXr7Dgq+Yg4ND2I\r\nODqvVTgooq84LTfWOPVJjTjyDBQ59tmUOPv5ajjpPKc47HBQOVww4jhq0S45EAjCOBZtUjkObgE5\r\nmwx5ObJCBTmFiwk5UbjwOK6CazkJlvQ4BpKMOLufCDmI4T85G1YLOUn6rTiJdgs5698nOStJIjgA\r\nvB05cFlmOGhS1Dg6jI0418yHOLto+zeE2KQ3iA7JN/ov3DfMsvY3TSzNNzQ5JDgIU0I4yjYOOK90\r\nUzhB0Qc4G2RTOD6MMTgtSBI4F6INOBsb/DdqgaA4Dy/aOPLhEzkCvFg5qmoyOSu/sDm+5G85kw6f\r\nOVpqlDmFvus5cOTYOR4B9zlUP6Y54sOvOX11nDkEO+M580uNOXhVLDlsVmY5CAWCOXHk7TjHhSs5\r\nlvonOSxfJDnPeC05an/nOJXCNzkCTB85aARlOcZOgzlDCBU5IYxqOaPUZDhneCg5AgWcODSsqDiV\r\npmo4At8cOEC2IDjdxQY4/kEpOFdYPzgocKI47SS/OLAO9zf1wAY5fowOOPos4TiJodg4nLegODEm\r\nrjhm7Sk5EaocOXSOrzgcMgM5SamBOTafDDkcP0o5HnQSOTr8Ujnpk+44F5VWOZo20Dj2Q544J1rw\r\nODNUCjk0G1c4FmmqNxEMnjcklAs49EVQN5+6GzcVFB83+AdMN2/ZTTeRhV43QAOxN4cPhTcpbCE3\r\nTeIUNwY1dDd+kpk3zgw7N/CLIzcxxxk3zwEaNyFqMDdb2lk3Jj0RNzQnQTdSVRw32ThRN9FrPTft\r\n60w3YPUpN0qEgDdZ8lQ37ipfN12vKzchOTA3qpEwN4NmJDfcnjA3EhYtN4sMYzcM6Uc3F9UON3Xo\r\nGjcEuU83G9QRN5UGQzcCUDo3qVoZN8+nIjfH6zs3kmszN3xeSjcJkUo3HcFSN/D7EDeVSkU3yGsM\r\nN5fVTDcikyw3CbkXN3kSKTfYPyg343YqN3nGHDc4/RI3ztgoN+7+JTeSMVA3+0IqN926CTdDXBc3\r\ncncgN7CvGzfZHFo3qtUvN2aNJDc81Uw33NlJN0/wTzdcZzE3uBEUNxUDUzfDA0s3bBwmN7VY4jY+\r\nKWE3xUNGN98nMTdXnyw3Sh9LN9mbOTfdbDU3pTsuN4RFLDerix03tREwN3E8Uzf2akg3uvstN5Ph\r\nHDfkLhw3Tm8TN3AKRjcM0Ug3TJ09N0ZKHTd5A0o3CNQIN+K7JzdjU0A3byxSN3+BHTfvLzU3XUoc\r\nN+5FNDfW0FE32LwRN/85TDesWhE3IFcZN1MLHjf6ATM3n+ZlNxzsRjcSHEU3AEA2Nw==",
                            "noiseTrainingType" : "default"
                          }
                        }
                    ],
                    "start" : 0,
                    "duration" : 12380,
                    "mediaStart" : 0,
                    "mediaDuration" : 12380,
                    "scalar" : 1,
                    "metadata" : {
                      "WinSubProjectDisplayName" : "",
                      "clipSpeedAttribute" : false
                    },
                    "animationTracks" : {

                    }
                  }
                ]
              },
              {
                "trackIndex" : 14,
                "medias" : [
                  {
                    "id" : 43,
                    "_type" : "IMFile",
                    "src" : 6,
                    "trackNumber" : 0,
                    "trimStartSum" : 0,
                    "attributes" : {
                      "ident" : "Slide1"
                    },
                    "effects" : [

                    ],
                    "start" : 112,
                    "duration" : 1187,
                    "mediaStart" : 0,
                    "mediaDuration" : 1,
                    "scalar" : 1,
                    "metadata" : {
                      "WinSubProjectDisplayName" : "",
                      "clipSpeedAttribute" : false
                    },
                    "animationTracks" : {

                    }
                  }
                ],
                "transitions" : [
                  {
                    "name" : "Fade",
                    "duration" : 30,
                    "trivial" : false,
                    "useAudioPreRoll" : true,
                    "useVisualPreRoll" : true,
                    "rightMedia" : 43
                  },
                  {
                    "name" : "Fade",
                    "duration" : 30,
                    "trivial" : false,
                    "useAudioPreRoll" : true,
                    "useVisualPreRoll" : true,
                    "leftMedia" : 43
                  }
                ]
              },
              {
                "trackIndex" : 15,
                "medias" : [
                ]
              },
              {
                "trackIndex" : 16,
                "medias" : [
                ]
              }
            ]
          }
        }
      ]
    },
    "trackAttributes" : [
      {
        "ident" : "",
        "audioMuted" : false,
        "videoHidden" : false,
        "magnetic" : false,
        "metadata" : {
          "IsLocked" : "False",
          "WinTrackHeight" : "108.923076923077",
          "trackHeight" : "86"
        }
      },
      {
        "ident" : "",
        "audioMuted" : false,
        "videoHidden" : false,
        "magnetic" : false,
        "metadata" : {
          "IsLocked" : "False",
          "WinTrackHeight" : "108.923076923077",
          "trackHeight" : "40"
        }
      },
      {
        "ident" : "",
        "audioMuted" : false,
        "videoHidden" : false,
        "magnetic" : false,
        "metadata" : {
          "IsLocked" : "False",
          "WinTrackHeight" : "108.923076923077",
          "trackHeight" : "40"
        }
      },
      {
        "ident" : "",
        "audioMuted" : false,
        "videoHidden" : false,
        "magnetic" : false,
        "metadata" : {
          "IsLocked" : "False",
          "WinTrackHeight" : "108.923076923077",
          "trackHeight" : "102"
        }
      },
      {
        "ident" : "",
        "audioMuted" : false,
        "videoHidden" : false,
        "magnetic" : false,
        "metadata" : {
          "IsLocked" : "False",
          "WinTrackHeight" : "108.923076923077",
          "trackHeight" : "150"
        }
      },
      {
        "ident" : "",
        "audioMuted" : false,
        "videoHidden" : false,
        "magnetic" : false,
        "metadata" : {
          "IsLocked" : "False",
          "WinTrackHeight" : "108.923076923077",
          "trackHeight" : "150"
        }
      },
      {
        "ident" : "",
        "audioMuted" : false,
        "videoHidden" : false,
        "magnetic" : false,
        "metadata" : {
          "IsLocked" : "False",
          "WinTrackHeight" : "108.923076923077",
          "trackHeight" : "102"
        }
      },
      {
        "ident" : "",
        "audioMuted" : false,
        "videoHidden" : false,
        "magnetic" : false,
        "metadata" : {
          "IsLocked" : "False",
          "WinTrackHeight" : "108.923076923077",
          "trackHeight" : "54"
        }
      },
      {
        "ident" : "",
        "audioMuted" : false,
        "videoHidden" : false,
        "magnetic" : false,
        "metadata" : {
          "IsLocked" : "False",
          "WinTrackHeight" : "108.923076923077",
          "trackHeight" : "86"
        }
      },
      {
        "ident" : "",
        "audioMuted" : false,
        "videoHidden" : false,
        "magnetic" : false,
        "metadata" : {
          "IsLocked" : "False",
          "WinTrackHeight" : "108.923076923077",
          "trackHeight" : "86"
        }
      },
      {
        "ident" : "",
        "audioMuted" : false,
        "videoHidden" : false,
        "magnetic" : false,
        "metadata" : {
          "IsLocked" : "False",
          "WinTrackHeight" : "108.923076923077"
        }
      },
      {
        "ident" : "",
        "audioMuted" : false,
        "videoHidden" : false,
        "magnetic" : false,
        "metadata" : {
          "IsLocked" : "False",
          "WinTrackHeight" : "108.923076923077"
        }
      },
      {
        "ident" : "",
        "audioMuted" : false,
        "videoHidden" : false,
        "magnetic" : false,
        "metadata" : {
          "IsLocked" : "False",
          "WinTrackHeight" : "108.923076923077"
        }
      },
      {
        "ident" : "",
        "audioMuted" : false,
        "videoHidden" : false,
        "magnetic" : false,
        "metadata" : {
          "IsLocked" : "False",
          "WinTrackHeight" : "108.923076923077"
        }
      },
      {
        "ident" : "",
        "audioMuted" : false,
        "videoHidden" : false,
        "magnetic" : false,
        "metadata" : {
          "IsLocked" : "False",
          "WinTrackHeight" : "108.923076923077"
        }
      },
      {
        "ident" : "",
        "audioMuted" : false,
        "videoHidden" : false,
        "magnetic" : false,
        "metadata" : {
          "IsLocked" : "False",
          "WinTrackHeight" : "108.923076923077"
        }
      },
      {
        "ident" : "",
        "audioMuted" : false,
        "videoHidden" : false,
        "magnetic" : false,
        "metadata" : {
          "IsLocked" : "False",
          "WinTrackHeight" : "108.923076923077"
        }
      }
    ],
    "captionAttributes" : {
      "enabled" : true,
      "fontName" : "Arial",
      "fontSize" : 32,
      "backgroundColor" : [ 0, 0, 0, 127],
      "foregroundColor" : [ 255, 255, 255, 255],
      "lang" : "en",
      "alignment" : 0,
      "defaultFontSize" : true,
      "opacity" : 0.5,
      "backgroundEnabled" : true,
      "backgroundOnlyAroundText" : true
    },
    "backgroundColor" : [ 0, 0, 0, 255]
  },
  "metadata" : {
    "AutoSaveFile" : "",
    "CanvasZoom" : 75,
    "Date" : "2020-01-27 11:33:13 PM",
    "Fit" : 0,
    "IsAutoSave" : "0",
    "Language" : "ENU",
    "ProfileName" : "MP4 only (up to 720p)",
    "ProjectDimensionsChanged" : "0",
    "Title" : "CamtasiaTemplateWindows",
    "audioNarrationNotes" : "",
    "calloutStyle" : "All",
    "canvasDetached" : "False",
    "canvasPositionHeight" : "0",
    "canvasPositionLeft" : "0",
    "canvasPositionTop" : "0",
    "canvasPositionWidth" : "0",
    "firstMedia" : true
  },
  "audioPlaybackRate" : 44100
,
  "themeFile" : null

}
