{
  "title" : "",
  "description" : "",
  "author" : "",
  "targetLoudness" : -18.0,
  "shouldApplyLoudnessNormalization" : false,
  "videoPlaybackRate" : 30,
  "audioPlaybackRate" : 44100,
  "width" : 1280.0,
  "height" : 720.0,
  "version" : "3.0",
  "editRate" : 30,
  "authoringClientName" :  {
    "name" : "Camtasia",
    "platform" : "Windows",
    "version" : "19.0"
  },
  "sourceBin" : [
    {
      "id" : 1,
      "src" : "D:\\Data Files\\Udemy\\Instructor\\Codestars\\Course-Prep-Splash\\Camtasia9TemplateWindows\\codestars_logo.png",
      "rect" : [0, 0, 1061, 168],
      "lastMod" : "20200128T043621",
      "sourceTracks" : [
        {
          "range" : [0, 1],
          "type" : 1,
          "editRate" : 10000000,
          "trackRect" : [0, 0, 1061, 168],
          "sampleRate" : 0,
          "bitDepth" : 32,
          "numChannels" : 0,
          "integratedLUFS" : 100.0,
          "peakLevel" : -1.0,
          "metaData" : ""
        }
      ]
    },
    {
      "id" : 2,
      "src" : "D:\\Data Files\\Udemy\\Instructor\\Codestars\\Course-Prep-Splash\\Camtasia9TemplateWindows\\star.png",
      "rect" : [0, 0, 199, 206],
      "lastMod" : "20200128T043621",
      "sourceTracks" : [
        {
          "range" : [0, 1],
          "type" : 1,
          "editRate" : 10000000,
          "trackRect" : [0, 0, 199, 206],
          "sampleRate" : 0,
          "bitDepth" : 32,
          "numChannels" : 0,
          "integratedLUFS" : 100.0,
          "peakLevel" : -1.0,
          "metaData" : ""
        }
      ]
    },
    {
      "id" : 3,
      "src" : "D:\\Data Files\\Udemy\\Instructor\\Codestars\\Course-Prep-Splash\\Camtasia-JPB-CPP\\Splash_Android.png",
      "rect" : [0, 0, 1920, 1080],
      "lastMod" : "20200201T225340",
      "sourceTracks" : [
        {
          "range" : [0, 1],
          "type" : 1,
          "editRate" : 10000000,
          "trackRect" : [0, 0, 1920, 1080],
          "sampleRate" : 0,
          "bitDepth" : 32,
          "numChannels" : 0,
          "integratedLUFS" : 100.0,
          "peakLevel" : -1.0,
          "metaData" : ""
        }
      ]
    },
    {
      "id" : 4,
      "src" : "C:\\Users\\profj\\Desktop\\Udemy\\Codestars\\CPP\\videos\\Course-Prep-Splash\\JPB-Images\\PNG\\Head.png",
      "rect" : [0, 0, 721, 1024],
      "lastMod" : "20200203T062252",
      "sourceTracks" : [
        {
          "range" : [0, 1],
          "type" : 1,
          "editRate" : 10000000,
          "trackRect" : [0, 0, 721, 1024],
          "sampleRate" : 0,
          "bitDepth" : 32,
          "numChannels" : 0,
          "integratedLUFS" : 100.0,
          "peakLevel" : -1.0,
          "metaData" : ""
        }
      ]
    },
    {
      "id" : 5,
      "src" : "C:\\Users\\profj\\Documents\\Camtasia\\Rec 02-15-20_002.trec",
      "rect" : [0, 0, 1920, 1080],
      "lastMod" : "20200215T193111",
      "sourceTracks" : [
        {
          "range" : [0, 26689],
          "type" : 0,
          "editRate" : 30,
          "trackRect" : [0, 0, 1920, 1080],
          "sampleRate" : 29,
          "bitDepth" : 0,
          "numChannels" : 0,
          "integratedLUFS" : 100.0,
          "peakLevel" : -1.0,
          "metaData" : "Rec 02-15-20_002.trec;"
        },
        {
          "range" : [0, 39228416],
          "type" : 2,
          "editRate" : 44100,
          "trackRect" : [0, 0, 0, 0],
          "sampleRate" : 44100,
          "bitDepth" : 16,
          "numChannels" : 2,
          "integratedLUFS" : -26.7715047553643,
          "peakLevel" : 1.0,
          "metaData" : ""
        },
        {
          "range" : [0, 39232512],
          "type" : 2,
          "editRate" : 44100,
          "trackRect" : [0, 0, 0, 0],
          "sampleRate" : 44100,
          "bitDepth" : 16,
          "numChannels" : 2,
          "integratedLUFS" : 0.0,
          "peakLevel" : 0.0,
          "metaData" : ""
        }
      ]
    },
    {
      "id" : 6,
      "src" : "C:\\Users\\profj\\Desktop\\Udemy\\Codestars\\CPP\\videos\\section2\\_intro-bulletpoints\\s2-lec9-logical-op\\Slide1.PNG",
      "rect" : [0, 0, 1280, 720],
      "lastMod" : "20200227T022038",
      "sourceTracks" : [
        {
          "range" : [0, 1],
          "type" : 1,
          "editRate" : 10000000,
          "trackRect" : [0, 0, 1280, 720],
          "sampleRate" : 0,
          "bitDepth" : 24,
          "numChannels" : 0,
          "integratedLUFS" : 100.0,
          "peakLevel" : -1.0,
          "metaData" : ""
        }
      ]
    }
  ],
  "timeline" : {
    "id" : 7,
    "sceneTrack" : {
      "scenes" : [
        {
          "duration" : 753.866666666667,
          "title" : "",
          "type" : "",
          "csml" : {
            "tracks" : [
              {
                "trackIndex" : 0,
                "medias" : [
                  {
                    "id" : 8,
                    "_type" : "IMFile",
                    "src" : 3,
                    "trackNumber" : 0,
                    "trimStartSum" : 0,
                    "attributes" : {
                      "ident" : "Splash_Android"
                    },
                    "parameters" : {
                      "translation0" : 0.00456702366917246,
                      "translation1" : -0.00256895081391425,
                      "scale0" : 0.666671423982989,
                      "scale1" : 0.666671423982989
                    },
                    "effects" : [

                    ],
                    "start" : 22466,
                    "duration" : 150,
                    "mediaStart" : 0,
                    "mediaDuration" : 1,
                    "scalar" : 1,
                    "metadata" : {
                      "WinSubProjectDisplayName" : "",
                      "clipSpeedAttribute" : false,
                      "default-scale" : "0.666667",
                      "effectApplied" : "none"
                    },
                    "animationTracks" : {

                    }
                  }
                ],
                "transitions" : [
                  {
                    "name" : "Fade",
                    "duration" : 30,
                    "trivial" : true,
                    "useAudioPreRoll" : false,
                    "useVisualPreRoll" : true,
                    "rightMedia" : 8
                  },
                  {
                    "name" : "Fade",
                    "duration" : 30,
                    "trivial" : true,
                    "useAudioPreRoll" : false,
                    "useVisualPreRoll" : true,
                    "leftMedia" : 8
                  }
                ]
              },
              {
                "trackIndex" : 1,
                "medias" : [
                  {
                    "id" : 9,
                    "_type" : "IMFile",
                    "src" : 2,
                    "trackNumber" : 0,
                    "trimStartSum" : 0,
                    "attributes" : {
                      "ident" : "star"
                    },
                    "parameters" : {
                      "translation0" : {
                        "type" : "double",
                        "defaultValue" : -522.733906099372,
                        "interp" : "linr"
                      },
                      "translation1" : {
                        "type" : "double",
                        "defaultValue" : -277.438113851611,
                        "interp" : "linr"
                      },
                      "translation2" : {
                        "type" : "double",
                        "defaultValue" : 0.0,
                        "interp" : "linr"
                      },
                      "rotation0" : {
                        "type" : "double",
                        "defaultValue" : 0.0,
                        "interp" : "linr"
                      },
                      "rotation1" : {
                        "type" : "double",
                        "defaultValue" : 0.0,
                        "interp" : "linr"
                      },
                      "rotation2" : {
                        "type" : "double",
                        "defaultValue" : 0.0,
                        "interp" : "linr"
                      },
                      "shear0" : {
                        "type" : "double",
                        "defaultValue" : 0.0,
                        "interp" : "linr"
                      },
                      "shear1" : {
                        "type" : "double",
                        "defaultValue" : 0.0,
                        "interp" : "linr"
                      },
                      "shear2" : {
                        "type" : "double",
                        "defaultValue" : 0.0,
                        "interp" : "linr"
                      },
                      "scale0" : {
                        "type" : "double",
                        "defaultValue" : 0.344059357782636,
                        "interp" : "linr"
                      },
                      "scale1" : {
                        "type" : "double",
                        "defaultValue" : 0.344059357782636,
                        "interp" : "linr"
                      },
                      "scale2" : {
                        "type" : "double",
                        "defaultValue" : 1.0,
                        "interp" : "linr"
                      },
                      "anchor0" : {
                        "type" : "double",
                        "defaultValue" : 0.0,
                        "interp" : "linr"
                      },
                      "anchor1" : {
                        "type" : "double",
                        "defaultValue" : 0.0,
                        "interp" : "linr"
                      },
                      "anchor2" : {
                        "type" : "double",
                        "defaultValue" : 0.0,
                        "interp" : "linr"
                      },
                      "opacity" : {
                        "type" : "double",
                        "defaultValue" : 1.0,
                        "keyframes" : [
                          {
                            "endTime" : 150,
                            "time" : 120,
                            "value" : 0.0,
                            "duration" : 30
                          }
                        ]
                      }
                    },
                    "effects" : [

                    ],
                    "start" : 22466,
                    "duration" : 150,
                    "mediaStart" : 0,
                    "mediaDuration" : 1,
                    "scalar" : 1,
                    "metadata" : {
                      "WinSubProjectDisplayName" : "",
                      "clipSpeedAttribute" : false,
                      "default-opacity" : 0.0,
                      "default-scale" : "1",
                      "effectApplied" : "none"
                    },
                    "animationTracks" : {
                      "visual" : [
                        {
                          "endTime" : 150,
                          "duration" : 30,
                          "range" : [ 120, 30]
                        }
                      ]
                    }
                  }
                ],
                "transitions" : [
                  {
                    "name" : "Fade",
                    "duration" : 30,
                    "trivial" : true,
                    "useAudioPreRoll" : true,
                    "useVisualPreRoll" : true,
                    "rightMedia" : 9
                  },
                  {
                    "name" : "Fade",
                    "duration" : 30,
                    "trivial" : true,
                    "useAudioPreRoll" : true,
                    "useVisualPreRoll" : true,
                    "leftMedia" : 9
                  }
                ]
              },
              {
                "trackIndex" : 2,
                "medias" : [
                  {
                    "id" : 10,
                    "_type" : "IMFile",
                    "src" : 1,
                    "trackNumber" : 0,
                    "trimStartSum" : 0,
                    "attributes" : {
                      "ident" : "codestars_logo"
                    },
                    "parameters" : {
                      "translation0" : {
                        "type" : "double",
                        "defaultValue" : -263.136792317664,
                        "interp" : "linr"
                      },
                      "translation1" : {
                        "type" : "double",
                        "defaultValue" : -271.784183685799,
                        "interp" : "linr"
                      },
                      "translation2" : {
                        "type" : "double",
                        "defaultValue" : 0.0,
                        "interp" : "linr"
                      },
                      "rotation0" : {
                        "type" : "double",
                        "defaultValue" : 0.0,
                        "interp" : "linr"
                      },
                      "rotation1" : {
                        "type" : "double",
                        "defaultValue" : 0.0,
                        "interp" : "linr"
                      },
                      "rotation2" : {
                        "type" : "double",
                        "defaultValue" : 0.0,
                        "interp" : "linr"
                      },
                      "shear0" : {
                        "type" : "double",
                        "defaultValue" : 0.0,
                        "interp" : "linr"
                      },
                      "shear1" : {
                        "type" : "double",
                        "defaultValue" : 0.0,
                        "interp" : "linr"
                      },
                      "shear2" : {
                        "type" : "double",
                        "defaultValue" : 0.0,
                        "interp" : "linr"
                      },
                      "scale0" : {
                        "type" : "double",
                        "defaultValue" : 0.402192662926175,
                        "interp" : "linr"
                      },
                      "scale1" : {
                        "type" : "double",
                        "defaultValue" : 0.402192662926175,
                        "interp" : "linr"
                      },
                      "scale2" : {
                        "type" : "double",
                        "defaultValue" : 1.0,
                        "interp" : "linr"
                      },
                      "anchor0" : {
                        "type" : "double",
                        "defaultValue" : 0.0,
                        "interp" : "linr"
                      },
                      "anchor1" : {
                        "type" : "double",
                        "defaultValue" : 0.0,
                        "interp" : "linr"
                      },
                      "anchor2" : {
                        "type" : "double",
                        "defaultValue" : 0.0,
                        "interp" : "linr"
                      },
                      "opacity" : 0.0
                    },
                    "effects" : [

                    ],
                    "start" : 22466,
                    "duration" : 150,
                    "mediaStart" : 0,
                    "mediaDuration" : 1,
                    "scalar" : 1,
                    "metadata" : {
                      "WinSubProjectDisplayName" : "",
                      "clipSpeedAttribute" : false,
                      "default-scale" : "1",
                      "effectApplied" : "none"
                    },
                    "animationTracks" : {

                    }
                  }
                ],
                "transitions" : [
                  {
                    "name" : "Fade",
                    "duration" : 30,
                    "trivial" : true,
                    "useAudioPreRoll" : true,
                    "useVisualPreRoll" : true,
                    "rightMedia" : 10
                  },
                  {
                    "name" : "Fade",
                    "duration" : 30,
                    "trivial" : true,
                    "useAudioPreRoll" : true,
                    "useVisualPreRoll" : true,
                    "leftMedia" : 10
                  }
                ]
              },
              {
                "trackIndex" : 3,
                "medias" : [
                  {
                    "id" : 11,
                    "_type" : "IMFile",
                    "src" : 3,
                    "trackNumber" : 0,
                    "trimStartSum" : 0,
                    "attributes" : {
                      "ident" : "Splash_Android"
                    },
                    "parameters" : {
                      "translation0" : -0.00456702364154329,
                      "translation1" : -6.87439439981899,
                      "scale0" : 0.666671423982989,
                      "scale1" : 0.666671423982989
                    },
                    "effects" : [

                    ],
                    "start" : 0,
                    "duration" : 150,
                    "mediaStart" : 0,
                    "mediaDuration" : 1,
                    "scalar" : 1,
                    "metadata" : {
                      "WinSubProjectDisplayName" : "",
                      "clipSpeedAttribute" : false,
                      "default-scale" : "0.666667",
                      "default-translation0" : 0.00456702366917246,
                      "default-translation1" : -0.00256895081391425,
                      "effectApplied" : "none"
                    },
                    "animationTracks" : {

                    }
                  },
                  {
                    "id" : 12,
                    "_type" : "IMFile",
                    "src" : 1,
                    "trackNumber" : 0,
                    "trimStartSum" : 0,
                    "attributes" : {
                      "ident" : "codestars_logo"
                    },
                    "parameters" : {
                      "translation0" : {
                        "type" : "double",
                        "defaultValue" : -263.136792317664,
                        "interp" : "linr"
                      },
                      "translation1" : {
                        "type" : "double",
                        "defaultValue" : -271.784183685799,
                        "interp" : "linr"
                      },
                      "translation2" : {
                        "type" : "double",
                        "defaultValue" : 0.0,
                        "interp" : "linr"
                      },
                      "rotation0" : {
                        "type" : "double",
                        "defaultValue" : 0.0,
                        "interp" : "linr"
                      },
                      "rotation1" : {
                        "type" : "double",
                        "defaultValue" : 0.0,
                        "interp" : "linr"
                      },
                      "rotation2" : {
                        "type" : "double",
                        "defaultValue" : 0.0,
                        "interp" : "linr"
                      },
                      "shear0" : {
                        "type" : "double",
                        "defaultValue" : 0.0,
                        "interp" : "linr"
                      },
                      "shear1" : {
                        "type" : "double",
                        "defaultValue" : 0.0,
                        "interp" : "linr"
                      },
                      "shear2" : {
                        "type" : "double",
                        "defaultValue" : 0.0,
                        "interp" : "linr"
                      },
                      "scale0" : {
                        "type" : "double",
                        "defaultValue" : 0.402192662926175,
                        "interp" : "linr"
                      },
                      "scale1" : {
                        "type" : "double",
                        "defaultValue" : 0.402192662926175,
                        "interp" : "linr"
                      },
                      "scale2" : {
                        "type" : "double",
                        "defaultValue" : 1.0,
                        "interp" : "linr"
                      },
                      "anchor0" : {
                        "type" : "double",
                        "defaultValue" : 0.0,
                        "interp" : "linr"
                      },
                      "anchor1" : {
                        "type" : "double",
                        "defaultValue" : 0.0,
                        "interp" : "linr"
                      },
                      "anchor2" : {
                        "type" : "double",
                        "defaultValue" : 0.0,
                        "interp" : "linr"
                      }
                    },
                    "effects" : [

                    ],
                    "start" : 22466,
                    "duration" : 150,
                    "mediaStart" : 0,
                    "mediaDuration" : 1,
                    "scalar" : 1,
                    "metadata" : {
                      "WinSubProjectDisplayName" : "",
                      "clipSpeedAttribute" : false,
                      "default-scale" : "1",
                      "effectApplied" : "none"
                    },
                    "animationTracks" : {

                    }
                  }
                ],
                "transitions" : [
                  {
                    "name" : "Fade",
                    "duration" : 30,
                    "trivial" : true,
                    "useAudioPreRoll" : false,
                    "useVisualPreRoll" : true,
                    "leftMedia" : 11
                  },
                  {
                    "name" : "Fade",
                    "duration" : 30,
                    "trivial" : true,
                    "useAudioPreRoll" : true,
                    "useVisualPreRoll" : true,
                    "rightMedia" : 12
                  },
                  {
                    "name" : "Fade",
                    "duration" : 30,
                    "trivial" : true,
                    "useAudioPreRoll" : true,
                    "useVisualPreRoll" : true,
                    "leftMedia" : 12
                  }
                ]
              },
              {
                "trackIndex" : 4,
                "medias" : [
                  {
                    "id" : 13,
                    "_type" : "IMFile",
                    "src" : 2,
                    "trackNumber" : 0,
                    "trimStartSum" : 0,
                    "attributes" : {
                      "ident" : "star"
                    },
                    "parameters" : {
                      "translation0" : {
                        "type" : "double",
                        "defaultValue" : -640.0,
                        "interp" : "linr",
                        "keyframes" : [
                          {
                            "endTime" : 30,
                            "time" : 0,
                            "value" : -522.733906099372,
                            "duration" : 30
                          }
                        ]
                      },
                      "translation1" : {
                        "type" : "double",
                        "defaultValue" : -0.0,
                        "interp" : "linr",
                        "keyframes" : [
                          {
                            "endTime" : 30,
                            "time" : 0,
                            "value" : -277.438113851611,
                            "duration" : 30
                          }
                        ]
                      },
                      "translation2" : {
                        "type" : "double",
                        "defaultValue" : 0.0,
                        "interp" : "linr"
                      },
                      "rotation0" : {
                        "type" : "double",
                        "defaultValue" : 0.0,
                        "interp" : "linr"
                      },
                      "rotation1" : {
                        "type" : "double",
                        "defaultValue" : 0.0,
                        "interp" : "linr"
                      },
                      "rotation2" : {
                        "type" : "double",
                        "defaultValue" : 6.28318530717959,
                        "interp" : "linr",
                        "keyframes" : [
                          {
                            "endTime" : 30,
                            "time" : 0,
                            "value" : 0.0,
                            "duration" : 30
                          }
                        ]
                      },
                      "shear0" : {
                        "type" : "double",
                        "defaultValue" : 0.0,
                        "interp" : "linr"
                      },
                      "shear1" : {
                        "type" : "double",
                        "defaultValue" : 0.0,
                        "interp" : "linr"
                      },
                      "shear2" : {
                        "type" : "double",
                        "defaultValue" : 0.0,
                        "interp" : "linr"
                      },
                      "scale0" : {
                        "type" : "double",
                        "defaultValue" : 0.0,
                        "interp" : "linr",
                        "keyframes" : [
                          {
                            "endTime" : 30,
                            "time" : 0,
                            "value" : 0.344059357782636,
                            "duration" : 30
                          }
                        ]
                      },
                      "scale1" : {
                        "type" : "double",
                        "defaultValue" : 0.0,
                        "interp" : "linr",
                        "keyframes" : [
                          {
                            "endTime" : 30,
                            "time" : 0,
                            "value" : 0.344059357782636,
                            "duration" : 30
                          }
                        ]
                      },
                      "scale2" : {
                        "type" : "double",
                        "defaultValue" : 1.0,
                        "interp" : "linr"
                      },
                      "anchor0" : {
                        "type" : "double",
                        "defaultValue" : 0.0,
                        "interp" : "linr"
                      },
                      "anchor1" : {
                        "type" : "double",
                        "defaultValue" : 0.0,
                        "interp" : "linr"
                      },
                      "anchor2" : {
                        "type" : "double",
                        "defaultValue" : 0.0,
                        "interp" : "linr"
                      },
                      "opacity" : {
                        "type" : "double",
                        "defaultValue" : 1.0,
                        "keyframes" : [
                          {
                            "endTime" : 150,
                            "time" : 120,
                            "value" : 0.0,
                            "duration" : 30
                          }
                        ]
                      }
                    },
                    "effects" : [

                    ],
                    "start" : 0,
                    "duration" : 150,
                    "mediaStart" : 0,
                    "mediaDuration" : 1,
                    "scalar" : 1,
                    "metadata" : {
                      "WinSubProjectDisplayName" : "",
                      "clipSpeedAttribute" : false,
                      "default-scale" : "1",
                      "effectApplied" : "none"
                    },
                    "animationTracks" : {
                      "visual" : [
                        {
                          "endTime" : 30,
                          "duration" : 30,
                          "range" : [ 0, 30]
                        },
                        {
                          "endTime" : 150,
                          "duration" : 30,
                          "range" : [ 120, 30]
                        }
                      ]
                    }
                  },
                  {
                    "id" : 14,
                    "_type" : "Callout",
                    "def" : {
                      "kind" : "TypeWinText",
                      "shape" : "",
                      "style" : "",
                      "Style" : 5.0,
                      "dimensionTime" : 0.0,
                      "height" : 180.0,
                      "line-spacing" : 0.0,
                      "textIgnoresOpacity" : 0.0,
                      "textRectHeight" : 1.0,
                      "textRectWidth" : 1.0,
                      "textRectX" : 0.0,
                      "textRectY" : 0.0,
                      "textVerticalAlign" : -1.0,
                      "width" : 320.0,
                      "filename" : "C:\\Program Files\\TechSmith\\Camtasia 9\\Media\\Studio\\Callouts\\trans_100x100.xml",
                      "horizontal-alignment" : "center",
                      "name" : "Text",
                      "text" : "{\\rtf1\\ansi\\ansicpg1252\\deff0\\nouicompat\\deflang1033{\\fonttbl{\\f0\\fnil\\fcharset0 Quicksand;}}\r\n{\\colortbl ;\\red255\\green255\\blue255;}\r\n{\\*\\generator Riched20 10.0.18362}\\viewkind4\\uc1 \r\n\\pard\\cf1\\f0\\fs80 The Complete\\par\r\n\\b\\fs90 C++ Developer Course\\par\r\n}\r\n",
                      "vertical-alignment" : "center",
                      "xmlContent" : "﻿<?xml version=\"1.0\"?>\n\n<Overlay version=\"1.0.1\">\n\n<Overlay_Filename>trans_100x100.png</Overlay_Filename>\n<Overlay_Name>Text</Overlay_Name>\n<Text_Top>0</Text_Top>\n<Text_Left>0</Text_Left>\n<Text_Bottom>0</Text_Bottom>\n<Text_Right>0</Text_Right>\n<Fill_Color>0</Fill_Color>\n<Border_Color>0</Border_Color>\n<Style>5</Style>\n</Overlay>",
                      "textAttributes" : {
                        "type" : "textAttributeList",
                        "keyframes" : [
                          {
                            "endTime" : 0,
                            "time" : 0,
                            "value" : null,
                            "duration" : 0
                          }
                        ]
                      }
                    },
                    "attributes" : {
                      "autoRotateText" : true
                    },
                    "parameters" : {
                      "translation0" : -70.9521418731169,
                      "translation1" : 239.738828503294,
                      "scale0" : 3.12385809835021,
                      "scale1" : 1.00002854389906
                    },
                    "effects" : [

                    ],
                    "start" : 22466,
                    "duration" : 150,
                    "mediaStart" : 0,
                    "mediaDuration" : 150,
                    "scalar" : 1,
                    "metadata" : {
                      "WinSubProjectDisplayName" : "",
                      "clipSpeedAttribute" : false,
                      "default-legacy-fill-style" : 5.0,
                      "default-legacy-text-callout-vertical-align" : "middle",
                      "default-scale0" : 1.0,
                      "default-scale1" : 1.0,
                      "default-text" : "{\\rtf1\\ansi\\ansicpg1252\\deff0\\deflang1033{\\fonttbl{\\f0\\fswiss\\fprq2\\fcharset0 Arial;}}{\\colortbl ;\\red255\\green255\\blue255;}\\viewkind4\\uc1\\pard\\qc\\cf1\\fs72 abc}",
                      "default-translation0" : 0.0,
                      "default-translation1" : 0.0
                    },
                    "animationTracks" : {

                    }
                  }
                ],
                "transitions" : [
                  {
                    "name" : "Fade",
                    "duration" : 30,
                    "trivial" : true,
                    "useAudioPreRoll" : true,
                    "useVisualPreRoll" : true,
                    "rightMedia" : 14
                  },
                  {
                    "name" : "Fade",
                    "duration" : 30,
                    "trivial" : true,
                    "useAudioPreRoll" : true,
                    "useVisualPreRoll" : true,
                    "leftMedia" : 14
                  }
                ]
              },
              {
                "trackIndex" : 5,
                "medias" : [
                  {
                    "id" : 15,
                    "_type" : "Callout",
                    "def" : {
                      "kind" : "remix",
                      "shape" : "text",
                      "style" : "bold",
                      "height" : 250.0,
                      "line-spacing" : 0.0,
                      "width" : 1035.85760517811,
                      "word-wrap" : 1.0,
                      "horizontal-alignment" : "left",
                      "text" : "Fundamentals\rLogical Operators",
                      "vertical-alignment" : "center",
                      "font" : {
                        "color-blue" : 1.0,
                        "color-green" : 1.0,
                        "color-red" : 1.0,
                        "size" : 96.0,
                        "tracking" : 0.0,
                        "name" : "Source Sans Pro",
                        "weight" : "Semi Bold"
                      },
                      "textAttributes" : {
                        "type" : "textAttributeList",
                        "keyframes" : [
                          {
                            "endTime" : 0,
                            "time" : 0,
                            "value" : [{"name":"underline","rangeEnd":30,"rangeStart":0,"value":0,"valueType":"int"},{"name":"fontName","rangeEnd":30,"rangeStart":0,"value":"Quicksand","valueType":"string"},{"name":"fontWeight","rangeEnd":13,"rangeStart":0,"value":700,"valueType":"int"},{"name":"kerning","rangeEnd":30,"rangeStart":0,"value":0,"valueType":"double"},{"name":"fontItalic","rangeEnd":30,"rangeStart":0,"value":0,"valueType":"int"},{"name":"strikethrough","rangeEnd":30,"rangeStart":0,"value":0,"valueType":"int"},{"name":"fontWeight","rangeEnd":30,"rangeStart":13,"value":400,"valueType":"int"},{"name":"fontSize","rangeEnd":13,"rangeStart":0,"value":55,"valueType":"double"},{"name":"fgColor","rangeEnd":30,"rangeStart":0,"value":"(255,255,255,255)","valueType":"color"},{"name":"fontSize","rangeEnd":30,"rangeStart":13,"value":52,"valueType":"double"}],
                            "duration" : 0
                          }
                        ]
                      }
                    },
                    "attributes" : {
                      "autoRotateText" : true
                    },
                    "parameters" : {
                      "translation0" : {
                        "type" : "double",
                        "defaultValue" : -913.412651778095,
                        "keyframes" : [
                          {
                            "endTime" : 38,
                            "time" : 8,
                            "value" : 99.920681555355,
                            "duration" : 30
                          }
                        ]
                      },
                      "translation1" : {
                        "type" : "double",
                        "defaultValue" : -34.812002943898,
                        "keyframes" : [
                          {
                            "endTime" : 38,
                            "time" : 8,
                            "value" : -34.8120029438544,
                            "duration" : 30
                          }
                        ]
                      }
                    },
                    "effects" : [
                        {
                          "effectName" : "DropShadow",
                          "category" : "categoryVisualEffects",
                          "parameters" : {
                            "angle" : {
                              "type" : "double",
                              "defaultValue" : 5.49778714378214,
                              "uiHints" : {
                                "userInterfaceType" : 0,
                                "unitType" : 0
                              },
                              "keyframes" : [
                                {
                                  "endTime" : 38,
                                  "time" : 8,
                                  "value" : 5.49778714378214,
                                  "duration" : 30
                                }
                              ]
                            },
                            "blur" : 10.0,
                            "color-alpha" : 1.0,
                            "color-blue" : 0.1216,
                            "color-green" : 0.1216,
                            "color-red" : 0.1216,
                            "enabled" : 1,
                            "offset" : 10.0,
                            "opacity" : 0.4
                          }
                        }
                    ],
                    "start" : 35,
                    "duration" : 115,
                    "mediaStart" : 8,
                    "mediaDuration" : 115,
                    "scalar" : 1,
                    "metadata" : {
                      "WinSubProjectDisplayName" : "",
                      "clipSpeedAttribute" : false,
                      "default-HAlign" : "center",
                      "default-LineSpace" : 0.0,
                      "default-VAlign" : "center",
                      "default-text-attributes" : "[{\"name\":\"fontWeight\",\"rangeEnd\":37,\"rangeStart\":26,\"value\":100,\"valueType\":\"int\"},{\"name\":\"underline\",\"rangeEnd\":37,\"rangeStart\":0,\"value\":0,\"valueType\":\"int\"},{\"name\":\"fontWeight\",\"rangeEnd\":26,\"rangeStart\":0,\"value\":700,\"valueType\":\"int\"},{\"name\":\"fgColor\",\"rangeEnd\":37,\"rangeStart\":0,\"value\":\"(255,255,255,255)\",\"valueType\":\"color\"},{\"name\":\"fontSize\",\"rangeEnd\":26,\"rangeStart\":0,\"value\":55,\"valueType\":\"double\"},{\"name\":\"fontItalic\",\"rangeEnd\":37,\"rangeStart\":0,\"value\":0,\"valueType\":\"int\"},{\"name\":\"strikethrough\",\"rangeEnd\":37,\"rangeStart\":0,\"value\":0,\"valueType\":\"int\"},{\"name\":\"fontName\",\"rangeEnd\":37,\"rangeStart\":0,\"value\":\"Quicksand\",\"valueType\":\"string\"},{\"name\":\"fontSize\",\"rangeEnd\":37,\"rangeStart\":26,\"value\":52,\"valueType\":\"double\"}]",
                      "default-translation0" : 204.5,
                      "default-translation1" : 0.0
                    },
                    "animationTracks" : {
                      "visual" : [
                        {
                          "endTime" : 38,
                          "duration" : 30,
                          "range" : [ 8, 30]
                        }
                      ]
                    }
                  },
                  {
                    "id" : 16,
                    "_type" : "IMFile",
                    "src" : 4,
                    "trackNumber" : 0,
                    "trimStartSum" : 0,
                    "attributes" : {
                      "ident" : "Head"
                    },
                    "parameters" : {
                      "translation0" : 537.015153862789,
                      "translation1" : -206.400000000049,
                      "scale0" : 0.35,
                      "scale1" : 0.35
                    },
                    "effects" : [

                    ],
                    "start" : 22466,
                    "duration" : 150,
                    "mediaStart" : 0,
                    "mediaDuration" : 1,
                    "scalar" : 1,
                    "metadata" : {
                      "WinSubProjectDisplayName" : "",
                      "clipSpeedAttribute" : false,
                      "default-scale0" : 0.703125,
                      "default-scale1" : 0.703125,
                      "default-translation0" : 0.0,
                      "default-translation1" : 0.0
                    },
                    "animationTracks" : {

                    }
                  }
                ],
                "transitions" : [
                  {
                    "name" : "Fade",
                    "duration" : 30,
                    "trivial" : true,
                    "useAudioPreRoll" : true,
                    "useVisualPreRoll" : true,
                    "leftMedia" : 15
                  },
                  {
                    "name" : "Fade",
                    "duration" : 30,
                    "trivial" : false,
                    "useAudioPreRoll" : true,
                    "useVisualPreRoll" : true,
                    "rightMedia" : 16
                  },
                  {
                    "name" : "Fade",
                    "duration" : 30,
                    "trivial" : false,
                    "useAudioPreRoll" : true,
                    "useVisualPreRoll" : true,
                    "leftMedia" : 16
                  }
                ]
              },
              {
                "trackIndex" : 6,
                "medias" : [
                  {
                    "id" : 17,
                    "_type" : "Callout",
                    "def" : {
                      "kind" : "TypeWinText",
                      "shape" : "",
                      "style" : "",
                      "Style" : 5.0,
                      "dimensionTime" : 0.0,
                      "height" : 180.0,
                      "line-spacing" : 0.0,
                      "textIgnoresOpacity" : 0.0,
                      "textRectHeight" : 1.0,
                      "textRectWidth" : 1.0,
                      "textRectX" : 0.0,
                      "textRectY" : 0.0,
                      "textVerticalAlign" : 0.0,
                      "width" : 320.0,
                      "filename" : "C:\\Program Files\\TechSmith\\Camtasia 9\\Media\\Studio\\Callouts\\trans_100x100.xml",
                      "horizontal-alignment" : "center",
                      "name" : "Text",
                      "text" : "{\\rtf1\\ansi\\ansicpg1252\\deff0\\nouicompat\\deflang1033{\\fonttbl{\\f0\\fnil\\fcharset0 Quicksand;}}\r\n{\\colortbl ;\\red255\\green255\\blue255;}\r\n{\\*\\generator Riched20 10.0.18362}\\viewkind4\\uc1 \r\n\\pard\\qc\\cf1\\b\\f0\\fs124 #\\fs256 2\\fs72\\par\r\n}\r\n",
                      "vertical-alignment" : "center",
                      "xmlContent" : "﻿<?xml version=\"1.0\"?>\n\n<Overlay version=\"1.0.1\">\n\n<Overlay_Filename>trans_100x100.png</Overlay_Filename>\n<Overlay_Name>Text</Overlay_Name>\n<Text_Top>0</Text_Top>\n<Text_Left>0</Text_Left>\n<Text_Bottom>0</Text_Bottom>\n<Text_Right>0</Text_Right>\n<Fill_Color>0</Fill_Color>\n<Border_Color>0</Border_Color>\n<Style>5</Style>\n</Overlay>",
                      "textAttributes" : {
                        "type" : "textAttributeList",
                        "keyframes" : [
                          {
                            "endTime" : 0,
                            "time" : 0,
                            "value" : null,
                            "duration" : 0
                          }
                        ]
                      }
                    },
                    "attributes" : {
                      "autoRotateText" : true
                    },
                    "parameters" : {
                      "translation0" : {
                        "type" : "double",
                        "defaultValue" : -820.538865370044,
                        "keyframes" : [
                          {
                            "endTime" : 65,
                            "time" : 35,
                            "value" : -488.499999999933,
                            "duration" : 30
                          }
                        ]
                      },
                      "translation1" : {
                        "type" : "double",
                        "defaultValue" : -34.8120029438978,
                        "keyframes" : [
                          {
                            "endTime" : 65,
                            "time" : 35,
                            "value" : -34.8120029438634,
                            "duration" : 30
                          }
                        ]
                      },
                      "scale0" : {
                        "type" : "double",
                        "defaultValue" : 0.580906148866913,
                        "keyframes" : [
                          {
                            "endTime" : 65,
                            "time" : 35,
                            "value" : 0.580906148866913,
                            "duration" : 30
                          }
                        ]
                      },
                      "scale1" : {
                        "type" : "double",
                        "defaultValue" : 1.43801063442563,
                        "keyframes" : [
                          {
                            "endTime" : 65,
                            "time" : 35,
                            "value" : 1.43801063442563,
                            "duration" : 30
                          }
                        ]
                      }
                    },
                    "effects" : [

                    ],
                    "start" : 35,
                    "duration" : 115,
                    "mediaStart" : 35,
                    "mediaDuration" : 115,
                    "scalar" : 1,
                    "metadata" : {
                      "WinSubProjectDisplayName" : "",
                      "clipSpeedAttribute" : false,
                      "default-legacy-fill-style" : 5.0,
                      "default-legacy-text-callout-vertical-align" : "middle",
                      "default-rotation2" : 0.0,
                      "default-scale0" : 1.0,
                      "default-scale1" : 1.0,
                      "default-text" : "{\\rtf1\\ansi\\ansicpg1252\\deff0\\deflang1033{\\fonttbl{\\f0\\fswiss\\fprq2\\fcharset0 Arial;}}{\\colortbl ;\\red255\\green255\\blue255;}\\viewkind4\\uc1\\pard\\qc\\cf1\\fs72 abc}",
                      "default-translation0" : 0.0,
                      "default-translation1" : 0.0
                    },
                    "animationTracks" : {
                      "visual" : [
                        {
                          "endTime" : 65,
                          "duration" : 30,
                          "range" : [ 35, 30]
                        }
                      ]
                    }
                  }
                ],
                "transitions" : [
                  {
                    "name" : "Fade",
                    "duration" : 30,
                    "trivial" : true,
                    "useAudioPreRoll" : true,
                    "useVisualPreRoll" : true,
                    "leftMedia" : 17
                  }
                ]
              },
              {
                "trackIndex" : 7,
                "medias" : [
                  {
                    "id" : 18,
                    "_type" : "IMFile",
                    "src" : 1,
                    "trackNumber" : 0,
                    "trimStartSum" : 0,
                    "attributes" : {
                      "ident" : "codestars_logo"
                    },
                    "parameters" : {
                      "translation0" : {
                        "type" : "double",
                        "defaultValue" : -263.136792317664,
                        "interp" : "linr"
                      },
                      "translation1" : {
                        "type" : "double",
                        "defaultValue" : -271.784183685799,
                        "interp" : "linr"
                      },
                      "translation2" : {
                        "type" : "double",
                        "defaultValue" : 0.0,
                        "interp" : "linr"
                      },
                      "rotation0" : {
                        "type" : "double",
                        "defaultValue" : 0.0,
                        "interp" : "linr"
                      },
                      "rotation1" : {
                        "type" : "double",
                        "defaultValue" : 0.0,
                        "interp" : "linr"
                      },
                      "rotation2" : {
                        "type" : "double",
                        "defaultValue" : 0.0,
                        "interp" : "linr"
                      },
                      "shear0" : {
                        "type" : "double",
                        "defaultValue" : 0.0,
                        "interp" : "linr"
                      },
                      "shear1" : {
                        "type" : "double",
                        "defaultValue" : 0.0,
                        "interp" : "linr"
                      },
                      "shear2" : {
                        "type" : "double",
                        "defaultValue" : 0.0,
                        "interp" : "linr"
                      },
                      "scale0" : {
                        "type" : "double",
                        "defaultValue" : 0.402192662926175,
                        "interp" : "linr"
                      },
                      "scale1" : {
                        "type" : "double",
                        "defaultValue" : 0.402192662926175,
                        "interp" : "linr"
                      },
                      "scale2" : {
                        "type" : "double",
                        "defaultValue" : 1.0,
                        "interp" : "linr"
                      },
                      "anchor0" : {
                        "type" : "double",
                        "defaultValue" : 0.0,
                        "interp" : "linr"
                      },
                      "anchor1" : {
                        "type" : "double",
                        "defaultValue" : 0.0,
                        "interp" : "linr"
                      },
                      "anchor2" : {
                        "type" : "double",
                        "defaultValue" : 0.0,
                        "interp" : "linr"
                      }
                    },
                    "effects" : [

                    ],
                    "start" : 0,
                    "duration" : 150,
                    "mediaStart" : 0,
                    "mediaDuration" : 1,
                    "scalar" : 1,
                    "metadata" : {
                      "WinSubProjectDisplayName" : "",
                      "clipSpeedAttribute" : false,
                      "default-scale" : "1",
                      "effectApplied" : "none"
                    },
                    "animationTracks" : {

                    }
                  }
                ],
                "transitions" : [
                  {
                    "name" : "Fade",
                    "duration" : 30,
                    "trivial" : true,
                    "useAudioPreRoll" : true,
                    "useVisualPreRoll" : true,
                    "leftMedia" : 18
                  }
                ]
              },
              {
                "trackIndex" : 8,
                "medias" : [
                ]
              },
              {
                "trackIndex" : 9,
                "medias" : [
                  {
                    "id" : 19,
                    "_type" : "Callout",
                    "def" : {
                      "kind" : "TypeWinText",
                      "shape" : "",
                      "style" : "",
                      "Style" : 5.0,
                      "dimensionTime" : 0.0,
                      "height" : 180.0,
                      "line-spacing" : 0.0,
                      "textIgnoresOpacity" : 0.0,
                      "textRectHeight" : 1.0,
                      "textRectWidth" : 1.0,
                      "textRectX" : 0.0,
                      "textRectY" : 0.0,
                      "textVerticalAlign" : -1.0,
                      "width" : 320.0,
                      "filename" : "C:\\Program Files\\TechSmith\\Camtasia 9\\Media\\Studio\\Callouts\\trans_100x100.xml",
                      "horizontal-alignment" : "center",
                      "name" : "Text",
                      "text" : "{\\rtf1\\ansi\\ansicpg1252\\deff0\\nouicompat\\deflang1033{\\fonttbl{\\f0\\fnil\\fcharset0 Quicksand;}}\r\n{\\colortbl ;\\red255\\green255\\blue255;}\r\n{\\*\\generator Riched20 10.0.18362}\\viewkind4\\uc1 \r\n\\pard\\cf1\\f0\\fs80 The Complete\\par\r\n\\b\\fs90 C++ Developer Course\\par\r\n}\r\n",
                      "vertical-alignment" : "center",
                      "xmlContent" : "﻿<?xml version=\"1.0\"?>\n\n<Overlay version=\"1.0.1\">\n\n<Overlay_Filename>trans_100x100.png</Overlay_Filename>\n<Overlay_Name>Text</Overlay_Name>\n<Text_Top>0</Text_Top>\n<Text_Left>0</Text_Left>\n<Text_Bottom>0</Text_Bottom>\n<Text_Right>0</Text_Right>\n<Fill_Color>0</Fill_Color>\n<Border_Color>0</Border_Color>\n<Style>5</Style>\n</Overlay>",
                      "textAttributes" : {
                        "type" : "textAttributeList",
                        "keyframes" : [
                          {
                            "endTime" : 0,
                            "time" : 0,
                            "value" : null,
                            "duration" : 0
                          }
                        ]
                      }
                    },
                    "attributes" : {
                      "autoRotateText" : true
                    },
                    "parameters" : {
                      "translation0" : -72.2854752064544,
                      "translation1" : 239.738828503294,
                      "scale0" : 3.12385809835021,
                      "scale1" : 1.00002854389906
                    },
                    "effects" : [

                    ],
                    "start" : 0,
                    "duration" : 150,
                    "mediaStart" : 0,
                    "mediaDuration" : 150,
                    "scalar" : 1,
                    "metadata" : {
                      "WinSubProjectDisplayName" : "",
                      "clipSpeedAttribute" : false,
                      "default-legacy-fill-style" : 5.0,
                      "default-legacy-text-callout-vertical-align" : "middle",
                      "default-scale0" : 1.0,
                      "default-scale1" : 1.0,
                      "default-text" : "{\\rtf1\\ansi\\ansicpg1252\\deff0\\deflang1033{\\fonttbl{\\f0\\fswiss\\fprq2\\fcharset0 Arial;}}{\\colortbl ;\\red255\\green255\\blue255;}\\viewkind4\\uc1\\pard\\qc\\cf1\\fs72 abc}",
                      "default-translation0" : 0.0,
                      "default-translation1" : 0.0
                    },
                    "animationTracks" : {

                    }
                  }
                ],
                "transitions" : [
                  {
                    "name" : "Fade",
                    "duration" : 30,
                    "trivial" : true,
                    "useAudioPreRoll" : true,
                    "useVisualPreRoll" : true,
                    "leftMedia" : 19
                  }
                ]
              },
              {
                "trackIndex" : 10,
                "medias" : [
                  {
                    "id" : 20,
                    "_type" : "IMFile",
                    "src" : 4,
                    "trackNumber" : 0,
                    "trimStartSum" : 0,
                    "attributes" : {
                      "ident" : "Head"
                    },
                    "parameters" : {
                      "translation0" : 536.491666666922,
                      "translation1" : -187.676963350509,
                      "scale0" : 0.35,
                      "scale1" : 0.35
                    },
                    "effects" : [

                    ],
                    "start" : 0,
                    "duration" : 150,
                    "mediaStart" : 0,
                    "mediaDuration" : 1,
                    "scalar" : 1,
                    "metadata" : {
                      "WinSubProjectDisplayName" : "",
                      "clipSpeedAttribute" : false,
                      "default-scale0" : 0.703125,
                      "default-scale1" : 0.703125,
                      "default-translation0" : 0.0,
                      "default-translation1" : 0.0
                    },
                    "animationTracks" : {

                    }
                  }
                ],
                "transitions" : [
                  {
                    "name" : "Fade",
                    "duration" : 30,
                    "trivial" : false,
                    "useAudioPreRoll" : true,
                    "useVisualPreRoll" : true,
                    "leftMedia" : 20
                  }
                ]
              },
              {
                "trackIndex" : 11,
                "medias" : [
                  {
                    "id" : 21,
                    "_type" : "StitchedMedia",
                    "minMediaStart" : 0,
                    "attributes" : {
                      "ident" : "Rec 02-15-20_002",
                      "gain" : 1.0,
                      "mixToMono" : false
                    },
                    "parameters" : {
                      "translation0" : {
                        "type" : "double",
                        "defaultValue" : 0.0,
                        "keyframes" : [
                          {
                            "endTime" : 2257,
                            "time" : 2227,
                            "value" : 246.863500929803,
                            "duration" : 30
                          },
                          {
                            "endTime" : 10503,
                            "time" : 10473,
                            "value" : 21.8739521013291,
                            "duration" : 30
                          },
                          {
                            "endTime" : 10989,
                            "time" : 10959,
                            "value" : -246.863372955539,
                            "duration" : 30
                          },
                          {
                            "endTime" : 11089,
                            "time" : 11059,
                            "value" : -42.9665938135012,
                            "duration" : 30
                          },
                          {
                            "endTime" : 11261,
                            "time" : 11231,
                            "value" : 292.387655860107,
                            "duration" : 30
                          },
                          {
                            "endTime" : 11725,
                            "time" : 11695,
                            "value" : 449.711297831243,
                            "duration" : 30
                          }
                        ]
                      },
                      "translation1" : {
                        "type" : "double",
                        "defaultValue" : 0.0,
                        "keyframes" : [
                          {
                            "endTime" : 2257,
                            "time" : 2227,
                            "value" : -47.4587338952002,
                            "duration" : 30
                          },
                          {
                            "endTime" : 10503,
                            "time" : 10473,
                            "value" : 15.8195779650667,
                            "duration" : 30
                          },
                          {
                            "endTime" : 10989,
                            "time" : 10959,
                            "value" : -138.860766736431,
                            "duration" : 30
                          },
                          {
                            "endTime" : 11089,
                            "time" : 11059,
                            "value" : -26.3659639137028,
                            "duration" : 30
                          },
                          {
                            "endTime" : 11261,
                            "time" : 11231,
                            "value" : -164.468386285699,
                            "duration" : 30
                          },
                          {
                            "endTime" : 11725,
                            "time" : 11695,
                            "value" : -252.962953411499,
                            "duration" : 30
                          }
                        ]
                      },
                      "scale0" : {
                        "type" : "double",
                        "defaultValue" : 0.666666666666667,
                        "keyframes" : [
                          {
                            "endTime" : 2257,
                            "time" : 2227,
                            "value" : 0.923816148361546,
                            "duration" : 30
                          },
                          {
                            "endTime" : 10503,
                            "time" : 10473,
                            "value" : 0.923816045121851,
                            "duration" : 30
                          },
                          {
                            "endTime" : 10989,
                            "time" : 10959,
                            "value" : 0.923815941882168,
                            "duration" : 30
                          },
                          {
                            "endTime" : 11089,
                            "time" : 11059,
                            "value" : 0.92381583745992,
                            "duration" : 30
                          },
                          {
                            "endTime" : 11261,
                            "time" : 11231,
                            "value" : 0.971237172002154,
                            "duration" : 30
                          },
                          {
                            "endTime" : 11725,
                            "time" : 11695,
                            "value" : 1.13511595113426,
                            "duration" : 30
                          }
                        ]
                      },
                      "scale1" : {
                        "type" : "double",
                        "defaultValue" : 0.666666666666667,
                        "keyframes" : [
                          {
                            "endTime" : 2257,
                            "time" : 2227,
                            "value" : 0.92381623233194,
                            "duration" : 30
                          },
                          {
                            "endTime" : 11261,
                            "time" : 11231,
                            "value" : 0.9712377474078,
                            "duration" : 30
                          },
                          {
                            "endTime" : 11725,
                            "time" : 11695,
                            "value" : 1.13511657167329,
                            "duration" : 30
                          }
                        ]
                      },
                      "volume" : {
                        "type" : "double",
                        "keyframes" : [
                          {
                            "endTime" : 0,
                            "time" : 0,
                            "value" : 1.0,
                            "duration" : 0
                          },
                          {
                            "endTime" : 17756,
                            "time" : 17756,
                            "value" : 1.0,
                            "duration" : 0
                          },
                          {
                            "endTime" : 17757,
                            "time" : 17757,
                            "value" : 0.0,
                            "duration" : 0
                          },
                          {
                            "endTime" : 17954,
                            "time" : 17954,
                            "value" : 0.0,
                            "duration" : 0
                          },
                          {
                            "endTime" : 17955,
                            "time" : 17955,
                            "value" : 1.0,
                            "duration" : 0
                          }
                        ]
                      },
                      "cursorOpacity" : 1.0,
                      "cursorScale" : 1.0
                    },
                    "medias" : [
                        {
                          "id" : 22,
                          "_type" : "UnifiedMedia",
                          "video" : 
                              {
                                "id" : 23,
                                "_type" : "ScreenVMFile",
                                "src" : 5,
                                "trackNumber" : 0,
                                "attributes" : {
                                  "ident" : "Rec 02-15-20_002"
                                },
                                "parameters" : {
                                  "cursorScale" : {
                                    "type" : "double",
                                    "defaultValue" : 0.0,
                                    "interp" : "linr"
                                  },
                                  "cursorOpacity" : {
                                    "type" : "double",
                                    "defaultValue" : 0.0,
                                    "interp" : "linr"
                                  }
                                },
                                "effects" : [

                                ],
                                "start" : 0,
                                "duration" : 1494,
                                "mediaStart" : 0,
                                "mediaDuration" : 1494,
                                "scalar" : 1,
                                "animationTracks" : {

                                }
                              },
                          "audio" : 
                              {
                                "id" : 24,
                                "_type" : "AMFile",
                                "src" : 5,
                                "trackNumber" : 2,
                                "attributes" : {
                                  "ident" : "",
                                  "sampleRate" : 44100,
                                  "bitDepth" : 16,
                                  "gain" : 1.0,
                                  "mixToMono" : false
                                },
                                  "channelNumber" : "0,1",
                                "effects" : [

                                ],
                                "start" : 0,
                                "duration" : 1494,
                                "mediaStart" : 0,
                                "mediaDuration" : 1494,
                                "scalar" : 1,
                                "animationTracks" : {

                                }
                              }
,
                          "start" : 0,
                          "duration" : 1494,
                          "mediaStart" : 0,
                          "mediaDuration" : 26689,
                          "scalar" : 1,
                          "metadata" : {
                            "AutoAppliedSmartFocus" : "False",
                            "WinSubProjectDisplayName" : "",
                            "clipSpeedAttribute" : false
                          }
                        },
                        {
                          "id" : 25,
                          "_type" : "UnifiedMedia",
                          "video" : 
                              {
                                "id" : 26,
                                "_type" : "ScreenVMFile",
                                "src" : 5,
                                "trackNumber" : 0,
                                "attributes" : {
                                  "ident" : "Rec 02-15-20_002"
                                },
                                "parameters" : {
                                  "cursorScale" : {
                                    "type" : "double",
                                    "defaultValue" : 0.0,
                                    "interp" : "linr"
                                  },
                                  "cursorOpacity" : {
                                    "type" : "double",
                                    "defaultValue" : 0.0,
                                    "interp" : "linr"
                                  }
                                },
                                "effects" : [

                                ],
                                "start" : 1494,
                                "duration" : 3,
                                "mediaStart" : 1566,
                                "mediaDuration" : 3,
                                "scalar" : 1,
                                "animationTracks" : {

                                }
                              },
                          "audio" : 
                              {
                                "id" : 27,
                                "_type" : "AMFile",
                                "src" : 5,
                                "trackNumber" : 2,
                                "attributes" : {
                                  "ident" : "",
                                  "sampleRate" : 44100,
                                  "bitDepth" : 16,
                                  "gain" : 1.0,
                                  "mixToMono" : false
                                },
                                  "channelNumber" : "0,1",
                                "effects" : [

                                ],
                                "start" : 1494,
                                "duration" : 3,
                                "mediaStart" : 1566,
                                "mediaDuration" : 3,
                                "scalar" : 1,
                                "animationTracks" : {

                                }
                              }
,
                          "start" : 1494,
                          "duration" : 3,
                          "mediaStart" : 0,
                          "mediaDuration" : 26689,
                          "scalar" : 1,
                          "metadata" : {
                            "AutoAppliedSmartFocus" : "False",
                            "WinSubProjectDisplayName" : "",
                            "clipSpeedAttribute" : false
                          }
                        },
                        {
                          "id" : 28,
                          "_type" : "UnifiedMedia",
                          "video" : 
                              {
                                "id" : 29,
                                "_type" : "ScreenVMFile",
                                "src" : 5,
                                "trackNumber" : 0,
                                "attributes" : {
                                  "ident" : "Rec 02-15-20_002"
                                },
                                "parameters" : {
                                  "cursorScale" : {
                                    "type" : "double",
                                    "defaultValue" : 0.0,
                                    "interp" : "linr"
                                  },
                                  "cursorOpacity" : {
                                    "type" : "double",
                                    "defaultValue" : 0.0,
                                    "interp" : "linr"
                                  }
                                },
                                "effects" : [

                                ],
                                "start" : 1497,
                                "duration" : 930,
                                "mediaStart" : 2568,
                                "mediaDuration" : 930,
                                "scalar" : 1,
                                "animationTracks" : {

                                }
                              },
                          "audio" : 
                              {
                                "id" : 30,
                                "_type" : "AMFile",
                                "src" : 5,
                                "trackNumber" : 2,
                                "attributes" : {
                                  "ident" : "",
                                  "sampleRate" : 44100,
                                  "bitDepth" : 16,
                                  "gain" : 1.0,
                                  "mixToMono" : false
                                },
                                  "channelNumber" : "0,1",
                                "effects" : [

                                ],
                                "start" : 1497,
                                "duration" : 930,
                                "mediaStart" : 2568,
                                "mediaDuration" : 930,
                                "scalar" : 1,
                                "animationTracks" : {

                                }
                              }
,
                          "start" : 1497,
                          "duration" : 930,
                          "mediaStart" : 0,
                          "mediaDuration" : 26689,
                          "scalar" : 1,
                          "metadata" : {
                            "AutoAppliedSmartFocus" : "False",
                            "WinSubProjectDisplayName" : "",
                            "clipSpeedAttribute" : false
                          }
                        },
                        {
                          "id" : 31,
                          "_type" : "UnifiedMedia",
                          "video" : 
                              {
                                "id" : 32,
                                "_type" : "ScreenVMFile",
                                "src" : 5,
                                "trackNumber" : 0,
                                "attributes" : {
                                  "ident" : "Rec 02-15-20_002"
                                },
                                "parameters" : {
                                  "cursorScale" : {
                                    "type" : "double",
                                    "defaultValue" : 0.0,
                                    "interp" : "linr"
                                  },
                                  "cursorOpacity" : {
                                    "type" : "double",
                                    "defaultValue" : 0.0,
                                    "interp" : "linr"
                                  }
                                },
                                "effects" : [

                                ],
                                "start" : 2427,
                                "duration" : 5881,
                                "mediaStart" : 4250,
                                "mediaDuration" : 5881,
                                "scalar" : 1,
                                "animationTracks" : {

                                }
                              },
                          "audio" : 
                              {
                                "id" : 33,
                                "_type" : "AMFile",
                                "src" : 5,
                                "trackNumber" : 2,
                                "attributes" : {
                                  "ident" : "",
                                  "sampleRate" : 44100,
                                  "bitDepth" : 16,
                                  "gain" : 1.0,
                                  "mixToMono" : false
                                },
                                  "channelNumber" : "0,1",
                                "effects" : [

                                ],
                                "start" : 2427,
                                "duration" : 5881,
                                "mediaStart" : 4250,
                                "mediaDuration" : 5881,
                                "scalar" : 1,
                                "animationTracks" : {

                                }
                              }
,
                          "start" : 2427,
                          "duration" : 5881,
                          "mediaStart" : 0,
                          "mediaDuration" : 26689,
                          "scalar" : 1,
                          "metadata" : {
                            "AutoAppliedSmartFocus" : "False",
                            "WinSubProjectDisplayName" : "",
                            "clipSpeedAttribute" : false
                          }
                        },
                        {
                          "id" : 34,
                          "_type" : "UnifiedMedia",
                          "video" : 
                              {
                                "id" : 35,
                                "_type" : "ScreenVMFile",
                                "src" : 5,
                                "trackNumber" : 0,
                                "attributes" : {
                                  "ident" : "Rec 02-15-20_002"
                                },
                                "parameters" : {
                                  "cursorScale" : {
                                    "type" : "double",
                                    "defaultValue" : 0.0,
                                    "interp" : "linr"
                                  },
                                  "cursorOpacity" : {
                                    "type" : "double",
                                    "defaultValue" : 0.0,
                                    "interp" : "linr"
                                  }
                                },
                                "effects" : [

                                ],
                                "start" : 8308,
                                "duration" : 481,
                                "mediaStart" : 10670,
                                "mediaDuration" : 481,
                                "scalar" : 1,
                                "animationTracks" : {

                                }
                              },
                          "audio" : 
                              {
                                "id" : 36,
                                "_type" : "AMFile",
                                "src" : 5,
                                "trackNumber" : 2,
                                "attributes" : {
                                  "ident" : "",
                                  "sampleRate" : 44100,
                                  "bitDepth" : 16,
                                  "gain" : 1.0,
                                  "mixToMono" : false
                                },
                                  "channelNumber" : "0,1",
                                "effects" : [

                                ],
                                "start" : 8308,
                                "duration" : 481,
                                "mediaStart" : 10670,
                                "mediaDuration" : 481,
                                "scalar" : 1,
                                "animationTracks" : {

                                }
                              }
,
                          "start" : 8308,
                          "duration" : 481,
                          "mediaStart" : 0,
                          "mediaDuration" : 26689,
                          "scalar" : 1,
                          "metadata" : {
                            "AutoAppliedSmartFocus" : "False",
                            "WinSubProjectDisplayName" : "",
                            "clipSpeedAttribute" : false
                          }
                        },
                        {
                          "id" : 37,
                          "_type" : "UnifiedMedia",
                          "video" : 
                              {
                                "id" : 38,
                                "_type" : "ScreenVMFile",
                                "src" : 5,
                                "trackNumber" : 0,
                                "attributes" : {
                                  "ident" : "Rec 02-15-20_002"
                                },
                                "parameters" : {
                                  "cursorScale" : {
                                    "type" : "double",
                                    "defaultValue" : 0.0,
                                    "interp" : "linr"
                                  },
                                  "cursorOpacity" : {
                                    "type" : "double",
                                    "defaultValue" : 0.0,
                                    "interp" : "linr"
                                  }
                                },
                                "effects" : [

                                ],
                                "start" : 8789,
                                "duration" : 1005,
                                "mediaStart" : 11358,
                                "mediaDuration" : 1005,
                                "scalar" : 1,
                                "animationTracks" : {

                                }
                              },
                          "audio" : 
                              {
                                "id" : 39,
                                "_type" : "AMFile",
                                "src" : 5,
                                "trackNumber" : 2,
                                "attributes" : {
                                  "ident" : "",
                                  "sampleRate" : 44100,
                                  "bitDepth" : 16,
                                  "gain" : 1.0,
                                  "mixToMono" : false
                                },
                                  "channelNumber" : "0,1",
                                "effects" : [

                                ],
                                "start" : 8789,
                                "duration" : 1005,
                                "mediaStart" : 11358,
                                "mediaDuration" : 1005,
                                "scalar" : 1,
                                "animationTracks" : {

                                }
                              }
,
                          "start" : 8789,
                          "duration" : 1005,
                          "mediaStart" : 0,
                          "mediaDuration" : 26689,
                          "scalar" : 1,
                          "metadata" : {
                            "AutoAppliedSmartFocus" : "False",
                            "WinSubProjectDisplayName" : "",
                            "clipSpeedAttribute" : false
                          }
                        },
                        {
                          "id" : 40,
                          "_type" : "UnifiedMedia",
                          "video" : 
                              {
                                "id" : 41,
                                "_type" : "ScreenVMFile",
                                "src" : 5,
                                "trackNumber" : 0,
                                "attributes" : {
                                  "ident" : "Rec 02-15-20_002"
                                },
                                "parameters" : {
                                  "cursorScale" : {
                                    "type" : "double",
                                    "defaultValue" : 0.0,
                                    "interp" : "linr"
                                  },
                                  "cursorOpacity" : {
                                    "type" : "double",
                                    "defaultValue" : 0.0,
                                    "interp" : "linr"
                                  }
                                },
                                "effects" : [

                                ],
                                "start" : 9794,
                                "duration" : 7,
                                "mediaStart" : 12487,
                                "mediaDuration" : 7,
                                "scalar" : 1,
                                "animationTracks" : {

                                }
                              },
                          "audio" : 
                              {
                                "id" : 42,
                                "_type" : "AMFile",
                                "src" : 5,
                                "trackNumber" : 2,
                                "attributes" : {
                                  "ident" : "",
                                  "sampleRate" : 44100,
                                  "bitDepth" : 16,
                                  "gain" : 1.0,
                                  "mixToMono" : false
                                },
                                  "channelNumber" : "0,1",
                                "effects" : [

                                ],
                                "start" : 9794,
                                "duration" : 7,
                                "mediaStart" : 12487,
                                "mediaDuration" : 7,
                                "scalar" : 1,
                                "animationTracks" : {

                                }
                              }
,
                          "start" : 9794,
                          "duration" : 7,
                          "mediaStart" : 0,
                          "mediaDuration" : 26689,
                          "scalar" : 1,
                          "metadata" : {
                            "AutoAppliedSmartFocus" : "False",
                            "WinSubProjectDisplayName" : "",
                            "clipSpeedAttribute" : false
                          }
                        },
                        {
                          "id" : 43,
                          "_type" : "UnifiedMedia",
                          "video" : 
                              {
                                "id" : 44,
                                "_type" : "ScreenVMFile",
                                "src" : 5,
                                "trackNumber" : 0,
                                "attributes" : {
                                  "ident" : "Rec 02-15-20_002"
                                },
                                "parameters" : {
                                  "cursorScale" : {
                                    "type" : "double",
                                    "defaultValue" : 0.0,
                                    "interp" : "linr"
                                  },
                                  "cursorOpacity" : {
                                    "type" : "double",
                                    "defaultValue" : 0.0,
                                    "interp" : "linr"
                                  }
                                },
                                "effects" : [

                                ],
                                "start" : 9801,
                                "duration" : 325,
                                "mediaStart" : 12722,
                                "mediaDuration" : 325,
                                "scalar" : 1,
                                "animationTracks" : {

                                }
                              },
                          "audio" : 
                              {
                                "id" : 45,
                                "_type" : "AMFile",
                                "src" : 5,
                                "trackNumber" : 2,
                                "attributes" : {
                                  "ident" : "",
                                  "sampleRate" : 44100,
                                  "bitDepth" : 16,
                                  "gain" : 1.0,
                                  "mixToMono" : false
                                },
                                  "channelNumber" : "0,1",
                                "effects" : [

                                ],
                                "start" : 9801,
                                "duration" : 325,
                                "mediaStart" : 12722,
                                "mediaDuration" : 325,
                                "scalar" : 1,
                                "animationTracks" : {

                                }
                              }
,
                          "start" : 9801,
                          "duration" : 325,
                          "mediaStart" : 0,
                          "mediaDuration" : 26689,
                          "scalar" : 1,
                          "metadata" : {
                            "AutoAppliedSmartFocus" : "False",
                            "WinSubProjectDisplayName" : "",
                            "clipSpeedAttribute" : false
                          }
                        },
                        {
                          "id" : 46,
                          "_type" : "UnifiedMedia",
                          "video" : 
                              {
                                "id" : 47,
                                "_type" : "ScreenVMFile",
                                "src" : 5,
                                "trackNumber" : 0,
                                "attributes" : {
                                  "ident" : "Rec 02-15-20_002"
                                },
                                "parameters" : {
                                  "cursorScale" : {
                                    "type" : "double",
                                    "defaultValue" : 0.0,
                                    "interp" : "linr"
                                  },
                                  "cursorOpacity" : {
                                    "type" : "double",
                                    "defaultValue" : 0.0,
                                    "interp" : "linr"
                                  }
                                },
                                "effects" : [

                                ],
                                "start" : 10126,
                                "duration" : 11081,
                                "mediaStart" : 13166,
                                "mediaDuration" : 11081,
                                "scalar" : 1,
                                "animationTracks" : {

                                }
                              },
                          "audio" : 
                              {
                                "id" : 48,
                                "_type" : "AMFile",
                                "src" : 5,
                                "trackNumber" : 2,
                                "attributes" : {
                                  "ident" : "",
                                  "sampleRate" : 44100,
                                  "bitDepth" : 16,
                                  "gain" : 1.0,
                                  "mixToMono" : false
                                },
                                  "channelNumber" : "0,1",
                                "effects" : [

                                ],
                                "start" : 10126,
                                "duration" : 11081,
                                "mediaStart" : 13166,
                                "mediaDuration" : 11081,
                                "scalar" : 1,
                                "animationTracks" : {

                                }
                              }
,
                          "start" : 10126,
                          "duration" : 11081,
                          "mediaStart" : 0,
                          "mediaDuration" : 26689,
                          "scalar" : 1,
                          "metadata" : {
                            "AutoAppliedSmartFocus" : "False",
                            "WinSubProjectDisplayName" : "",
                            "clipSpeedAttribute" : false
                          }
                        },
                        {
                          "id" : 49,
                          "_type" : "UnifiedMedia",
                          "video" : 
                              {
                                "id" : 50,
                                "_type" : "ScreenVMFile",
                                "src" : 5,
                                "trackNumber" : 0,
                                "attributes" : {
                                  "ident" : "Rec 02-15-20_002"
                                },
                                "parameters" : {
                                  "cursorScale" : {
                                    "type" : "double",
                                    "defaultValue" : 0.0,
                                    "interp" : "linr"
                                  },
                                  "cursorOpacity" : {
                                    "type" : "double",
                                    "defaultValue" : 0.0,
                                    "interp" : "linr"
                                  }
                                },
                                "effects" : [

                                ],
                                "start" : 21207,
                                "duration" : 1165,
                                "mediaStart" : 24944,
                                "mediaDuration" : 1165,
                                "scalar" : 1,
                                "animationTracks" : {

                                }
                              },
                          "audio" : 
                              {
                                "id" : 51,
                                "_type" : "AMFile",
                                "src" : 5,
                                "trackNumber" : 2,
                                "attributes" : {
                                  "ident" : "",
                                  "sampleRate" : 44100,
                                  "bitDepth" : 16,
                                  "gain" : 1.0,
                                  "mixToMono" : false
                                },
                                  "channelNumber" : "0,1",
                                "effects" : [

                                ],
                                "start" : 21207,
                                "duration" : 1165,
                                "mediaStart" : 24944,
                                "mediaDuration" : 1165,
                                "scalar" : 1,
                                "animationTracks" : {

                                }
                              }
,
                          "start" : 21207,
                          "duration" : 1165,
                          "mediaStart" : 0,
                          "mediaDuration" : 26689,
                          "scalar" : 1,
                          "metadata" : {
                            "AutoAppliedSmartFocus" : "False",
                            "WinSubProjectDisplayName" : "",
                            "clipSpeedAttribute" : false
                          }
                        },
                        {
                          "id" : 52,
                          "_type" : "UnifiedMedia",
                          "video" : 
                              {
                                "id" : 53,
                                "_type" : "ScreenVMFile",
                                "src" : 5,
                                "trackNumber" : 0,
                                "attributes" : {
                                  "ident" : "Rec 02-15-20_002"
                                },
                                "parameters" : {
                                  "cursorScale" : {
                                    "type" : "double",
                                    "defaultValue" : 0.0,
                                    "interp" : "linr"
                                  },
                                  "cursorOpacity" : {
                                    "type" : "double",
                                    "defaultValue" : 0.0,
                                    "interp" : "linr"
                                  }
                                },
                                "effects" : [

                                ],
                                "start" : 22372,
                                "duration" : 94,
                                "mediaStart" : 26595,
                                "mediaDuration" : 94,
                                "scalar" : 1,
                                "animationTracks" : {

                                }
                              },
                          "audio" : 
                              {
                                "id" : 54,
                                "_type" : "AMFile",
                                "src" : 5,
                                "trackNumber" : 2,
                                "attributes" : {
                                  "ident" : "",
                                  "sampleRate" : 44100,
                                  "bitDepth" : 16,
                                  "gain" : 1.0,
                                  "mixToMono" : false
                                },
                                  "channelNumber" : "0,1",
                                "effects" : [

                                ],
                                "start" : 22372,
                                "duration" : 94,
                                "mediaStart" : 26595,
                                "mediaDuration" : 94,
                                "scalar" : 1,
                                "animationTracks" : {

                                }
                              }
,
                          "start" : 22372,
                          "duration" : 94,
                          "mediaStart" : 0,
                          "mediaDuration" : 26689,
                          "scalar" : 1,
                          "metadata" : {
                            "AutoAppliedSmartFocus" : "False",
                            "WinSubProjectDisplayName" : "",
                            "clipSpeedAttribute" : false
                          }
                        }
                    ],
                    "effects" : [

                    ],
                    "start" : 1496,
                    "duration" : 20970,
                    "mediaStart" : 1496,
                    "mediaDuration" : 20970,
                    "scalar" : 1,
                    "metadata" : {
                      "AutoAppliedSmartFocus" : "False",
                      "WinSubProjectDisplayName" : "",
                      "clipSpeedAttribute" : false
                    },
                    "animationTracks" : {
                      "visual" : [
                        {
                          "endTime" : 2257,
                          "duration" : 30,
                          "range" : [ 2227, 30]
                        },
                        {
                          "endTime" : 10503,
                          "duration" : 30,
                          "range" : [ 10473, 30]
                        },
                        {
                          "endTime" : 10989,
                          "duration" : 30,
                          "range" : [ 10959, 30]
                        },
                        {
                          "endTime" : 11089,
                          "duration" : 30,
                          "range" : [ 11059, 30]
                        },
                        {
                          "endTime" : 11261,
                          "duration" : 30,
                          "range" : [ 11231, 30]
                        },
                        {
                          "endTime" : 11725,
                          "duration" : 30,
                          "range" : [ 11695, 30]
                        }
                      ]
                    }
                  }
                ],
                "transitions" : [
                  {
                    "name" : "Fade",
                    "duration" : 30,
                    "trivial" : false,
                    "useAudioPreRoll" : true,
                    "useVisualPreRoll" : true,
                    "rightMedia" : 21
                  },
                  {
                    "name" : "Fade",
                    "duration" : 30,
                    "trivial" : false,
                    "useAudioPreRoll" : true,
                    "useVisualPreRoll" : true,
                    "leftMedia" : 21
                  }
                ]
              },
              {
                "trackIndex" : 12,
                "medias" : [
                  {
                    "id" : 55,
                    "_type" : "StitchedMedia",
                    "minMediaStart" : 0,
                    "attributes" : {
                      "ident" : "Rec 02-15-20_002",
                      "gain" : 1.0,
                      "mixToMono" : false
                    },
                    "parameters" : {
                      "volume" : {
                        "type" : "double",
                        "keyframes" : [
                          {
                            "endTime" : 0,
                            "time" : 0,
                            "value" : 1.0,
                            "duration" : 0
                          },
                          {
                            "endTime" : 17756,
                            "time" : 17756,
                            "value" : 1.0,
                            "duration" : 0
                          },
                          {
                            "endTime" : 17757,
                            "time" : 17757,
                            "value" : 0.0,
                            "duration" : 0
                          },
                          {
                            "endTime" : 17954,
                            "time" : 17954,
                            "value" : 0.0,
                            "duration" : 0
                          },
                          {
                            "endTime" : 17955,
                            "time" : 17955,
                            "value" : 1.0,
                            "duration" : 0
                          }
                        ]
                      },
                      "cursorOpacity" : 1.0,
                      "cursorScale" : 1.0
                    },
                    "medias" : [
                        {
                          "id" : 56,
                          "_type" : "AMFile",
                          "src" : 5,
                          "trackNumber" : 1,
                          "attributes" : {
                            "ident" : "Rec 02-15-20_002",
                            "sampleRate" : 44100,
                            "bitDepth" : 16,
                            "gain" : 1.0,
                            "mixToMono" : false
                          },
                            "channelNumber" : "0,1",
                          "effects" : [

                          ],
                          "start" : 0,
                          "duration" : 1494,
                          "mediaStart" : 0,
                          "mediaDuration" : 1494,
                          "scalar" : 1,
                          "metadata" : {
                            "WinSubProjectDisplayName" : "",
                            "clipSpeedAttribute" : false
                          },
                          "animationTracks" : {

                          }
                        },
                        {
                          "id" : 57,
                          "_type" : "AMFile",
                          "src" : 5,
                          "trackNumber" : 1,
                          "attributes" : {
                            "ident" : "Rec 02-15-20_002",
                            "sampleRate" : 44100,
                            "bitDepth" : 16,
                            "gain" : 1.0,
                            "mixToMono" : false
                          },
                            "channelNumber" : "0,1",
                          "effects" : [

                          ],
                          "start" : 1494,
                          "duration" : 3,
                          "mediaStart" : 1566,
                          "mediaDuration" : 3,
                          "scalar" : 1,
                          "metadata" : {
                            "WinSubProjectDisplayName" : "",
                            "clipSpeedAttribute" : false
                          },
                          "animationTracks" : {

                          }
                        },
                        {
                          "id" : 58,
                          "_type" : "AMFile",
                          "src" : 5,
                          "trackNumber" : 1,
                          "attributes" : {
                            "ident" : "Rec 02-15-20_002",
                            "sampleRate" : 44100,
                            "bitDepth" : 16,
                            "gain" : 1.0,
                            "mixToMono" : false
                          },
                            "channelNumber" : "0,1",
                          "effects" : [

                          ],
                          "start" : 1497,
                          "duration" : 930,
                          "mediaStart" : 2568,
                          "mediaDuration" : 930,
                          "scalar" : 1,
                          "metadata" : {
                            "WinSubProjectDisplayName" : "",
                            "clipSpeedAttribute" : false
                          },
                          "animationTracks" : {

                          }
                        },
                        {
                          "id" : 59,
                          "_type" : "AMFile",
                          "src" : 5,
                          "trackNumber" : 1,
                          "attributes" : {
                            "ident" : "Rec 02-15-20_002",
                            "sampleRate" : 44100,
                            "bitDepth" : 16,
                            "gain" : 1.0,
                            "mixToMono" : false
                          },
                            "channelNumber" : "0,1",
                          "effects" : [

                          ],
                          "start" : 2427,
                          "duration" : 5881,
                          "mediaStart" : 4250,
                          "mediaDuration" : 5881,
                          "scalar" : 1,
                          "metadata" : {
                            "WinSubProjectDisplayName" : "",
                            "clipSpeedAttribute" : false
                          },
                          "animationTracks" : {

                          }
                        },
                        {
                          "id" : 60,
                          "_type" : "AMFile",
                          "src" : 5,
                          "trackNumber" : 1,
                          "attributes" : {
                            "ident" : "Rec 02-15-20_002",
                            "sampleRate" : 44100,
                            "bitDepth" : 16,
                            "gain" : 1.0,
                            "mixToMono" : false
                          },
                            "channelNumber" : "0,1",
                          "effects" : [

                          ],
                          "start" : 8308,
                          "duration" : 481,
                          "mediaStart" : 10670,
                          "mediaDuration" : 481,
                          "scalar" : 1,
                          "metadata" : {
                            "WinSubProjectDisplayName" : "",
                            "clipSpeedAttribute" : false
                          },
                          "animationTracks" : {

                          }
                        },
                        {
                          "id" : 61,
                          "_type" : "AMFile",
                          "src" : 5,
                          "trackNumber" : 1,
                          "attributes" : {
                            "ident" : "Rec 02-15-20_002",
                            "sampleRate" : 44100,
                            "bitDepth" : 16,
                            "gain" : 1.0,
                            "mixToMono" : false
                          },
                            "channelNumber" : "0,1",
                          "effects" : [

                          ],
                          "start" : 8789,
                          "duration" : 1005,
                          "mediaStart" : 11358,
                          "mediaDuration" : 1005,
                          "scalar" : 1,
                          "metadata" : {
                            "WinSubProjectDisplayName" : "",
                            "clipSpeedAttribute" : false
                          },
                          "animationTracks" : {

                          }
                        },
                        {
                          "id" : 62,
                          "_type" : "AMFile",
                          "src" : 5,
                          "trackNumber" : 1,
                          "attributes" : {
                            "ident" : "Rec 02-15-20_002",
                            "sampleRate" : 44100,
                            "bitDepth" : 16,
                            "gain" : 1.0,
                            "mixToMono" : false
                          },
                            "channelNumber" : "0,1",
                          "effects" : [

                          ],
                          "start" : 9794,
                          "duration" : 7,
                          "mediaStart" : 12487,
                          "mediaDuration" : 7,
                          "scalar" : 1,
                          "metadata" : {
                            "WinSubProjectDisplayName" : "",
                            "clipSpeedAttribute" : false
                          },
                          "animationTracks" : {

                          }
                        },
                        {
                          "id" : 63,
                          "_type" : "AMFile",
                          "src" : 5,
                          "trackNumber" : 1,
                          "attributes" : {
                            "ident" : "Rec 02-15-20_002",
                            "sampleRate" : 44100,
                            "bitDepth" : 16,
                            "gain" : 1.0,
                            "mixToMono" : false
                          },
                            "channelNumber" : "0,1",
                          "effects" : [

                          ],
                          "start" : 9801,
                          "duration" : 325,
                          "mediaStart" : 12722,
                          "mediaDuration" : 325,
                          "scalar" : 1,
                          "metadata" : {
                            "WinSubProjectDisplayName" : "",
                            "clipSpeedAttribute" : false
                          },
                          "animationTracks" : {

                          }
                        },
                        {
                          "id" : 64,
                          "_type" : "AMFile",
                          "src" : 5,
                          "trackNumber" : 1,
                          "attributes" : {
                            "ident" : "Rec 02-15-20_002",
                            "sampleRate" : 44100,
                            "bitDepth" : 16,
                            "gain" : 1.0,
                            "mixToMono" : false
                          },
                            "channelNumber" : "0,1",
                          "effects" : [

                          ],
                          "start" : 10126,
                          "duration" : 11081,
                          "mediaStart" : 13166,
                          "mediaDuration" : 11081,
                          "scalar" : 1,
                          "metadata" : {
                            "WinSubProjectDisplayName" : "",
                            "clipSpeedAttribute" : false
                          },
                          "animationTracks" : {

                          }
                        },
                        {
                          "id" : 65,
                          "_type" : "AMFile",
                          "src" : 5,
                          "trackNumber" : 1,
                          "attributes" : {
                            "ident" : "Rec 02-15-20_002",
                            "sampleRate" : 44100,
                            "bitDepth" : 16,
                            "gain" : 1.0,
                            "mixToMono" : false
                          },
                            "channelNumber" : "0,1",
                          "effects" : [

                          ],
                          "start" : 21207,
                          "duration" : 1165,
                          "mediaStart" : 24944,
                          "mediaDuration" : 1165,
                          "scalar" : 1,
                          "metadata" : {
                            "WinSubProjectDisplayName" : "",
                            "clipSpeedAttribute" : false
                          },
                          "animationTracks" : {

                          }
                        },
                        {
                          "id" : 66,
                          "_type" : "AMFile",
                          "src" : 5,
                          "trackNumber" : 1,
                          "attributes" : {
                            "ident" : "Rec 02-15-20_002",
                            "sampleRate" : 44100,
                            "bitDepth" : 16,
                            "gain" : 1.0,
                            "mixToMono" : false
                          },
                            "channelNumber" : "0,1",
                          "effects" : [

                          ],
                          "start" : 22372,
                          "duration" : 91,
                          "mediaStart" : 26595,
                          "mediaDuration" : 91,
                          "scalar" : 1,
                          "metadata" : {
                            "WinSubProjectDisplayName" : "",
                            "clipSpeedAttribute" : false
                          },
                          "animationTracks" : {

                          }
                        }
                    ],
                    "effects" : [
                        {
                          "effectName" : "NoiseReduction",
                          "category" : "categoryAudioEffects",
                          "parameters" : {
                            "denoiserAmount" : 8.0,
                            "denoiserThreshold" : 0.0,
                            "noiseProfile" : "UFKlPgABnT/8DTdAsl+ZPzesKkCgZuc/+oWHP+Zffj6KW8Q+hOxKPjDXxD7AHxU/SBW1Pj2RQz4g\r\nsGY/wsCIPt+5Ij/QsLQ+1085PlpjvT0/V4A+1VQHP3aD1j4BHak+t6myPzPRND9vp3E/kzpXP3Vf\r\nQz6hem887N4UPdyNYDtqEQw+NsamPZBy7Tw0X8s9GQ49P1Zz1D7xPAo+VKnGPRbwgT3qAfk+nqBY\r\nPkBovT46ABg+XR0WPoIQ4T1MsYg/UL58P0YCDD6dbUM8KY4tPgxIEz86NOo+GjHNPvrYUz81Y7g+\r\nHIjVPv2BJj/l3Kk/p0aTPwwEUD9UlF8/u/QcQBOnpT81Fqk+3qylPcft9DzLK8E9LUK3PpxfXT/S\r\nMqo+vchDPpKhYD5GB8g/xYmJP+TIbT+K688+YjNsPk3lNT+zMhRAcjC5P+VuiT7KeBE+5SQLPdJk\r\nPT3ca6c9L8JAPmtGgz65cyQ+R2boPUT68z06gmI9UcMXPZnbhD5nhRw908joO7b4MzrCas48jD7P\r\nPdnL+D0qoGs9Fx0kPkLSiT1V2MQ811ENPnpaJD5yY5E98C3oPK0DiTsfdbQ71TGsPd8iXD1koIE7\r\nhwWZO3QnFD0mrms9U/RHPbdYCjsWLZY9OWPkPTLHNj2GfeQ7/CK2PL/e/T3+8uw9zYbsPRgCLz2J\r\nD6Y9yDgMPoTGBz22Bo8+HPhFPij+Az9YTZc+G3rLPV1hjD1MRwk+6HA+PsXn3z7qXPo+HVtrPyq0\r\nPz7NCCs9uIz4PHGGuT0f1I099mqXPWtdCjzbL2U9pn7tPMppGj3vvcQ9yO1SPWzFYD7YS5E9teK1\r\nPOc8Hz3O1tg8C4ycPnlCFj1zyYE+1H+yPkg9FT5OLQE+AoKQPB7J4zxCiDk9KkXXPWlTKj3E1PY8\r\npS2jPOYUWDyqZZE7pu4hPhD4gz6Hdzk9SQhJPb1pIT19oPw8Qw+9PekghTwY+gc9n5n1PBet8Txg\r\n7i489MCoO6GhPztNi5Y70t6sPEqq2zrffz86qR+MOq0dqTqexWg8zTmTO8O6tTuTYbs8zP8lO4NX\r\nzTyo1ac8ACZ4PJm9RDzzOKY8auG2PIL6Pz3c6VA7g7egO8Z+ijxRpgI90cZ7OwrexzxqYGA86k3D\r\nPPSKnjzC0Oc7RdXcPJMt+zsiRIw7AGtRO2cmSDv1yCc7vUCmOqA4DTtKBv46RROGOozCKzuNoxQ7\r\nJNF/O7bULTtRJd88vSwqPOY4+DsAeLs7J5AvO7FkTTwQ7WE8XeMiPGJoLDwmjYE7wzqBO/pkqzy4\r\nDSg7vIojPPy7PzzHi+07OhzOPBnTKjzbSXA7D6IKPOXT6DvKZys7E30sPK61BzwWcm489FC9O0Dh\r\nrTo3UQE7Jb8YPLzKlzz5izE8DrBBPOL6tDs4TiE7NbGQO67GSjxwxUM8FvnHOwTnDztCmOg7QXFe\r\nO3XyFDqw5Jg7GC1SO6BVSDww0GI8R333OekIHDzUKos7pW2ZPOuvvj3ExIg9g9JbPIiwTTyvLTg8\r\nFZYTPd25ED0qGH88b4gvPZ9yPz3VWXc9GOoJPZzkdTyYPK88REfUPEIQZD1Iqj49YETBPDP8Nz28\r\n+hI9MnQbPsJ72D2V9hk96XB3PSgsPz512lo+FcTLPYOxiD0R9a0894SDPU+/Vj1i3kU9eh4uPLHD\r\nJj3ASM08fQ+rPcoJBT7Y0sw9+FqTPW6PkD2syHo+AtKtPrgdlj5O4A4+ukZvPmScwj6cyok+yiZx\r\nPmLp0D02B/49rz4cPtmSID6wdGs9njGfPeaXuT39C4U9ikNWPeo7Bj1sXTI9JLzZPF3cgz3CTf88\r\n3w5XPBkShjyVW/88WWKgPHpVKjxmjio8i0U4PIVXXT1+KgE9PGTOO0DhXDvJJg08s7sKPdeugTyb\r\nkZM7BwoRPCM5FDyDt7I84GUgOx/btzuvNMs705OmPEoYWTtIzY47Qvi5Ox3CMDwWc2k8fycjPM3i\r\niDxWCaw80IK0PK8qGz3glgI9PdVmPOw/nDvOiqs7FiRfPDs8ZTyGMWM8bPooO/04eDwWx9c8Nyc2\r\nPO3RAjzgCqM7OgDhO47+TjyrSMY7F8pmO9xlHzzxU7466C8yPNrsCTwEdAs78U4KO+BlGjsIJbs7\r\nNaolPH/hOjuzG8c6jQsKO3hPCzvWN7A7z2Q7OiC4vTvp4g47TYenO2iQMDyO1088Vy5rPPNCGzxj\r\nA2I76NsFO6JZhjtmthc7ay1VOsayiTsFMKA7FaJ2PCQqmjytewQ8no6dOpT0vjv+0Ec8zqe0O17I\r\nMTu1OOc7F6AtPITiCj1JkRE9tBQkPKjdyjsTMM87sj6/PEa8JDzukYM7jCphOsm4WDt8y4k7coyr\r\nO+jpsjvtgmk7sM84PPAWezzVh6Y8ve9DPEZ4ozsVyIc74NlnO+9KoTv2Nxs7qoR4Oya+3jqeGww8\r\npFS3PPczjDw4ZkA8LigTPKAuYDxXxGA8M2KcPDIvxjvk2g88vjn1O10xDjwbP6E7dFAOPJwHUjyc\r\nMWM8tr4mPCa4pDsZBrM6zI83O1YrvTq+qGI6UTsQOzoNDzusv/Y6TjSvO9Lv6ToBkxI7kmcAOwHW\r\nzDnVWr86ILWOOqeXUzrdxDs7wUeFO76FsDvfAAs8QqPEO8rolDuB5Jg7grAnO9474TnPsJs5SIic\r\nOeA45jnI3oQ6hHLRORRGqjq+arM6lkg0Oq2MZToMc1w6d+FHOnxdSjptfGE6jJVdOkb4ljqgdGs6\r\nkqleOoWH4zkEdaQ7js6fO+WTazq3SpM5UnN9OvD3+DovdIY7IUCyO9t77DvLZBE8cuUuPH9rlTtf\r\n8YI70r2xO1VpATyw4xU8aRWROzAG0Trqssg7WMloPN34NjwuPRc8/PnLO7S8dTv84yQ8TtooPES2\r\nYzt6zss7G+0sPJv69jujQ1U8CZEBPPmdhztFzQM8MgYHPGVf0Ts82Yk7EncpO2zbUjrqtAE7PFeM\r\nO7WiETuq2Cs7GZ3ROgK2kTrp+4M7hHR9O7isEjuWHpQ6DWyMOvyc1jvTp3M7T1G6OzjcvDqi+Yw7\r\n2kQiO1YSKzr2noI6d/oaO+XjXjtC/cc6YcMTOmk/DTrKgII6D3CtOpZO0znKc0k6sWHqOT76+jm9\r\n3zk6slAUOYI9Iju2LKM7vS/hOqLs1jrAZ1Q7NUnOO38XtTv10g06sI85PIs9tjvpF486pPyzOl40\r\ndjq1cB06kB80O48oWjsE8a877MJxO8OKizvNPOo65d3GOiyy6TptoeA6OuTwOfR+CzpwWgU74Pr0\r\nOvyf+zoaoXc74k8BOxwOEDsmags78Z/sOiz7bjqWICA7LLurO/NShjvUhy48+cFbPBcXETw/uCQ7\r\ndBxAOoRLZTrtMAI71yqBOyWOQTvt20s77GAtOZCOTDr1thE5U0e4OWRbpTm2Pl45hFO2Ou1I7DnT\r\nLgQ6l3ZUOnXreDkvCtE64soAO7Zd8jh0Rig6bnACOto59Dm3Wo45YbCgOr9yWDlY1rk6/KttOxmd\r\nETvybaM5ZN0sOqIGkzn1uB45LmEjOqvmuDq3xuw5VAzfOEp+mzoQteg62bHlOhuQgDo2uX46Wq3h\r\nOeBseztoYqA7PJH/OVoAJjtsZ2o62qA5O52WszqCuYU7uvWYOkvOxDqcVIQ60KFAO/6FVDpeOiQ6\r\nAGO4Og6sazkPNEM6vNLWOagA9DhkT7w5bSzJOfw4mTouUsE6ttA1OuTLWDspZoU7PtfEOt2m2DrO\r\nmB86YQiGOsxobTrcdoI6MmjGOnGiWToCixg5vk/8OC8nvjnkDMk6Uuw6Oh6/Kzn6o7M4ODHCOLSr\r\nOjnQloE6QPSiOcGCFDnkllk4vc1FOqQATTsBvHQ6c4eHOv8BsDlwIo06nPGGO3GyozroLB06mL4/\r\nOTq+SjpzM6c5VFp/OfAkWDmu7Hw69D7IOXmXGDokCoE5uKZrOiLpijm7QUY6p0AqOu2o5TlqBZ45\r\n5HKWOTocpjlH1+k5R10FOnhY0zkdmHo6h69QOkkd7jhfNhg5VPUGOgXPuzlnAyU6eBxROr84qzpA\r\nZq05D2nfOTIpwjllpMc5WE8QOl5i6jmK6W05keT1OcbmkzmbnzI6s0CNOfJCcDlkWtA5ETZYOqcD\r\nVzoMSsM5zCOOOUnQmjl+0U46Y32WOZFYAzp78QE6hiLBOf3tEjqLyw06tCm1OYxk0Tml0Po5+RrP\r\nOTYEpzmbmjQ5HkFwOfezqzkCioI4NiHiOSD5YDm/0+A4ANMNOpnJvjnQDq45ieoJOqLBGDqrvLg5\r\nJITxOfdrdDrx+8k4MgKVOVD2ATpA/SU5742QOAG9EDkn3oQ3XiihOH+TljifnYw4D4AuOOMJuTjl\r\nRko5TeU6OQotJjkuEGU5OV4fOaoxLTmOyBg49ITeOAtdfDjR0C04zFVLOVSARjklbI45TObIOZQN\r\nhDcp0Ug5BNghOcGf/jirh4c4sdiCORaxEjlQjjE48yWLOBXiKTgduok5sh2JOUjHLDlSW545xkRo\r\nOYLh8jl4wOM48IjKNzt9aTmgsYE5+RLAOc+jJDoxghg6mM0NOua0hTpbsoo6GW+aOp7UTTrKAZY5\r\nxFT2OL0b0zkwTvI5RvBTOksqyDnaugc61XKFOoxfiTqgFAE6DRN3Okq8RToAVZA4kv0IOK2RxDgR\r\nAUQ4OllpOPcqMjgOH4447DhHOEylKDhb5pw5ddOcOf6UKThJLik5ZIy6ORSnbjkabG04NAU5ONwG\r\nkTmSpvc5FwWGOTiurjhbcLE5PbLqOXgGiTleBkY5ajCAOcLCCjkuQ9U2EqosN+j6STgC2Eg4j7ze\r\nNvozqDaSZJo2CKigNuBKYDYmn2Y28+E7NkuFqTanwzc2VzCFNnAxaDaKBps2Vos1NjORQja8wIg2\r\nm+zYNqpR+jVP2tw2yfBPNmAOtTbxDpo2EG5HNqLQEzZbnyg2Sip5NtvGezYlTHA2ksCtNh/hijbY\r\nPkk2p41NNu0oiTbigHw2UFSwNmCyojZivMQ2sphYNhBMxTa97I02qfEPNumdZjb1IyE27OhSNhXT\r\ngjbdmLk2gNhSNuHaTjYAtiM2CBJ0Nkp8sDZu5IE2YkNJNpysVDYIuoE24nNcNmYuoTbJ56o2rikA\r\nN80/WTZsH5M2taM0NqcNRzaERqA2iTFZNgHZaDZ3K082jEqPNqbNJzbIDqg2oxtTNlPEpDYhu482\r\n65uhNqjgWjaGzHo2d0FwNmAOfzYEe1U2gJ5yNmZ9PDaiXJI2sgCeNqz/ZTbAAZQ2D71ONn0/4zbm\r\n8LY29atoNuo3iTaPiEw26V1XNv3CczbriZs2B2Y8Nv70oDb7Fqw2Tv14Nuz2zTbNCms28v8cNhNH\r\nxDZezjs2jx96Nl1ohTZXzEc2qdNcNleCLDY8yTk2LPJtNlegXDYNDrg2Q1qdNqI2NTbWHpY20QY5\r\nNi9iizYaq582ZFBQNrrTdDZdXEY2+/ZMNgxEbTb+4ko2RCqONjuzjzYha7Y2ks6sNgCQaDb9+6Q+\r\n2v+cP+gkN0DWZpk/N6wqQP1m5z/6hYc/5l9+PopbxD4U7ko+GDPFPsAfFT9IFbU+PZFDPiCwZj/C\r\nwIg+SokiP9CwtD7XTzk+WmO9PT9XgD77Xwc/doPWPqsPqT63qbI/M9E0Py6tcT8uOFc/dV9DPkfO\r\nbzzs3hQ9idlfO2oRDD42xqY9kHLtPHJByz0ZDj0/GknUPg+CCj5UqcY92mqCPeoB+T5Yzlg++x+9\r\nPjoAGD5RQxY+ghDhPUyxiD8AvHw/qAoMPoUTRDx7sC0+DEgTPzo06j7gD80++thTPzVjuD6pSNU+\r\n/YEmP4nnqT+1UZM/DARQP1SUXz+79BxAfaClPzUWqT5kbaU99UH0PPwjwT0KWLc+nF9dPwYXqj4a\r\nnEM+rYJgPj/2xz/FiYk/5MhtP7bvzz5yAWw+TeU1P7MyFEByMLk/5W6JPkSIET4quwo9zT0+PfmT\r\npz2Cd0A+a0aDPmc4JD6Imuc92if0PetBYj2C4hc9/62EPiRtHD3wFug7QGk1Ov8Ozjxpjc89yD74\r\nPXxKaz0s5iM+otiJPVAzxTzXUQ0+ZGUkPnJjkT1nkug8rQOJO/ZNszvVMaw9flZbPR/jgDt+gJc7\r\ndCcUPSauaz2CR0c9Tt0KOzROlj3DSOQ9Msc2PYZ95DvNQLY8v979PXzx7D3Nhuw91JIuPUdPpj3T\r\nOQw+2rYHPbYGjz4VtEU+KP4DP5VIlz65o8s9/W6MPc1JCT7ocD4+xeffPlBD+j4dW2s/KrQ/Pvrg\r\nKj24jPg8cYa5PR/UjT0/ipc9xsEKPNsvZT1L1u08wVcYPe+9xD1ZOVM9bMVgPthLkT2mFrg8TT4g\r\nPVUz2Ty+W5w+SAQWPXPJgT7Uf7I+ojUVPk4tAT70TpA8HsnjPL0OOj0qRdc9DY4qPaWY9jyS/KA8\r\n3MxXPDrckTum7iE+EPiDPszHOD1tIUk96nYhPcq1/DymcL09cCSFPHuBBj2fmfU8F63xPEw3Ljz0\r\nwKg7oaE/O7UflTvS3qw8SqrbOt9/PzqpH4w6rR2pOp7FaDwv1JE7w7q1OytnuzzKKCc7uozNPKjV\r\npzxAzXw8CJpCPC8SpjxD37c8eQlBPf5WTjuZwqE71ECKPDHxAj18HX07sAbIPGpgYDw0jMM8ykSe\r\nPIw+7DtF1dw8L1T9O+SrjTsNKVc7ZyZIO4AWKjtT9aA6mr4OO0oG/jr2BYk6jMIrOzI8GDsk0X87\r\nttQtO1El3zy9LCo8gpH5OwB4uzt8iC87sWRNPNC9Xjwy/iE8YmgsPL6vgTu+UIE7cZWqPLgNKDtJ\r\nQSQ8/Ls/PCxv7DsVhM48P8gqPJG+gDvXcgs8GnvnO8pnKztTnyw8hWIHPBZybjz0UL07rJCqOoB1\r\nCDss+hg8PsuWPKZhMTxNIzs8fUy3O5TTITvAY5E7bDxOPKCuQzwW+cc71cUPO1GF6Ds2+V87WLAT\r\nOrDkmDv6t1I7ReZIPJXMYzxHffc56QgcPKBrjDvp/5g8QcO+PTp/iD2D0ls8HplNPAf5ODybNxI9\r\nGKUQPdSlfzzodi49D8Q/PdnXdj26vgk9bv11PL2Grzw6OtQ8Wz9kPc4dPT1gRME8M/w3PcI7Ez0y\r\ndBs+cubYPZX2GT2vPHg9KCw/PnXaWj735ss9rvaIPZVprTz3hIM9ivRWPXj9RT02+y48scMmPcBI\r\nzTzQbKs9fkMFPsmwzT0Vr5E92W6QPYWCez6G460+lNeVPk/kDj7DIm8+bIbCPhrYiT6ARXE+ggfR\r\nPQ8p/T0cFBw+/8ofPjIKbD276Z89Xpm4PXf1hD1wo1M9JP4HPfedMT3il9k8zpCDPcJN/zzfDlc8\r\nSX2GPKwEAD04qp089tgoPOTaKjwiLjg8txdaPWI1AT08ZM47eH9eO0h+DDzMFAs9SAOEPJuRkzt+\r\nNxE8IzkUPIO3sjzq/SA7H9u3O680yzvTk6Y8eW5ZO1uQjzt8f7k7EswvPBZzaTw3yiA8zeKIPHDc\r\nrjyXPLU8lrQbPebGAj1WmGU8gYCbO86KqzveFV887FRmPNARYjxgKCk7+792PCR51zwKKzY8a18A\r\nPOAKozuQW947sdtPPIjzxTtqKGU73GUfPPFTvjrgEzU8ZoQKPEgjCzvxTgo74GUaO/O/ujskniU8\r\nw4A6Oxz/wTpEcQo75sIKO+a4sDvPZDs6ILi9O+niDjtNh6c7kF0wPJvAUjxGqGs8g/kcPIvrXTtE\r\n0QM74kuHO/j1FzviZF46JEqJO0idoTupP3Y8TOmZPGp/AjxSTpw6TWS6Ow7CRjzXW7o7UJcyOyaT\r\n5jvzSi083MMKPZDsET0YNiQ8c9jEO2ibzjtNNcA8M7QkPO6RgzsoPF06ulhWO/imhzsABKs7dpay\r\nO7k6ajsCcTk83357POqRpjydHUU8aOyoO9/9hTvwG2g7S8iiOzpYGzsVj247WGHdOht6DDzl/bc8\r\n4O6LPD3QPzyhShU8TnZgPJvPYDxoTJs8ehXGO55eETwSovQ7fukNPHJ1oTviJAw82VxRPGrTYjyx\r\nAyU8QTmoO9kqszqwijo7VIC+OvUwZTqALhE7N34RO1GF9jrYhbE7geHpOiZTEztc+v86AdbMOVbH\r\nvzogtY46p5dTOqrqODuyRoc7e6OxOwF8CzyLq8Q7llKUO9S8mDs4iCY7tRPeOc+wmzlIiJw54Djm\r\nOcjehDr+7NA5OKOsOh5erzpazS86P3RjOt76ZDp34Uc6+FNPOm18YTqMlV06RviWOpB7aTqSqV46\r\nhYfjOTj4ozvShZ87kOhnOmThkTnA/IE68Pf4OsUZhzsKKK47WdLrO6PGETw8FjA86hiWO7MrhDuw\r\ntbE72LwAPJe2FTzWNpI7vS/QOpA/yDtIU2k8bNk2POPZFzyQxcw7g8l3O+DmJTwNJyc8jD9iO5RT\r\nyzv1Wiw8Zob2O9YWVTzjkQI88kKIO9z6Ajzxhgc8UWjQO9tXiTtzpy07qWlJOvr9AjuNrIs7CHIS\r\nOzq0KztYzM86AraROuHVgzuIkIA7PqcSO2OokzpOuY06nV7WO/sVbztPUbo7TH67OqaviztvqSI7\r\nEdsrOoLEgjpbmxo7uBJdO7P/xzqm7xI6aT8NOnnagjrcU606d9zVOVIYSDoBRu45VUYAOoYzOjoa\r\n6RI5QJweO7YsozvEHOI6YSXUOuogVDurwdA7/kO1O/XSDTqwjzk8iz22O+kXjzqk/LM6zBCAOtoY\r\nHjqQHzQ7jyhaOwTxrzvswnE7w4qLO6cN7Drl3cY6WgXpOp8U4TrPMPI5+kQIOnBaBTvg+vQ686n6\r\nOn2NeDsLZgM7UhgPO/s5Cjvxn+w6LPtuOnF7Hzssu6s7a0WGO9SHLjz5wVs8FxcRPDoGJjt0HEA6\r\nhEtlOjJIADuko4I7sBs/O+3bSzvsYC05MNJROnIjDjlTR7g5n+arOeylVzmEU7Y67UjsORbXAjqX\r\ndlQ61fd7OSRZzzoBVQA76g7sOM6tJzoHbQQ62jn0ObdajjlhsKA6/IlZOfK8tzoN9Wo7kl8QO51O\r\nozlk3Sw6YT6UOcVFHjm7MiA6Rqm5Ollj7jljHOc47KudOoTG8DqsHuQ60nSBOm+Ydjomx+o5rMR8\r\nO1r5oDsT6AE6WgAmO38mZTox6Tk7Q0e0OuZzhTsWSpg6S87EOlAVhzoQTEM7YBhYOl46JDoAY7g6\r\neV14OZ0APzoc2do51M3iOGRPvDkz48o5/DiZOiDmwjqONjU65MtYOylmhTvbdcI6iY7XOs6YHzph\r\nCIY6zGhtOt+cgDoyaMY6daVaOgKLGDnY/Qc5+mavOTh4xTqRhDg6F9c2OTepqjghPMc4Cbo0OeSb\r\ngjrcaqU5wYIUOeSWWTiGBEY61Z1MO6AydTqmBYk6fg6uOR6TjTrlOIU7ZK+gOugsHTqYvj85pitM\r\nOuPbqTlOnng5E0lcObS3eDrA0sc5i6YZOiQKgTnDAGw6IumKObtBRjp6Syo67ajlOWoFnjnkcpY5\r\n/OmpOUfX6TlHXQU6eFjTOR2YejqHr1A6SR3uOB+VDznLAgc6k6C7OXljJDp4HFE6TqiqOkBmrTkP\r\nad85D7nJOWWkxzlYTxA651zrOUO6bjkgOuw5xuaTOXjnODqm3Y058kJwOXYW0Tm86FU6lLdWOn18\r\nwDnnwow5SdCaOXTWSjql9JQ5FKoEOnvxATqGIsE5M20POovLDTpl/bQ5/djQOaXQ+jn5Gs85NgSn\r\nOeoeLznALXc5B32kORBBgjg2IeI5IPlgOX4G6TgA0w06mcm+OdAOrjkvbgs6SH4YOvJ5tzmM1PE5\r\n92t0OmRZwDilQJk5UPYBOhlTMDnvjZA4xqcQOWsEkTdts6E4gyCZOEfEiTh+Hyc473S9OJR+RTlN\r\nCT85bRglOUlhWzngNyA5ba4sOWdOFzj4vuY4C118OLSHKDi97D45a89MOSVsjjlM5sg5tO50N4JI\r\nRzkE2CE5Fyn+OCh5hDgTNIU57QUUOZduKzjzJYs4unEhOB26iTmjIYw5SMcsOVJbnjnGRGg5guHy\r\nOc+42zjwiMo30JxoOaCxgTn5EsA5z6MkOjGCGDpK7g465rSFOmpaizoxH5s6ntRNOlnWmDnEVPY4\r\nvRvTOZ9s8TlG8FM6+TTHORZ8CTrVcoU6jF+JOn1Q+zkNE3c6NM5DOuPhkThMjw44VyW+OF+TPjiF\r\nHGA4iAw7OKULkDi7+EA4hRgpOPgYnTl105w5XuwzOEkuKTlkjLo5uiNqORqYbzhH4Dg44FiPOZKm\r\n9zmaEoQ5OK6uOFtwsTmYLe85eAaJOV4GRjlBj345EA8HOUgj2jYSqiw3bm9WOPvAPThKGdo2HFPP\r\nNv/0mDZkV4M2HdY6Nuo2YTaoCns2sevcNm6brzb326Q2lwKdNlxlUzZEuIs2NbrZNsz5QzYtlNM2\r\nxHWZNkysXjYJ9Qo2lsebNuDkDjb8F682SxRWNkSCMzaDkFs2KtFnNqAPpDbWBhU2uZV9NhbKqTYr\r\ngHo2hKBJNjiWkzYvFZA2GpqENoy8TTYOkwY2naUyNgboADeavn82yqWZNgEzOTZn6ow2EMppNrBC\r\nkDap4VE20+NDNguAEjb8WMo1kOgHNzabaTYbAaQ20DobNh0X9zakXKY2NkyANp5sTzZLYqQ2Soqv\r\nNuyhazain4U2ajSTNjafmjYmR382/R2NNhz+ljZfRxo2LUuZNsgohTboeJE26ZCQNm2ydzZzx302\r\ngEP6NlKeZjZo9p023wVsNo+dmDbzhXA2Y6J1Nq8AaTZr3T02Zac2NtYXGjbNeqE2kBKxNrBNYjbA\r\n4WI2Dq6FNg03jTapaIQ2tOIJNoathzZP86Q2p39FNr9CmDYhSL42ijWdNmg+QTbNNTA295ZYNnpS\r\ngzaELKg2EcuyNuQViTbSsjQ2oLo8NhIJiDYxIIM2WzBoNvI6ljYTKj02e4xyNreypjarYKM2zw2c\r\nNivIozZpo6U2vZl+NtdfbTYVzYw2OlSVNrAnYjauAXo20xuKNroHsTba4kQ2ACCZNg==",
                            "noiseTrainingType" : "default"
                          }
                        }
                    ],
                    "start" : 0,
                    "duration" : 22463,
                    "mediaStart" : 0,
                    "mediaDuration" : 22463,
                    "scalar" : 1,
                    "metadata" : {
                      "WinSubProjectDisplayName" : "",
                      "clipSpeedAttribute" : false
                    },
                    "animationTracks" : {

                    }
                  }
                ]
              },
              {
                "trackIndex" : 13,
                "medias" : [
                  {
                    "id" : 67,
                    "_type" : "IMFile",
                    "src" : 6,
                    "trackNumber" : 0,
                    "trimStartSum" : 0,
                    "attributes" : {
                      "ident" : "Slide1"
                    },
                    "effects" : [

                    ],
                    "start" : 150,
                    "duration" : 1346,
                    "mediaStart" : 0,
                    "mediaDuration" : 1,
                    "scalar" : 1,
                    "metadata" : {
                      "WinSubProjectDisplayName" : "",
                      "clipSpeedAttribute" : false
                    },
                    "animationTracks" : {

                    }
                  }
                ],
                "transitions" : [
                  {
                    "name" : "Fade",
                    "duration" : 30,
                    "trivial" : false,
                    "useAudioPreRoll" : true,
                    "useVisualPreRoll" : true,
                    "rightMedia" : 67
                  },
                  {
                    "name" : "Fade",
                    "duration" : 30,
                    "trivial" : false,
                    "useAudioPreRoll" : true,
                    "useVisualPreRoll" : true,
                    "leftMedia" : 67
                  }
                ]
              },
              {
                "trackIndex" : 14,
                "medias" : [
                ]
              },
              {
                "trackIndex" : 15,
                "medias" : [
                ]
              },
              {
                "trackIndex" : 16,
                "medias" : [
                ]
              }
            ]
          }
        }
      ]
    },
    "trackAttributes" : [
      {
        "ident" : "",
        "audioMuted" : false,
        "videoHidden" : false,
        "magnetic" : false,
        "metadata" : {
          "IsLocked" : "False",
          "WinTrackHeight" : "108.923076923077",
          "trackHeight" : "86"
        }
      },
      {
        "ident" : "",
        "audioMuted" : false,
        "videoHidden" : false,
        "magnetic" : false,
        "metadata" : {
          "IsLocked" : "False",
          "WinTrackHeight" : "108.923076923077",
          "trackHeight" : "40"
        }
      },
      {
        "ident" : "",
        "audioMuted" : false,
        "videoHidden" : false,
        "magnetic" : false,
        "metadata" : {
          "IsLocked" : "False",
          "WinTrackHeight" : "108.923076923077",
          "trackHeight" : "40"
        }
      },
      {
        "ident" : "",
        "audioMuted" : false,
        "videoHidden" : false,
        "magnetic" : false,
        "metadata" : {
          "IsLocked" : "False",
          "WinTrackHeight" : "108.923076923077",
          "trackHeight" : "102"
        }
      },
      {
        "ident" : "",
        "audioMuted" : false,
        "videoHidden" : false,
        "magnetic" : false,
        "metadata" : {
          "IsLocked" : "False",
          "WinTrackHeight" : "108.923076923077",
          "trackHeight" : "150"
        }
      },
      {
        "ident" : "",
        "audioMuted" : false,
        "videoHidden" : false,
        "magnetic" : false,
        "metadata" : {
          "IsLocked" : "False",
          "WinTrackHeight" : "108.923076923077",
          "trackHeight" : "150"
        }
      },
      {
        "ident" : "",
        "audioMuted" : false,
        "videoHidden" : false,
        "magnetic" : false,
        "metadata" : {
          "IsLocked" : "False",
          "WinTrackHeight" : "108.923076923077",
          "trackHeight" : "102"
        }
      },
      {
        "ident" : "",
        "audioMuted" : false,
        "videoHidden" : false,
        "magnetic" : false,
        "metadata" : {
          "IsLocked" : "False",
          "WinTrackHeight" : "108.923076923077",
          "trackHeight" : "54"
        }
      },
      {
        "ident" : "",
        "audioMuted" : false,
        "videoHidden" : false,
        "magnetic" : false,
        "metadata" : {
          "IsLocked" : "False",
          "WinTrackHeight" : "108.923076923077",
          "trackHeight" : "86"
        }
      },
      {
        "ident" : "",
        "audioMuted" : false,
        "videoHidden" : false,
        "magnetic" : false,
        "metadata" : {
          "IsLocked" : "False",
          "WinTrackHeight" : "108.923076923077",
          "trackHeight" : "86"
        }
      },
      {
        "ident" : "",
        "audioMuted" : false,
        "videoHidden" : false,
        "magnetic" : false,
        "metadata" : {
          "IsLocked" : "False",
          "WinTrackHeight" : "108.923076923077"
        }
      },
      {
        "ident" : "",
        "audioMuted" : false,
        "videoHidden" : false,
        "magnetic" : false,
        "metadata" : {
          "IsLocked" : "False",
          "WinTrackHeight" : "108.923076923077"
        }
      },
      {
        "ident" : "",
        "audioMuted" : false,
        "videoHidden" : false,
        "magnetic" : false,
        "metadata" : {
          "IsLocked" : "False",
          "WinTrackHeight" : "108.923076923077"
        }
      },
      {
        "ident" : "",
        "audioMuted" : false,
        "videoHidden" : false,
        "magnetic" : false,
        "metadata" : {
          "IsLocked" : "False",
          "WinTrackHeight" : "108.923076923077"
        }
      },
      {
        "ident" : "",
        "audioMuted" : false,
        "videoHidden" : false,
        "magnetic" : false,
        "metadata" : {
          "IsLocked" : "False",
          "WinTrackHeight" : "108.923076923077"
        }
      },
      {
        "ident" : "",
        "audioMuted" : false,
        "videoHidden" : false,
        "magnetic" : false,
        "metadata" : {
          "IsLocked" : "False",
          "WinTrackHeight" : "108.923076923077"
        }
      },
      {
        "ident" : "",
        "audioMuted" : false,
        "videoHidden" : false,
        "magnetic" : false,
        "metadata" : {
          "IsLocked" : "False",
          "WinTrackHeight" : "108.923076923077"
        }
      }
    ],
    "captionAttributes" : {
      "enabled" : true,
      "fontName" : "Arial",
      "fontSize" : 32,
      "backgroundColor" : [ 0, 0, 0, 127],
      "foregroundColor" : [ 255, 255, 255, 255],
      "lang" : "en",
      "alignment" : 0,
      "defaultFontSize" : true,
      "opacity" : 0.5,
      "backgroundEnabled" : true,
      "backgroundOnlyAroundText" : true
    },
    "backgroundColor" : [ 0, 0, 0, 255]
  },
  "metadata" : {
    "AutoSaveFile" : "",
    "CanvasZoom" : 75,
    "Date" : "2020-01-27 11:33:13 PM",
    "Fit" : 0,
    "IsAutoSave" : "0",
    "Language" : "ENU",
    "ProfileName" : "MP4 only (up to 720p)",
    "ProjectDimensionsChanged" : "0",
    "Title" : "CamtasiaTemplateWindows",
    "audioNarrationNotes" : "",
    "calloutStyle" : "All",
    "canvasDetached" : "False",
    "canvasPositionHeight" : "0",
    "canvasPositionLeft" : "0",
    "canvasPositionTop" : "0",
    "canvasPositionWidth" : "0",
    "firstMedia" : true
  },
  "audioPlaybackRate" : 44100
,
  "themeFile" : null

}
