{
  "title" : "",
  "description" : "",
  "author" : "",
  "targetLoudness" : -18.0,
  "shouldApplyLoudnessNormalization" : false,
  "videoPlaybackRate" : 30,
  "audioPlaybackRate" : 44100,
  "width" : 1280.0,
  "height" : 720.0,
  "version" : "3.0",
  "editRate" : 30,
  "authoringClientName" :  {
    "name" : "Camtasia",
    "platform" : "Windows",
    "version" : "19.0"
  },
  "sourceBin" : [
    {
      "id" : 1,
      "src" : "D:\\Data Files\\Udemy\\Instructor\\Codestars\\Course-Prep-Splash\\Camtasia9TemplateWindows\\codestars_logo.png",
      "rect" : [0, 0, 1061, 168],
      "lastMod" : "20200128T043621",
      "sourceTracks" : [
        {
          "range" : [0, 1],
          "type" : 1,
          "editRate" : 10000000,
          "trackRect" : [0, 0, 1061, 168],
          "sampleRate" : 0,
          "bitDepth" : 32,
          "numChannels" : 0,
          "integratedLUFS" : 100.0,
          "peakLevel" : -1.0,
          "metaData" : ""
        }
      ]
    },
    {
      "id" : 2,
      "src" : "D:\\Data Files\\Udemy\\Instructor\\Codestars\\Course-Prep-Splash\\Camtasia9TemplateWindows\\star.png",
      "rect" : [0, 0, 199, 206],
      "lastMod" : "20200128T043621",
      "sourceTracks" : [
        {
          "range" : [0, 1],
          "type" : 1,
          "editRate" : 10000000,
          "trackRect" : [0, 0, 199, 206],
          "sampleRate" : 0,
          "bitDepth" : 32,
          "numChannels" : 0,
          "integratedLUFS" : 100.0,
          "peakLevel" : -1.0,
          "metaData" : ""
        }
      ]
    },
    {
      "id" : 3,
      "src" : "D:\\Data Files\\Udemy\\Instructor\\Codestars\\Course-Prep-Splash\\Camtasia-JPB-CPP\\Splash_Android.png",
      "rect" : [0, 0, 1920, 1080],
      "lastMod" : "20200201T225340",
      "sourceTracks" : [
        {
          "range" : [0, 1],
          "type" : 1,
          "editRate" : 10000000,
          "trackRect" : [0, 0, 1920, 1080],
          "sampleRate" : 0,
          "bitDepth" : 32,
          "numChannels" : 0,
          "integratedLUFS" : 100.0,
          "peakLevel" : -1.0,
          "metaData" : ""
        }
      ]
    },
    {
      "id" : 4,
      "src" : "C:\\Users\\profj\\Desktop\\Udemy\\Codestars\\CPP\\videos\\Course-Prep-Splash\\JPB-Images\\PNG\\Head.png",
      "rect" : [0, 0, 721, 1024],
      "lastMod" : "20200203T062252",
      "sourceTracks" : [
        {
          "range" : [0, 1],
          "type" : 1,
          "editRate" : 10000000,
          "trackRect" : [0, 0, 721, 1024],
          "sampleRate" : 0,
          "bitDepth" : 32,
          "numChannels" : 0,
          "integratedLUFS" : 100.0,
          "peakLevel" : -1.0,
          "metaData" : ""
        }
      ]
    },
    {
      "id" : 5,
      "src" : "C:\\Users\\profj\\Documents\\Camtasia\\Rec 02-15-20_009.trec",
      "rect" : [0, 0, 1920, 1080],
      "lastMod" : "20200216T034236",
      "sourceTracks" : [
        {
          "range" : [0, 31709],
          "type" : 0,
          "editRate" : 30,
          "trackRect" : [0, 0, 1920, 1080],
          "sampleRate" : 29,
          "bitDepth" : 0,
          "numChannels" : 0,
          "integratedLUFS" : 100.0,
          "peakLevel" : -1.0,
          "metaData" : "Rec 02-15-20_009.trec;"
        },
        {
          "range" : [0, 46615552],
          "type" : 2,
          "editRate" : 44100,
          "trackRect" : [0, 0, 0, 0],
          "sampleRate" : 44100,
          "bitDepth" : 16,
          "numChannels" : 2,
          "integratedLUFS" : -27.5226219070315,
          "peakLevel" : 1.0,
          "metaData" : ""
        },
        {
          "range" : [0, 46615552],
          "type" : 2,
          "editRate" : 44100,
          "trackRect" : [0, 0, 0, 0],
          "sampleRate" : 44100,
          "bitDepth" : 16,
          "numChannels" : 2,
          "integratedLUFS" : 0.0,
          "peakLevel" : 0.0,
          "metaData" : ""
        }
      ]
    },
    {
      "id" : 6,
      "src" : "C:\\Users\\profj\\Desktop\\Udemy\\Codestars\\CPP\\videos\\section2\\_intro-bulletpoints\\s2-lec11-user-input\\Slide1.PNG",
      "rect" : [0, 0, 1280, 720],
      "lastMod" : "20200227T024845",
      "sourceTracks" : [
        {
          "range" : [0, 1],
          "type" : 1,
          "editRate" : 10000000,
          "trackRect" : [0, 0, 1280, 720],
          "sampleRate" : 0,
          "bitDepth" : 24,
          "numChannels" : 0,
          "integratedLUFS" : 100.0,
          "peakLevel" : -1.0,
          "metaData" : ""
        }
      ]
    }
  ],
  "timeline" : {
    "id" : 7,
    "sceneTrack" : {
      "scenes" : [
        {
          "duration" : 919.166666666667,
          "title" : "",
          "type" : "",
          "csml" : {
            "tracks" : [
              {
                "trackIndex" : 0,
                "medias" : [
                  {
                    "id" : 8,
                    "_type" : "IMFile",
                    "src" : 3,
                    "trackNumber" : 0,
                    "trimStartSum" : 0,
                    "attributes" : {
                      "ident" : "Splash_Android"
                    },
                    "parameters" : {
                      "translation0" : 0.00456702366917246,
                      "translation1" : -0.00256895081391425,
                      "scale0" : 0.666671423982989,
                      "scale1" : 0.666671423982989
                    },
                    "effects" : [

                    ],
                    "start" : 27425,
                    "duration" : 150,
                    "mediaStart" : 0,
                    "mediaDuration" : 1,
                    "scalar" : 1,
                    "metadata" : {
                      "WinSubProjectDisplayName" : "",
                      "clipSpeedAttribute" : false,
                      "default-scale" : "0.666667",
                      "effectApplied" : "none"
                    },
                    "animationTracks" : {

                    }
                  }
                ],
                "transitions" : [
                  {
                    "name" : "Fade",
                    "duration" : 30,
                    "trivial" : true,
                    "useAudioPreRoll" : false,
                    "useVisualPreRoll" : true,
                    "rightMedia" : 8
                  },
                  {
                    "name" : "Fade",
                    "duration" : 30,
                    "trivial" : true,
                    "useAudioPreRoll" : false,
                    "useVisualPreRoll" : true,
                    "leftMedia" : 8
                  }
                ]
              },
              {
                "trackIndex" : 1,
                "medias" : [
                  {
                    "id" : 9,
                    "_type" : "IMFile",
                    "src" : 2,
                    "trackNumber" : 0,
                    "trimStartSum" : 0,
                    "attributes" : {
                      "ident" : "star"
                    },
                    "parameters" : {
                      "translation0" : {
                        "type" : "double",
                        "defaultValue" : -522.733906099372,
                        "interp" : "linr"
                      },
                      "translation1" : {
                        "type" : "double",
                        "defaultValue" : -277.438113851611,
                        "interp" : "linr"
                      },
                      "translation2" : {
                        "type" : "double",
                        "defaultValue" : 0.0,
                        "interp" : "linr"
                      },
                      "rotation0" : {
                        "type" : "double",
                        "defaultValue" : 0.0,
                        "interp" : "linr"
                      },
                      "rotation1" : {
                        "type" : "double",
                        "defaultValue" : 0.0,
                        "interp" : "linr"
                      },
                      "rotation2" : {
                        "type" : "double",
                        "defaultValue" : 0.0,
                        "interp" : "linr"
                      },
                      "shear0" : {
                        "type" : "double",
                        "defaultValue" : 0.0,
                        "interp" : "linr"
                      },
                      "shear1" : {
                        "type" : "double",
                        "defaultValue" : 0.0,
                        "interp" : "linr"
                      },
                      "shear2" : {
                        "type" : "double",
                        "defaultValue" : 0.0,
                        "interp" : "linr"
                      },
                      "scale0" : {
                        "type" : "double",
                        "defaultValue" : 0.344059357782636,
                        "interp" : "linr"
                      },
                      "scale1" : {
                        "type" : "double",
                        "defaultValue" : 0.344059357782636,
                        "interp" : "linr"
                      },
                      "scale2" : {
                        "type" : "double",
                        "defaultValue" : 1.0,
                        "interp" : "linr"
                      },
                      "anchor0" : {
                        "type" : "double",
                        "defaultValue" : 0.0,
                        "interp" : "linr"
                      },
                      "anchor1" : {
                        "type" : "double",
                        "defaultValue" : 0.0,
                        "interp" : "linr"
                      },
                      "anchor2" : {
                        "type" : "double",
                        "defaultValue" : 0.0,
                        "interp" : "linr"
                      },
                      "opacity" : {
                        "type" : "double",
                        "defaultValue" : 1.0,
                        "keyframes" : [
                          {
                            "endTime" : 150,
                            "time" : 120,
                            "value" : 0.0,
                            "duration" : 30
                          }
                        ]
                      }
                    },
                    "effects" : [

                    ],
                    "start" : 27425,
                    "duration" : 150,
                    "mediaStart" : 0,
                    "mediaDuration" : 1,
                    "scalar" : 1,
                    "metadata" : {
                      "WinSubProjectDisplayName" : "",
                      "clipSpeedAttribute" : false,
                      "default-opacity" : 0.0,
                      "default-scale" : "1",
                      "effectApplied" : "none"
                    },
                    "animationTracks" : {
                      "visual" : [
                        {
                          "endTime" : 150,
                          "duration" : 30,
                          "range" : [ 120, 30]
                        }
                      ]
                    }
                  }
                ],
                "transitions" : [
                  {
                    "name" : "Fade",
                    "duration" : 30,
                    "trivial" : true,
                    "useAudioPreRoll" : true,
                    "useVisualPreRoll" : true,
                    "rightMedia" : 9
                  },
                  {
                    "name" : "Fade",
                    "duration" : 30,
                    "trivial" : true,
                    "useAudioPreRoll" : true,
                    "useVisualPreRoll" : true,
                    "leftMedia" : 9
                  }
                ]
              },
              {
                "trackIndex" : 2,
                "medias" : [
                  {
                    "id" : 10,
                    "_type" : "IMFile",
                    "src" : 1,
                    "trackNumber" : 0,
                    "trimStartSum" : 0,
                    "attributes" : {
                      "ident" : "codestars_logo"
                    },
                    "parameters" : {
                      "translation0" : {
                        "type" : "double",
                        "defaultValue" : -263.136792317664,
                        "interp" : "linr"
                      },
                      "translation1" : {
                        "type" : "double",
                        "defaultValue" : -271.784183685799,
                        "interp" : "linr"
                      },
                      "translation2" : {
                        "type" : "double",
                        "defaultValue" : 0.0,
                        "interp" : "linr"
                      },
                      "rotation0" : {
                        "type" : "double",
                        "defaultValue" : 0.0,
                        "interp" : "linr"
                      },
                      "rotation1" : {
                        "type" : "double",
                        "defaultValue" : 0.0,
                        "interp" : "linr"
                      },
                      "rotation2" : {
                        "type" : "double",
                        "defaultValue" : 0.0,
                        "interp" : "linr"
                      },
                      "shear0" : {
                        "type" : "double",
                        "defaultValue" : 0.0,
                        "interp" : "linr"
                      },
                      "shear1" : {
                        "type" : "double",
                        "defaultValue" : 0.0,
                        "interp" : "linr"
                      },
                      "shear2" : {
                        "type" : "double",
                        "defaultValue" : 0.0,
                        "interp" : "linr"
                      },
                      "scale0" : {
                        "type" : "double",
                        "defaultValue" : 0.402192662926175,
                        "interp" : "linr"
                      },
                      "scale1" : {
                        "type" : "double",
                        "defaultValue" : 0.402192662926175,
                        "interp" : "linr"
                      },
                      "scale2" : {
                        "type" : "double",
                        "defaultValue" : 1.0,
                        "interp" : "linr"
                      },
                      "anchor0" : {
                        "type" : "double",
                        "defaultValue" : 0.0,
                        "interp" : "linr"
                      },
                      "anchor1" : {
                        "type" : "double",
                        "defaultValue" : 0.0,
                        "interp" : "linr"
                      },
                      "anchor2" : {
                        "type" : "double",
                        "defaultValue" : 0.0,
                        "interp" : "linr"
                      },
                      "opacity" : 0.0
                    },
                    "effects" : [

                    ],
                    "start" : 27425,
                    "duration" : 150,
                    "mediaStart" : 0,
                    "mediaDuration" : 1,
                    "scalar" : 1,
                    "metadata" : {
                      "WinSubProjectDisplayName" : "",
                      "clipSpeedAttribute" : false,
                      "default-scale" : "1",
                      "effectApplied" : "none"
                    },
                    "animationTracks" : {

                    }
                  }
                ],
                "transitions" : [
                  {
                    "name" : "Fade",
                    "duration" : 30,
                    "trivial" : true,
                    "useAudioPreRoll" : true,
                    "useVisualPreRoll" : true,
                    "rightMedia" : 10
                  },
                  {
                    "name" : "Fade",
                    "duration" : 30,
                    "trivial" : true,
                    "useAudioPreRoll" : true,
                    "useVisualPreRoll" : true,
                    "leftMedia" : 10
                  }
                ]
              },
              {
                "trackIndex" : 3,
                "medias" : [
                  {
                    "id" : 11,
                    "_type" : "IMFile",
                    "src" : 3,
                    "trackNumber" : 0,
                    "trimStartSum" : 0,
                    "attributes" : {
                      "ident" : "Splash_Android"
                    },
                    "parameters" : {
                      "translation0" : -0.00456702364154329,
                      "translation1" : -6.87439439981899,
                      "scale0" : 0.666671423982989,
                      "scale1" : 0.666671423982989
                    },
                    "effects" : [

                    ],
                    "start" : 0,
                    "duration" : 150,
                    "mediaStart" : 0,
                    "mediaDuration" : 1,
                    "scalar" : 1,
                    "metadata" : {
                      "WinSubProjectDisplayName" : "",
                      "clipSpeedAttribute" : false,
                      "default-scale" : "0.666667",
                      "default-translation0" : 0.00456702366917246,
                      "default-translation1" : -0.00256895081391425,
                      "effectApplied" : "none"
                    },
                    "animationTracks" : {

                    }
                  },
                  {
                    "id" : 12,
                    "_type" : "IMFile",
                    "src" : 1,
                    "trackNumber" : 0,
                    "trimStartSum" : 0,
                    "attributes" : {
                      "ident" : "codestars_logo"
                    },
                    "parameters" : {
                      "translation0" : {
                        "type" : "double",
                        "defaultValue" : -263.136792317664,
                        "interp" : "linr"
                      },
                      "translation1" : {
                        "type" : "double",
                        "defaultValue" : -271.784183685799,
                        "interp" : "linr"
                      },
                      "translation2" : {
                        "type" : "double",
                        "defaultValue" : 0.0,
                        "interp" : "linr"
                      },
                      "rotation0" : {
                        "type" : "double",
                        "defaultValue" : 0.0,
                        "interp" : "linr"
                      },
                      "rotation1" : {
                        "type" : "double",
                        "defaultValue" : 0.0,
                        "interp" : "linr"
                      },
                      "rotation2" : {
                        "type" : "double",
                        "defaultValue" : 0.0,
                        "interp" : "linr"
                      },
                      "shear0" : {
                        "type" : "double",
                        "defaultValue" : 0.0,
                        "interp" : "linr"
                      },
                      "shear1" : {
                        "type" : "double",
                        "defaultValue" : 0.0,
                        "interp" : "linr"
                      },
                      "shear2" : {
                        "type" : "double",
                        "defaultValue" : 0.0,
                        "interp" : "linr"
                      },
                      "scale0" : {
                        "type" : "double",
                        "defaultValue" : 0.402192662926175,
                        "interp" : "linr"
                      },
                      "scale1" : {
                        "type" : "double",
                        "defaultValue" : 0.402192662926175,
                        "interp" : "linr"
                      },
                      "scale2" : {
                        "type" : "double",
                        "defaultValue" : 1.0,
                        "interp" : "linr"
                      },
                      "anchor0" : {
                        "type" : "double",
                        "defaultValue" : 0.0,
                        "interp" : "linr"
                      },
                      "anchor1" : {
                        "type" : "double",
                        "defaultValue" : 0.0,
                        "interp" : "linr"
                      },
                      "anchor2" : {
                        "type" : "double",
                        "defaultValue" : 0.0,
                        "interp" : "linr"
                      }
                    },
                    "effects" : [

                    ],
                    "start" : 27425,
                    "duration" : 150,
                    "mediaStart" : 0,
                    "mediaDuration" : 1,
                    "scalar" : 1,
                    "metadata" : {
                      "WinSubProjectDisplayName" : "",
                      "clipSpeedAttribute" : false,
                      "default-scale" : "1",
                      "effectApplied" : "none"
                    },
                    "animationTracks" : {

                    }
                  }
                ],
                "transitions" : [
                  {
                    "name" : "Fade",
                    "duration" : 30,
                    "trivial" : true,
                    "useAudioPreRoll" : false,
                    "useVisualPreRoll" : true,
                    "leftMedia" : 11
                  },
                  {
                    "name" : "Fade",
                    "duration" : 30,
                    "trivial" : true,
                    "useAudioPreRoll" : true,
                    "useVisualPreRoll" : true,
                    "rightMedia" : 12
                  },
                  {
                    "name" : "Fade",
                    "duration" : 30,
                    "trivial" : true,
                    "useAudioPreRoll" : true,
                    "useVisualPreRoll" : true,
                    "leftMedia" : 12
                  }
                ]
              },
              {
                "trackIndex" : 4,
                "medias" : [
                  {
                    "id" : 13,
                    "_type" : "IMFile",
                    "src" : 2,
                    "trackNumber" : 0,
                    "trimStartSum" : 0,
                    "attributes" : {
                      "ident" : "star"
                    },
                    "parameters" : {
                      "translation0" : {
                        "type" : "double",
                        "defaultValue" : -640.0,
                        "interp" : "linr",
                        "keyframes" : [
                          {
                            "endTime" : 30,
                            "time" : 0,
                            "value" : -522.733906099372,
                            "duration" : 30
                          }
                        ]
                      },
                      "translation1" : {
                        "type" : "double",
                        "defaultValue" : -0.0,
                        "interp" : "linr",
                        "keyframes" : [
                          {
                            "endTime" : 30,
                            "time" : 0,
                            "value" : -277.438113851611,
                            "duration" : 30
                          }
                        ]
                      },
                      "translation2" : {
                        "type" : "double",
                        "defaultValue" : 0.0,
                        "interp" : "linr"
                      },
                      "rotation0" : {
                        "type" : "double",
                        "defaultValue" : 0.0,
                        "interp" : "linr"
                      },
                      "rotation1" : {
                        "type" : "double",
                        "defaultValue" : 0.0,
                        "interp" : "linr"
                      },
                      "rotation2" : {
                        "type" : "double",
                        "defaultValue" : 6.28318530717959,
                        "interp" : "linr",
                        "keyframes" : [
                          {
                            "endTime" : 30,
                            "time" : 0,
                            "value" : 0.0,
                            "duration" : 30
                          }
                        ]
                      },
                      "shear0" : {
                        "type" : "double",
                        "defaultValue" : 0.0,
                        "interp" : "linr"
                      },
                      "shear1" : {
                        "type" : "double",
                        "defaultValue" : 0.0,
                        "interp" : "linr"
                      },
                      "shear2" : {
                        "type" : "double",
                        "defaultValue" : 0.0,
                        "interp" : "linr"
                      },
                      "scale0" : {
                        "type" : "double",
                        "defaultValue" : 0.0,
                        "interp" : "linr",
                        "keyframes" : [
                          {
                            "endTime" : 30,
                            "time" : 0,
                            "value" : 0.344059357782636,
                            "duration" : 30
                          }
                        ]
                      },
                      "scale1" : {
                        "type" : "double",
                        "defaultValue" : 0.0,
                        "interp" : "linr",
                        "keyframes" : [
                          {
                            "endTime" : 30,
                            "time" : 0,
                            "value" : 0.344059357782636,
                            "duration" : 30
                          }
                        ]
                      },
                      "scale2" : {
                        "type" : "double",
                        "defaultValue" : 1.0,
                        "interp" : "linr"
                      },
                      "anchor0" : {
                        "type" : "double",
                        "defaultValue" : 0.0,
                        "interp" : "linr"
                      },
                      "anchor1" : {
                        "type" : "double",
                        "defaultValue" : 0.0,
                        "interp" : "linr"
                      },
                      "anchor2" : {
                        "type" : "double",
                        "defaultValue" : 0.0,
                        "interp" : "linr"
                      },
                      "opacity" : {
                        "type" : "double",
                        "defaultValue" : 1.0,
                        "keyframes" : [
                          {
                            "endTime" : 150,
                            "time" : 120,
                            "value" : 0.0,
                            "duration" : 30
                          }
                        ]
                      }
                    },
                    "effects" : [

                    ],
                    "start" : 0,
                    "duration" : 150,
                    "mediaStart" : 0,
                    "mediaDuration" : 1,
                    "scalar" : 1,
                    "metadata" : {
                      "WinSubProjectDisplayName" : "",
                      "clipSpeedAttribute" : false,
                      "default-scale" : "1",
                      "effectApplied" : "none"
                    },
                    "animationTracks" : {
                      "visual" : [
                        {
                          "endTime" : 30,
                          "duration" : 30,
                          "range" : [ 0, 30]
                        },
                        {
                          "endTime" : 150,
                          "duration" : 30,
                          "range" : [ 120, 30]
                        }
                      ]
                    }
                  },
                  {
                    "id" : 14,
                    "_type" : "Callout",
                    "def" : {
                      "kind" : "TypeWinText",
                      "shape" : "",
                      "style" : "",
                      "Style" : 5.0,
                      "dimensionTime" : 0.0,
                      "height" : 180.0,
                      "line-spacing" : 0.0,
                      "textIgnoresOpacity" : 0.0,
                      "textRectHeight" : 1.0,
                      "textRectWidth" : 1.0,
                      "textRectX" : 0.0,
                      "textRectY" : 0.0,
                      "textVerticalAlign" : -1.0,
                      "width" : 320.0,
                      "filename" : "C:\\Program Files\\TechSmith\\Camtasia 9\\Media\\Studio\\Callouts\\trans_100x100.xml",
                      "horizontal-alignment" : "center",
                      "name" : "Text",
                      "text" : "{\\rtf1\\ansi\\ansicpg1252\\deff0\\nouicompat\\deflang1033{\\fonttbl{\\f0\\fnil\\fcharset0 Quicksand;}}\r\n{\\colortbl ;\\red255\\green255\\blue255;}\r\n{\\*\\generator Riched20 10.0.18362}\\viewkind4\\uc1 \r\n\\pard\\cf1\\f0\\fs80 The Complete\\par\r\n\\b\\fs90 C++ Developer Course\\par\r\n}\r\n",
                      "vertical-alignment" : "center",
                      "xmlContent" : "﻿<?xml version=\"1.0\"?>\n\n<Overlay version=\"1.0.1\">\n\n<Overlay_Filename>trans_100x100.png</Overlay_Filename>\n<Overlay_Name>Text</Overlay_Name>\n<Text_Top>0</Text_Top>\n<Text_Left>0</Text_Left>\n<Text_Bottom>0</Text_Bottom>\n<Text_Right>0</Text_Right>\n<Fill_Color>0</Fill_Color>\n<Border_Color>0</Border_Color>\n<Style>5</Style>\n</Overlay>",
                      "textAttributes" : {
                        "type" : "textAttributeList",
                        "keyframes" : [
                          {
                            "endTime" : 0,
                            "time" : 0,
                            "value" : null,
                            "duration" : 0
                          }
                        ]
                      }
                    },
                    "attributes" : {
                      "autoRotateText" : true
                    },
                    "parameters" : {
                      "translation0" : -70.9521418731169,
                      "translation1" : 239.738828503294,
                      "scale0" : 3.12385809835021,
                      "scale1" : 1.00002854389906
                    },
                    "effects" : [

                    ],
                    "start" : 27425,
                    "duration" : 150,
                    "mediaStart" : 0,
                    "mediaDuration" : 150,
                    "scalar" : 1,
                    "metadata" : {
                      "WinSubProjectDisplayName" : "",
                      "clipSpeedAttribute" : false,
                      "default-legacy-fill-style" : 5.0,
                      "default-legacy-text-callout-vertical-align" : "middle",
                      "default-scale0" : 1.0,
                      "default-scale1" : 1.0,
                      "default-text" : "{\\rtf1\\ansi\\ansicpg1252\\deff0\\deflang1033{\\fonttbl{\\f0\\fswiss\\fprq2\\fcharset0 Arial;}}{\\colortbl ;\\red255\\green255\\blue255;}\\viewkind4\\uc1\\pard\\qc\\cf1\\fs72 abc}",
                      "default-translation0" : 0.0,
                      "default-translation1" : 0.0
                    },
                    "animationTracks" : {

                    }
                  }
                ],
                "transitions" : [
                  {
                    "name" : "Fade",
                    "duration" : 30,
                    "trivial" : true,
                    "useAudioPreRoll" : true,
                    "useVisualPreRoll" : true,
                    "rightMedia" : 14
                  },
                  {
                    "name" : "Fade",
                    "duration" : 30,
                    "trivial" : true,
                    "useAudioPreRoll" : true,
                    "useVisualPreRoll" : true,
                    "leftMedia" : 14
                  }
                ]
              },
              {
                "trackIndex" : 5,
                "medias" : [
                  {
                    "id" : 15,
                    "_type" : "Callout",
                    "def" : {
                      "kind" : "remix",
                      "shape" : "text",
                      "style" : "bold",
                      "height" : 250.0,
                      "line-spacing" : 0.0,
                      "width" : 1035.85760517811,
                      "word-wrap" : 1.0,
                      "horizontal-alignment" : "left",
                      "text" : "Fundamentals\rUser Input",
                      "vertical-alignment" : "center",
                      "font" : {
                        "color-blue" : 1.0,
                        "color-green" : 1.0,
                        "color-red" : 1.0,
                        "size" : 96.0,
                        "tracking" : 0.0,
                        "name" : "Source Sans Pro",
                        "weight" : "Semi Bold"
                      },
                      "textAttributes" : {
                        "type" : "textAttributeList",
                        "keyframes" : [
                          {
                            "endTime" : 0,
                            "time" : 0,
                            "value" : [{"name":"strikethrough","rangeEnd":23,"rangeStart":0,"value":0,"valueType":"int"},{"name":"fgColor","rangeEnd":23,"rangeStart":0,"value":"(255,255,255,255)","valueType":"color"},{"name":"fontName","rangeEnd":23,"rangeStart":0,"value":"Quicksand","valueType":"string"},{"name":"underline","rangeEnd":23,"rangeStart":0,"value":0,"valueType":"int"},{"name":"kerning","rangeEnd":23,"rangeStart":0,"value":0,"valueType":"double"},{"name":"fontItalic","rangeEnd":23,"rangeStart":0,"value":0,"valueType":"int"},{"name":"fontWeight","rangeEnd":13,"rangeStart":0,"value":700,"valueType":"int"},{"name":"fontWeight","rangeEnd":23,"rangeStart":13,"value":400,"valueType":"int"},{"name":"fontSize","rangeEnd":13,"rangeStart":0,"value":55,"valueType":"double"},{"name":"fontSize","rangeEnd":23,"rangeStart":13,"value":52,"valueType":"double"}],
                            "duration" : 0
                          }
                        ]
                      }
                    },
                    "attributes" : {
                      "autoRotateText" : true
                    },
                    "parameters" : {
                      "translation0" : {
                        "type" : "double",
                        "defaultValue" : -913.412651778095,
                        "keyframes" : [
                          {
                            "endTime" : 38,
                            "time" : 8,
                            "value" : 99.920681555355,
                            "duration" : 30
                          }
                        ]
                      },
                      "translation1" : {
                        "type" : "double",
                        "defaultValue" : -34.812002943898,
                        "keyframes" : [
                          {
                            "endTime" : 38,
                            "time" : 8,
                            "value" : -34.8120029438544,
                            "duration" : 30
                          }
                        ]
                      }
                    },
                    "effects" : [
                        {
                          "effectName" : "DropShadow",
                          "category" : "categoryVisualEffects",
                          "parameters" : {
                            "angle" : {
                              "type" : "double",
                              "defaultValue" : 5.49778714378214,
                              "uiHints" : {
                                "userInterfaceType" : 0,
                                "unitType" : 0
                              },
                              "keyframes" : [
                                {
                                  "endTime" : 38,
                                  "time" : 8,
                                  "value" : 5.49778714378214,
                                  "duration" : 30
                                }
                              ]
                            },
                            "blur" : 10.0,
                            "color-alpha" : 1.0,
                            "color-blue" : 0.1216,
                            "color-green" : 0.1216,
                            "color-red" : 0.1216,
                            "enabled" : 1,
                            "offset" : 10.0,
                            "opacity" : 0.4
                          }
                        }
                    ],
                    "start" : 35,
                    "duration" : 115,
                    "mediaStart" : 8,
                    "mediaDuration" : 115,
                    "scalar" : 1,
                    "metadata" : {
                      "WinSubProjectDisplayName" : "",
                      "clipSpeedAttribute" : false,
                      "default-HAlign" : "center",
                      "default-LineSpace" : 0.0,
                      "default-VAlign" : "center",
                      "default-text-attributes" : "[{\"name\":\"fontWeight\",\"rangeEnd\":37,\"rangeStart\":26,\"value\":100,\"valueType\":\"int\"},{\"name\":\"underline\",\"rangeEnd\":37,\"rangeStart\":0,\"value\":0,\"valueType\":\"int\"},{\"name\":\"fontWeight\",\"rangeEnd\":26,\"rangeStart\":0,\"value\":700,\"valueType\":\"int\"},{\"name\":\"fgColor\",\"rangeEnd\":37,\"rangeStart\":0,\"value\":\"(255,255,255,255)\",\"valueType\":\"color\"},{\"name\":\"fontSize\",\"rangeEnd\":26,\"rangeStart\":0,\"value\":55,\"valueType\":\"double\"},{\"name\":\"fontItalic\",\"rangeEnd\":37,\"rangeStart\":0,\"value\":0,\"valueType\":\"int\"},{\"name\":\"strikethrough\",\"rangeEnd\":37,\"rangeStart\":0,\"value\":0,\"valueType\":\"int\"},{\"name\":\"fontName\",\"rangeEnd\":37,\"rangeStart\":0,\"value\":\"Quicksand\",\"valueType\":\"string\"},{\"name\":\"fontSize\",\"rangeEnd\":37,\"rangeStart\":26,\"value\":52,\"valueType\":\"double\"}]",
                      "default-translation0" : 204.5,
                      "default-translation1" : 0.0
                    },
                    "animationTracks" : {
                      "visual" : [
                        {
                          "endTime" : 38,
                          "duration" : 30,
                          "range" : [ 8, 30]
                        }
                      ]
                    }
                  },
                  {
                    "id" : 16,
                    "_type" : "IMFile",
                    "src" : 4,
                    "trackNumber" : 0,
                    "trimStartSum" : 0,
                    "attributes" : {
                      "ident" : "Head"
                    },
                    "parameters" : {
                      "translation0" : 537.015153862789,
                      "translation1" : -206.400000000049,
                      "scale0" : 0.35,
                      "scale1" : 0.35
                    },
                    "effects" : [

                    ],
                    "start" : 27425,
                    "duration" : 150,
                    "mediaStart" : 0,
                    "mediaDuration" : 1,
                    "scalar" : 1,
                    "metadata" : {
                      "WinSubProjectDisplayName" : "",
                      "clipSpeedAttribute" : false,
                      "default-scale0" : 0.703125,
                      "default-scale1" : 0.703125,
                      "default-translation0" : 0.0,
                      "default-translation1" : 0.0
                    },
                    "animationTracks" : {

                    }
                  }
                ],
                "transitions" : [
                  {
                    "name" : "Fade",
                    "duration" : 30,
                    "trivial" : true,
                    "useAudioPreRoll" : true,
                    "useVisualPreRoll" : true,
                    "leftMedia" : 15
                  },
                  {
                    "name" : "Fade",
                    "duration" : 30,
                    "trivial" : false,
                    "useAudioPreRoll" : true,
                    "useVisualPreRoll" : true,
                    "rightMedia" : 16
                  },
                  {
                    "name" : "Fade",
                    "duration" : 30,
                    "trivial" : false,
                    "useAudioPreRoll" : true,
                    "useVisualPreRoll" : true,
                    "leftMedia" : 16
                  }
                ]
              },
              {
                "trackIndex" : 6,
                "medias" : [
                  {
                    "id" : 17,
                    "_type" : "Callout",
                    "def" : {
                      "kind" : "TypeWinText",
                      "shape" : "",
                      "style" : "",
                      "Style" : 5.0,
                      "dimensionTime" : 0.0,
                      "height" : 180.0,
                      "line-spacing" : 0.0,
                      "textIgnoresOpacity" : 0.0,
                      "textRectHeight" : 1.0,
                      "textRectWidth" : 1.0,
                      "textRectX" : 0.0,
                      "textRectY" : 0.0,
                      "textVerticalAlign" : 0.0,
                      "width" : 320.0,
                      "filename" : "C:\\Program Files\\TechSmith\\Camtasia 9\\Media\\Studio\\Callouts\\trans_100x100.xml",
                      "horizontal-alignment" : "center",
                      "name" : "Text",
                      "text" : "{\\rtf1\\ansi\\ansicpg1252\\deff0\\nouicompat\\deflang1033{\\fonttbl{\\f0\\fnil\\fcharset0 Quicksand;}}\r\n{\\colortbl ;\\red255\\green255\\blue255;}\r\n{\\*\\generator Riched20 10.0.18362}\\viewkind4\\uc1 \r\n\\pard\\qc\\cf1\\b\\f0\\fs124 #\\fs256 2\\fs72\\par\r\n}\r\n",
                      "vertical-alignment" : "center",
                      "xmlContent" : "﻿<?xml version=\"1.0\"?>\n\n<Overlay version=\"1.0.1\">\n\n<Overlay_Filename>trans_100x100.png</Overlay_Filename>\n<Overlay_Name>Text</Overlay_Name>\n<Text_Top>0</Text_Top>\n<Text_Left>0</Text_Left>\n<Text_Bottom>0</Text_Bottom>\n<Text_Right>0</Text_Right>\n<Fill_Color>0</Fill_Color>\n<Border_Color>0</Border_Color>\n<Style>5</Style>\n</Overlay>",
                      "textAttributes" : {
                        "type" : "textAttributeList",
                        "keyframes" : [
                          {
                            "endTime" : 0,
                            "time" : 0,
                            "value" : null,
                            "duration" : 0
                          }
                        ]
                      }
                    },
                    "attributes" : {
                      "autoRotateText" : true
                    },
                    "parameters" : {
                      "translation0" : {
                        "type" : "double",
                        "defaultValue" : -820.538865370044,
                        "keyframes" : [
                          {
                            "endTime" : 65,
                            "time" : 35,
                            "value" : -488.499999999933,
                            "duration" : 30
                          }
                        ]
                      },
                      "translation1" : {
                        "type" : "double",
                        "defaultValue" : -34.8120029438978,
                        "keyframes" : [
                          {
                            "endTime" : 65,
                            "time" : 35,
                            "value" : -34.8120029438634,
                            "duration" : 30
                          }
                        ]
                      },
                      "scale0" : {
                        "type" : "double",
                        "defaultValue" : 0.580906148866913,
                        "keyframes" : [
                          {
                            "endTime" : 65,
                            "time" : 35,
                            "value" : 0.580906148866913,
                            "duration" : 30
                          }
                        ]
                      },
                      "scale1" : {
                        "type" : "double",
                        "defaultValue" : 1.43801063442563,
                        "keyframes" : [
                          {
                            "endTime" : 65,
                            "time" : 35,
                            "value" : 1.43801063442563,
                            "duration" : 30
                          }
                        ]
                      }
                    },
                    "effects" : [

                    ],
                    "start" : 35,
                    "duration" : 115,
                    "mediaStart" : 35,
                    "mediaDuration" : 115,
                    "scalar" : 1,
                    "metadata" : {
                      "WinSubProjectDisplayName" : "",
                      "clipSpeedAttribute" : false,
                      "default-legacy-fill-style" : 5.0,
                      "default-legacy-text-callout-vertical-align" : "middle",
                      "default-rotation2" : 0.0,
                      "default-scale0" : 1.0,
                      "default-scale1" : 1.0,
                      "default-text" : "{\\rtf1\\ansi\\ansicpg1252\\deff0\\deflang1033{\\fonttbl{\\f0\\fswiss\\fprq2\\fcharset0 Arial;}}{\\colortbl ;\\red255\\green255\\blue255;}\\viewkind4\\uc1\\pard\\qc\\cf1\\fs72 abc}",
                      "default-translation0" : 0.0,
                      "default-translation1" : 0.0
                    },
                    "animationTracks" : {
                      "visual" : [
                        {
                          "endTime" : 65,
                          "duration" : 30,
                          "range" : [ 35, 30]
                        }
                      ]
                    }
                  }
                ],
                "transitions" : [
                  {
                    "name" : "Fade",
                    "duration" : 30,
                    "trivial" : true,
                    "useAudioPreRoll" : true,
                    "useVisualPreRoll" : true,
                    "leftMedia" : 17
                  }
                ]
              },
              {
                "trackIndex" : 7,
                "medias" : [
                  {
                    "id" : 18,
                    "_type" : "IMFile",
                    "src" : 1,
                    "trackNumber" : 0,
                    "trimStartSum" : 0,
                    "attributes" : {
                      "ident" : "codestars_logo"
                    },
                    "parameters" : {
                      "translation0" : {
                        "type" : "double",
                        "defaultValue" : -263.136792317664,
                        "interp" : "linr"
                      },
                      "translation1" : {
                        "type" : "double",
                        "defaultValue" : -271.784183685799,
                        "interp" : "linr"
                      },
                      "translation2" : {
                        "type" : "double",
                        "defaultValue" : 0.0,
                        "interp" : "linr"
                      },
                      "rotation0" : {
                        "type" : "double",
                        "defaultValue" : 0.0,
                        "interp" : "linr"
                      },
                      "rotation1" : {
                        "type" : "double",
                        "defaultValue" : 0.0,
                        "interp" : "linr"
                      },
                      "rotation2" : {
                        "type" : "double",
                        "defaultValue" : 0.0,
                        "interp" : "linr"
                      },
                      "shear0" : {
                        "type" : "double",
                        "defaultValue" : 0.0,
                        "interp" : "linr"
                      },
                      "shear1" : {
                        "type" : "double",
                        "defaultValue" : 0.0,
                        "interp" : "linr"
                      },
                      "shear2" : {
                        "type" : "double",
                        "defaultValue" : 0.0,
                        "interp" : "linr"
                      },
                      "scale0" : {
                        "type" : "double",
                        "defaultValue" : 0.402192662926175,
                        "interp" : "linr"
                      },
                      "scale1" : {
                        "type" : "double",
                        "defaultValue" : 0.402192662926175,
                        "interp" : "linr"
                      },
                      "scale2" : {
                        "type" : "double",
                        "defaultValue" : 1.0,
                        "interp" : "linr"
                      },
                      "anchor0" : {
                        "type" : "double",
                        "defaultValue" : 0.0,
                        "interp" : "linr"
                      },
                      "anchor1" : {
                        "type" : "double",
                        "defaultValue" : 0.0,
                        "interp" : "linr"
                      },
                      "anchor2" : {
                        "type" : "double",
                        "defaultValue" : 0.0,
                        "interp" : "linr"
                      }
                    },
                    "effects" : [

                    ],
                    "start" : 0,
                    "duration" : 150,
                    "mediaStart" : 0,
                    "mediaDuration" : 1,
                    "scalar" : 1,
                    "metadata" : {
                      "WinSubProjectDisplayName" : "",
                      "clipSpeedAttribute" : false,
                      "default-scale" : "1",
                      "effectApplied" : "none"
                    },
                    "animationTracks" : {

                    }
                  }
                ],
                "transitions" : [
                  {
                    "name" : "Fade",
                    "duration" : 30,
                    "trivial" : true,
                    "useAudioPreRoll" : true,
                    "useVisualPreRoll" : true,
                    "leftMedia" : 18
                  }
                ]
              },
              {
                "trackIndex" : 8,
                "medias" : [
                ]
              },
              {
                "trackIndex" : 9,
                "medias" : [
                  {
                    "id" : 19,
                    "_type" : "Callout",
                    "def" : {
                      "kind" : "TypeWinText",
                      "shape" : "",
                      "style" : "",
                      "Style" : 5.0,
                      "dimensionTime" : 0.0,
                      "height" : 180.0,
                      "line-spacing" : 0.0,
                      "textIgnoresOpacity" : 0.0,
                      "textRectHeight" : 1.0,
                      "textRectWidth" : 1.0,
                      "textRectX" : 0.0,
                      "textRectY" : 0.0,
                      "textVerticalAlign" : -1.0,
                      "width" : 320.0,
                      "filename" : "C:\\Program Files\\TechSmith\\Camtasia 9\\Media\\Studio\\Callouts\\trans_100x100.xml",
                      "horizontal-alignment" : "center",
                      "name" : "Text",
                      "text" : "{\\rtf1\\ansi\\ansicpg1252\\deff0\\nouicompat\\deflang1033{\\fonttbl{\\f0\\fnil\\fcharset0 Quicksand;}}\r\n{\\colortbl ;\\red255\\green255\\blue255;}\r\n{\\*\\generator Riched20 10.0.18362}\\viewkind4\\uc1 \r\n\\pard\\cf1\\f0\\fs80 The Complete\\par\r\n\\b\\fs90 C++ Developer Course\\par\r\n}\r\n",
                      "vertical-alignment" : "center",
                      "xmlContent" : "﻿<?xml version=\"1.0\"?>\n\n<Overlay version=\"1.0.1\">\n\n<Overlay_Filename>trans_100x100.png</Overlay_Filename>\n<Overlay_Name>Text</Overlay_Name>\n<Text_Top>0</Text_Top>\n<Text_Left>0</Text_Left>\n<Text_Bottom>0</Text_Bottom>\n<Text_Right>0</Text_Right>\n<Fill_Color>0</Fill_Color>\n<Border_Color>0</Border_Color>\n<Style>5</Style>\n</Overlay>",
                      "textAttributes" : {
                        "type" : "textAttributeList",
                        "keyframes" : [
                          {
                            "endTime" : 0,
                            "time" : 0,
                            "value" : null,
                            "duration" : 0
                          }
                        ]
                      }
                    },
                    "attributes" : {
                      "autoRotateText" : true
                    },
                    "parameters" : {
                      "translation0" : -72.2854752064544,
                      "translation1" : 239.738828503294,
                      "scale0" : 3.12385809835021,
                      "scale1" : 1.00002854389906
                    },
                    "effects" : [

                    ],
                    "start" : 0,
                    "duration" : 150,
                    "mediaStart" : 0,
                    "mediaDuration" : 150,
                    "scalar" : 1,
                    "metadata" : {
                      "WinSubProjectDisplayName" : "",
                      "clipSpeedAttribute" : false,
                      "default-legacy-fill-style" : 5.0,
                      "default-legacy-text-callout-vertical-align" : "middle",
                      "default-scale0" : 1.0,
                      "default-scale1" : 1.0,
                      "default-text" : "{\\rtf1\\ansi\\ansicpg1252\\deff0\\deflang1033{\\fonttbl{\\f0\\fswiss\\fprq2\\fcharset0 Arial;}}{\\colortbl ;\\red255\\green255\\blue255;}\\viewkind4\\uc1\\pard\\qc\\cf1\\fs72 abc}",
                      "default-translation0" : 0.0,
                      "default-translation1" : 0.0
                    },
                    "animationTracks" : {

                    }
                  }
                ],
                "transitions" : [
                  {
                    "name" : "Fade",
                    "duration" : 30,
                    "trivial" : true,
                    "useAudioPreRoll" : true,
                    "useVisualPreRoll" : true,
                    "leftMedia" : 19
                  }
                ]
              },
              {
                "trackIndex" : 10,
                "medias" : [
                  {
                    "id" : 20,
                    "_type" : "IMFile",
                    "src" : 4,
                    "trackNumber" : 0,
                    "trimStartSum" : 0,
                    "attributes" : {
                      "ident" : "Head"
                    },
                    "parameters" : {
                      "translation0" : 536.491666666922,
                      "translation1" : -187.676963350509,
                      "scale0" : 0.35,
                      "scale1" : 0.35
                    },
                    "effects" : [

                    ],
                    "start" : 0,
                    "duration" : 150,
                    "mediaStart" : 0,
                    "mediaDuration" : 1,
                    "scalar" : 1,
                    "metadata" : {
                      "WinSubProjectDisplayName" : "",
                      "clipSpeedAttribute" : false,
                      "default-scale0" : 0.703125,
                      "default-scale1" : 0.703125,
                      "default-translation0" : 0.0,
                      "default-translation1" : 0.0
                    },
                    "animationTracks" : {

                    }
                  }
                ],
                "transitions" : [
                  {
                    "name" : "Fade",
                    "duration" : 30,
                    "trivial" : false,
                    "useAudioPreRoll" : true,
                    "useVisualPreRoll" : true,
                    "leftMedia" : 20
                  }
                ]
              },
              {
                "trackIndex" : 11,
                "medias" : [
                  {
                    "id" : 21,
                    "_type" : "StitchedMedia",
                    "minMediaStart" : 0,
                    "attributes" : {
                      "ident" : "Rec 02-15-20_009",
                      "gain" : 1.0,
                      "mixToMono" : false
                    },
                    "parameters" : {
                      "translation0" : {
                        "type" : "double",
                        "defaultValue" : 0.0,
                        "keyframes" : [
                          {
                            "endTime" : 1221,
                            "time" : 1191,
                            "value" : 13.3021330869627,
                            "duration" : 30
                          },
                          {
                            "endTime" : 1600,
                            "time" : 1570,
                            "value" : -334.27274630734,
                            "duration" : 30
                          },
                          {
                            "endTime" : 1708,
                            "time" : 1678,
                            "value" : 28.7501461207773,
                            "duration" : 30
                          },
                          {
                            "endTime" : 1855,
                            "time" : 1825,
                            "value" : 334.272690007068,
                            "duration" : 30
                          },
                          {
                            "endTime" : 10910,
                            "time" : 10880,
                            "value" : 17.5930862028571,
                            "duration" : 30
                          },
                          {
                            "endTime" : 14210,
                            "time" : 14180,
                            "value" : -61.6208949454136,
                            "duration" : 30
                          },
                          {
                            "endTime" : 14824,
                            "time" : 14794,
                            "value" : 631.890697918179,
                            "duration" : 30
                          },
                          {
                            "endTime" : 14863,
                            "time" : 14833,
                            "value" : 14.1585559022781,
                            "duration" : 30
                          },
                          {
                            "endTime" : 15147,
                            "time" : 15117,
                            "value" : -364.582768912237,
                            "duration" : 30
                          },
                          {
                            "endTime" : 15242,
                            "time" : 15212,
                            "value" : -14.1586774260803,
                            "duration" : 30
                          },
                          {
                            "endTime" : 15345,
                            "time" : 15315,
                            "value" : 364.583098869952,
                            "duration" : 30
                          },
                          {
                            "endTime" : 19828,
                            "time" : 19798,
                            "value" : 364.583064274291,
                            "duration" : 30
                          },
                          {
                            "endTime" : 20269,
                            "time" : 20239,
                            "value" : 332.317527202529,
                            "duration" : 30
                          }
                        ]
                      },
                      "translation1" : {
                        "type" : "double",
                        "defaultValue" : 0.0,
                        "keyframes" : [
                          {
                            "endTime" : 1221,
                            "time" : 1191,
                            "value" : -79.8940070576842,
                            "duration" : 30
                          },
                          {
                            "endTime" : 1600,
                            "time" : 1570,
                            "value" : -188.028523415778,
                            "duration" : 30
                          },
                          {
                            "endTime" : 1708,
                            "time" : 1678,
                            "value" : -33.550656233308,
                            "duration" : 30
                          },
                          {
                            "endTime" : 1855,
                            "time" : 1825,
                            "value" : -188.028523415778,
                            "duration" : 30
                          },
                          {
                            "endTime" : 10910,
                            "time" : 10880,
                            "value" : -126.237388749432,
                            "duration" : 30
                          },
                          {
                            "endTime" : 14210,
                            "time" : 14180,
                            "value" : -173.938035491204,
                            "duration" : 30
                          },
                          {
                            "endTime" : 14824,
                            "time" : 14794,
                            "value" : -355.43855412727,
                            "duration" : 30
                          },
                          {
                            "endTime" : 14863,
                            "time" : 14833,
                            "value" : -21.9015029454327,
                            "duration" : 30
                          },
                          {
                            "endTime" : 15147,
                            "time" : 15117,
                            "value" : -205.07773977909,
                            "duration" : 30
                          },
                          {
                            "endTime" : 15242,
                            "time" : 15212,
                            "value" : -45.7940523365333,
                            "duration" : 30
                          },
                          {
                            "endTime" : 15345,
                            "time" : 15315,
                            "value" : -205.07773977909,
                            "duration" : 30
                          },
                          {
                            "endTime" : 19828,
                            "time" : 19798,
                            "value" : -133.400094499211,
                            "duration" : 30
                          },
                          {
                            "endTime" : 20269,
                            "time" : 20239,
                            "value" : -186.928505138588,
                            "duration" : 30
                          }
                        ]
                      },
                      "scale0" : {
                        "type" : "double",
                        "defaultValue" : 0.666666666666667,
                        "keyframes" : [
                          {
                            "endTime" : 1221,
                            "time" : 1191,
                            "value" : 1.01486737198551,
                            "duration" : 30
                          },
                          {
                            "endTime" : 1600,
                            "time" : 1570,
                            "value" : 1.01486730968892,
                            "duration" : 30
                          },
                          {
                            "endTime" : 1708,
                            "time" : 1678,
                            "value" : 1.0148672460932,
                            "duration" : 30
                          },
                          {
                            "endTime" : 1855,
                            "time" : 1825,
                            "value" : 1.01486737068639,
                            "duration" : 30
                          },
                          {
                            "endTime" : 10910,
                            "time" : 10880,
                            "value" : 1.01486730709067,
                            "duration" : 30
                          },
                          {
                            "endTime" : 14210,
                            "time" : 14180,
                            "value" : 1.32488597201446,
                            "duration" : 30
                          },
                          {
                            "endTime" : 14824,
                            "time" : 14794,
                            "value" : 1.32488611357477,
                            "duration" : 30
                          },
                          {
                            "endTime" : 14863,
                            "time" : 14833,
                            "value" : 1.04644043124287,
                            "duration" : 30
                          },
                          {
                            "endTime" : 15147,
                            "time" : 15117,
                            "value" : 1.04644056370893,
                            "duration" : 30
                          },
                          {
                            "endTime" : 15242,
                            "time" : 15212,
                            "value" : 1.04644069483546,
                            "duration" : 30
                          },
                          {
                            "endTime" : 15345,
                            "time" : 15315,
                            "value" : 1.04644072795198,
                            "duration" : 30
                          },
                          {
                            "endTime" : 19828,
                            "time" : 19798,
                            "value" : 1.0464406603794,
                            "duration" : 30
                          },
                          {
                            "endTime" : 20269,
                            "time" : 20239,
                            "value" : 1.01283078977112,
                            "duration" : 30
                          }
                        ]
                      },
                      "scale1" : {
                        "type" : "double",
                        "defaultValue" : 0.666666666666667,
                        "keyframes" : [
                          {
                            "endTime" : 1221,
                            "time" : 1191,
                            "value" : 1.01486763335688,
                            "duration" : 30
                          },
                          {
                            "endTime" : 14210,
                            "time" : 14180,
                            "value" : 1.32488620795482,
                            "duration" : 30
                          },
                          {
                            "endTime" : 14863,
                            "time" : 14833,
                            "value" : 1.04644025617107,
                            "duration" : 30
                          },
                          {
                            "endTime" : 20269,
                            "time" : 20239,
                            "value" : 1.01283055988536,
                            "duration" : 30
                          }
                        ]
                      },
                      "volume" : {
                        "type" : "double",
                        "keyframes" : [
                          {
                            "endTime" : 0,
                            "time" : 0,
                            "value" : 1.0,
                            "duration" : 0
                          },
                          {
                            "endTime" : 14356,
                            "time" : 14356,
                            "value" : 1.0,
                            "duration" : 0
                          },
                          {
                            "endTime" : 14357,
                            "time" : 14357,
                            "value" : 0.0,
                            "duration" : 0
                          },
                          {
                            "endTime" : 14593,
                            "time" : 14593,
                            "value" : 0.0,
                            "duration" : 0
                          },
                          {
                            "endTime" : 14608,
                            "time" : 14608,
                            "value" : 1.0,
                            "duration" : 0
                          }
                        ]
                      },
                      "cursorOpacity" : 1.0,
                      "cursorScale" : 1.0
                    },
                    "medias" : [
                        {
                          "id" : 22,
                          "_type" : "UnifiedMedia",
                          "video" : 
                              {
                                "id" : 23,
                                "_type" : "ScreenVMFile",
                                "src" : 5,
                                "trackNumber" : 0,
                                "attributes" : {
                                  "ident" : "Rec 02-15-20_009"
                                },
                                "parameters" : {
                                  "cursorScale" : {
                                    "type" : "double",
                                    "defaultValue" : 0.0,
                                    "interp" : "linr"
                                  },
                                  "cursorOpacity" : {
                                    "type" : "double",
                                    "defaultValue" : 0.0,
                                    "interp" : "linr"
                                  }
                                },
                                "effects" : [

                                ],
                                "start" : 0,
                                "duration" : 2559,
                                "mediaStart" : 0,
                                "mediaDuration" : 2559,
                                "scalar" : 1,
                                "animationTracks" : {

                                }
                              },
                          "audio" : 
                              {
                                "id" : 24,
                                "_type" : "AMFile",
                                "src" : 5,
                                "trackNumber" : 2,
                                "attributes" : {
                                  "ident" : "",
                                  "sampleRate" : 44100,
                                  "bitDepth" : 16,
                                  "gain" : 1.0,
                                  "mixToMono" : false
                                },
                                  "channelNumber" : "0,1",
                                "effects" : [

                                ],
                                "start" : 0,
                                "duration" : 2559,
                                "mediaStart" : 0,
                                "mediaDuration" : 2559,
                                "scalar" : 1,
                                "animationTracks" : {

                                }
                              }
,
                          "start" : 0,
                          "duration" : 2559,
                          "mediaStart" : 0,
                          "mediaDuration" : 31709,
                          "scalar" : 1,
                          "metadata" : {
                            "AutoAppliedSmartFocus" : "False",
                            "WinSubProjectDisplayName" : "",
                            "clipSpeedAttribute" : false,
                            "default-scale0" : 0.666666666666667,
                            "default-scale1" : 0.666666666666667,
                            "default-translation0" : 0.0,
                            "default-translation1" : 0.0
                          }
                        },
                        {
                          "id" : 25,
                          "_type" : "UnifiedMedia",
                          "video" : 
                              {
                                "id" : 26,
                                "_type" : "ScreenVMFile",
                                "src" : 5,
                                "trackNumber" : 0,
                                "attributes" : {
                                  "ident" : "Rec 02-15-20_009"
                                },
                                "parameters" : {
                                  "cursorScale" : {
                                    "type" : "double",
                                    "defaultValue" : 0.0,
                                    "interp" : "linr"
                                  },
                                  "cursorOpacity" : {
                                    "type" : "double",
                                    "defaultValue" : 0.0,
                                    "interp" : "linr"
                                  }
                                },
                                "effects" : [

                                ],
                                "start" : 2559,
                                "duration" : 1679,
                                "mediaStart" : 2766,
                                "mediaDuration" : 1679,
                                "scalar" : 1,
                                "animationTracks" : {

                                }
                              },
                          "audio" : 
                              {
                                "id" : 27,
                                "_type" : "AMFile",
                                "src" : 5,
                                "trackNumber" : 2,
                                "attributes" : {
                                  "ident" : "",
                                  "sampleRate" : 44100,
                                  "bitDepth" : 16,
                                  "gain" : 1.0,
                                  "mixToMono" : false
                                },
                                  "channelNumber" : "0,1",
                                "effects" : [

                                ],
                                "start" : 2559,
                                "duration" : 1679,
                                "mediaStart" : 2766,
                                "mediaDuration" : 1679,
                                "scalar" : 1,
                                "animationTracks" : {

                                }
                              }
,
                          "start" : 2559,
                          "duration" : 1679,
                          "mediaStart" : 0,
                          "mediaDuration" : 31709,
                          "scalar" : 1,
                          "metadata" : {
                            "AutoAppliedSmartFocus" : "False",
                            "WinSubProjectDisplayName" : "",
                            "clipSpeedAttribute" : false,
                            "default-scale0" : 0.666666666666667,
                            "default-scale1" : 0.666666666666667,
                            "default-translation0" : 0.0,
                            "default-translation1" : 0.0
                          }
                        },
                        {
                          "id" : 28,
                          "_type" : "UnifiedMedia",
                          "video" : 
                              {
                                "id" : 29,
                                "_type" : "ScreenVMFile",
                                "src" : 5,
                                "trackNumber" : 0,
                                "attributes" : {
                                  "ident" : "Rec 02-15-20_009"
                                },
                                "parameters" : {
                                  "cursorScale" : {
                                    "type" : "double",
                                    "defaultValue" : 0.0,
                                    "interp" : "linr"
                                  },
                                  "cursorOpacity" : {
                                    "type" : "double",
                                    "defaultValue" : 0.0,
                                    "interp" : "linr"
                                  }
                                },
                                "effects" : [

                                ],
                                "start" : 4238,
                                "duration" : 749,
                                "mediaStart" : 4630,
                                "mediaDuration" : 749,
                                "scalar" : 1,
                                "animationTracks" : {

                                }
                              },
                          "audio" : 
                              {
                                "id" : 30,
                                "_type" : "AMFile",
                                "src" : 5,
                                "trackNumber" : 2,
                                "attributes" : {
                                  "ident" : "",
                                  "sampleRate" : 44100,
                                  "bitDepth" : 16,
                                  "gain" : 1.0,
                                  "mixToMono" : false
                                },
                                  "channelNumber" : "0,1",
                                "effects" : [

                                ],
                                "start" : 4238,
                                "duration" : 749,
                                "mediaStart" : 4630,
                                "mediaDuration" : 749,
                                "scalar" : 1,
                                "animationTracks" : {

                                }
                              }
,
                          "start" : 4238,
                          "duration" : 749,
                          "mediaStart" : 0,
                          "mediaDuration" : 31709,
                          "scalar" : 1,
                          "metadata" : {
                            "AutoAppliedSmartFocus" : "False",
                            "WinSubProjectDisplayName" : "",
                            "clipSpeedAttribute" : false,
                            "default-scale0" : 0.666666666666667,
                            "default-scale1" : 0.666666666666667,
                            "default-translation0" : 0.0,
                            "default-translation1" : 0.0
                          }
                        },
                        {
                          "id" : 31,
                          "_type" : "UnifiedMedia",
                          "video" : 
                              {
                                "id" : 32,
                                "_type" : "ScreenVMFile",
                                "src" : 5,
                                "trackNumber" : 0,
                                "attributes" : {
                                  "ident" : "Rec 02-15-20_009"
                                },
                                "parameters" : {
                                  "cursorScale" : {
                                    "type" : "double",
                                    "defaultValue" : 0.0,
                                    "interp" : "linr"
                                  },
                                  "cursorOpacity" : {
                                    "type" : "double",
                                    "defaultValue" : 0.0,
                                    "interp" : "linr"
                                  }
                                },
                                "effects" : [

                                ],
                                "start" : 4987,
                                "duration" : 1202,
                                "mediaStart" : 5398,
                                "mediaDuration" : 1202,
                                "scalar" : 1,
                                "animationTracks" : {

                                }
                              },
                          "audio" : 
                              {
                                "id" : 33,
                                "_type" : "AMFile",
                                "src" : 5,
                                "trackNumber" : 2,
                                "attributes" : {
                                  "ident" : "",
                                  "sampleRate" : 44100,
                                  "bitDepth" : 16,
                                  "gain" : 1.0,
                                  "mixToMono" : false
                                },
                                  "channelNumber" : "0,1",
                                "effects" : [

                                ],
                                "start" : 4987,
                                "duration" : 1202,
                                "mediaStart" : 5398,
                                "mediaDuration" : 1202,
                                "scalar" : 1,
                                "animationTracks" : {

                                }
                              }
,
                          "start" : 4987,
                          "duration" : 1202,
                          "mediaStart" : 0,
                          "mediaDuration" : 31709,
                          "scalar" : 1,
                          "metadata" : {
                            "AutoAppliedSmartFocus" : "False",
                            "WinSubProjectDisplayName" : "",
                            "clipSpeedAttribute" : false,
                            "default-scale0" : 0.666666666666667,
                            "default-scale1" : 0.666666666666667,
                            "default-translation0" : 0.0,
                            "default-translation1" : 0.0
                          }
                        },
                        {
                          "id" : 34,
                          "_type" : "UnifiedMedia",
                          "video" : 
                              {
                                "id" : 35,
                                "_type" : "ScreenVMFile",
                                "src" : 5,
                                "trackNumber" : 0,
                                "attributes" : {
                                  "ident" : "Rec 02-15-20_009"
                                },
                                "parameters" : {
                                  "cursorScale" : {
                                    "type" : "double",
                                    "defaultValue" : 0.0,
                                    "interp" : "linr"
                                  },
                                  "cursorOpacity" : {
                                    "type" : "double",
                                    "defaultValue" : 0.0,
                                    "interp" : "linr"
                                  }
                                },
                                "effects" : [

                                ],
                                "start" : 6189,
                                "duration" : 2797,
                                "mediaStart" : 6613,
                                "mediaDuration" : 2797,
                                "scalar" : 1,
                                "animationTracks" : {

                                }
                              },
                          "audio" : 
                              {
                                "id" : 36,
                                "_type" : "AMFile",
                                "src" : 5,
                                "trackNumber" : 2,
                                "attributes" : {
                                  "ident" : "",
                                  "sampleRate" : 44100,
                                  "bitDepth" : 16,
                                  "gain" : 1.0,
                                  "mixToMono" : false
                                },
                                  "channelNumber" : "0,1",
                                "effects" : [

                                ],
                                "start" : 6189,
                                "duration" : 2797,
                                "mediaStart" : 6613,
                                "mediaDuration" : 2797,
                                "scalar" : 1,
                                "animationTracks" : {

                                }
                              }
,
                          "start" : 6189,
                          "duration" : 2797,
                          "mediaStart" : 0,
                          "mediaDuration" : 31709,
                          "scalar" : 1,
                          "metadata" : {
                            "AutoAppliedSmartFocus" : "False",
                            "WinSubProjectDisplayName" : "",
                            "clipSpeedAttribute" : false,
                            "default-scale0" : 0.666666666666667,
                            "default-scale1" : 0.666666666666667,
                            "default-translation0" : 0.0,
                            "default-translation1" : 0.0
                          }
                        },
                        {
                          "id" : 37,
                          "_type" : "UnifiedMedia",
                          "video" : 
                              {
                                "id" : 38,
                                "_type" : "ScreenVMFile",
                                "src" : 5,
                                "trackNumber" : 0,
                                "attributes" : {
                                  "ident" : "Rec 02-15-20_009"
                                },
                                "parameters" : {
                                  "cursorScale" : {
                                    "type" : "double",
                                    "defaultValue" : 0.0,
                                    "interp" : "linr"
                                  },
                                  "cursorOpacity" : {
                                    "type" : "double",
                                    "defaultValue" : 0.0,
                                    "interp" : "linr"
                                  }
                                },
                                "effects" : [

                                ],
                                "start" : 8986,
                                "duration" : 573,
                                "mediaStart" : 9456,
                                "mediaDuration" : 573,
                                "scalar" : 1,
                                "animationTracks" : {

                                }
                              },
                          "audio" : 
                              {
                                "id" : 39,
                                "_type" : "AMFile",
                                "src" : 5,
                                "trackNumber" : 2,
                                "attributes" : {
                                  "ident" : "",
                                  "sampleRate" : 44100,
                                  "bitDepth" : 16,
                                  "gain" : 1.0,
                                  "mixToMono" : false
                                },
                                  "channelNumber" : "0,1",
                                "effects" : [

                                ],
                                "start" : 8986,
                                "duration" : 573,
                                "mediaStart" : 9456,
                                "mediaDuration" : 573,
                                "scalar" : 1,
                                "animationTracks" : {

                                }
                              }
,
                          "start" : 8986,
                          "duration" : 573,
                          "mediaStart" : 0,
                          "mediaDuration" : 31709,
                          "scalar" : 1,
                          "metadata" : {
                            "AutoAppliedSmartFocus" : "False",
                            "WinSubProjectDisplayName" : "",
                            "clipSpeedAttribute" : false,
                            "default-scale0" : 0.666666666666667,
                            "default-scale1" : 0.666666666666667,
                            "default-translation0" : 0.0,
                            "default-translation1" : 0.0
                          }
                        },
                        {
                          "id" : 40,
                          "_type" : "UnifiedMedia",
                          "video" : 
                              {
                                "id" : 41,
                                "_type" : "ScreenVMFile",
                                "src" : 5,
                                "trackNumber" : 0,
                                "attributes" : {
                                  "ident" : "Rec 02-15-20_009"
                                },
                                "parameters" : {
                                  "cursorScale" : {
                                    "type" : "double",
                                    "defaultValue" : 0.0,
                                    "interp" : "linr"
                                  },
                                  "cursorOpacity" : {
                                    "type" : "double",
                                    "defaultValue" : 0.0,
                                    "interp" : "linr"
                                  }
                                },
                                "effects" : [

                                ],
                                "start" : 9559,
                                "duration" : 3170,
                                "mediaStart" : 10039,
                                "mediaDuration" : 3170,
                                "scalar" : 1,
                                "animationTracks" : {

                                }
                              },
                          "audio" : 
                              {
                                "id" : 42,
                                "_type" : "AMFile",
                                "src" : 5,
                                "trackNumber" : 2,
                                "attributes" : {
                                  "ident" : "",
                                  "sampleRate" : 44100,
                                  "bitDepth" : 16,
                                  "gain" : 1.0,
                                  "mixToMono" : false
                                },
                                  "channelNumber" : "0,1",
                                "effects" : [

                                ],
                                "start" : 9559,
                                "duration" : 3170,
                                "mediaStart" : 10039,
                                "mediaDuration" : 3170,
                                "scalar" : 1,
                                "animationTracks" : {

                                }
                              }
,
                          "start" : 9559,
                          "duration" : 3170,
                          "mediaStart" : 0,
                          "mediaDuration" : 31709,
                          "scalar" : 1,
                          "metadata" : {
                            "AutoAppliedSmartFocus" : "False",
                            "WinSubProjectDisplayName" : "",
                            "clipSpeedAttribute" : false,
                            "default-scale0" : 0.666666666666667,
                            "default-scale1" : 0.666666666666667,
                            "default-translation0" : 0.0,
                            "default-translation1" : 0.0
                          }
                        },
                        {
                          "id" : 43,
                          "_type" : "UnifiedMedia",
                          "video" : 
                              {
                                "id" : 44,
                                "_type" : "ScreenVMFile",
                                "src" : 5,
                                "trackNumber" : 0,
                                "attributes" : {
                                  "ident" : "Rec 02-15-20_009"
                                },
                                "parameters" : {
                                  "cursorScale" : {
                                    "type" : "double",
                                    "defaultValue" : 0.0,
                                    "interp" : "linr"
                                  },
                                  "cursorOpacity" : {
                                    "type" : "double",
                                    "defaultValue" : 0.0,
                                    "interp" : "linr"
                                  }
                                },
                                "effects" : [

                                ],
                                "start" : 12729,
                                "duration" : 1879,
                                "mediaStart" : 13264,
                                "mediaDuration" : 1879,
                                "scalar" : 1,
                                "animationTracks" : {

                                }
                              },
                          "audio" : 
                              {
                                "id" : 45,
                                "_type" : "AMFile",
                                "src" : 5,
                                "trackNumber" : 2,
                                "attributes" : {
                                  "ident" : "",
                                  "sampleRate" : 44100,
                                  "bitDepth" : 16,
                                  "gain" : 1.0,
                                  "mixToMono" : false
                                },
                                  "channelNumber" : "0,1",
                                "effects" : [

                                ],
                                "start" : 12729,
                                "duration" : 1879,
                                "mediaStart" : 13264,
                                "mediaDuration" : 1879,
                                "scalar" : 1,
                                "animationTracks" : {

                                }
                              }
,
                          "start" : 12729,
                          "duration" : 1879,
                          "mediaStart" : 0,
                          "mediaDuration" : 31709,
                          "scalar" : 1,
                          "metadata" : {
                            "AutoAppliedSmartFocus" : "False",
                            "WinSubProjectDisplayName" : "",
                            "clipSpeedAttribute" : false,
                            "default-scale0" : 0.666666666666667,
                            "default-scale1" : 0.666666666666667,
                            "default-translation0" : 0.0,
                            "default-translation1" : 0.0
                          }
                        },
                        {
                          "id" : 46,
                          "_type" : "UnifiedMedia",
                          "video" : 
                              {
                                "id" : 47,
                                "_type" : "ScreenVMFile",
                                "src" : 5,
                                "trackNumber" : 0,
                                "attributes" : {
                                  "ident" : "Rec 02-15-20_009"
                                },
                                "parameters" : {
                                  "cursorScale" : {
                                    "type" : "double",
                                    "defaultValue" : 0.0,
                                    "interp" : "linr"
                                  },
                                  "cursorOpacity" : {
                                    "type" : "double",
                                    "defaultValue" : 0.0,
                                    "interp" : "linr"
                                  }
                                },
                                "effects" : [

                                ],
                                "start" : 14608,
                                "duration" : 1980,
                                "mediaStart" : 15384,
                                "mediaDuration" : 1980,
                                "scalar" : 1,
                                "animationTracks" : {

                                }
                              },
                          "audio" : 
                              {
                                "id" : 48,
                                "_type" : "AMFile",
                                "src" : 5,
                                "trackNumber" : 2,
                                "attributes" : {
                                  "ident" : "",
                                  "sampleRate" : 44100,
                                  "bitDepth" : 16,
                                  "gain" : 1.0,
                                  "mixToMono" : false
                                },
                                  "channelNumber" : "0,1",
                                "effects" : [

                                ],
                                "start" : 14608,
                                "duration" : 1980,
                                "mediaStart" : 15384,
                                "mediaDuration" : 1980,
                                "scalar" : 1,
                                "animationTracks" : {

                                }
                              }
,
                          "start" : 14608,
                          "duration" : 1980,
                          "mediaStart" : 0,
                          "mediaDuration" : 31709,
                          "scalar" : 1,
                          "metadata" : {
                            "AutoAppliedSmartFocus" : "False",
                            "WinSubProjectDisplayName" : "",
                            "clipSpeedAttribute" : false,
                            "default-scale0" : 0.666666666666667,
                            "default-scale1" : 0.666666666666667,
                            "default-translation0" : 0.0,
                            "default-translation1" : 0.0
                          }
                        },
                        {
                          "id" : 49,
                          "_type" : "UnifiedMedia",
                          "video" : 
                              {
                                "id" : 50,
                                "_type" : "ScreenVMFile",
                                "src" : 5,
                                "trackNumber" : 0,
                                "attributes" : {
                                  "ident" : "Rec 02-15-20_009"
                                },
                                "parameters" : {
                                  "cursorScale" : {
                                    "type" : "double",
                                    "defaultValue" : 0.0,
                                    "interp" : "linr"
                                  },
                                  "cursorOpacity" : {
                                    "type" : "double",
                                    "defaultValue" : 0.0,
                                    "interp" : "linr"
                                  }
                                },
                                "effects" : [

                                ],
                                "start" : 16588,
                                "duration" : 1494,
                                "mediaStart" : 17547,
                                "mediaDuration" : 1494,
                                "scalar" : 1,
                                "animationTracks" : {

                                }
                              },
                          "audio" : 
                              {
                                "id" : 51,
                                "_type" : "AMFile",
                                "src" : 5,
                                "trackNumber" : 2,
                                "attributes" : {
                                  "ident" : "",
                                  "sampleRate" : 44100,
                                  "bitDepth" : 16,
                                  "gain" : 1.0,
                                  "mixToMono" : false
                                },
                                  "channelNumber" : "0,1",
                                "effects" : [

                                ],
                                "start" : 16588,
                                "duration" : 1494,
                                "mediaStart" : 17547,
                                "mediaDuration" : 1494,
                                "scalar" : 1,
                                "animationTracks" : {

                                }
                              }
,
                          "start" : 16588,
                          "duration" : 1494,
                          "mediaStart" : 0,
                          "mediaDuration" : 31709,
                          "scalar" : 1,
                          "metadata" : {
                            "AutoAppliedSmartFocus" : "False",
                            "WinSubProjectDisplayName" : "",
                            "clipSpeedAttribute" : false,
                            "default-scale0" : 0.666666666666667,
                            "default-scale1" : 0.666666666666667,
                            "default-translation0" : 0.0,
                            "default-translation1" : 0.0
                          }
                        },
                        {
                          "id" : 52,
                          "_type" : "UnifiedMedia",
                          "video" : 
                              {
                                "id" : 53,
                                "_type" : "ScreenVMFile",
                                "src" : 5,
                                "trackNumber" : 0,
                                "attributes" : {
                                  "ident" : "Rec 02-15-20_009"
                                },
                                "parameters" : {
                                  "cursorScale" : {
                                    "type" : "double",
                                    "defaultValue" : 0.0,
                                    "interp" : "linr"
                                  },
                                  "cursorOpacity" : {
                                    "type" : "double",
                                    "defaultValue" : 0.0,
                                    "interp" : "linr"
                                  }
                                },
                                "effects" : [

                                ],
                                "start" : 18082,
                                "duration" : 5700,
                                "mediaStart" : 21640,
                                "mediaDuration" : 5700,
                                "scalar" : 1,
                                "animationTracks" : {

                                }
                              },
                          "audio" : 
                              {
                                "id" : 54,
                                "_type" : "AMFile",
                                "src" : 5,
                                "trackNumber" : 2,
                                "attributes" : {
                                  "ident" : "",
                                  "sampleRate" : 44100,
                                  "bitDepth" : 16,
                                  "gain" : 1.0,
                                  "mixToMono" : false
                                },
                                  "channelNumber" : "0,1",
                                "effects" : [

                                ],
                                "start" : 18082,
                                "duration" : 5700,
                                "mediaStart" : 21640,
                                "mediaDuration" : 5700,
                                "scalar" : 1,
                                "animationTracks" : {

                                }
                              }
,
                          "start" : 18082,
                          "duration" : 5700,
                          "mediaStart" : 0,
                          "mediaDuration" : 31709,
                          "scalar" : 1,
                          "metadata" : {
                            "AutoAppliedSmartFocus" : "False",
                            "WinSubProjectDisplayName" : "",
                            "clipSpeedAttribute" : false,
                            "default-scale0" : 0.666666666666667,
                            "default-scale1" : 0.666666666666667,
                            "default-translation0" : 0.0,
                            "default-translation1" : 0.0
                          }
                        },
                        {
                          "id" : 55,
                          "_type" : "UnifiedMedia",
                          "video" : 
                              {
                                "id" : 56,
                                "_type" : "ScreenVMFile",
                                "src" : 5,
                                "trackNumber" : 0,
                                "attributes" : {
                                  "ident" : "Rec 02-15-20_009"
                                },
                                "parameters" : {
                                  "cursorScale" : {
                                    "type" : "double",
                                    "defaultValue" : 0.0,
                                    "interp" : "linr"
                                  },
                                  "cursorOpacity" : {
                                    "type" : "double",
                                    "defaultValue" : 0.0,
                                    "interp" : "linr"
                                  }
                                },
                                "effects" : [

                                ],
                                "start" : 23782,
                                "duration" : 1,
                                "mediaStart" : 27348,
                                "mediaDuration" : 1,
                                "scalar" : 1,
                                "animationTracks" : {

                                }
                              },
                          "audio" : 
                              {
                                "id" : 57,
                                "_type" : "AMFile",
                                "src" : 5,
                                "trackNumber" : 2,
                                "attributes" : {
                                  "ident" : "",
                                  "sampleRate" : 44100,
                                  "bitDepth" : 16,
                                  "gain" : 1.0,
                                  "mixToMono" : false
                                },
                                  "channelNumber" : "0,1",
                                "effects" : [

                                ],
                                "start" : 23782,
                                "duration" : 1,
                                "mediaStart" : 27348,
                                "mediaDuration" : 1,
                                "scalar" : 1,
                                "animationTracks" : {

                                }
                              }
,
                          "start" : 23782,
                          "duration" : 1,
                          "mediaStart" : 0,
                          "mediaDuration" : 31709,
                          "scalar" : 1,
                          "metadata" : {
                            "AutoAppliedSmartFocus" : "False",
                            "WinSubProjectDisplayName" : "",
                            "clipSpeedAttribute" : false,
                            "default-scale0" : 0.666666666666667,
                            "default-scale1" : 0.666666666666667,
                            "default-translation0" : 0.0,
                            "default-translation1" : 0.0
                          }
                        },
                        {
                          "id" : 58,
                          "_type" : "UnifiedMedia",
                          "video" : 
                              {
                                "id" : 59,
                                "_type" : "ScreenVMFile",
                                "src" : 5,
                                "trackNumber" : 0,
                                "attributes" : {
                                  "ident" : "Rec 02-15-20_009"
                                },
                                "parameters" : {
                                  "cursorScale" : {
                                    "type" : "double",
                                    "defaultValue" : 0.0,
                                    "interp" : "linr"
                                  },
                                  "cursorOpacity" : {
                                    "type" : "double",
                                    "defaultValue" : 0.0,
                                    "interp" : "linr"
                                  }
                                },
                                "effects" : [

                                ],
                                "start" : 23783,
                                "duration" : 2760,
                                "mediaStart" : 27632,
                                "mediaDuration" : 2760,
                                "scalar" : 1,
                                "animationTracks" : {

                                }
                              },
                          "audio" : 
                              {
                                "id" : 60,
                                "_type" : "AMFile",
                                "src" : 5,
                                "trackNumber" : 2,
                                "attributes" : {
                                  "ident" : "",
                                  "sampleRate" : 44100,
                                  "bitDepth" : 16,
                                  "gain" : 1.0,
                                  "mixToMono" : false
                                },
                                  "channelNumber" : "0,1",
                                "effects" : [

                                ],
                                "start" : 23783,
                                "duration" : 2760,
                                "mediaStart" : 27632,
                                "mediaDuration" : 2760,
                                "scalar" : 1,
                                "animationTracks" : {

                                }
                              }
,
                          "start" : 23783,
                          "duration" : 2760,
                          "mediaStart" : 0,
                          "mediaDuration" : 31709,
                          "scalar" : 1,
                          "metadata" : {
                            "AutoAppliedSmartFocus" : "False",
                            "WinSubProjectDisplayName" : "",
                            "clipSpeedAttribute" : false,
                            "default-scale0" : 0.666666666666667,
                            "default-scale1" : 0.666666666666667,
                            "default-translation0" : 0.0,
                            "default-translation1" : 0.0
                          }
                        },
                        {
                          "id" : 61,
                          "_type" : "UnifiedMedia",
                          "video" : 
                              {
                                "id" : 62,
                                "_type" : "ScreenVMFile",
                                "src" : 5,
                                "trackNumber" : 0,
                                "attributes" : {
                                  "ident" : "Rec 02-15-20_009"
                                },
                                "parameters" : {
                                  "cursorScale" : {
                                    "type" : "double",
                                    "defaultValue" : 0.0,
                                    "interp" : "linr"
                                  },
                                  "cursorOpacity" : {
                                    "type" : "double",
                                    "defaultValue" : 0.0,
                                    "interp" : "linr"
                                  }
                                },
                                "effects" : [

                                ],
                                "start" : 26543,
                                "duration" : 499,
                                "mediaStart" : 30488,
                                "mediaDuration" : 499,
                                "scalar" : 1,
                                "animationTracks" : {

                                }
                              },
                          "audio" : 
                              {
                                "id" : 63,
                                "_type" : "AMFile",
                                "src" : 5,
                                "trackNumber" : 2,
                                "attributes" : {
                                  "ident" : "",
                                  "sampleRate" : 44100,
                                  "bitDepth" : 16,
                                  "gain" : 1.0,
                                  "mixToMono" : false
                                },
                                  "channelNumber" : "0,1",
                                "effects" : [

                                ],
                                "start" : 26543,
                                "duration" : 499,
                                "mediaStart" : 30488,
                                "mediaDuration" : 499,
                                "scalar" : 1,
                                "animationTracks" : {

                                }
                              }
,
                          "start" : 26543,
                          "duration" : 499,
                          "mediaStart" : 0,
                          "mediaDuration" : 31709,
                          "scalar" : 1,
                          "metadata" : {
                            "AutoAppliedSmartFocus" : "False",
                            "WinSubProjectDisplayName" : "",
                            "clipSpeedAttribute" : false,
                            "default-scale0" : 0.666666666666667,
                            "default-scale1" : 0.666666666666667,
                            "default-translation0" : 0.0,
                            "default-translation1" : 0.0
                          }
                        },
                        {
                          "id" : 64,
                          "_type" : "UnifiedMedia",
                          "video" : 
                              {
                                "id" : 65,
                                "_type" : "ScreenVMFile",
                                "src" : 5,
                                "trackNumber" : 0,
                                "attributes" : {
                                  "ident" : "Rec 02-15-20_009"
                                },
                                "parameters" : {
                                  "cursorScale" : {
                                    "type" : "double",
                                    "defaultValue" : 0.0,
                                    "interp" : "linr"
                                  },
                                  "cursorOpacity" : {
                                    "type" : "double",
                                    "defaultValue" : 0.0,
                                    "interp" : "linr"
                                  }
                                },
                                "effects" : [

                                ],
                                "start" : 27042,
                                "duration" : 383,
                                "mediaStart" : 31326,
                                "mediaDuration" : 383,
                                "scalar" : 1,
                                "animationTracks" : {

                                }
                              },
                          "audio" : 
                              {
                                "id" : 66,
                                "_type" : "AMFile",
                                "src" : 5,
                                "trackNumber" : 2,
                                "attributes" : {
                                  "ident" : "",
                                  "sampleRate" : 44100,
                                  "bitDepth" : 16,
                                  "gain" : 1.0,
                                  "mixToMono" : false
                                },
                                  "channelNumber" : "0,1",
                                "effects" : [

                                ],
                                "start" : 27042,
                                "duration" : 383,
                                "mediaStart" : 31326,
                                "mediaDuration" : 383,
                                "scalar" : 1,
                                "animationTracks" : {

                                }
                              }
,
                          "start" : 27042,
                          "duration" : 383,
                          "mediaStart" : 0,
                          "mediaDuration" : 31709,
                          "scalar" : 1,
                          "metadata" : {
                            "AutoAppliedSmartFocus" : "False",
                            "WinSubProjectDisplayName" : "",
                            "clipSpeedAttribute" : false,
                            "default-scale0" : 0.666666666666667,
                            "default-scale1" : 0.666666666666667,
                            "default-translation0" : 0.0,
                            "default-translation1" : 0.0
                          }
                        }
                    ],
                    "effects" : [

                    ],
                    "start" : 1121,
                    "duration" : 26304,
                    "mediaStart" : 1121,
                    "mediaDuration" : 26304,
                    "scalar" : 1,
                    "metadata" : {
                      "AutoAppliedSmartFocus" : "False",
                      "WinSubProjectDisplayName" : "",
                      "clipSpeedAttribute" : false
                    },
                    "animationTracks" : {
                      "visual" : [
                        {
                          "endTime" : 1221,
                          "duration" : 30,
                          "range" : [ 1191, 30]
                        },
                        {
                          "endTime" : 1600,
                          "duration" : 30,
                          "range" : [ 1570, 30]
                        },
                        {
                          "endTime" : 1708,
                          "duration" : 30,
                          "range" : [ 1678, 30]
                        },
                        {
                          "endTime" : 1855,
                          "duration" : 30,
                          "range" : [ 1825, 30]
                        },
                        {
                          "endTime" : 10910,
                          "duration" : 30,
                          "range" : [ 10880, 30]
                        },
                        {
                          "endTime" : 14210,
                          "duration" : 30,
                          "range" : [ 14180, 30]
                        },
                        {
                          "endTime" : 14824,
                          "duration" : 30,
                          "range" : [ 14794, 30]
                        },
                        {
                          "endTime" : 14863,
                          "duration" : 30,
                          "range" : [ 14833, 30]
                        },
                        {
                          "endTime" : 15147,
                          "duration" : 30,
                          "range" : [ 15117, 30]
                        },
                        {
                          "endTime" : 15242,
                          "duration" : 30,
                          "range" : [ 15212, 30]
                        },
                        {
                          "endTime" : 15345,
                          "duration" : 30,
                          "range" : [ 15315, 30]
                        },
                        {
                          "endTime" : 19828,
                          "duration" : 30,
                          "range" : [ 19798, 30]
                        },
                        {
                          "endTime" : 20269,
                          "duration" : 30,
                          "range" : [ 20239, 30]
                        }
                      ]
                    }
                  }
                ],
                "transitions" : [
                  {
                    "name" : "Fade",
                    "duration" : 30,
                    "trivial" : false,
                    "useAudioPreRoll" : true,
                    "useVisualPreRoll" : true,
                    "rightMedia" : 21
                  },
                  {
                    "name" : "Fade",
                    "duration" : 30,
                    "trivial" : false,
                    "useAudioPreRoll" : true,
                    "useVisualPreRoll" : true,
                    "leftMedia" : 21
                  }
                ]
              },
              {
                "trackIndex" : 12,
                "medias" : [
                  {
                    "id" : 67,
                    "_type" : "StitchedMedia",
                    "minMediaStart" : 0,
                    "attributes" : {
                      "ident" : "Rec 02-15-20_009",
                      "gain" : 1.0,
                      "mixToMono" : false
                    },
                    "parameters" : {
                      "volume" : {
                        "type" : "double",
                        "keyframes" : [
                          {
                            "endTime" : 0,
                            "time" : 0,
                            "value" : 1.0,
                            "duration" : 0
                          },
                          {
                            "endTime" : 14356,
                            "time" : 14356,
                            "value" : 1.0,
                            "duration" : 0
                          },
                          {
                            "endTime" : 14357,
                            "time" : 14357,
                            "value" : 0.0,
                            "duration" : 0
                          },
                          {
                            "endTime" : 14593,
                            "time" : 14593,
                            "value" : 0.0,
                            "duration" : 0
                          },
                          {
                            "endTime" : 14608,
                            "time" : 14608,
                            "value" : 1.0,
                            "duration" : 0
                          }
                        ]
                      },
                      "cursorOpacity" : 1.0,
                      "cursorScale" : 1.0
                    },
                    "medias" : [
                        {
                          "id" : 68,
                          "_type" : "AMFile",
                          "src" : 5,
                          "trackNumber" : 1,
                          "attributes" : {
                            "ident" : "Rec 02-15-20_009",
                            "sampleRate" : 44100,
                            "bitDepth" : 16,
                            "gain" : 1.0,
                            "mixToMono" : false
                          },
                            "channelNumber" : "0,1",
                          "effects" : [

                          ],
                          "start" : 0,
                          "duration" : 2559,
                          "mediaStart" : 0,
                          "mediaDuration" : 2559,
                          "scalar" : 1,
                          "metadata" : {
                            "WinSubProjectDisplayName" : "",
                            "clipSpeedAttribute" : false
                          },
                          "animationTracks" : {

                          }
                        },
                        {
                          "id" : 69,
                          "_type" : "AMFile",
                          "src" : 5,
                          "trackNumber" : 1,
                          "attributes" : {
                            "ident" : "Rec 02-15-20_009",
                            "sampleRate" : 44100,
                            "bitDepth" : 16,
                            "gain" : 1.0,
                            "mixToMono" : false
                          },
                            "channelNumber" : "0,1",
                          "effects" : [

                          ],
                          "start" : 2559,
                          "duration" : 1679,
                          "mediaStart" : 2766,
                          "mediaDuration" : 1679,
                          "scalar" : 1,
                          "metadata" : {
                            "WinSubProjectDisplayName" : "",
                            "clipSpeedAttribute" : false
                          },
                          "animationTracks" : {

                          }
                        },
                        {
                          "id" : 70,
                          "_type" : "AMFile",
                          "src" : 5,
                          "trackNumber" : 1,
                          "attributes" : {
                            "ident" : "Rec 02-15-20_009",
                            "sampleRate" : 44100,
                            "bitDepth" : 16,
                            "gain" : 1.0,
                            "mixToMono" : false
                          },
                            "channelNumber" : "0,1",
                          "effects" : [

                          ],
                          "start" : 4238,
                          "duration" : 749,
                          "mediaStart" : 4630,
                          "mediaDuration" : 749,
                          "scalar" : 1,
                          "metadata" : {
                            "WinSubProjectDisplayName" : "",
                            "clipSpeedAttribute" : false
                          },
                          "animationTracks" : {

                          }
                        },
                        {
                          "id" : 71,
                          "_type" : "AMFile",
                          "src" : 5,
                          "trackNumber" : 1,
                          "attributes" : {
                            "ident" : "Rec 02-15-20_009",
                            "sampleRate" : 44100,
                            "bitDepth" : 16,
                            "gain" : 1.0,
                            "mixToMono" : false
                          },
                            "channelNumber" : "0,1",
                          "effects" : [

                          ],
                          "start" : 4987,
                          "duration" : 1202,
                          "mediaStart" : 5398,
                          "mediaDuration" : 1202,
                          "scalar" : 1,
                          "metadata" : {
                            "WinSubProjectDisplayName" : "",
                            "clipSpeedAttribute" : false
                          },
                          "animationTracks" : {

                          }
                        },
                        {
                          "id" : 72,
                          "_type" : "AMFile",
                          "src" : 5,
                          "trackNumber" : 1,
                          "attributes" : {
                            "ident" : "Rec 02-15-20_009",
                            "sampleRate" : 44100,
                            "bitDepth" : 16,
                            "gain" : 1.0,
                            "mixToMono" : false
                          },
                            "channelNumber" : "0,1",
                          "effects" : [

                          ],
                          "start" : 6189,
                          "duration" : 2797,
                          "mediaStart" : 6613,
                          "mediaDuration" : 2797,
                          "scalar" : 1,
                          "metadata" : {
                            "WinSubProjectDisplayName" : "",
                            "clipSpeedAttribute" : false
                          },
                          "animationTracks" : {

                          }
                        },
                        {
                          "id" : 73,
                          "_type" : "AMFile",
                          "src" : 5,
                          "trackNumber" : 1,
                          "attributes" : {
                            "ident" : "Rec 02-15-20_009",
                            "sampleRate" : 44100,
                            "bitDepth" : 16,
                            "gain" : 1.0,
                            "mixToMono" : false
                          },
                            "channelNumber" : "0,1",
                          "effects" : [

                          ],
                          "start" : 8986,
                          "duration" : 573,
                          "mediaStart" : 9456,
                          "mediaDuration" : 573,
                          "scalar" : 1,
                          "metadata" : {
                            "WinSubProjectDisplayName" : "",
                            "clipSpeedAttribute" : false
                          },
                          "animationTracks" : {

                          }
                        },
                        {
                          "id" : 74,
                          "_type" : "AMFile",
                          "src" : 5,
                          "trackNumber" : 1,
                          "attributes" : {
                            "ident" : "Rec 02-15-20_009",
                            "sampleRate" : 44100,
                            "bitDepth" : 16,
                            "gain" : 1.0,
                            "mixToMono" : false
                          },
                            "channelNumber" : "0,1",
                          "effects" : [

                          ],
                          "start" : 9559,
                          "duration" : 3170,
                          "mediaStart" : 10039,
                          "mediaDuration" : 3170,
                          "scalar" : 1,
                          "metadata" : {
                            "WinSubProjectDisplayName" : "",
                            "clipSpeedAttribute" : false
                          },
                          "animationTracks" : {

                          }
                        },
                        {
                          "id" : 75,
                          "_type" : "AMFile",
                          "src" : 5,
                          "trackNumber" : 1,
                          "attributes" : {
                            "ident" : "Rec 02-15-20_009",
                            "sampleRate" : 44100,
                            "bitDepth" : 16,
                            "gain" : 1.0,
                            "mixToMono" : false
                          },
                            "channelNumber" : "0,1",
                          "effects" : [

                          ],
                          "start" : 12729,
                          "duration" : 1879,
                          "mediaStart" : 13264,
                          "mediaDuration" : 1879,
                          "scalar" : 1,
                          "metadata" : {
                            "WinSubProjectDisplayName" : "",
                            "clipSpeedAttribute" : false
                          },
                          "animationTracks" : {

                          }
                        },
                        {
                          "id" : 76,
                          "_type" : "AMFile",
                          "src" : 5,
                          "trackNumber" : 1,
                          "attributes" : {
                            "ident" : "Rec 02-15-20_009",
                            "sampleRate" : 44100,
                            "bitDepth" : 16,
                            "gain" : 1.0,
                            "mixToMono" : false
                          },
                            "channelNumber" : "0,1",
                          "effects" : [

                          ],
                          "start" : 14608,
                          "duration" : 1980,
                          "mediaStart" : 15384,
                          "mediaDuration" : 1980,
                          "scalar" : 1,
                          "metadata" : {
                            "WinSubProjectDisplayName" : "",
                            "clipSpeedAttribute" : false
                          },
                          "animationTracks" : {

                          }
                        },
                        {
                          "id" : 77,
                          "_type" : "AMFile",
                          "src" : 5,
                          "trackNumber" : 1,
                          "attributes" : {
                            "ident" : "Rec 02-15-20_009",
                            "sampleRate" : 44100,
                            "bitDepth" : 16,
                            "gain" : 1.0,
                            "mixToMono" : false
                          },
                            "channelNumber" : "0,1",
                          "effects" : [

                          ],
                          "start" : 16588,
                          "duration" : 1494,
                          "mediaStart" : 17547,
                          "mediaDuration" : 1494,
                          "scalar" : 1,
                          "metadata" : {
                            "WinSubProjectDisplayName" : "",
                            "clipSpeedAttribute" : false
                          },
                          "animationTracks" : {

                          }
                        },
                        {
                          "id" : 78,
                          "_type" : "AMFile",
                          "src" : 5,
                          "trackNumber" : 1,
                          "attributes" : {
                            "ident" : "Rec 02-15-20_009",
                            "sampleRate" : 44100,
                            "bitDepth" : 16,
                            "gain" : 1.0,
                            "mixToMono" : false
                          },
                            "channelNumber" : "0,1",
                          "effects" : [

                          ],
                          "start" : 18082,
                          "duration" : 5700,
                          "mediaStart" : 21640,
                          "mediaDuration" : 5700,
                          "scalar" : 1,
                          "metadata" : {
                            "WinSubProjectDisplayName" : "",
                            "clipSpeedAttribute" : false
                          },
                          "animationTracks" : {

                          }
                        },
                        {
                          "id" : 79,
                          "_type" : "AMFile",
                          "src" : 5,
                          "trackNumber" : 1,
                          "attributes" : {
                            "ident" : "Rec 02-15-20_009",
                            "sampleRate" : 44100,
                            "bitDepth" : 16,
                            "gain" : 1.0,
                            "mixToMono" : false
                          },
                            "channelNumber" : "0,1",
                          "effects" : [

                          ],
                          "start" : 23782,
                          "duration" : 1,
                          "mediaStart" : 27348,
                          "mediaDuration" : 1,
                          "scalar" : 1,
                          "metadata" : {
                            "WinSubProjectDisplayName" : "",
                            "clipSpeedAttribute" : false
                          },
                          "animationTracks" : {

                          }
                        },
                        {
                          "id" : 80,
                          "_type" : "AMFile",
                          "src" : 5,
                          "trackNumber" : 1,
                          "attributes" : {
                            "ident" : "Rec 02-15-20_009",
                            "sampleRate" : 44100,
                            "bitDepth" : 16,
                            "gain" : 1.0,
                            "mixToMono" : false
                          },
                            "channelNumber" : "0,1",
                          "effects" : [

                          ],
                          "start" : 23783,
                          "duration" : 2760,
                          "mediaStart" : 27632,
                          "mediaDuration" : 2760,
                          "scalar" : 1,
                          "metadata" : {
                            "WinSubProjectDisplayName" : "",
                            "clipSpeedAttribute" : false
                          },
                          "animationTracks" : {

                          }
                        },
                        {
                          "id" : 81,
                          "_type" : "AMFile",
                          "src" : 5,
                          "trackNumber" : 1,
                          "attributes" : {
                            "ident" : "Rec 02-15-20_009",
                            "sampleRate" : 44100,
                            "bitDepth" : 16,
                            "gain" : 1.0,
                            "mixToMono" : false
                          },
                            "channelNumber" : "0,1",
                          "effects" : [

                          ],
                          "start" : 26543,
                          "duration" : 499,
                          "mediaStart" : 30488,
                          "mediaDuration" : 499,
                          "scalar" : 1,
                          "metadata" : {
                            "WinSubProjectDisplayName" : "",
                            "clipSpeedAttribute" : false
                          },
                          "animationTracks" : {

                          }
                        },
                        {
                          "id" : 82,
                          "_type" : "AMFile",
                          "src" : 5,
                          "trackNumber" : 1,
                          "attributes" : {
                            "ident" : "Rec 02-15-20_009",
                            "sampleRate" : 44100,
                            "bitDepth" : 16,
                            "gain" : 1.0,
                            "mixToMono" : false
                          },
                            "channelNumber" : "0,1",
                          "effects" : [

                          ],
                          "start" : 27042,
                          "duration" : 385,
                          "mediaStart" : 31326,
                          "mediaDuration" : 385,
                          "scalar" : 1,
                          "metadata" : {
                            "WinSubProjectDisplayName" : "",
                            "clipSpeedAttribute" : false
                          },
                          "animationTracks" : {

                          }
                        }
                    ],
                    "effects" : [
                        {
                          "effectName" : "NoiseReduction",
                          "category" : "categoryAudioEffects",
                          "parameters" : {
                            "denoiserAmount" : 8.0,
                            "denoiserThreshold" : 0.0,
                            "noiseProfile" : "OwibQCNtt0AA45FAfw3XQK5750GNHLdD4w6eRFwbiUIcoohCSRtOQm3D20PwqKtEHyegQ3h7O0Ku\r\n/k9CsCQnQcQcIUKLFwFDtmLtQiSXOUJsoudBdqMhQbpHe0HHC8NA9LOMQDtdl0ArI8BAgMMfP3Oi\r\n+D+srXI+xTZuP451jD5a5bc+jaMtP5KVUkDwLU4/WXOEP3ExVz72agM/R6dwPjGSnT8Qn9k+huwF\r\nPwvt1j3r2SQ++gI8P2J3Aj5c18E9DNCIPdHYrz3GZp494Wz7PVNDJD2ouLo99uIvPeBIpj387aA9\r\nBdFYPulBtj0VYuM98H9JPW4UCz6ArEc+DTQlPf9HLD584ZU9W7uCPq5XCj9ws7NAqkQ8Pm5Knj5+\r\nCfg+PlQSPzTrnD/LDqE++POGPhceDT5fnLU+jrBQP1jR3z5+DgE/ykv2PpRF2z8KwZE/TNNnP4oy\r\nqD5lyy1AcJaZPyCdcz+XLN89FGqePYwQKj9mwTo+Gfu1P9amjz/Nf4NAehkAQFRLjECMM49AByXZ\r\nPn4Oej+dugpAWNywP0zLoz2Lges+04SMPgSIFT4V6RQ+au+fPnKTFD4CvpA/CcGHPyRobD77fB0+\r\niqyPPupDKT9T+kY+4negPhY6Rz4SIgw+gfGFP8cDMT62HrU/o5IrQLgxREBu2vY/bFo3P6nqwj+z\r\nUOw+GvbeP97OPD8OEeI/wnl0PwSTcz/KvyI+RM1hPWwprD3A/sA96AtNP4ivyj00+0c+yL2jPNhF\r\nRD3FpVE9OPPyPD0DpT0aeTI94PIQPfPHZT0Zwkw9b6/aPLqrAT3Jy9A8mbLPPEyY0TzFs2Q8Fr73\r\nPfW5tzzIxRE9w9IDPVmKDD4wwwI+7RCqPTDg0T3KX6E8RFKDPFuuDjzcjj88gtaCOzh6kDuczt47\r\n1hGNPJZ00zsGRAQ8SNAqPPOtEzx8LJ87KxAFPPLugTzZW6g7hGH0O/p4lDsvlMs7/8ezO5t/rDvV\r\nG2A8klnjPN63QDxpJGI9d9JzO4sCFT0cOQU+59kcPRiKrTxx8L886MzJPJltFD3mMRg8680vPL4O\r\ndDyBVY88OEskPHPBCjyKg4w7k3ftO59BTTs0tHE7EQNeO0M2VjsDKx87EQrbO8iqvTvHOR082jGs\r\nOwJP4Dv9KiQ8Z+0QPMvVvjt2QdY7nojjPDmGSTzhmQY+1qvFPbqNGj+0PAQ/TGDFPld70D4u1Uk/\r\nlA7/Pw4TKj8FPjA+kCSoPon61D3mSq8+82kiPkhNhj6O9EU/uVlRPGRfBz6oGyM+HAqqPdio+T3b\r\n6ZI9f/jsPec4AD32aUw9dXPLO0Np0zuxP9Y8QnrUPAB7ZD04zFY9LwyVPPUhwT1K2LE9f/XNPe1/\r\nsz3QhUo9f4+VPFrb8DwSmYo8JMdQPWCFDz0R5bU7gPQQPVGh6TzSPXQ8x+w1PBfanjzl3Bg8LJ0W\r\nPes0RjyQQuM7BK+aPAmAujxKQa87P9tbO7DyHTxmgx07QRHEPETJkzw9gIQ86v1lPKSKIz03tJ89\r\nCoKbPjss0D3K3EU9b0Z+PRUBUz7dvjg+wBkgPLCIIzz7brk95mRCPerQpT27p4o9LuCyPS1eDjxA\r\ni5w9eRuFPeNqLT3sa7o9GHVLPqJspT5qhx8+vnoXPNjhujzmHPw9ShEOP4k3Wz71ihw+FH9dPYz9\r\n9jz0OBA+Au6uPkx/Vz7i/CE9obyDPCr+DjzSsy89Gc7EPUYK2D2daMI8uKQYPHoELDxiii49hO9N\r\nPVZnjjzKmYQ7cIPbPLfdnjuUXio8Zn2SO5pzRDyGUX88ypmrPa4QAzyQkoU8XSl5PLUsrTuET+A8\r\ngARQPXfmxzv0idQ7/sSFPMGAkTw0aUs+saUDPvkauz0KEuc96rBKPqybtT1gOYs+Ml9KPg6jID4d\r\nnmE8k91ePbS6jD3UuZo+zWGEPj5CYT0sKx09VvKMPTzOTz8/zxQ/FfFNPjJviT2+ZPs8SmYJPmGi\r\nmT7dRiY+FGVGPfOpdDzF3Bw9YM8UPaSJ7Tzetac82S7/O0b/nDzcsmY8yWi7PPIUwDyiZ+E8F+6Q\r\nPHNxHTxaHds8uUTrPA11xzy5PNI7j1x+PJw7ojxknR88t8X2O/qiOzwZ9jk7bW1nPY8l9D3DdvI8\r\n6k2vPDMD3jtRW8Y8tuLrPMtZMD0IpxA9Q0usPRjgEj02j4I8qbBNPXCVNj0vU5488k8aPa7l/TvA\r\nuDs83wOLPNA3nzwo66M9SsIDPUp2gzy8dbs8zZFZPW6/rDzl6LU9BmC6PMjCQj19Nto7UKbHPTbw\r\n5jxdrw08qolNPR4yQz3edeY8D6+gO19/ez0y4L08KGJrPUcfQT1iAHo8z00cPN2tjjyjJUU801h7\r\nPCTIKDw77GE7y44LO/AdGTyNkUw8NrnzPJB1DTxvyVY7LfVzPFhA+Dzr/gs9Uie6O6RTqDuGDgM9\r\nFyWhPP2xOzwVn6U8YQgGPLOkCDy+JYE8cRAYPJcOXTt022g7swqDO1cJWjsXRQk76ygEPIzyXDzi\r\nGNo77pmhOqL6djurrPo7phPgO+gQCTs053s7lQS0O0Btujv5wgg7dFIvO+fkLTugzVo7/7jKOrCC\r\n/ToY2yw7uPfcO/GmcTtfaAg7RjdGO3gaDzvtWDQ6/rKOOqzIeDtQ/GI7u9KAOsudgDpFpJo71rVH\r\nO4qrPDttLQY7pkVSO6Th9jpa7Qg7tdX+O1vJczwemnI8HMffO1mBhjtMGUU832uFPLiSODyQfhI7\r\nZywrPLf8njylkBE9dplePM7lqzuyrp87Aq5DO7z7RTqJLmM8AaY9PDry6Tp7pMM6cNrUO1Ovojti\r\nnF47JmIuPEoqOTyTJE48hK2iO4eqhDsqONc7+Y1OPDBdMDu7yYc7xACOOgkiVDuqk5Y7aDACO+Kq\r\nkjq4HHg7hqKnO94D4jp7y9k7agwePPPjgjuKcN06gFxBPBWFpDuw/jE7776TO9Y+ejtu5BI7Zbvn\r\nOzYyxTvWHM86rZwLOggRJjvM7zc70JfbOmbB5Doj2tE6Mxg4OxCKtDoO5306JmmJOnW53Dp0J8s6\r\nk6SVO3hrVDz9egM8y9RiPNb1nDz14bk8zuG+PFFv3zyleY88EAPUO15yhDvq4XE8JtjBPG2qCjyV\r\nUgw8ePgqPG/zlzsKVMU7F3fyO85mJDs2ojk7Zu4UPPjN0DtQUHU7zsh5O5mFpDqShEY7ppEGOz9Y\r\n+TrjZaM6D1gFO4w8CjukkZU6W7QiOr7HGzsVr9067vXKOtHIszk/iAA7XYgHO8O73Tq3EY06vtQ3\r\nO+biADtJiF47Wt6IOl8bfDvAI7U7aQ9gO4eQjjrQ/YY6shr8OhzzBjxJzIw7z5bvOj/K4DrDQbs6\r\nYgGFO7sdATvddp86dYtpOyYQsjsIm7A6eS4yPLcVnztYnKs7uLTvO9YWOzug87o6Z1duOzCWWTsM\r\nnMM7osmCOiZsHjvG24Y71EBbO11M0DrWkHc65eNhOvpZvTqPP9I6FaZRO4celDvmOhE7pMXWOrRr\r\n1To5Za87g6oAPIVmLDtysRk7Bv5NOszCOjsBBCk7YhdNO7LDZjvX1Po6KzyKOuLtoDrOHDs7HI9C\r\nO93i7jp6zjM6swvFOqIM3DqbqWI68F7COk5v5TrnqJc6RgF/O1+erjqlRC87rvf1OsyJJjqFmII6\r\nt9VbO5BoODu7gHI6XYr+Od10DzsuHhg7yqAOOkowXTtYLEI7ZCJ0O2qcwjoL57c6XaLoOuygOTvL\r\n8fo6rQQsOta8zDqt1zw7EYPxOkX9BzteXfk6QLmaOrxWgTqcvM06o6XiOpmuBDqsWwk6XDAEOp2H\r\nHTsLh4k7JKj/Oh57/DqN7Iw6OnaQOmOUmjuOMoI61of/OdPh2Dogawo7qHkGOmSIJzt9iAY6zHfx\r\nOWG1dTp85d86t4sEOlcAJTvbpYk61F9vOrz+kjokEsg6BqcFOqs3wjrcazk7qI2tOhyAAjp2YjM6\r\n/8gyOsbzgTrjacA6fhMDOyAWDTsZ9LE6QIAuOue2+jk6QjE6mS2SOkfreDqKsgE6cBz8OTLMSTpT\r\nGwI6YqL9OahUXjohAQM6EV/mOgV7pjrCN/w5cy4UOuvkhzosjgY67RHwOTb+GTohxPg5MNzvOZb0\r\n8zmtVRc6gZmkOvs4RjrkY5g6M/QaOoLo6jmCAe05VcCROtre7jlySPA5gyIIOtvI9jmgNe05HJAP\r\nOhLg8jk+Xe45XMY7On8LBjq6gAY6YITzOZxz8zlUI+05OIvoOcY0kTq6o+g5C6jwOTUH5jl2+uI5\r\nw6D5OTePVTouZYE6q2I7Oiif5zm7C+05iOTqOdnc5zm5vuQ5rtPmOUsx5zmmG+05AsbhOQWI6TmS\r\nZuo5tankOZd/6TkSft45zFrhORRi6Tmy2es5G/NMOv49ZDrILfw5J7/pORZQ4DmeLxM6xmMqOh8M\r\n4TkCOeg5aq7uOSmv5TnJBfA5cNvkORm33zk+E+s56qYEOpZa2TlcruM5vuztObyK1jn6M/w5m9yF\r\nOmJPLDpFkdc5d+8IOhe64Dljjuo5KjEbO4EKyjoB+d85nAMjOpKr2jmohOQ5dH/ZOQFIHzp6C945\r\n0DuXOoqb3Tkvteo54LrjOcKhBTpAMh46CQYiOh51EToGiPk5qozdOXka2Dkz4Nw5cJPiOfJJ1zkG\r\nN+c5uKTVOaOK2TmUWt05SA/gOchp5DkVLS06zoEuOtjtYDpgito5ZHXROcLL3znjpNw5ijjhOZsg\r\n3jkl7wk6YvjROUPM2DlR49Y5mNBnOtgZszrNH9Q5xMPmORJE9jkm6tQ5M7jWOccK1jlrR9Q50rre\r\nOXW23DlMeNs5g73eOUFl0TlfC9w5SfPUOaO/yTkcgdI5/eDQOad74Tn6+tU5oP/TOesZ3znW3d85\r\njUvdOa/Z0TmCGdw541fYOR/lyjnj0tM5pJ/dOS0d3DkEn9E5Vl/bObT63Dn3fco5WhPVOcDL0Dm+\r\nhNI5iB7POXK52TnzFdI5QDvNOVABwDmpCuA5zoPPOZmO0DlL0dk5UvLJOQ1P1DnKrNI5Yh3XOfTb\r\n0Tnro9E5pHHOOVRByjkIkNU5rF3cOReXzjkck9M5Xt3SOf4M0jn6NNA56DndOStr1DmiS9Q5G6TO\r\nOW0izjlE3ss5/rnYOX33zTmV0dA5WEDYOSrN0jl3RdQ50+DYOTzT1jnPLd05DHvFOU651zkpmdA5\r\nornLOdSUyzkkq9E5K+LGOUks1Tkgzck5T1fIOan3xTlodNg5uwXOOeiS1zlZ/sk5j+nROQQc1Tk+\r\njM45bavJOTtr0Dm+S805iFfOOV1dzTmHFtI5xPnROcJyvjmCcNI5XfzQOUWd0TlXaNU51BfTOUjX\r\nzDmPOdA5OMbSORcbwDkhTN4588LTOR2FyjldytE5BOTSOeW4zTnTVs4508LOOYIO0znlaMs5+m3O\r\nOYXt0zlAT805miTaOcPryjlgEds5xCvUOeKdzjlRwsY5uw7JOXH3yjmvL885wRLROSB80TkHBptA\r\n/pW3QDTbkUBcHtdA44HnQasdt0NwD55EbxeJQgmiiEIwIE5CmMPbQyCoq0SCQqBD8r07Qr5XUEJi\r\n6SdB0J8gQpoVAUPiXe1C1Js5QihC50HbpSFBWcl7QaYUw0A7uIxALzyWQAUQwEA7kyM/l374PzVK\r\ncj7X8G0/3X2MPpjqtz54ri0/UnRSQMLqSz/gyIU/HsNWPoQMAj+yUXE+BqydP9bs2T7bXgU/Jh3a\r\nPeQ5JT7aCjw/FmEDPoWawj1f+4g9wsmvPaM4nj1yUPs9Hr8jPaMquz2zgjE9ysimPajloD3ynVg+\r\n+qu2PbJv4z1VRkk9q/cKPmRkRz4aeSU9giosPpUklj04vYI+n3IKP0Cws0DJMzw+TZKePjDj9z4U\r\nlxI/TgKdP6pMoT5mmIY+5EkNPjJ+tD4AN1E/KKnfPhWXAT+tHvY+SzHbPxzqkD8C0Gc/mDGoPtdT\r\nL0Avp5k/EKx1P2Qg3j1Foag9E+8rPz/IPT6VrLg/QpePP9AjhECtbgFA1aWNQI5+kEDo5N8+NPF+\r\nP7sxDEBngrE/mFujPY3G8T4KjZA+sJUVPuHuGz50IaQ+zGUTPmTpkj9XFYo/SwZiPhkUJT5F8ZE+\r\n5rgtPzVORj6wKaY+Lg9HPsD5Az5X9oU/bs4wPlqXtD+rWStA3ZdGQCWh+j+LJzw/1mTGP9pq9D6H\r\npeI/bII/P0gI4j/pGXI/rBZ4PxUTIz7kkWA9EqO1PdIUuz3qEE0/M3fKPedSRz68OaU8snVHPdWg\r\nWj3M4f48/G2oPXyRNz0+/xU9TVZiPWZRSj1lDtk8J4QEPTM/0zztWdA8ioTSPItrZTwuyPs9mCm+\r\nPJHSFT2AOAY9X2AOPi4KBD6/dKo9xhvUPSlaoDzd14I8dh4PPMn6PjxmrYU7cJORO/qp3Ds5gY08\r\nySfXOyvcBTx0sSw8LkcVPPUVnjvj1wU8QFiCPIA4qTsiq/g7YZSQO1QJzTvYfbg7FBSsO4iGXzxz\r\nEOI8aDo+PKuHYj1zpHk79GoVPas+BT5gMR09HeKsPDsSvzzNsck8CpoTPUYrFzy5Ti48oEh0PBsY\r\njzy2RSQ88rYKPJSwiDuGKe87ezBNO4ktbTtns2E7NspSO2AbIztAY+Q7l3PBO3jLGjxUEao7fqng\r\nO1v6IzzLmhA8eKe9OwW20jsCneI8xlNLPNWVBj5eG8Q9ekgaPzquAz8IEsU+c9vPPvzuST+YRP8/\r\n3wsqPx/4MD7KYKg+kVXVPQTJrj4VEiI+plaFPsYrRz9ILlM8am4HPpPfIj4Fbqw9Ch/9Pa87lD3N\r\nAO49vUj6PEYITD3zOsY7bhTbO0Ba2zy6YdU8HuJkPWK0Vj1t2pU8sf3BPSxksT0G+M09Hw20PU6l\r\nSj1jcpY8aDrxPNkTizz1blA9EVQPPYBmtTvKERE9u2fqPKxIczxPxDY8V7CfPBdSGTzp6BY94qpG\r\nPPam4jsdiJo8Rt24PDLkqDuE1Vo7YL0cPGvXHju4OsY8rkKUPGXyhDzO2mU8ThYkPYFeoD18Ips+\r\nFczPPUOwRT1GT3s9HDhTPiemOj7YqRk8goEiPEKNuz1fzkM9Kq+lPeZYjT0uPrA9gtAMPLRpnz1E\r\nQ4g9ba0sPUe9uj36HUo+yK6lPkQ3Hz4v6BQ8HIa5PJhO/j1+TA4/fmpZPoGOHD6PkGE9dJb2PKfW\r\nDj7LDrA+OvpWPqFzIj1M14U8rBsSPFf0Lz2oXMU9cJ/YPaBVwjwK5xk87gUsPBQbLj0ATUw98CuQ\r\nPH5zhDsrEN08tYmdO8GrLDxvnIw7yhJDPPmnfTy5bas93fcAPAGbhzzSSH0875irO04n3jxkEFE9\r\nQpLFO0YUzzt46Yg853KSPJ+rSz59mgM+2gu9PY0R5j3azko+jIKzPV8Viz7WT0g+kc0hPkzsYTxm\r\n7l49OWCMPSDSmj4dPYQ+8K9hPWibHz0lC449PLFPPzd/FD+rA04+UQSKPf7K/jzsbQk+ho6ZPjd1\r\nJT5chkY90410PA/5HT2lqRQ94qzvPIbipjxXrAA84KKcPO3taTz9/7o8Zt/APNKP4DwyhpA88LEc\r\nPGc72zyr0uo8yvHGPLwpzzvOEoE8QqCiPO9UHTxsJvQ7yvA7PLlIODuEqGY9tXn0Pemr8TxkNLA8\r\nua7fO6urxzy4a+48V+kuPSk4ED1aoqw9cmETPacwgTwgtk09ZGc5PQRvnTyW5Ro9tHn8O0pQPDyx\r\nHIs8SUqgPLrAoz1fuAE93PiGPBosvjxGklk9GNqsPNtatT13eLs8EGVDPbUW2Tvmjsc9mH7iPFeL\r\nDDzdRU493HZDPbxg5Tw+epk7tex8Pev4wDx8mGw9LbNBPdLifDy8Whw8/KGQPEkeRTzc6ng85PUo\r\nPGTVYDtMUwo7R6QZPBIcSjxK7fE8gloNPJrGVzvxLHY8TIj2POMWDD19Rro7J6moO9W/Aj3+xaE8\r\nTiQ+PGFEpTxRhQY8chcJPJgNgTx6qhc8KpFfOxJUYzs2+4M7l5JbOwakCzuZzwY8B2JZPMj13TsM\r\nyKY6kDBzO+xk/Dvy4eA778kKO5DBejsuEbc7mCK8O6hfBjuURi87AL4rOyKiXTsnvsc6ohYBO0Ux\r\nKjsMyts7kOVyOyPaBTsjc0Y7/dgOO/TrNDpAA4w6zlx5O6R4ZDuGaX86jeCAOlJHnDuH8Ug7oRQ5\r\nO04JBjtrpFA7grP1Ojo9CDtOAf87hmhyPEJ7cjzW4987b/uGOwJvRTydiYU83fA4PNChETuuFyw8\r\nqgqfPIf/ET31hV08vGerOwHPnzs2jkM7Kck/Oir1YjysBj08WFnoOnBlwjp9mtI7NiiiO3oOXzsb\r\nCy48ciM4PGLzTjwzYKA7YeCBO4kA1TvcBU88Q6wtOyjEhzuyTZE69QJWO9x+ljuj+P86aJWUOqxE\r\ndzsuaKc7cj3fOgnx1ztA4x48ESyFO+7U5jp7a0A8NPqlO1r0LztXapM7+BN/O219Ezvq1OY7A8PD\r\nOxpnyzq8wQ06DfMiO+NrNTt6O+E6YqzmOvlj0jogXjg7BAC5OvxGgTrBH4s69cLeOqiwyTrvWZQ7\r\niiJTPEXgAjwrZ2I8ruybPD4yuTxgQ78827TePGeXjjz8UdI7ieqBOyz7cDzS+ME8+kIKPJnhCzwI\r\n6io8zMCYO2kUxjvgO/M7X3coO76fOTvJ8RI8objNO1kRdDss2nc7VguoOlkQRDtzbwY7yP/9OkDj\r\nozq2UwU7IQUOOxCKmjoltxw65ykaOzyp4TpY58g6v/yxOdHg/zqfcws7snLbOlMmjzoKazc7IdIB\r\nO9/OYTsXJYY6UAh9O0PHtDvs+mA7lCiOOj78iTpcK/06PwYHPATTjjtDtvI6A4/hOiZzuDp2xYU7\r\nIrYBO5gkojp0C2k7ioWyO5ybrzrLHDI8sCubO95qrDt0WfA7hKc7O2TUtzqHwW474xhbO+gLxjv+\r\nwYc6nPsfOzhKhjsWI1k72HPJOjlKejqfwF86Wi3AOszz0jpx9VE7m9qTO3KyDzuSP9U6AMHTOkiZ\r\nrzvGEAE8PzMrO6abGDtF8k86yZU9O8v8KTtnNks7w9VlO5Ot+zotVYo6fAifOiNTPDtdjkQ7t5Dy\r\nOsz4LzrplsY6DuzaOoS4YzpRxsI6y9jlOuFFlTrgMn87RYywOiw9Lzv9QvQ6vpEpOiEIgjp1fVw7\r\nZi44O2umczrr4/s5J/QPO1HGGDsCZA468idfO1zeQjukRnM7uKq/On5atjrUs+c6u1s3O/2U/jpB\r\nqCs6z9nPOqkOPTuKf/A60y0KO/Wu+zqMuJw6Rl6BOvzb0TrcF+E6ETgHOoYXCDru6AM6cscgOy4W\r\niTta2/06eD39OoEUijor+4s6jK+aO4ZngjqLHQc6R9PYOj0BCzuyGQI6gLElOwKuADr2awA6WsBs\r\nOuqH4DocDQY6RUwmO2kUjjrH+nM6uAWTOvNhyDruSPM5wEfAOguUNzvFRa46ZxD6OR1MNDqOaDY6\r\nPE2AOsTnvjpNRQM7z0gMO30wrzqocS06/YoCOgdVMjrKMpI68qR2OiMUADqo3vw5695KOgh+ADra\r\n9Pc523NcOvznATqhIO46S6qoOuzj9TnZ5Qs6cbuIOgT5CDpmUf45YI4ROnPW/zmGyO85nPTxOeAP\r\nFjoGf6k63tJHOuKFkjqxciA6dI3vOeZqAjr5iY86+snzOX3p9TlGzAo6Y+L2OYcX7jn0ShI6dMLz\r\nOSaA8TnrLTk6QlMFOlp+CTrVZ+Y5hOjqOYoZ5Dmjqu85knCNOtej4Dn83+45hRzmOQnS5zkslPA5\r\n0HxYOm/YgDqiKzo6ib7qOS+D8TkqD+w51Bn6OdEt4zkb7+05ULjoOeMk6zl5Puk516HtOZbn9zk8\r\navA5/6LvOWbM5jkRx+A5pP7kOQrl5TnetE06YZBnOrXF9zmcAuM5Kg/tOVhQDjro4CI6qQnpOU3h\r\n4TmIad85GQ7pOe999TnXfe05AzHiOZTZ3jkWiAQ6xyPkOa3Y4jkq7uM5VgrbOeceBTrhHIo6Yows\r\nOqM93jlESAw69pjYOdk17znIlhg7BcrDOlqK2TnguR46+3vkOcQ85Tkp6Nw5O9QdOt1L3Tl9o5Q6\r\nFYrbOZw4zznfd+I5gpwHOlpXHjpuuCE6omIROvDn9TkvnuY50arYOVft3jm1DuA5zNPcOXFn3zmM\r\nt985hOjgOfyh2Dn0Luc5mrPbOddcMTqoniw69XRlOiVM4Tl3SuE5pNfXOaST4zmqJNU5BV3iObvH\r\nCjpeZuM5u2fVOWMU2TkzrWw6Xg2xOpSq4Dl6oeA5L3/yOYV31zkKxdM5IlTdOf280Tk4e9I5mTrb\r\nOTQn2Tn6Edc5QyLVOUHD1znOpNg5nDvgORT12jkvz905LYjSOXYF1DnKtuI5aOrZOVxj4jkRruE5\r\nh2raObBV1jm/gdE5+RzQORby1TmDSs45snDPOdbc0jm7lc850N7ZOZmI2DlXzN059IjLOd8X2Dm8\r\nltM5NCnROSbs2jlmitk5k3LPOUD6zjmZU9M5kp3KOcFhyTm55dA5AZPJObU70jloPdM5pNLNOURH\r\n1znbwc054uTYOaR20znwAdg58AfXOUY30Tnm/to5BpnROZli1Dl7uMo5mtnZOfMQ1jnsPs85lCrK\r\nOXdK2jkIx845Op7VOYjiyDlkqtU5vgjbOVBA0TnECdk5O07WOb0g2Tnc6c45NBPTOcxgzjm0rM85\r\n9ZvROePg1DnD6tI55ZHROaEg0DncUNQ5bY3POSSlzjkBBNM5KbLTOfGI1jlgUNA5b6TWOUPkwzkg\r\nA9Q5laDUOaRk1Dmzxs45LJPUOXjTyjkibs05U5HPOdeT0zmOfdg5H83bOb2v1DnOstY5d5fQOR/b\r\nzDn/Bc85aBbROatG0Tl5y9I5L0fLOWEL1zmSD9E5yMLROd3c1jnZu8o5F8jROYhf0Dke2cg5TebV\r\nOZvv1zn8sMc5iq3OOZFSzjkyx9E5P7DSObVOzjmPTM05fkDWObSP1DkPtdo5IOPEOQ==",
                            "noiseTrainingType" : "default"
                          }
                        }
                    ],
                    "start" : 0,
                    "duration" : 27427,
                    "mediaStart" : 0,
                    "mediaDuration" : 27427,
                    "scalar" : 1,
                    "metadata" : {
                      "WinSubProjectDisplayName" : "",
                      "clipSpeedAttribute" : false
                    },
                    "animationTracks" : {

                    }
                  }
                ]
              },
              {
                "trackIndex" : 13,
                "medias" : [
                  {
                    "id" : 83,
                    "_type" : "IMFile",
                    "src" : 6,
                    "trackNumber" : 0,
                    "trimStartSum" : 0,
                    "attributes" : {
                      "ident" : "Slide1"
                    },
                    "effects" : [

                    ],
                    "start" : 120,
                    "duration" : 999,
                    "mediaStart" : 0,
                    "mediaDuration" : 1,
                    "scalar" : 1,
                    "metadata" : {
                      "WinSubProjectDisplayName" : "",
                      "clipSpeedAttribute" : false
                    },
                    "animationTracks" : {

                    }
                  }
                ],
                "transitions" : [
                  {
                    "name" : "Fade",
                    "duration" : 30,
                    "trivial" : false,
                    "useAudioPreRoll" : true,
                    "useVisualPreRoll" : true,
                    "rightMedia" : 83
                  },
                  {
                    "name" : "Fade",
                    "duration" : 30,
                    "trivial" : false,
                    "useAudioPreRoll" : true,
                    "useVisualPreRoll" : true,
                    "leftMedia" : 83
                  }
                ]
              },
              {
                "trackIndex" : 14,
                "medias" : [
                ]
              },
              {
                "trackIndex" : 15,
                "medias" : [
                ]
              },
              {
                "trackIndex" : 16,
                "medias" : [
                ]
              }
            ]
          }
        }
      ]
    },
    "trackAttributes" : [
      {
        "ident" : "",
        "audioMuted" : false,
        "videoHidden" : false,
        "magnetic" : false,
        "metadata" : {
          "IsLocked" : "False",
          "WinTrackHeight" : "108.923076923077",
          "trackHeight" : "86"
        }
      },
      {
        "ident" : "",
        "audioMuted" : false,
        "videoHidden" : false,
        "magnetic" : false,
        "metadata" : {
          "IsLocked" : "False",
          "WinTrackHeight" : "108.923076923077",
          "trackHeight" : "40"
        }
      },
      {
        "ident" : "",
        "audioMuted" : false,
        "videoHidden" : false,
        "magnetic" : false,
        "metadata" : {
          "IsLocked" : "False",
          "WinTrackHeight" : "108.923076923077",
          "trackHeight" : "40"
        }
      },
      {
        "ident" : "",
        "audioMuted" : false,
        "videoHidden" : false,
        "magnetic" : false,
        "metadata" : {
          "IsLocked" : "False",
          "WinTrackHeight" : "108.923076923077",
          "trackHeight" : "102"
        }
      },
      {
        "ident" : "",
        "audioMuted" : false,
        "videoHidden" : false,
        "magnetic" : false,
        "metadata" : {
          "IsLocked" : "False",
          "WinTrackHeight" : "108.923076923077",
          "trackHeight" : "150"
        }
      },
      {
        "ident" : "",
        "audioMuted" : false,
        "videoHidden" : false,
        "magnetic" : false,
        "metadata" : {
          "IsLocked" : "False",
          "WinTrackHeight" : "108.923076923077",
          "trackHeight" : "150"
        }
      },
      {
        "ident" : "",
        "audioMuted" : false,
        "videoHidden" : false,
        "magnetic" : false,
        "metadata" : {
          "IsLocked" : "False",
          "WinTrackHeight" : "108.923076923077",
          "trackHeight" : "102"
        }
      },
      {
        "ident" : "",
        "audioMuted" : false,
        "videoHidden" : false,
        "magnetic" : false,
        "metadata" : {
          "IsLocked" : "False",
          "WinTrackHeight" : "108.923076923077",
          "trackHeight" : "54"
        }
      },
      {
        "ident" : "",
        "audioMuted" : false,
        "videoHidden" : false,
        "magnetic" : false,
        "metadata" : {
          "IsLocked" : "False",
          "WinTrackHeight" : "108.923076923077",
          "trackHeight" : "86"
        }
      },
      {
        "ident" : "",
        "audioMuted" : false,
        "videoHidden" : false,
        "magnetic" : false,
        "metadata" : {
          "IsLocked" : "False",
          "WinTrackHeight" : "108.923076923077",
          "trackHeight" : "86"
        }
      },
      {
        "ident" : "",
        "audioMuted" : false,
        "videoHidden" : false,
        "magnetic" : false,
        "metadata" : {
          "IsLocked" : "False",
          "WinTrackHeight" : "108.923076923077"
        }
      },
      {
        "ident" : "",
        "audioMuted" : false,
        "videoHidden" : false,
        "magnetic" : false,
        "metadata" : {
          "IsLocked" : "False",
          "WinTrackHeight" : "108.923076923077"
        }
      },
      {
        "ident" : "",
        "audioMuted" : false,
        "videoHidden" : false,
        "magnetic" : false,
        "metadata" : {
          "IsLocked" : "False",
          "WinTrackHeight" : "108.923076923077"
        }
      },
      {
        "ident" : "",
        "audioMuted" : false,
        "videoHidden" : false,
        "magnetic" : false,
        "metadata" : {
          "IsLocked" : "False",
          "WinTrackHeight" : "108.923076923077"
        }
      },
      {
        "ident" : "",
        "audioMuted" : false,
        "videoHidden" : false,
        "magnetic" : false,
        "metadata" : {
          "IsLocked" : "False",
          "WinTrackHeight" : "108.923076923077"
        }
      },
      {
        "ident" : "",
        "audioMuted" : false,
        "videoHidden" : false,
        "magnetic" : false,
        "metadata" : {
          "IsLocked" : "False",
          "WinTrackHeight" : "108.923076923077"
        }
      },
      {
        "ident" : "",
        "audioMuted" : false,
        "videoHidden" : false,
        "magnetic" : false,
        "metadata" : {
          "IsLocked" : "False",
          "WinTrackHeight" : "108.923076923077"
        }
      }
    ],
    "captionAttributes" : {
      "enabled" : true,
      "fontName" : "Arial",
      "fontSize" : 32,
      "backgroundColor" : [ 0, 0, 0, 127],
      "foregroundColor" : [ 255, 255, 255, 255],
      "lang" : "en",
      "alignment" : 0,
      "defaultFontSize" : true,
      "opacity" : 0.5,
      "backgroundEnabled" : true,
      "backgroundOnlyAroundText" : true
    },
    "backgroundColor" : [ 0, 0, 0, 255]
  },
  "metadata" : {
    "AutoSaveFile" : "",
    "CanvasZoom" : 75,
    "Date" : "2020-01-27 11:33:13 PM",
    "Fit" : 0,
    "IsAutoSave" : "0",
    "Language" : "ENU",
    "ProfileName" : "MP4 only (up to 720p)",
    "ProjectDimensionsChanged" : "0",
    "Title" : "CamtasiaTemplateWindows",
    "audioNarrationNotes" : "",
    "calloutStyle" : "All",
    "canvasDetached" : "False",
    "canvasPositionHeight" : "0",
    "canvasPositionLeft" : "0",
    "canvasPositionTop" : "0",
    "canvasPositionWidth" : "0",
    "firstMedia" : true
  },
  "audioPlaybackRate" : 44100
,
  "themeFile" : null

}
